<?xml version="1.0" encoding="UTF-8" standalone="no"?>
<!-- Created with Inkscape (http://www.inkscape.org/) -->

<svg
   width="46.82254mm"
   height="90.547615mm"
   viewBox="0 0 46.82254 90.547615"
   version="1.1"
   id="svg56114"
   xmlns:inkscape="http://www.inkscape.org/namespaces/inkscape"
   xmlns:sodipodi="http://sodipodi.sourceforge.net/DTD/sodipodi-0.dtd"
   xmlns="http://www.w3.org/2000/svg"
   xmlns:svg="http://www.w3.org/2000/svg">
  <sodipodi:namedview
     id="namedview56116"
     pagecolor="#505050"
     bordercolor="#eeeeee"
     borderopacity="1"
     inkscape:showpageshadow="0"
     inkscape:pageopacity="0"
     inkscape:pagecheckerboard="0"
     inkscape:deskcolor="#505050"
     inkscape:document-units="mm"
     showgrid="false" />
  <defs
     id="defs56111" />
  <g
     inkscape:label="Layer 1"
     inkscape:groupmode="layer"
     id="layer1"
     transform="translate(-61.746843,-51.843966)">
    <g
       id="g56165">
      <g
         id="g22830"
         transform="matrix(0.35277777,0,0,-0.35277777,95.719869,84.160314)"
         style="display:inline">
        <path
           d="m 0,0 3.717,-12.322 0.727,0.19 c 6.526,1.702 13.659,2.632 21.2,2.765 l 0.767,0.014 V 8.416 H 0 Z m 25.617,-11.616 c -7.267,-0.133 -14.151,-1.032 -20.46,-2.671 l -0.785,-0.205 2.118,-7.02 0.728,0.19 c 5.595,1.469 11.795,2.278 18.428,2.405 l 0.765,0.014 v 7.302 z m -51.712,3.058 8.38,-13.578 0.672,0.449 c 5.437,3.636 11.447,6.502 17.863,8.519 l 0.735,0.231 -3.615,11.983 h -24.035 z m 27.552,-6.787 c -6.234,-1.972 -12.073,-4.766 -17.355,-8.307 l -0.624,-0.418 4.002,-6.485 0.677,0.471 c 4.833,3.363 9.887,5.883 15.451,7.702 l 0.725,0.237 -2.123,7.038 z m -51.311,-17.989 h 19.133 l 0.468,0.465 c 2.406,2.395 5.698,5.675 10.13,9.002 l 0.57,0.428 -8.292,13.439 h -22.009 z m 30.809,7.447 c -3.513,-2.656 -6.245,-5.24 -8.455,-7.419 l -0.81,-0.798 7.402,-3.346 0.379,0.34 c 1.594,1.426 3.51,3.11 5.648,4.778 l 0.55,0.43 -4.03,6.532 z M -49.854,-58.93 h 18.474 v 23.349 h -18.474 z m 20.722,0 h 7.306 v 19.431 l -7.306,3.3 z m -20.722,-25.595 h 18.474 v 23.348 h -18.474 z m 20.722,0 h 7.306 v 23.348 h -7.306 z m -20.722,-25.596 h 18.474 v 23.349 h -18.474 z m 20.722,0 h 7.306 v 23.349 h -7.306 z m -20.722,-25.596 h 18.474 v 23.349 h -18.474 z m 20.722,0 h 7.306 v 23.349 h -7.306 z m -20.722,-27.101 h 18.474 v 24.854 h -18.474 z m 20.722,0 h 7.306 v 24.854 h -7.306 z m -30.613,-2.247 V -0.11 h 23.759 V 8.934 H -9.89 v 9.371 H 35.756 V 16.059 H -7.642 V 6.688 h -26.096 v -9.045 h -23.759 v -160.461 h 5.395 V -7.753 h 23.759 v 9.046 h 26.095 v 9.369 l 30.911,-0.037 0.036,-31.766 -1.944,-0.003 c -26.345,-0.214 -38.676,-11.269 -46.074,-17.9 l -0.259,-0.232 v -125.789 z"
           style="fill:#0e3e3c;fill-opacity:1;fill-rule:nonzero;stroke:none"
           id="path22832" />
      </g>
      <path
         d="m 71.250779,142.27008 h 1.46474 v -30.72059 h -1.46474 z"
         style="display:inline;fill:#0e3e3c;fill-opacity:1;fill-rule:nonzero;stroke:none;stroke-width:0.352778"
         id="path22834" />
      <path
         d="m 81.670079,52.636664 h 7.93573 v 1.64712 h -7.93573 z m 2.0962,2.43981 h 3.28577 v 7.97454 h -3.28577 z m 3.97193,11.29065 h -4.65808 v -2.52377 h 4.65808 z m 0,3.65972 h -4.65808 v -2.86703 h 4.65808 z m 0.79304,-5.52874 h 4.25133 v 5.52874 h -4.25133 z m 7.53463,2.66171 h 11.455401 v 7.50641 H 96.065879 Z m -13.09264,-4.1088 h -0.68616 v 0.6544 h -8.22818 v -2.86667 h 8.91434 z m -0.68616,6.97583 h -6.85094 v -5.52874 h 6.85094 z m 8.11178,-14.95037 v -1.67711 h 18.170521 v -0.79269 H 90.398859 v -0.76271 h -9.52183 v 3.23251 h 2.09621 v 4.96958 h -9.70739 v 4.45205 h 1.37725 v 8.70162 h 0.79304 v -2.38054 h 17.34644 v 3.31646 1.46826 h 15.531741 v -9.23678 H 95.272829 v 8.2991 h -1.69721 v -10.16812 h 14.707311 v -0.79269 H 88.531249 v -0.6544 h -0.68615 v -6.27204 h 20.580351 v -0.79234 H 87.845099 v -0.91016 z"
         style="display:inline;fill:#0e3e3c;fill-opacity:1;fill-rule:nonzero;stroke:none;stroke-width:0.352778"
         id="path22836" />
      <g
         id="g22842"
         transform="matrix(0.35277777,0,0,-0.35277777,68.803459,80.226104)"
         style="display:inline">
        <path
           d="m 0,0 c 0.061,0.003 0.121,0.006 0.182,0.008 0.15,0.386 0.3,0.773 0.467,1.203 H -0.345 C -0.221,0.775 -0.11,0.387 0,0 m 3.46,-42.141 c 0.413,0.099 0.781,0.188 1.268,0.304 -0.328,0.437 -0.581,0.773 -0.821,1.093 -0.252,-0.013 -0.433,-0.012 -0.611,-0.037 -0.056,-0.008 -0.102,-0.085 -0.145,-0.124 0.091,-0.362 0.177,-0.707 0.309,-1.236 M 36.79,13.12 c 0.238,-0.158 0.466,-0.308 0.758,-0.502 0.145,0.533 0.265,0.975 0.391,1.439 -0.276,0.232 -0.514,0.431 -0.789,0.662 -0.361,-0.485 -0.449,-0.957 -0.36,-1.599 M 5.146,-3.121 c -0.132,0.655 -0.527,0.692 -1.01,0.585 -0.339,-0.454 -0.547,-0.942 -0.242,-1.49 0.134,-0.241 0.379,-0.323 0.691,-0.15 0.167,0.315 0.352,0.662 0.561,1.055 m -8.773,-4.552 c 1.231,-0.278 2.218,-0.345 2.809,-0.175 -0.294,0.549 -0.785,0.779 -1.344,0.914 -0.491,-0.243 -1.196,-0.06 -1.465,-0.739 M 6.541,-43.821 c -0.352,0.864 -1.137,0.544 -1.522,0.876 -0.587,-0.193 -1.064,-0.412 -1.259,-0.976 0.468,-0.387 0.85,0.041 1.259,0.054 0.461,0.016 0.922,0.028 1.522,0.046 M 28.167,5.911 C 28.515,5.353 28.593,4.677 29.249,4.328 29.556,5.053 29.845,5.734 30.18,6.524 29.408,6.423 28.765,6.328 28.167,5.911 m 20.8,3.762 C 48.234,9.211 47.586,8.804 46.873,8.355 47.067,8.227 47.214,8.061 47.292,8.089 48.079,8.375 49.009,8.056 49.796,8.671 49.527,8.997 49.282,9.293 48.967,9.673 M 62.972,7.339 c 0.251,-0.213 0.335,-0.344 0.442,-0.366 0.714,-0.148 1.354,0.131 1.97,0.425 0.878,0.418 1.721,0.901 2.684,1.128 0.291,0.069 0.545,0.298 0.95,0.531 C 68.272,9.092 68.272,9.092 67.134,8.492 65.982,8.769 65.265,7.785 64.274,7.423 63.93,7.401 63.548,7.376 62.972,7.339 M -0.525,-2.874 c -0.343,1.226 -0.375,2.452 -1.216,3.528 -0.703,-1.012 -0.402,-1.94 -0.14,-2.879 0.356,-0.283 0.546,-0.811 1.356,-0.649 M 2.984,-28.49 c 0.983,0.123 1.292,0.936 2.048,1.452 -0.348,0.077 -0.52,0.16 -0.681,0.142 -0.839,-0.093 -1.486,0.218 -2.013,0.858 -0.091,0.111 -0.275,0.145 -0.599,0.306 0.23,-1.164 0.786,-1.939 1.245,-2.758 M 45.488,8.454 c 0.915,0.493 1.783,0.94 2.625,1.431 0.177,0.104 0.257,0.373 0.378,0.56 -0.682,0.673 -1.424,0.48 -2.11,0.47 C 44.999,9.7 44.854,9.333 45.488,8.454 M 0.884,-52.227 v 2.852 c -0.291,0.301 -0.592,0.612 -0.794,0.822 -0.537,0.12 -0.909,0.203 -1.422,0.317 0.223,-1.058 -0.377,-2.006 -0.087,-3.063 0.87,0.013 1.631,-0.234 2.303,-0.928 M 1.563,-79.46 c 0.56,0.117 0.937,0.539 1.358,1.033 -0.717,0.639 -1.403,1.25 -2.165,1.928 H 0.467 c -0.121,0.211 -0.245,0.426 -0.292,0.507 -0.546,0.33 -0.963,0.582 -1.378,0.833 -0.362,-0.477 -0.362,-1.008 -0.253,-1.539 0.581,-0.519 1.503,-0.437 1.932,-1.187 -0.054,-0.248 -0.105,-0.48 -0.15,-0.688 0.424,-0.304 0.807,-0.579 1.237,-0.887 m -1.158,54.536 c -1.089,-0.629 -1.88,-1.849 -1.894,-2.925 -0.002,-0.187 0.157,-0.375 0.249,-0.581 1.307,0.021 2.556,-0.037 3.824,-0.992 -0.595,0.875 -0.983,1.565 -1.487,2.156 -0.583,0.685 -0.529,1.531 -0.692,2.342 m -10.207,-1.25 c 0.206,-0.826 0.389,-1.591 0.59,-2.352 0.037,-0.142 0.142,-0.267 0.292,-0.539 0.662,1.15 1.873,1.49 2.683,2.421 -0.551,0.545 -1.03,1.019 -1.455,1.441 -1.409,0.143 -1.574,0.058 -2.11,-0.971 m 40.019,33.68 c 0.444,0.538 0.428,1.091 0.402,1.636 -0.038,0.782 0.142,1.588 -0.155,2.383 -0.317,0.02 -0.564,0.036 -0.91,0.058 -0.223,-0.34 -0.562,-0.668 -0.669,-1.06 -0.319,-1.159 -0.546,-2.344 -0.827,-3.6 0.764,0.206 1.451,0.392 2.159,0.583 M 5.369,-60.702 c -0.54,1.799 -0.578,1.866 -1.749,3.124 -0.107,0.813 -0.193,1.637 -0.999,2.471 0.171,-1.157 -0.282,-1.954 -0.613,-2.78 -0.323,-0.806 -0.713,-1.584 -1.107,-2.449 0.611,0.167 1.084,0.353 1.572,0.413 0.538,0.065 1.09,0.015 1.589,0.015 0.408,-0.248 0.759,-0.461 1.307,-0.794 M 3.974,-5.963 C 3.7,-5.294 3.315,-4.603 2.615,-4.12 1.38,-3.739 1.38,-3.739 0.77,-4.114 0.667,-5.762 0.567,-7.379 0.469,-8.951 c 0.382,-0.402 0.704,-0.742 0.93,-0.98 0.854,-0.261 1.282,0.267 1.757,0.538 0.699,1.049 1.002,2.141 0.818,3.43 M 2.273,2.429 C 2.028,2.289 1.799,2.159 1.592,2.041 1.689,1.671 1.762,1.396 1.812,1.203 1.184,-0.17 0.952,-1.526 0.91,-3.009 1.526,-3.135 2.062,-3.244 2.687,-3.372 2.571,-2.456 3.07,-2.011 3.76,-1.652 h 1.347 c 0.934,-0.463 0.565,-1.188 0.611,-1.79 -0.312,-0.462 -0.792,-0.799 -0.8,-1.405 0.091,-0.082 0.171,-0.154 0.28,-0.252 0.454,0.297 0.695,0.712 0.783,1.235 0.289,1.732 1.326,2.855 2.895,3.539 0.546,0.239 1.066,0.514 1.599,0.941 C 9.701,1.113 8.901,1.19 8.086,1.451 6.91,0.601 5.513,0.766 4.172,0.812 3.842,0.986 3.551,1.139 3.347,1.247 2.969,1.663 2.652,2.011 2.273,2.429 m -3.3,-42.017 c -1.074,-1.202 -1.14,-1.572 -0.604,-2.578 0.322,-0.186 0.56,-0.324 0.824,-0.476 -0.356,-1.099 -0.541,-2.232 -1.964,-2.331 0.842,-2.176 0.853,-1.67 2.97,-2.807 0.253,0.376 0.508,0.757 0.746,1.113 -0.201,0.177 -0.346,0.306 -0.624,0.551 0.528,0.041 0.875,0.068 1.32,0.103 0.265,0.499 0.667,0.979 0.776,1.518 0.205,1.019 0.242,2.073 0.339,3.012 -0.277,0.384 -0.468,0.648 -0.62,0.858 -1.079,0.354 -2.101,0.689 -3.163,1.037 m 0.4,-22.228 c -0.567,-0.83 -1.052,-1.506 -1.499,-2.206 -0.193,-0.302 -0.296,-0.661 -0.462,-0.983 -0.296,-0.575 -0.14,-1.226 -0.302,-1.807 -0.382,-1.373 -0.063,-2.566 0.735,-3.686 0.293,-0.412 0.657,-0.807 0.821,-1.27 0.179,-0.508 0.435,-0.785 0.947,-0.924 0.512,-0.139 0.906,-0.461 1.086,-1.157 -0.034,-0.369 -0.082,-0.88 -0.129,-1.392 0.285,0.428 0.376,0.935 0.632,1.337 0.288,0.452 0.726,0.81 1.124,1.235 0.506,-0.46 0.975,-0.887 1.469,-1.337 0.666,0.613 1.297,1.195 2.007,1.85 -0.628,0.828 -1.629,1.505 -1.614,2.721 -0.537,0.271 -0.995,0.61 -1.504,0.731 -0.653,0.156 -1.119,0.479 -1.44,0.929 -0.29,0.963 0.138,1.775 0.268,2.694 -0.79,0.318 -1.622,-0.008 -2.33,0.213 -0.08,0.108 -0.165,0.171 -0.159,0.223 0.102,0.879 0.215,1.757 0.35,2.829 M 39.414,12.68 c 0.498,-0.248 0.992,-0.505 1.494,-0.743 0.669,-0.317 1.024,-0.894 1.332,-1.526 0.207,-0.422 0.424,-0.844 0.683,-1.236 0.109,-0.165 0.321,-0.307 0.513,-0.357 0.143,-0.037 0.328,0.092 0.554,0.167 0.084,1.148 0.859,1.858 1.736,2.564 h 2.272 c 0.386,-0.257 0.779,-0.52 1.26,-0.841 0.38,0.314 0.786,0.648 1.212,0.999 -0.377,0.659 -0.897,0.975 -1.471,1.237 -0.163,0.232 -0.33,0.47 -0.503,0.717 -0.552,1.323 0.157,3.05 1.591,3.787 0.382,-0.359 0.775,-0.728 1.172,-1.101 0.741,0.188 1.013,0.875 1.659,1.316 0.884,0.324 1.888,0.406 2.957,0.113 0.548,-0.149 1.164,-0.05 1.749,-0.058 0.356,-0.006 0.711,-0.001 1.229,-0.001 -0.494,-0.889 -0.905,-1.629 -1.444,-2.599 -0.128,-1.013 0.397,-2.478 -0.846,-3.43 -0.406,-0.149 -0.741,-0.273 -1.111,-0.409 V 9.765 C 55.038,9.103 54.419,9.029 53.804,8.944 53.172,8.857 52.608,9.15 52.194,9.508 c -0.446,0.386 -0.698,0.996 -1.069,1.562 -0.441,-0.276 -0.923,-0.579 -1.439,-0.902 0.374,-0.821 0.787,-1.531 1.461,-2.083 0.691,0.056 1.372,0.123 2.054,0.163 0.687,0.04 1.363,-0.004 2.059,0.174 0.764,0.195 1.42,0.54 2.07,0.938 0.618,0.379 1.232,0.764 1.867,1.111 0.489,0.122 1.056,-0.199 1.468,0.253 -0.727,1.716 -0.423,2.65 1.333,4.12 0.976,-0.205 1.027,-0.266 1.026,-1.281 0.958,0.139 1.925,0.398 2.881,-0.113 0.306,-0.358 0.417,-0.854 0.628,-1.296 0.55,-1.153 1.259,-2.238 2.715,-2.574 0.676,0.143 1.087,0.718 1.578,1.231 -0.785,0.451 -1.504,-0.323 -2.331,-0.019 -0.613,0.459 -0.825,1.241 -1.14,1.927 0.07,0.116 0.092,0.208 0.147,0.235 0.841,0.414 0.987,1.119 1.001,1.991 0.008,0.497 0.185,1.026 0.464,1.526 0.342,0.613 0.435,1.365 0.65,2.106 0.706,-0.072 1.158,-0.533 1.472,-1.024 0.313,-0.492 0.75,-0.771 1.219,-1.117 0.326,-0.022 0.689,-0.046 1.031,-0.07 0.726,-0.635 0.726,-0.635 0.867,-2.112 0.27,0.06 0.529,0.118 0.945,0.211 0.113,-0.164 0.275,-0.401 0.518,-0.756 -0.018,0.094 0.007,0.024 0.008,-0.047 0.004,-0.33 10e-4,-0.659 10e-4,-0.97 -0.83,-1.599 -1.858,-2.057 -3.697,-1.6 C 71.574,10.148 70.718,9.605 69.915,9.004 69.78,8.902 69.688,8.741 69.509,8.527 c 1.083,-0.089 2.037,-0.201 2.838,0.636 0.316,0.329 0.775,0.528 1.186,0.758 0.139,0.078 0.329,0.066 0.645,0.121 C 73.42,9.363 72.784,8.792 72.046,8.129 71.287,7.715 70.301,7.731 69.394,7.89 68.335,8.077 67.465,7.742 66.663,7.239 65.572,6.555 64.448,6.179 63.144,6.319 62.922,6.158 62.694,5.994 62.467,5.83 61.403,6.16 60.597,6.732 60.133,7.687 59.246,8.143 58.391,8.592 57.401,8.659 56.867,8.319 56.317,7.969 55.989,7.76 54.438,7.377 53.067,7.541 51.686,7.077 c 0.507,-1.007 1.385,-1.353 2.378,-1.68 1.052,1.665 2.702,2.011 4.485,1.983 0.724,-0.374 1.229,-0.849 1.05,-1.679 0.305,-0.463 0.578,-0.877 0.9,-1.364 C 60.113,4.317 59.794,4.301 59.438,4.282 59.266,3.985 59.105,3.707 58.954,3.445 58.975,3.302 58.979,3.193 59.008,3.091 59.205,2.398 59.441,1.714 59.598,1.013 59.732,0.421 59.609,-0.15 59.185,-0.62 58.916,-0.918 58.638,-1.209 58.382,-1.482 58.107,-2.41 58.85,-3.078 58.918,-3.93 c -0.87,-0.331 -1.439,0.179 -1.991,0.739 -0.296,0.018 -0.586,0.036 -0.875,0.055 -0.636,0.426 -1.299,0.827 -1.491,1.577 -0.489,0.521 -1.07,0.358 -1.605,0.375 -0.472,0.014 -0.957,-0.075 -1.407,0.388 -0.064,0.244 -0.179,0.586 -0.236,0.937 -0.058,0.349 -0.058,0.707 -0.083,1.057 -0.9,-0.027 -1.546,-0.83 -2.481,-0.549 -0.452,1.107 -0.433,2.232 0.007,3.497 0.816,0.631 1.721,1.33 2.617,2.023 C 51.044,6.542 50.675,6.96 50.252,7.44 49.232,7.318 48.143,7.629 47.097,7.149 47.275,6.323 47.986,5.747 47.695,4.838 47.397,4.824 47.076,4.778 46.759,4.798 45.449,4.879 44.253,4.43 43.091,3.938 42.613,3.735 42.206,3.297 41.845,2.896 40.859,1.803 39.755,0.897 38.275,0.395 37.613,0.324 36.889,0.317 36.25,0.952 c -0.37,-1.05 0.094,-2.058 -0.48,-2.909 -1.111,-0.093 -2.209,0.266 -3.135,0.746 -1.388,0.72 -2.271,1.87 -3.017,3.165 -0.174,0.302 -0.245,0.678 -0.303,1.029 -0.058,0.351 -0.041,0.714 -0.059,1.124 -2.301,-2.152 -4.563,-2.718 -7.032,-1.773 0.462,-0.681 0.474,-1.353 0.469,-2.038 -0.007,-0.94 0.361,-1.764 0.909,-2.509 0.473,-0.643 0.961,-1.276 1.379,-1.831 0.122,-0.668 0.174,-1.252 0.342,-1.8 0.169,-0.552 0.453,-1.068 0.669,-1.559 0.236,-0.183 0.435,-0.337 0.611,-0.473 -0.079,-0.466 -0.151,-0.89 -0.236,-1.389 -0.844,-0.011 -1.667,-0.226 -2.457,-0.615 -0.275,-0.135 -0.643,-0.1 -0.969,-0.107 -0.695,-0.014 -1.389,-0.004 -2.047,-0.004 -0.352,0.319 -0.649,0.588 -1.017,0.921 -0.272,-0.07 -0.597,-0.107 -0.88,-0.236 -0.999,-0.454 -2.058,-0.75 -3.131,-0.826 -1.183,-0.084 -2.212,0.38 -2.841,1.477 -0.181,0.316 -0.332,0.65 -0.502,0.988 -0.693,0.605 -1.532,0.261 -2.269,0.35 C 9.301,-7.778 8.39,-8.219 7.437,-8.68 6.83,-8.383 6.234,-8.06 5.854,-7.318 5.766,-7.504 5.651,-7.636 5.653,-7.766 c 0.003,-0.251 0.071,-0.501 0.135,-0.885 0.171,-0.179 0.423,-0.441 0.634,-0.66 0.4,0 0.728,-0.089 0.974,0.016 0.83,0.354 1.483,0.085 2.117,-0.541 0.796,0.189 1.595,0.379 2.372,0.564 0.584,-0.446 1.102,-0.841 1.678,-1.281 0.267,0.082 0.605,0.186 1.007,0.309 0.575,-0.237 1.205,-0.497 1.733,-0.715 0.468,-0.611 -0.079,-1.376 0.591,-1.86 0.343,-0.021 0.73,-0.046 1.157,-0.073 -0.302,-0.545 -0.756,-0.276 -1.124,-0.378 -0.204,0.19 -0.39,0.362 -0.588,0.545 0.044,1.146 -0.376,1.936 -1.794,2.047 -0.24,-0.082 -0.648,-0.222 -1.18,-0.405 -0.571,0.337 -1.216,0.718 -1.871,1.104 -0.78,-0.349 -1.58,-0.547 -2.48,-0.379 -0.092,0.097 -0.212,0.224 -0.35,0.371 -1.03,0.038 -2.106,-0.161 -3.13,0.354 -0.622,0.483 -0.725,1.235 -0.814,1.973 -0.4,0.07 -0.379,-0.283 -0.413,-0.401 -0.353,-1.217 -0.98,-2.163 -2.37,-2.467 0.164,-0.307 0.28,-0.523 0.416,-0.776 0.191,0 0.381,-0.042 0.543,0.008 0.688,0.212 1.366,0.458 2.051,0.68 1.003,0.325 2.006,0.281 2.995,-0.053 0.609,-0.206 1.13,-0.596 1.759,-0.796 0.648,-0.206 0.848,-0.53 1.306,-1.285 -0.151,-0.897 -1.01,-1.282 -1.497,-1.983 v -0.874 c 1.012,-0.593 2.014,-1.18 3.123,-1.83 0.148,-0.224 0.366,-0.555 0.591,-0.896 v -1.481 c 0.521,-1.591 0.958,-2.926 1.404,-4.288 0.572,-0.247 1.123,-0.485 1.845,-0.797 -0.387,-0.196 -0.628,-0.422 -0.862,-0.415 -0.639,0.017 -1.261,-0.359 -1.913,-0.067 -0.154,0.068 -0.365,0.034 -0.545,0.01 -1.325,-0.172 -2.652,-0.342 -3.944,-0.698 -0.125,-0.034 -0.219,-0.179 -0.35,-0.292 0.136,-0.069 0.227,-0.144 0.329,-0.163 0.911,-0.175 1.407,-0.809 1.812,-1.573 0.149,-0.284 0.377,-0.527 0.578,-0.782 0.245,-0.311 0.499,-0.615 0.805,-0.99 -0.647,-0.691 -1.571,-0.997 -2.048,-1.943 0.092,-0.994 0.599,-2.736 0.055,-3.599 -0.584,-0.927 -0.796,-1.845 -1.075,-2.92 1.169,0.103 2.374,-0.333 3.207,-1.16 0.833,-0.826 1.278,-2.029 1.184,-3.198 -0.131,-1.624 -1.224,-3.061 -1.3,-4.688 -0.078,-1.657 1.049,-3.298 2.623,-3.821 -0.884,-0.864 -2.119,-1.357 -3.355,-1.34 -0.645,0.008 -1.302,0.148 -1.927,-0.014 -0.673,-0.174 -1.208,-0.674 -1.683,-1.181 -0.476,-0.507 -0.939,-1.052 -1.558,-1.369 -0.693,-0.354 -1.206,-0.223 -1.827,0.106 -0.473,0.252 -1.059,0.246 -1.619,0.432 0.098,-0.276 0.115,-0.416 0.189,-0.515 0.395,-0.533 0.691,-1.085 0.751,-1.778 0.028,-0.334 0.254,-0.679 0.464,-0.963 0.792,-1.069 1.143,-1.754 1.403,-2.889 0.065,-0.029 0.129,-0.077 0.196,-0.083 0.107,-0.01 0.216,0.007 0.342,0.014 0.24,0.254 0.457,0.551 0.738,0.762 0.288,0.216 0.639,0.348 1.091,0.584 0.599,-0.09 1.328,-0.136 2.02,-0.321 0.656,-0.176 1.115,-0.692 1.43,-1.278 0.357,-0.666 0.641,-1.372 0.941,-2.027 -0.317,-0.72 -0.927,-0.749 -1.484,-0.855 -0.352,-0.585 0.15,-0.965 0.277,-1.355 0.054,-0.571 0.102,-1.075 0.163,-1.713 -0.304,-0.245 -0.752,-0.514 -1.075,-0.891 -0.321,-0.374 -0.637,-0.831 -0.736,-1.298 -0.13,-0.613 -0.409,-1.074 -0.82,-1.506 -0.408,-0.428 -0.67,-0.938 -0.806,-1.581 0.223,-0.136 0.432,-0.264 0.66,-0.404 0.77,0.195 1.548,0.333 2.407,0.09 -0.428,-0.917 -0.724,-1.798 -1.479,-2.384 0,-0.629 -0.014,-1.215 0.005,-1.8 0.016,-0.489 -0.05,-0.956 -0.341,-1.353 -0.282,-0.386 -0.604,-0.724 -1.149,-0.747 -0.157,-0.007 -0.307,-0.18 -0.494,-0.298 v -1.544 c -1.11,-0.859 -2.181,-0.638 -3.368,0.076 -0.206,0.366 -0.469,0.834 -0.76,1.35 -0.562,-0.049 -0.933,-0.52 -1.483,-0.829 0.617,-1.025 1.14,-2.041 1.8,-2.998 0.559,-0.811 1.322,-1.218 2.144,-1.606 0.122,-0.058 0.281,-0.038 0.462,-0.058 0.899,1.265 2.14,1.899 3.678,1.888 0.836,-0.991 1.69,-2.003 2.605,-3.088 -0.409,-0.051 -0.754,-0.094 -1.139,-0.142 -0.126,-0.315 -0.245,-0.613 -0.331,-0.828 0.266,-0.968 0.514,-1.866 0.769,-2.795 -0.276,-0.757 -0.744,-1.39 -1.33,-1.936 -0.565,-0.016 -1.142,-0.129 -1.675,-0.022 -0.625,0.125 -1.182,-0.389 -1.796,-0.106 -0.29,0.147 -0.581,0.293 -0.929,0.469 -0.565,0 -1.188,-0.018 -1.808,0.013 -0.162,0.007 -0.317,0.168 -0.556,0.304 -0.127,0.625 -0.268,1.313 -0.425,2.079 -0.585,-0.221 -1.082,-0.408 -1.611,-0.608 -0.328,0.54 -0.672,1.106 -0.977,1.608 0.148,0.665 0.289,1.294 0.469,2.098 0.649,0.498 1.44,1.107 2.224,1.71 -0.222,0.386 -0.481,0.836 -0.739,1.285 0.024,0.017 0.048,0.033 0.072,0.05 -0.243,0.222 -0.485,0.445 -0.686,0.628 -0.147,0.477 -0.274,0.89 -0.425,1.379 -0.266,0.254 -0.595,0.545 -0.897,0.862 -0.618,0.648 -1.305,0.91 -2.152,0.456 -0.061,-0.032 -0.147,-0.015 -0.215,-0.039 -0.068,-0.024 -0.127,-0.069 -0.26,-0.144 -0.568,-0.976 -1.388,-1.746 -2.686,-2.057 -0.171,0.601 -0.324,1.141 -0.473,1.669 -0.438,-0.036 -0.824,-0.068 -1.133,-0.094 -0.627,0.385 -1.184,0.728 -1.802,1.107 h -0.938 c -0.786,0.4 -1.397,0.71 -2.027,1.029 0.434,0.299 0.95,0.57 1.354,0.959 0.415,0.399 0.72,0.913 1.096,1.407 0.126,0.466 0.266,0.982 0.377,1.392 1.091,0.695 2.125,0.419 3.207,0.334 0.023,0.301 0.047,0.619 0.066,0.871 0.337,0.46 0.734,0.411 1.223,0.315 0.41,-0.509 0.858,-1.066 1.327,-1.649 0.489,0.479 0.352,1.104 0.166,1.67 -0.226,0.686 -0.549,1.343 -0.869,1.993 -0.191,0.388 -0.456,0.739 -0.704,1.133 -0.741,-0.142 -0.41,-0.804 -0.561,-1.231 -0.552,0.474 -0.826,1.248 -0.815,2.276 0.009,0.819 0.009,0.819 1.186,2.024 0.316,1.066 0.545,2.096 0.934,3.06 0.267,0.661 0.745,1.239 1.152,1.838 0.367,0.54 0.75,1.071 1.155,1.583 0.379,0.48 0.781,0.944 1.201,1.389 1.018,1.078 1.425,2.68 1.021,4.105 -0.072,0.256 -0.136,0.513 -0.231,0.875 -0.431,-0.37 -0.242,-0.773 -0.393,-1.219 -0.143,-0.093 -0.369,-0.264 -0.617,-0.392 -0.223,-0.116 -0.47,-0.184 -0.625,-0.243 -0.327,-0.58 -0.61,-1.083 -0.972,-1.725 -0.465,-0.136 -1.037,-0.391 -1.631,-0.455 -0.83,-0.089 -1.51,-0.521 -2.208,-0.869 -0.417,-0.207 -0.706,-0.718 -0.987,-1.135 -0.283,-0.42 -0.529,-0.853 -0.968,-1.107 -0.104,0.083 -0.21,0.145 -0.202,0.164 0.256,0.679 0.172,1.397 0.163,2.086 -0.009,0.75 -0.178,1.504 -0.683,2.125 -0.274,0.338 -0.561,0.672 -0.782,1.043 -0.268,0.449 -0.436,0.922 0.013,1.4 0.136,0.145 0.163,0.393 0.241,0.595 0.474,0.389 0.951,0.781 1.369,1.124 0.259,0.683 -0.005,1.074 -0.508,1.35 -0.431,0.237 -0.874,0.451 -1.363,0.702 0.017,0.566 0.548,0.842 0.913,1.219 0.342,0.352 0.815,0.474 1.282,0.498 0.8,0.041 1.579,0.055 2.27,-0.545 0.452,-0.393 1.061,-0.606 1.645,-0.925 0.478,0.583 0.114,1.307 0.241,1.942 -0.713,1.07 -1.627,1.885 -2.667,2.51 -0.171,0.33 -0.321,0.62 -0.5,0.967 -0.857,-0.311 -1.688,-0.206 -2.479,0.226 -0.578,0.316 -1.146,0.644 -1.359,1.366 v 1.137 c 0.18,0.209 0.391,0.455 0.602,0.701 0.277,-0.043 0.542,-0.083 0.829,-0.127 0.208,0.726 0.133,1.526 0.876,1.965 0.32,0.021 0.648,0.042 0.98,0.065 0.55,0.286 0.999,0.665 1.357,1.2 0.297,0.445 0.716,0.828 1.324,0.945 0.598,-0.665 0.407,-1.664 0.935,-2.363 0.448,0.22 0.448,0.22 0.768,0.666 -0.164,0.978 -0.61,1.929 -0.301,3.014 -0.544,0.576 -1.289,0.14 -2.061,0.313 -1.295,0.973 -0.809,2.491 -0.932,3.808 0.707,1.651 1.157,2.19 2.263,2.772 v 2.297 c -0.366,0.523 -0.444,1.194 -1.001,1.537 -0.669,-0.682 -1.333,-1.345 -1.977,-2.026 -0.17,-0.18 -0.322,-0.4 -0.412,-0.63 -0.442,-1.121 -1.367,-1.762 -2.315,-2.389 -0.391,-0.259 -0.767,-0.54 -1.097,-0.773 -0.251,-0.891 -0.476,-1.69 -0.714,-2.534 0.079,-0.15 0.18,-0.341 0.277,-0.525 1.662,0.315 3.194,-1.048 3.638,-2.712 -0.203,-0.343 -0.461,-0.556 -0.912,-0.65 -0.543,-0.113 -1.182,-0.165 -1.497,-0.859 -0.014,-0.261 -0.033,-0.589 -0.058,-1.044 -0.419,-0.203 -0.888,-0.454 -1.376,-0.661 -0.533,-0.226 -1.08,-0.421 -1.627,-0.614 -0.662,-0.233 -1.067,-0.78 -1.461,-1.29 -0.364,-0.472 -0.751,-0.631 -1.405,-0.513 0.091,1.156 0.182,2.296 0.27,3.417 -0.694,0.803 -1.311,1.578 -1.111,2.69 0.216,0.351 0.442,0.718 0.709,1.152 -0.204,0.344 -0.399,0.683 -0.603,1.017 -0.206,0.336 -0.421,0.667 -0.669,1.058 1.629,1.314 3.271,1.214 4.94,0.257 0.378,0.448 0.378,0.448 0.308,1.13 -0.2,-0.12 -0.362,-0.234 -0.539,-0.317 -0.153,-0.072 -0.323,-0.11 -0.479,-0.161 -0.386,0.394 0.025,1.021 -0.538,1.329 -0.053,-0.008 -0.174,0.009 -0.253,-0.04 -1.346,-0.846 -2.8,-0.872 -4.298,-0.583 -0.777,0.15 -1.556,0.295 -2.334,0.446 -0.176,0.034 -0.354,0.069 -0.522,0.127 -0.127,0.044 -0.241,0.126 -0.42,0.224 0.786,1.573 1.552,3.093 2.305,4.62 0.354,0.718 0.907,1.218 1.615,1.564 0.388,0.19 0.777,0.38 1.209,0.592 -0.221,0.6 -0.429,1.165 -0.646,1.753 0.605,0.75 1.459,0.565 2.223,0.468 0.52,-0.066 1.017,-0.375 1.501,-0.622 0.217,-0.111 0.404,-0.314 0.558,-0.512 0.332,-0.428 0.652,-0.868 0.941,-1.326 0.169,-0.267 0.269,-0.577 0.428,-0.931 0.567,0.176 1.105,0.344 1.743,0.542 0.362,-0.229 0.817,-0.462 1.206,-0.778 0.394,-0.319 0.723,-0.72 1.077,-1.082 0.963,0.717 1.529,1.37 1.939,2.251 -0.958,2.266 -0.098,4.112 1.517,5.747 -0.566,1.002 -1.042,1.332 -1.897,1.383 -0.631,-0.376 -1.177,-0.735 -1.754,-1.038 -0.618,-0.325 -1.28,-0.503 -1.996,-0.449 -0.698,0.053 -1.361,-0.09 -2.024,-0.333 -0.982,-0.36 -1.972,-0.76 -2.993,-0.932 -1.409,-0.239 -2.83,-0.099 -4.141,0.561 -0.407,0.205 -0.776,0.486 -1.27,0.8 1.617,0.779 2.418,2.206 3.264,3.474 0.095,0.507 0.181,0.932 0.251,1.359 0.029,0.178 0.055,0.367 0.028,0.543 -0.118,0.782 -0.297,1.557 -0.379,2.342 -0.178,1.709 -0.07,3.343 1.412,4.553 0.215,0.176 0.344,0.456 0.493,0.662 -0.175,1.031 -0.681,1.785 -1.506,2.356 -0.216,0.15 -0.327,0.449 -0.459,0.64 0.055,0.114 0.063,0.155 0.088,0.179 0.658,0.629 2.616,1.57 3.426,1.807 0.902,0.263 1.809,0.254 2.71,0.202 1.677,-0.098 3.131,-0.756 4.11,-2.156 0.464,-0.662 0.843,-1.402 0.907,-2.284 0.049,-0.691 0.125,-1.374 -0.113,-2.229 1.142,0.706 2.092,1.397 3.296,0.589 0.215,0.659 0.716,1.24 0.458,2.135 -0.608,0.392 -1.298,0.837 -1.959,1.263 -0.209,0.397 -0.396,0.751 -0.549,1.04 -0.162,1.115 0.068,2.086 0.717,3.056 -1.847,0.396 -3.426,1.125 -4.411,2.648 -0.793,1.226 -1.252,2.618 -1.149,4.211 0.662,0.782 1.568,0.743 2.537,0.599 0.246,0.626 -0.02,1.149 -0.409,1.584 -0.408,0.458 -0.899,0.843 -1.362,1.25 -0.272,0.239 -0.56,0.461 -0.911,0.748 -0.14,0.25 -0.33,0.588 -0.522,0.93 -1.189,-0.424 -2.14,0.024 -3.043,0.585 -0.488,0.302 -0.75,0.786 -0.73,1.389 0.008,0.256 10e-4,0.512 10e-4,0.746 0.185,0.258 0.354,0.494 0.519,0.722 0.295,-0.043 0.598,-0.088 0.894,-0.131 0.159,0.661 0.3,1.249 0.451,1.881 0.338,0.049 0.618,0.095 0.9,0.129 0.636,0.076 1.145,0.33 1.554,0.861 0.437,0.567 0.891,1.161 1.674,1.309 0.338,-0.859 0.727,-1.678 0.979,-2.536 0.251,-0.857 0.157,-1.798 0.5,-2.584 0.325,-0.156 0.576,-0.278 0.783,-0.377 0.164,-0.698 -0.584,-1.808 -1.501,-2.308 -0.322,0.075 -0.668,0.167 -1.019,0.235 -0.315,0.06 -0.635,0.095 -1.116,0.164 0.213,-0.249 0.326,-0.381 0.439,-0.513 0.142,-0.166 0.269,-0.349 0.43,-0.492 0.162,-0.144 0.372,-0.231 0.538,-0.369 0.825,-0.69 1.507,-1.482 1.846,-2.588 0.09,0.299 0.245,0.595 0.258,0.897 0.061,1.397 0.808,2.19 2.104,2.585 0.476,0.146 0.99,0.246 1.367,0.629 0.224,0.228 0.588,0.405 0.666,0.67 0.16,0.539 0.565,0.84 0.903,1.212 0.623,0.683 1.341,1.233 2.215,1.516 0.387,0.91 1.342,1.085 2.023,1.783 C 5.264,18.46 5.376,18.31 5.412,18.143 5.462,17.91 5.401,17.642 5.485,17.427 5.763,16.717 6.023,15.987 6.406,15.333 6.82,14.627 6.919,13.907 6.857,13.126 6.835,12.835 6.854,12.542 6.854,12.254 7.109,11.891 7.354,11.532 7.611,11.181 8.296,10.244 8.388,9.227 7.914,8.197 7.683,7.695 7.738,7.287 8.001,6.862 8.193,6.551 8.406,6.254 8.661,5.876 9.245,5.704 9.897,5.511 10.628,5.296 10.188,4.178 9.763,3.095 9.311,1.946 c 0.846,0.099 1.637,-0.448 2.578,-0.238 0.143,1.204 -0.182,2.447 0.501,3.537 -0.258,0.276 -0.458,0.543 -0.708,0.751 -1.323,1.101 -1.903,2.62 -2.364,4.197 -0.248,0.846 -0.261,1.675 0.081,2.548 0.444,1.131 0.502,2.409 1.29,3.415 0.356,0.455 0.713,0.909 1.047,1.336 h 1.15 c 0.597,-0.495 1.229,-1.018 1.909,-1.581 0.424,0.417 0.815,0.792 1.196,1.176 1.437,1.453 3.141,1.867 5.099,1.332 0.17,-0.046 0.363,-0.006 0.59,-0.006 0.161,0.15 0.385,0.297 0.527,0.501 0.799,1.143 2.007,1.654 3.258,2.035 0.856,0.261 1.767,0.347 2.657,0.49 0.122,0.019 0.263,-0.081 0.477,-0.153 -0.284,-0.816 -0.533,-1.599 -0.835,-2.36 -0.113,-0.286 -0.354,-0.522 -0.532,-0.784 -0.417,-0.615 -0.72,-1.22 -0.464,-2.03 0.204,-0.646 0.254,-1.349 0.312,-2.032 0.054,-0.639 0.414,-1.215 0.339,-1.882 -0.022,-0.189 0.112,-0.398 0.186,-0.594 0.153,-0.402 0.314,-0.802 0.487,-1.242 0.566,0.763 0.653,1.856 1.525,2.493 h 0.65 c 0.201,-0.178 0.418,-0.372 0.69,-0.615 0.625,1.525 1.868,2.504 3.008,3.662 -0.327,0.16 -0.608,0.297 -0.992,0.484 0.275,0.174 0.497,0.323 0.728,0.456 0.221,0.127 0.45,0.238 0.661,0.349 0.513,0.851 1.167,1.576 1.374,2.587 0.108,0.524 0.679,0.766 1.205,0.796 0.718,0.041 1.441,-0.009 2.213,-0.021 -0.034,0.115 -0.09,0.307 -0.196,0.671 0.225,0.155 0.523,0.361 0.918,0.634 0.745,-0.308 1.232,-1.013 1.64,-1.772 0.446,-0.827 0.377,-1.666 -0.235,-2.566 1.165,0.086 2.028,-0.343 2.875,-0.904 -0.064,-0.239 -0.127,-0.475 -0.208,-0.778 -0.596,-0.369 -1.235,-0.764 -2.028,-1.255 -0.083,-0.146 -0.261,-0.463 -0.462,-0.817 -0.639,-0.404 -1.232,-0.966 -2.059,-1.102 -0.07,0.305 -0.168,0.607 -0.201,0.916 -0.04,0.375 -0.176,0.658 -0.569,0.894 -0.168,-0.632 -0.545,-1.155 -0.209,-1.794 z"
           style="fill:#0e3e3c;fill-opacity:1;fill-rule:nonzero;stroke:none"
           id="path22844" />
      </g>
    </g>
  </g>
</svg>
