<svg width="44" height="44" viewBox="0 0 44 44" fill="none" xmlns="http://www.w3.org/2000/svg">
<path d="M12.9149 28.7426C12.9149 27.9828 13.5302 27.3676 14.2899 27.3676H24.0781C24.8378 27.3676 25.4531 27.9828 25.4531 28.7426C25.4531 29.5023 24.8378 30.1176 24.0781 30.1176H14.2899C13.5302 30.1176 12.9149 29.5023 12.9149 28.7426Z" fill="#FDFDFC"/>
<path d="M14.2899 22.1597C13.5302 22.1597 12.9149 22.775 12.9149 23.5347C12.9149 24.2944 13.5302 24.9097 14.2899 24.9097H19.7881C20.5478 24.9097 21.1631 24.2944 21.1631 23.5347C21.1631 22.775 20.5478 22.1597 19.7881 22.1597H14.2899Z" fill="#FDFDFC"/>
<path fill-rule="evenodd" clip-rule="evenodd" d="M15.5839 6.875C16.3436 6.875 16.9589 7.4903 16.9589 8.25V8.71407C17.643 8.70891 18.3734 8.70891 19.1486 8.70891H24.8515C25.6266 8.70891 26.3571 8.70891 27.0412 8.71407V8.25C27.0412 7.4903 27.6582 6.875 28.4162 6.875C29.1759 6.875 29.7912 7.4903 29.7912 8.25V8.80515C30.2071 8.83437 30.599 8.87218 30.9685 8.92202C32.6185 9.14374 34.0072 9.6181 35.1107 10.7215C36.2159 11.825 36.6902 13.2155 36.912 14.8655C37.1251 16.4553 37.1251 18.4748 37.1251 20.9823V26.6491C37.1251 28.306 37.1251 29.6432 37.0272 30.7225C36.9257 31.8328 36.7126 32.8057 36.2039 33.6874C35.6006 34.7324 34.7326 35.6004 33.6876 36.2037C32.8059 36.7124 31.8348 36.9255 30.7227 37.0269C29.6434 37.1249 28.3062 37.1249 26.6493 37.1249H19.1486C16.6427 37.1249 14.6215 37.1249 13.0318 36.9118C11.3818 36.6901 9.99303 36.2157 8.88955 35.1105C7.78612 34.0071 7.31004 32.6183 7.08828 30.9683C6.87515 29.3784 6.87515 27.3572 6.87515 24.8514V20.9825C6.87515 18.4749 6.87515 16.4553 7.08828 14.8656C7.31 13.2156 7.78608 11.8251 8.88955 10.7217C9.99298 9.61827 11.3818 9.1439 13.0318 8.92219C13.4013 8.87235 13.7932 8.83453 14.2091 8.80532V8.25017C14.2091 7.49046 14.8242 6.875 15.5839 6.875ZM27.0411 11.466V11.9163C27.0411 12.676 27.6581 13.2913 28.4161 13.2913C29.1758 13.2913 29.7911 12.676 29.7911 11.9163V11.5622C30.0781 11.5863 30.3479 11.6138 30.6024 11.6481C31.9464 11.8286 32.6597 12.1586 33.1667 12.6673C33.6737 13.1744 34.0054 13.8859 34.1859 15.2317C34.2203 15.4861 34.2478 15.7559 34.2719 16.0412H9.72999C9.75233 15.7559 9.77983 15.4861 9.81421 15.2317C9.99468 13.8859 10.3264 13.1744 10.8334 12.6673C11.3404 12.1586 12.0537 11.8286 13.3978 11.6481C13.6522 11.6138 13.922 11.5863 14.2091 11.5622V11.9163C14.2091 12.676 14.8244 13.2913 15.5841 13.2913C16.3438 13.2913 16.9591 12.676 16.9591 11.9163V11.466C17.6483 11.4591 18.408 11.4591 19.2501 11.4591H24.7501C25.5923 11.4591 26.3519 11.4591 27.0411 11.466ZM9.63204 18.7911C9.62517 19.482 9.62517 20.2417 9.62517 21.0839V24.75C9.62517 27.3814 9.6286 29.2168 9.81423 30.6024C9.9947 31.9465 10.3264 32.6597 10.8334 33.1668C11.3405 33.6738 12.0537 34.0055 13.3978 34.186C14.7831 34.3716 16.6187 34.375 19.2503 34.375H26.5842C28.3218 34.375 29.5352 34.3733 30.4737 34.2891C31.395 34.2049 31.9192 34.0502 32.3127 33.8233C32.9401 33.4607 33.4609 32.9399 33.8235 32.3125C34.0504 31.9189 34.2051 31.3947 34.2893 30.4735C34.3735 29.535 34.3753 28.3216 34.3753 26.584V21.084C34.3753 20.2418 34.3753 19.4821 34.3684 18.7912L9.63204 18.7911Z" fill="#FDFDFC"/>
</svg>
