<?xml version="1.0" encoding="UTF-8" standalone="no"?><!-- Generator: Gravit.io --><svg xmlns="http://www.w3.org/2000/svg" xmlns:xlink="http://www.w3.org/1999/xlink" style="isolation:isolate" viewBox="0 0 89.577 45.7" width="89.577pt" height="45.7pt"><g><g><clipPath id="_clipPath_Z3VCqvLv7Vxt46UyyWAk6374mxybOa5H"><path d=" M -608.88 -10.835 L 693.725 -10.835 L 693.725 4790.737 L -608.88 4790.737 L -608.88 -10.835 Z " fill="rgb(255,255,255)"/></clipPath><g clip-path="url(#_clipPath_Z3VCqvLv7Vxt46UyyWAk6374mxybOa5H)"><g><g><g><path d=" M 42.697 24.082 C 31.963 24.082 22.825 31.054 19.577 40.709 L 22.02 40.709 C 25.168 32.346 33.248 26.382 42.697 26.382 C 52.147 26.382 60.227 32.346 63.376 40.709 L 65.817 40.709 C 62.569 31.054 53.432 24.082 42.697 24.082 Z " fill="rgb(130,211,110)"/></g><g><path d=" M 78.553 35.195 C 77.85 35.131 77.126 35.071 76.385 35.054 C 75.286 35.027 74.303 35.114 73.378 35.318 C 72.871 35.43 72.35 35.589 71.782 35.803 C 71.513 35.905 71.269 36.015 71.053 36.114 C 70.767 36.245 70.498 36.367 70.329 36.39 C 69.523 36.498 68.531 36.005 68.247 35.354 C 68.183 35.209 68.158 35.061 68.17 34.901 C 68.251 33.759 69.166 32.541 70.399 32.546 C 73.075 32.555 75.275 33.617 77.605 34.741 C 77.917 34.891 78.231 35.043 78.553 35.195 Z  M 66.163 34.757 C 66.127 35.263 66.218 35.735 66.405 36.161 C 67.067 37.678 68.942 38.606 70.597 38.385 C 71.283 38.293 71.855 37.925 72.491 37.686 C 72.923 37.523 73.361 37.383 73.813 37.283 C 74.641 37.099 75.49 37.045 76.337 37.065 C 78.098 37.109 79.842 37.415 81.607 37.397 C 84.01 37.371 86.327 36.753 88.495 35.734 C 88.806 35.587 89.114 35.433 89.419 35.273 C 89.555 35.201 89.602 35.05 89.565 34.963 C 89.543 34.915 89.495 34.887 89.421 34.906 C 81.353 36.855 77.614 30.559 70.407 30.533 C 68.103 30.525 66.321 32.542 66.163 34.757 Z " fill="rgb(130,211,110)"/></g><g><path d=" M 62.197 23.156 C 64.673 22.142 67.112 22.28 69.693 22.427 C 70.04 22.447 70.389 22.467 70.744 22.484 C 70.069 22.695 69.379 22.916 68.687 23.183 C 67.663 23.579 66.787 24.035 66.009 24.579 C 65.585 24.875 65.164 25.222 64.721 25.636 C 64.511 25.834 64.328 26.03 64.167 26.203 C 63.953 26.434 63.751 26.65 63.603 26.736 C 62.901 27.143 61.796 27.067 61.284 26.575 C 61.169 26.466 61.089 26.338 61.039 26.184 C 60.677 25.1 61.056 23.624 62.197 23.156 Z  M 59.129 26.822 C 59.291 27.302 59.555 27.704 59.889 28.026 C 61.084 29.174 63.169 29.314 64.613 28.476 C 65.213 28.127 65.601 27.57 66.097 27.104 C 66.433 26.788 66.784 26.492 67.163 26.227 C 67.859 25.74 68.621 25.366 69.412 25.06 C 71.056 24.426 72.785 24.043 74.409 23.35 C 76.617 22.406 78.523 20.948 80.135 19.176 C 80.367 18.922 80.592 18.663 80.813 18.398 C 80.912 18.279 80.897 18.122 80.829 18.056 C 80.791 18.019 80.735 18.012 80.673 18.059 C 73.967 22.946 68.103 18.56 61.433 21.295 C 59.303 22.168 58.428 24.714 59.129 26.822 Z " fill="rgb(130,211,110)"/></g><g><path d=" M 51.027 17.621 C 52.925 15.735 55.232 14.93 57.673 14.079 C 58 13.965 58.332 13.849 58.665 13.73 C 58.123 14.181 57.569 14.65 57.032 15.162 C 56.237 15.919 55.603 16.677 55.093 17.475 C 54.815 17.913 54.557 18.394 54.307 18.947 C 54.188 19.209 54.095 19.461 54.012 19.682 C 53.903 19.977 53.799 20.254 53.695 20.39 C 53.203 21.035 52.152 21.387 51.491 21.129 C 51.344 21.071 51.22 20.983 51.115 20.862 C 50.365 19.998 50.152 18.49 51.027 17.621 Z  M 49.595 22.181 C 49.927 22.563 50.325 22.833 50.759 23.003 C 52.3 23.606 54.281 22.938 55.295 21.61 C 55.716 21.059 55.86 20.395 56.14 19.777 C 56.331 19.355 56.541 18.947 56.789 18.558 C 57.245 17.842 57.807 17.203 58.42 16.619 C 59.697 15.403 61.148 14.387 62.383 13.126 C 64.063 11.409 65.264 9.333 66.076 7.079 C 66.193 6.757 66.301 6.43 66.404 6.101 C 66.449 5.954 66.376 5.813 66.288 5.779 C 66.239 5.759 66.185 5.774 66.145 5.841 C 61.82 12.923 54.723 11.115 49.609 16.193 C 47.975 17.815 48.14 20.502 49.595 22.181 Z " fill="rgb(130,211,110)"/></g><g><path d=" M 38.588 16.781 C 39.621 14.312 41.444 12.687 43.373 10.965 C 43.632 10.735 43.893 10.501 44.156 10.263 C 43.828 10.888 43.496 11.533 43.196 12.211 C 42.751 13.216 42.455 14.157 42.289 15.091 C 42.199 15.601 42.145 16.144 42.127 16.751 C 42.117 17.039 42.127 17.307 42.135 17.543 C 42.147 17.857 42.156 18.153 42.113 18.319 C 41.905 19.103 41.069 19.831 40.36 19.844 C 40.201 19.848 40.053 19.813 39.911 19.741 C 38.888 19.231 38.112 17.919 38.588 16.781 Z  M 39.011 21.541 C 39.464 21.768 39.935 21.865 40.4 21.856 C 42.055 21.823 43.629 20.448 44.057 18.835 C 44.236 18.164 44.116 17.495 44.137 16.816 C 44.152 16.355 44.191 15.896 44.271 15.441 C 44.419 14.605 44.692 13.8 45.036 13.025 C 45.749 11.415 46.701 9.921 47.359 8.283 C 48.255 6.053 48.571 3.676 48.457 1.283 C 48.441 0.94 48.417 0.596 48.387 0.253 C 48.372 0.1 48.251 -0.001 48.156 0 C 48.103 0.001 48.059 0.036 48.048 0.112 C 46.761 8.311 39.513 9.356 36.732 16.004 C 35.843 18.129 37.024 20.548 39.011 21.541 Z " fill="rgb(130,211,110)"/></g><g><path d=" M 9.391 34.133 C 10.148 34.929 10.906 35.563 11.704 36.073 C 12.142 36.351 12.623 36.607 13.176 36.858 C 13.438 36.977 13.69 37.07 13.911 37.153 C 14.206 37.263 14.483 37.367 14.619 37.47 C 15.264 37.963 15.616 39.013 15.358 39.674 C 15.3 39.822 15.212 39.945 15.091 40.05 C 14.227 40.799 12.719 41.014 11.85 40.138 C 9.964 38.239 9.16 35.934 8.308 33.493 C 8.194 33.165 8.078 32.834 7.959 32.499 C 8.411 33.042 8.879 33.595 9.391 34.133 Z  M 0.07 25.019 C 6.768 29.111 5.515 35.682 9.656 40.709 L 17.094 40.709 C 17.146 40.61 17.191 40.51 17.232 40.407 C 17.835 38.865 17.167 36.883 15.839 35.87 C 15.288 35.45 14.624 35.305 14.006 35.025 C 13.584 34.834 13.176 34.625 12.787 34.375 C 12.071 33.919 11.432 33.358 10.848 32.745 C 9.632 31.469 8.616 30.018 7.355 28.783 C 5.638 27.103 3.562 25.901 1.308 25.09 C 0.986 24.973 0.659 24.863 0.33 24.761 C 0.183 24.715 0.042 24.79 0.008 24.877 C -0.012 24.926 0.003 24.981 0.07 25.019 Z " fill="rgb(130,211,110)"/></g><g><path d=" M 16.657 21.471 C 16.677 21.126 16.697 20.775 16.714 20.421 C 16.923 21.095 17.145 21.786 17.413 22.478 C 17.807 23.503 18.265 24.379 18.807 25.155 C 19.105 25.579 19.451 26.001 19.866 26.445 C 20.063 26.654 20.259 26.837 20.433 26.998 C 20.662 27.213 20.879 27.415 20.965 27.562 C 21.373 28.263 21.297 29.37 20.805 29.881 C 20.694 29.995 20.567 30.075 20.414 30.126 C 19.329 30.487 17.854 30.109 17.386 28.967 C 16.37 26.491 16.51 24.054 16.657 21.471 Z  M 15.523 29.731 C 16.398 31.862 18.943 32.738 21.05 32.035 C 21.531 31.875 21.933 31.61 22.255 31.275 C 23.402 30.082 23.543 27.995 22.705 26.551 C 22.357 25.951 21.798 25.563 21.334 25.069 C 21.018 24.731 20.722 24.381 20.457 24.002 C 19.97 23.307 19.594 22.543 19.29 21.753 C 18.654 20.109 18.271 18.381 17.578 16.757 C 16.635 14.547 15.178 12.642 13.406 11.03 C 13.151 10.798 12.891 10.573 12.627 10.353 C 12.509 10.254 12.35 10.269 12.286 10.337 C 12.249 10.374 12.242 10.43 12.287 10.491 C 17.175 17.198 12.79 23.063 15.523 29.731 Z " fill="rgb(130,211,110)"/></g><g><path d=" M 28.97 13.561 C 29.121 13.249 29.273 12.933 29.425 12.613 C 29.361 13.316 29.301 14.038 29.283 14.78 C 29.257 15.878 29.343 16.862 29.547 17.788 C 29.659 18.293 29.818 18.816 30.033 19.384 C 30.134 19.653 30.245 19.897 30.343 20.113 C 30.474 20.398 30.597 20.668 30.619 20.837 C 30.727 21.641 30.234 22.633 29.583 22.918 C 29.438 22.981 29.29 23.006 29.13 22.996 C 27.989 22.914 26.77 21.998 26.775 20.766 C 26.785 18.09 27.846 15.89 28.97 13.561 Z  M 28.986 25.002 C 29.493 25.038 29.965 24.948 30.39 24.761 C 31.907 24.097 32.835 22.224 32.614 20.569 C 32.522 19.881 32.154 19.309 31.915 18.674 C 31.751 18.242 31.611 17.805 31.513 17.353 C 31.329 16.525 31.274 15.676 31.294 14.829 C 31.337 13.066 31.645 11.324 31.626 9.557 C 31.601 7.156 30.982 4.838 29.962 2.67 C 29.817 2.36 29.662 2.052 29.502 1.746 C 29.43 1.61 29.279 1.562 29.193 1.601 C 29.143 1.622 29.117 1.67 29.135 1.745 C 31.085 9.812 24.789 13.552 24.762 20.758 C 24.754 23.062 26.771 24.845 28.986 25.002 Z " fill="rgb(130,211,110)"/></g></g></g></g></g><g><g><g><path d=" M 104.162 67.879 C 103.825 68.225 103.403 68.232 102.901 68.232 L 101.12 68.232 L 98.886 68.232 C 98.563 68.232 98.301 67.97 98.301 67.647 C 98.301 67.094 98.241 66.582 98.409 66.052 C 98.497 65.769 98.701 65.512 98.88 65.277 C 99.089 65.006 99.363 64.962 99.64 64.79 C 99.151 64.661 98.972 64.316 98.732 63.908 C 98.574 63.64 98.409 63.364 98.33 63.058 C 98.254 62.765 98.301 62.463 98.301 62.163 C 98.301 61.462 98.301 60.762 98.301 60.061 C 98.301 59.486 98.303 58.912 98.303 58.336 C 98.303 57.885 98.206 57.441 98.231 56.99 C 98.272 56.248 98.586 55.425 98.916 54.763 C 99.019 54.555 99.227 54.339 99.396 54.175 C 99.55 54.024 100.02 53.87 100.056 53.69 C 99.394 53.451 98.936 53.164 98.621 52.525 C 98.22 51.71 98.301 50.955 98.301 50.085 C 98.301 49.648 98.301 49.212 98.301 48.774 C 98.301 47.91 99.003 47.21 99.867 47.21 L 103.542 47.21 C 104.406 47.21 105.108 47.91 105.108 48.774 C 105.108 49.062 105.087 49.36 104.979 49.633 C 104.956 49.692 104.554 50.24 104.49 50.127 C 104.605 50.331 104.814 50.469 104.919 50.698 C 105.024 50.926 104.977 51.183 105.033 51.422 C 105.083 51.64 105.107 51.826 105.108 52.053 C 105.108 52.667 105.108 53.283 105.108 53.898 L 105.108 56.367 C 105.108 57.039 104.964 57.769 104.445 58.248 C 104.188 58.484 103.75 58.676 103.42 58.787 C 103.177 58.869 102.891 58.869 102.665 59.005 C 102.715 59.177 103.049 59.175 103.19 59.221 C 103.529 59.333 103.829 59.611 104.092 59.844 C 104.561 60.262 104.752 60.881 104.871 61.477 C 105.001 62.13 105.108 62.768 105.108 63.433 C 105.108 64.065 105.153 64.72 105.081 65.347 C 105.016 65.916 104.764 66.419 104.638 66.973 C 104.577 67.236 104.451 67.496 104.297 67.715 C 104.253 67.778 104.208 67.831 104.162 67.879 Z  M 108.077 70.805 C 108.077 71.292 108.139 71.649 107.708 71.984 C 107.125 72.435 106.26 72.584 105.542 72.561 C 105.873 72.56 106.199 72.591 106.529 72.619 C 106.871 72.647 107.211 72.631 107.484 72.862 C 107.796 73.125 108.105 73.559 108.123 73.982 C 108.135 74.253 108.077 74.542 108.077 74.823 C 108.077 75.145 107.815 75.406 107.493 75.406 L 95.917 75.406 C 95.355 75.406 95.206 74.7 95.322 74.259 C 95.382 74.029 95.529 73.713 95.743 73.599 C 95.798 73.568 96.493 73.406 96.494 73.407 C 96.352 73.235 96.107 73.143 95.956 72.953 C 95.823 72.789 95.728 72.604 95.634 72.415 C 95.36 71.86 95.333 71.415 95.333 70.805 C 95.333 70.483 95.594 70.221 95.917 70.221 L 96.314 70.221 L 107.097 70.221 L 107.493 70.221 C 107.815 70.221 108.077 70.483 108.077 70.805 Z  M 109.586 84.013 L 93.823 84.013 C 92.761 84.013 93.289 81.922 93.803 81.555 C 94.354 81.16 95.047 81.052 95.7 80.963 C 96.301 80.883 96.942 80.91 97.531 80.798 C 97.337 80.784 97.142 80.723 96.95 80.685 C 96.44 80.586 95.917 80.542 95.412 80.426 C 95.02 80.336 94.646 80.179 94.29 79.995 C 93.965 79.827 93.794 79.603 93.68 79.259 C 93.557 78.894 93.059 78.296 93.44 77.925 C 93.556 77.81 93.726 77.801 93.873 77.793 C 94.079 77.782 94.29 77.793 94.497 77.793 L 98.125 77.793 L 103.168 77.793 L 107.649 77.793 L 109.586 77.793 C 110.244 77.793 110.26 78.47 109.861 78.815 C 109.527 79.104 109.16 79.17 108.749 79.292 C 109.091 79.529 109.525 79.588 109.865 79.86 C 110.14 80.078 110.093 80.226 110.052 80.532 C 110.022 80.749 110.005 80.966 109.831 81.112 C 109.657 81.259 109.021 81.3 108.975 81.52 C 109.454 81.68 109.947 81.636 110.13 82.206 C 110.249 82.575 110.171 83.043 110.171 83.43 C 110.171 83.752 109.909 84.013 109.586 84.013 Z  M 104.918 91.011 L 102.591 91.011 L 99.829 91.011 C 99.504 91.011 99.179 91.01 98.853 91.011 C 98.701 91.012 98.507 91.062 98.369 90.999 C 98.114 90.884 97.995 90.504 98.005 90.252 C 98.014 90.052 98.064 89.853 98.179 89.686 C 98.305 89.502 98.53 89.42 98.652 89.261 C 98.418 89.234 98.043 88.88 98.002 88.647 C 97.971 88.463 98.062 88.281 98.166 88.148 C 98.321 87.947 98.469 88.027 98.65 87.924 C 98.025 87.699 98.356 86.916 98.709 86.603 C 99.076 86.277 99.683 86.4 100.145 86.4 L 104.918 86.4 C 105.196 86.4 105.564 86.68 105.606 86.968 C 105.655 87.302 105.248 87.512 105.082 87.75 C 104.638 88.392 103.648 88.584 102.906 88.561 C 103.289 88.562 103.642 88.572 104.021 88.63 C 104.405 88.689 104.926 88.648 105.241 88.885 C 105.509 89.087 105.409 89.453 105.452 89.738 C 105.488 89.97 105.502 90.189 105.502 90.427 C 105.502 90.75 105.24 91.011 104.918 91.011 Z  M 0.389 78.303 C 0.066 78.303 -0.194 78.042 -0.194 77.718 L -0.194 75.991 C -0.194 75.668 -0.456 75.406 -0.779 75.406 L -2.102 75.406 C -2.425 75.406 -2.687 75.145 -2.687 74.823 L -2.687 68.816 C -2.687 68.494 -2.947 68.232 -3.271 68.232 L -5.071 68.232 C -5.394 68.232 -5.656 67.97 -5.656 67.647 L -5.656 54.889 C -5.656 54.024 -4.954 53.324 -4.09 53.324 L 44.277 53.324 L 46.381 53.324 L 94.748 53.324 C 95.612 53.324 96.314 54.024 96.314 54.889 L 96.314 67.647 C 96.314 67.97 96.052 68.232 95.729 68.232 L 93.928 68.232 C 93.605 68.232 93.344 68.494 93.344 68.816 L 93.344 74.823 C 93.344 75.145 93.082 75.406 92.76 75.406 L 91.437 75.406 C 91.114 75.406 90.852 75.668 90.852 75.991 L 90.852 77.718 C 90.852 78.042 90.59 78.303 90.269 78.303 L 0.389 78.303 Z  M -3.796 83.892 C -3.8 83.91 -3.803 83.926 -3.808 83.944 C -3.934 84.379 -4.306 84.105 -4.619 84.044 C -4.924 83.985 -5.249 84.013 -5.558 84.013 L -9.916 84.013 L -18.133 84.013 L -18.929 84.013 C -19.251 84.013 -19.513 83.752 -19.513 83.429 L -19.513 82.258 C -19.513 81.886 -19.499 81.511 -19.513 81.14 C -19.522 80.902 -19.574 80.644 -19.327 80.499 C -19.218 80.436 -19.053 80.374 -18.932 80.345 C -18.639 80.273 -18.236 80.421 -17.984 80.263 C -18.152 79.934 -18.337 79.923 -18.671 79.888 C -19.586 79.789 -19.513 79.118 -19.513 78.378 C -19.513 78.054 -19.251 77.793 -18.929 77.793 L -3.166 77.793 C -2.843 77.793 -2.582 78.054 -2.582 78.378 C -2.582 79.122 -2.376 80.703 -3.063 81.23 C -3.543 81.599 -4.165 81.789 -4.678 82.101 C -4.919 82.247 -5.189 82.266 -5.407 82.383 C -5.467 82.415 -5.53 82.441 -5.572 82.507 C -5.209 82.678 -4.786 82.662 -4.426 82.834 C -4.083 82.999 -3.717 83.482 -3.796 83.892 Z  M -7.833 91.011 L -14.26 91.011 C -14.583 91.011 -14.845 90.75 -14.845 90.427 C -14.845 90.035 -14.824 89.759 -14.463 89.536 C -14.141 89.337 -13.729 89.265 -13.355 89.248 C -13.04 89.234 -12.59 89.31 -12.307 89.14 C -12.849 89.159 -13.376 89.033 -13.898 88.915 C -14.113 88.867 -14.282 88.877 -14.474 88.77 C -14.996 88.478 -14.845 87.495 -14.845 86.985 C -14.845 86.661 -14.583 86.4 -14.26 86.4 L -7.833 86.4 C -7.512 86.4 -7.25 86.661 -7.25 86.985 L -7.25 90.427 C -7.25 90.75 -7.512 91.011 -7.833 91.011 Z  M -17.419 70.805 C -17.419 70.483 -17.158 70.221 -16.835 70.221 L -16.439 70.221 C -14.859 70.221 -13.296 70.227 -11.72 70.274 C -9.694 70.334 -7.677 70.221 -5.656 70.221 L -5.26 70.221 C -4.936 70.221 -4.675 70.483 -4.675 70.805 C -4.675 71.398 -4.612 72.026 -5.086 72.475 C -5.366 72.741 -5.835 72.756 -6.187 72.836 C -6.68 72.948 -7.219 73.012 -7.717 73.046 C -7.44 73.283 -6.58 73.217 -6.223 73.224 C -5.907 73.231 -5.573 73.229 -5.26 73.266 C -5.137 73.282 -5.012 73.309 -4.914 73.389 C -4.619 73.631 -4.74 74.217 -4.671 74.561 C -4.593 74.952 -4.804 75.406 -5.26 75.406 C -6.667 75.406 -8.075 75.431 -9.483 75.445 C -10.867 75.459 -12.247 75.406 -13.63 75.406 L -16.835 75.406 C -17.158 75.406 -17.419 75.145 -17.419 74.823 C -17.419 74.598 -17.536 74.208 -17.474 74.009 C -17.29 73.41 -16.297 73.663 -15.889 73.638 C -15.489 73.613 -14.871 73.597 -14.596 73.251 C -15.218 73.171 -15.887 73.079 -16.475 72.827 C -16.833 72.673 -17.079 72.367 -17.26 72.031 C -17.472 71.638 -17.419 71.243 -17.419 70.805 M -12.884 47.21 L -9.211 47.21 C -8.345 47.21 -7.645 47.91 -7.645 48.774 C -7.645 49.348 -7.717 49.765 -8.082 50.211 C -8.181 50.332 -9.254 50.96 -9.221 51.034 C -8.943 51.668 -7.89 51.58 -7.658 52.297 C -7.47 52.873 -7.645 53.521 -7.645 54.109 L -7.645 56.39 L -7.645 61.179 C -7.645 61.93 -7.73 62.508 -8.022 63.204 C -8.114 63.424 -8.462 63.68 -8.468 63.906 C -8.476 64.275 -8.129 64.177 -7.923 64.316 C -7.613 64.524 -7.645 65.229 -7.645 65.566 C -7.644 66.259 -7.645 66.954 -7.645 67.647 C -7.645 67.97 -7.907 68.232 -8.228 68.232 L -13.867 68.232 C -14.188 68.232 -14.45 67.97 -14.45 67.647 L -14.45 65.359 L -14.45 62.971 C -14.45 62.173 -14.483 61.399 -14.164 60.658 C -14.02 60.323 -13.742 59.935 -13.527 59.65 C -13.334 59.391 -13.045 59.188 -13.091 58.827 C -13.396 58.67 -13.731 58.617 -13.977 58.367 C -14.272 58.07 -14.299 57.476 -14.399 57.09 C -14.535 56.57 -14.45 55.946 -14.45 55.408 L -14.45 52.039 L -14.45 48.774 C -14.45 47.91 -13.75 47.21 -12.884 47.21 M -18.929 41.388 L -3.166 41.388 C -2.633 41.388 -2.374 42.116 -2.726 42.485 C -3.037 42.814 -3.616 42.776 -4.031 42.818 C -4.744 42.888 -5.467 42.87 -6.182 42.901 C -6.456 42.913 -6.717 42.888 -6.984 42.954 C -7.285 43.029 -7.746 43.008 -8 43.167 C -6.584 43.247 -5.17 43.179 -3.759 43.345 C -3.735 43.348 -3.71 43.351 -3.687 43.353 C -3.196 43.408 -2.666 43.461 -2.673 44.053 C -2.677 44.479 -2.667 44.78 -3.179 44.822 C -3.399 44.841 -3.63 44.822 -3.852 44.822 L -7.491 44.822 L -12.54 44.822 L -17.012 44.822 L -18.929 44.822 C -19.251 44.822 -19.513 44.562 -19.513 44.238 C -19.513 43.848 -19.567 43.361 -19.36 43.01 C -19.138 42.635 -18.599 42.496 -18.195 42.483 C -18.519 42.31 -18.961 42.414 -19.234 42.156 C -19.554 41.853 -19.377 41.388 -18.929 41.388 M 45.328 42.567 L 90.269 42.567 C 90.59 42.567 90.852 42.827 90.852 43.15 C 90.852 43.473 90.59 43.734 90.269 43.734 L 45.93 43.734 L 44.727 43.734 L 0.389 43.734 C 0.066 43.734 -0.194 43.473 -0.194 43.15 C -0.194 42.827 0.066 42.567 0.389 42.567 L 45.328 42.567 Z  M 93.909 41.548 C 94.103 41.446 94.361 41.389 94.514 41.388 C 94.771 41.383 95.028 41.388 95.285 41.388 L 97.457 41.388 L 103.073 41.388 L 108.02 41.388 L 109.586 41.388 C 109.909 41.388 110.171 41.648 110.171 41.971 C 110.171 42.324 110.206 42.644 110.015 42.958 C 109.808 43.296 109.42 43.594 109.005 43.564 C 109.329 43.551 109.865 43.525 110.107 43.789 C 110.43 44.142 110.028 44.822 109.586 44.822 L 93.823 44.822 C 93.219 44.822 93.169 44.176 93.382 43.759 C 93.608 43.319 94.13 43.049 94.569 42.873 C 95.084 42.666 95.745 42.512 96.305 42.528 C 95.82 42.548 95.201 42.512 94.719 42.399 C 94.444 42.334 93.99 42.306 93.782 42.104 C 93.533 41.863 93.675 41.672 93.909 41.548 M 96.314 48.774 C 96.314 49.64 95.612 50.34 94.748 50.34 L -4.09 50.34 C -4.619 50.34 -5.906 49.713 -5.492 49.003 C -5.203 48.51 -4.431 48.78 -4.022 48.489 C -4.31 48.275 -4.779 48.431 -4.947 48.055 C -5.217 47.457 -4.563 47.21 -4.09 47.21 L -0.779 47.21 C -0.456 47.21 -0.194 46.948 -0.194 46.625 L -0.194 46.308 C -0.194 45.985 0.066 45.723 0.389 45.723 L 44.727 45.723 L 45.93 45.723 L 90.269 45.723 C 90.59 45.723 90.852 45.985 90.852 46.308 L 90.852 46.625 C 90.852 46.948 91.114 47.21 91.437 47.21 L 94.748 47.21 C 95.612 47.21 96.314 47.91 96.314 48.774 M 112.557 46.625 L 112.557 39.585 C 112.557 39.262 112.295 39 111.974 39 L 91.437 39 C 91.114 39 90.852 39.262 90.852 39.585 L 90.852 39.993 C 90.852 40.316 90.59 40.578 90.269 40.578 L 45.328 40.578 L 0.389 40.578 C 0.066 40.578 -0.194 40.316 -0.194 39.993 L -0.194 39.585 C -0.194 39.262 -0.456 39 -0.779 39 L -21.316 39 C -21.639 39 -21.899 39.262 -21.899 39.585 L -21.899 46.625 C -21.899 46.948 -21.639 47.21 -21.316 47.21 L -18.005 47.21 C -17.14 47.21 -16.439 47.91 -16.439 48.774 L -16.439 67.647 C -16.439 67.97 -16.701 68.232 -17.023 68.232 L -18.824 68.232 C -19.146 68.232 -19.408 68.494 -19.408 68.816 L -19.408 74.823 C -19.408 75.145 -19.67 75.406 -19.993 75.406 L -21.316 75.406 C -21.639 75.406 -21.899 75.668 -21.899 75.991 L -21.899 85.816 C -21.899 86.138 -21.639 86.4 -21.316 86.4 L -17.418 86.4 C -17.095 86.4 -16.834 86.661 -16.834 86.985 L -16.834 92.416 C -16.834 92.738 -16.572 93 -16.249 93 L -5.846 93 C -5.522 93 -5.261 92.738 -5.261 92.416 L -5.261 86.985 C -5.261 86.661 -4.999 86.4 -4.677 86.4 L -0.779 86.4 C -0.456 86.4 -0.194 86.138 -0.194 85.816 L -0.194 81.87 C -0.194 81.548 0.066 81.286 0.389 81.286 L 90.269 81.286 C 90.59 81.286 90.852 81.548 90.852 81.87 L 90.852 85.816 C 90.852 86.138 91.114 86.4 91.437 86.4 L 95.334 86.4 C 95.657 86.4 95.919 86.661 95.919 86.985 L 95.919 92.416 C 95.919 92.738 96.18 93 96.502 93 L 106.907 93 C 107.229 93 107.491 92.738 107.491 92.416 L 107.491 86.985 C 107.491 86.661 107.753 86.4 108.076 86.4 L 111.974 86.4 C 112.295 86.4 112.557 86.138 112.557 85.816 L 112.557 75.991 C 112.557 75.668 112.295 75.406 111.974 75.406 L 110.649 75.406 C 110.328 75.406 110.066 75.145 110.066 74.823 L 110.066 68.816 C 110.066 68.494 109.804 68.232 109.481 68.232 L 107.681 68.232 C 107.358 68.232 107.097 67.97 107.097 67.647 L 107.097 48.774 C 107.097 47.91 107.797 47.21 108.662 47.21 L 111.974 47.21 C 112.295 47.21 112.557 46.948 112.557 46.625 Z " fill="rgb(130,211,110)"/></g></g></g></g></svg>