<?xml version="1.0" encoding="UTF-8" standalone="no"?><!-- Generator: Gravit.io --><svg xmlns="http://www.w3.org/2000/svg" xmlns:xlink="http://www.w3.org/1999/xlink" style="isolation:isolate" viewBox="160.03 121.71 379.15 920.57" width="379.15pt" height="920.57pt"><g id="Layer_2"><path d=" M 519.18 408.76 L 415.85 408.76 L 415.85 445.24 L 324.21 445.24 L 324.21 473.48 L 243.6 473.48 L 243.6 1022.28" id="Path" class="cls-4" fill="none" vector-effect="non-scaling-stroke" stroke-width="4" stroke="rgb(8,76,65)" stroke-linejoin="miter" stroke-linecap="butt" stroke-miterlimit="10"/><path d=" M 519.18 383.24 L 390.34 383.24 L 390.34 419.73 L 298.7 419.73 L 298.7 447.97 L 218.08 447.97 L 218.08 1022.28" id="Path" class="cls-4" fill="none" vector-effect="non-scaling-stroke" stroke-width="4" stroke="rgb(8,76,65)" stroke-linejoin="miter" stroke-linecap="butt" stroke-miterlimit="10"/><path d=" M 314.81 1022.28 L 314.81 566.75 L 318.37 562.15 C 319.06 561.26 335.61 540.15 368.71 519.34 C 398.82 500.44 449.36 477.92 519.18 477.92" id="Path" class="cls-4" fill="none" vector-effect="non-scaling-stroke" stroke-width="4" stroke="rgb(8,76,65)" stroke-linejoin="miter" stroke-linecap="butt" stroke-miterlimit="10"/><path d=" M 519.18 511.94 C 470.18 511.94 426.18 523.84 388.12 547.33 C 373.695 556.092 360.485 566.713 348.83 578.92 L 348.83 1022.28 L 184.07 1022.28 L 184.07 414 L 264.69 414 L 264.69 385.71 L 356.32 385.71 L 356.32 349.23 L 519.18 349.23" id="Path" class="cls-4" fill="none" vector-effect="non-scaling-stroke" stroke-width="4" stroke="rgb(8,76,65)" stroke-linejoin="miter" stroke-linecap="butt" stroke-miterlimit="10"/><line x1="348.83" y1="930.15" x2="243.6" y2="930.15" id="Path" class="cls-5" vector-effect="non-scaling-stroke" stroke-width="2" stroke="rgb(8,76,65)" stroke-linejoin="miter" stroke-linecap="butt" stroke-miterlimit="10"/><line x1="348.83" y1="838.02" x2="243.6" y2="838.02" id="Path" class="cls-5" vector-effect="non-scaling-stroke" stroke-width="2" stroke="rgb(8,76,65)" stroke-linejoin="miter" stroke-linecap="butt" stroke-miterlimit="10"/><line x1="348.83" y1="745.9" x2="243.6" y2="745.9" id="Path" class="cls-5" vector-effect="non-scaling-stroke" stroke-width="2" stroke="rgb(8,76,65)" stroke-linejoin="miter" stroke-linecap="butt" stroke-miterlimit="10"/><line x1="243.6" y1="653.77" x2="348.83" y2="653.77" id="Path" class="cls-5" vector-effect="non-scaling-stroke" stroke-width="2" stroke="rgb(8,76,65)" stroke-linejoin="miter" stroke-linecap="butt" stroke-miterlimit="10"/><line x1="348.83" y1="578.92" x2="314.81" y2="566.75" id="Path" class="cls-5" vector-effect="non-scaling-stroke" stroke-width="2" stroke="rgb(8,76,65)" stroke-linejoin="miter" stroke-linecap="butt" stroke-miterlimit="10"/><line x1="314.81" y1="566.75" x2="243.6" y2="566.75" id="Path" class="cls-5" vector-effect="non-scaling-stroke" stroke-width="2" stroke="rgb(8,76,65)" stroke-linejoin="miter" stroke-linecap="butt" stroke-miterlimit="10"/><line x1="324.21" y1="473.48" x2="377.19" y2="554.55" id="Path" class="cls-5" vector-effect="non-scaling-stroke" stroke-width="2" stroke="rgb(8,76,65)" stroke-linejoin="miter" stroke-linecap="butt" stroke-miterlimit="10"/><line x1="415.85" y1="445.24" x2="443.54" y2="522.53" id="Path" class="cls-5" vector-effect="non-scaling-stroke" stroke-width="2" stroke="rgb(8,76,65)" stroke-linejoin="miter" stroke-linecap="butt" stroke-miterlimit="10"/><line x1="214.68" y1="413.95" x2="214.68" y2="241.89" id="Path" class="cls-6" vector-effect="non-scaling-stroke" stroke-width="3" stroke="rgb(8,76,65)" stroke-linejoin="miter" stroke-linecap="butt" stroke-miterlimit="10"/><line x1="356.32" y1="357.45" x2="214.87" y2="357.45" id="Path" class="cls-5" vector-effect="non-scaling-stroke" stroke-width="2" stroke="rgb(8,76,65)" stroke-linejoin="miter" stroke-linecap="butt" stroke-miterlimit="10"/><path d=" M 397.52 349.23 L 397.52 241.89 L 519.24 241.89" id="Path" class="cls-6" fill="none" vector-effect="non-scaling-stroke" stroke-width="3" stroke="rgb(8,76,65)" stroke-linejoin="miter" stroke-linecap="butt" stroke-miterlimit="10"/><path d=" M 519.18 268.72 L 422.46 268.72 L 422.46 349.23" id="Path" class="cls-6" fill="none" vector-effect="non-scaling-stroke" stroke-width="3" stroke="rgb(8,76,65)" stroke-linejoin="miter" stroke-linecap="butt" stroke-miterlimit="10"/><line x1="397.52" y1="304.72" x2="214.87" y2="304.72" id="Path" class="cls-5" vector-effect="non-scaling-stroke" stroke-width="2" stroke="rgb(8,76,65)" stroke-linejoin="miter" stroke-linecap="butt" stroke-miterlimit="10"/><line x1="306.19" y1="357.45" x2="306.19" y2="304.72" id="Path" class="cls-5" vector-effect="non-scaling-stroke" stroke-width="2" stroke="rgb(8,76,65)" stroke-linejoin="miter" stroke-linecap="butt" stroke-miterlimit="10"/><path d=" M 290.59 304.72 L 290.59 233.57 L 346.83 233.57 L 346.83 304.72" id="Path" class="cls-6" fill="none" vector-effect="non-scaling-stroke" stroke-width="3" stroke="rgb(8,76,65)" stroke-linejoin="miter" stroke-linecap="butt" stroke-miterlimit="10"/><line x1="290.59" y1="267.59" x2="346.83" y2="267.59" id="Path" class="cls-6" vector-effect="non-scaling-stroke" stroke-width="3" stroke="rgb(8,76,65)" stroke-linejoin="miter" stroke-linecap="butt" stroke-miterlimit="10"/><path d=" M 290.59 242.46 L 201.46 242.46 L 201.46 204.85 L 297.64 204.85" id="Path" class="cls-6" fill="none" vector-effect="non-scaling-stroke" stroke-width="3" stroke="rgb(8,76,65)" stroke-linejoin="miter" stroke-linecap="butt" stroke-miterlimit="10"/><line x1="399.5" y1="241.89" x2="346.83" y2="241.89" id="Path" class="cls-5" vector-effect="non-scaling-stroke" stroke-width="2" stroke="rgb(8,76,65)" stroke-linejoin="miter" stroke-linecap="butt" stroke-miterlimit="10"/><line x1="297.64" y1="233.57" x2="297.64" y2="146.97" id="Path" class="cls-6" vector-effect="non-scaling-stroke" stroke-width="3" stroke="rgb(8,76,65)" stroke-linejoin="miter" stroke-linecap="butt" stroke-miterlimit="10"/><line x1="339.8" y1="146.97" x2="339.8" y2="233.57" id="Path" class="cls-6" vector-effect="non-scaling-stroke" stroke-width="3" stroke="rgb(8,76,65)" stroke-linejoin="miter" stroke-linecap="butt" stroke-miterlimit="10"/><rect x="274.97" y="123.21" width="87.5" height="23.76" transform="matrix(1,0,0,1,0,0)" id="Rectangle" class="cls-6" fill="none" vector-effect="non-scaling-stroke" stroke-width="3" stroke="rgb(8,76,65)" stroke-linejoin="miter" stroke-linecap="butt" stroke-miterlimit="2"/><line x1="519.18" y1="129.64" x2="362.47" y2="129.64" id="Path" class="cls-5" vector-effect="non-scaling-stroke" stroke-width="2" stroke="rgb(8,76,65)" stroke-linejoin="miter" stroke-linecap="butt" stroke-miterlimit="10"/><line x1="339.8" y1="164.31" x2="519.18" y2="164.31" id="Path" class="cls-5" vector-effect="non-scaling-stroke" stroke-width="2" stroke="rgb(8,76,65)" stroke-linejoin="miter" stroke-linecap="butt" stroke-miterlimit="10"/><path d=" M 211.78 702 C 213.38 701.94 213.38 702 214.05 700 C 213.737 700.184 213.4 700.325 213.05 700.42 C 212.05 700.51 211.15 700.54 210.2 700.6 C 210.43 699.6 210.34 698.2 210.97 697.68 C 212.116 696.904 213.365 696.292 214.68 695.86 C 213.12 695.73 213.11 694.32 213.52 692.92 C 212.38 694.49 211.18 696.17 209.97 697.85 L 209.35 697.68 L 206.14 681.76 L 205.81 681.76 C 205.9 682.98 206.5 684.5 205.98 685.34 C 205.05 686.84 206.31 687.54 206.54 688.59 L 208.54 697.73 L 208.07 698.17 L 202.93 695.82 L 201.76 697.41 L 205.92 698.12 C 206.13 698.12 206.38 698.12 206.51 698.28 C 207.4 699.11 208.26 699.98 209.13 700.83 C 208.007 701.299 206.855 701.693 205.68 702.01 C 204.883 702.07 204.082 702.016 203.3 701.85 C 203.3 702.12 203.3 702.39 203.3 702.66 L 210.24 702.3 C 210.39 705.7 209.35 709.3 211.84 712.3 C 212.114 712.699 212.25 713.176 212.23 713.66 C 212.28 716.8 212.31 719.94 212.28 723.08 C 212.28 727.74 214.14 729.75 218.76 729.95 C 220.15 730.01 221.54 730.23 223.1 730.39 C 222.17 733.473 220.541 736.299 218.34 738.65 C 217.453 739.471 216.827 740.535 216.54 741.71 C 216.47 742.41 217.74 743.25 218.54 744.13 C 213 746.51 207.54 749.94 201.54 744.69 C 200.366 748.233 199.851 751.961 200.02 755.69 C 200.08 757.69 200.26 759.37 202.79 759.63 C 203.529 759.804 204.204 760.182 204.74 760.72 C 206.25 762.01 207.68 763.39 209.17 764.72 C 211.54 766.85 213.83 766.81 216.03 764.55 C 216.88 763.67 217.58 762.64 218.35 761.69 L 219.35 761.92 C 220.134 764.117 220.801 766.353 221.35 768.62 C 221.85 771.31 221.94 771.62 224.57 771.68 C 223.33 777 222.63 780.3 216.4 781.99 C 220.51 794.24 223.88 806.66 223.4 819.88 C 225.25 818.55 226.65 817.06 228.24 815.79 C 229.854 814.427 231.611 813.243 233.48 812.26 C 235.48 811.26 236.33 811.87 236.28 814.09 C 236.263 815.661 236.048 817.223 235.64 818.74 C 235.03 820.91 234.06 822.98 233.43 825.15 C 232.43 828.76 233.69 831.15 237.18 832.43 C 238.71 832.99 240.18 833.6 241.98 834.27 C 241.6 834.926 241.151 835.54 240.64 836.1 C 238.45 837.93 236.25 839.77 233.95 841.47 C 231.95 842.97 231.75 843.59 233.39 845.47 C 233.49 845.59 233.49 845.82 233.58 846.19 C 228.09 846.78 222.58 848.31 217.91 843.27 C 216.1 850.78 213.47 857.59 212.91 864.88 L 213.48 865.22 L 216.12 861.61 C 216.99 863.54 217.53 864.77 218.12 865.99 C 219.76 869.51 223.02 870.65 226.49 868.9 C 228.09 868.1 229.58 867.07 231.22 866.41 C 232.881 865.806 234.59 865.348 236.33 865.04 C 237.72 864.76 238.28 865.61 237.92 866.86 C 237.559 868.31 237.022 869.711 236.32 871.03 C 235.18 873.03 233.69 874.72 232.53 876.66 C 230.72 879.71 231.33 882.04 234.23 884.09 C 235.45 884.95 236.6 885.89 237.93 886.91 C 235.672 888.944 232.949 890.393 230 891.13 C 226.82 892.01 226.67 892.26 227.35 895.42 C 223.43 894.91 219.46 894.89 216.35 891.99 C 214.76 890.49 213.7 888.75 214.29 886.54 L 219.78 889.76 L 220.06 889.25 C 219.553 889.05 219.062 888.813 218.59 888.54 C 217.25 887.65 215.09 887.23 215.75 884.94 C 216.11 883.71 219.63 883.37 221.01 884.67 C 222.58 886.15 224.71 885.37 226.15 886.81 L 226.42 886.13 L 218 882.72 C 221.93 880.02 224.39 875.63 229.22 874.27 C 228.98 874 229.35 873.13 230.53 871.18 C 229.293 871.635 228.123 872.254 227.05 873.02 C 223.79 876.09 220.69 879.33 217.53 882.51 L 216.86 882.26 C 216.68 879.79 216.5 877.32 216.35 875.26 L 214.14 877.71 C 214.549 878.016 214.937 878.35 215.3 878.71 C 216.37 879.88 216.52 883.2 215.46 884.1 C 213.83 885.47 213.07 883.89 212.12 883 C 212.07 883 211.89 883 211.65 883.06 C 211.92 883.49 212.08 884.01 212.43 884.25 C 214 885.33 213.95 886.4 212.72 887.75 C 212.33 888.18 211.95 889.17 212.18 889.55 C 213.89 892.55 213.45 895.81 213.53 899.01 C 213.63 903.01 215.35 904.66 219.41 904.74 C 220.41 904.74 221.48 904.87 223.01 904.98 C 222.01 907.07 221.28 908.69 220.41 910.21 C 219.84 911.21 218.87 912.01 218.41 913.04 C 218.13 913.62 218.46 914.49 218.52 915.24 C 219.172 915.144 219.81 914.969 220.42 914.72 C 221.51 914.09 222.5 913.32 223.91 912.34 C 224.56 914.2 225.38 915.57 225.47 916.99 C 225.67 920.19 225.47 923.42 225.52 926.63 C 225.52 931.9 231.13 935.63 235.74 933.07 C 238.88 931.3 241.186 928.353 242.15 924.88 L 247.8 925.53 C 246.539 925.019 245.238 924.615 243.91 924.32 C 243.39 924.17 242.59 923.52 242.64 923.2 C 242.822 922.572 243.228 922.031 243.78 921.68 C 245.6 920.42 247.27 920.92 248.78 922.3 C 249.01 922.52 249.41 922.55 250.09 922.8 L 248.83 921.14 L 254.33 921.14 L 254.33 920.95 L 249.33 920.44 L 249.98 919.19 L 244.18 920.68 L 243.88 920.06 L 251.77 905.45 L 251.05 905.05 L 242.6 920.48 L 239.99 913.88 L 239.64 915.43 L 237.48 913.74 L 237.15 914.06 L 238.96 916.55 L 237.23 916.55 C 237.87 917 238.66 917.02 239.12 917.42 C 240.173 918.286 241.099 919.296 241.87 920.42 C 242.07 921.114 241.916 921.861 241.46 922.42 C 241.18 922.73 240.22 922.51 239.59 922.42 C 239.067 922.251 238.565 922.026 238.09 921.75 L 237.84 922.24 L 240.53 923.81 C 236.45 925.44 232.71 921.81 230.84 914.44 C 233.64 914.37 233.63 914.19 233.98 911.21 C 234.407 908.741 234.968 906.298 235.66 903.89 C 236.86 905.01 237.66 905.68 238.35 906.4 C 241.02 909.12 243.95 909.13 246.58 906.4 C 247.25 905.7 247.81 904.91 248.51 904.25 C 249.782 902.919 251.171 901.704 252.66 900.62 C 254.41 899.48 255.32 899.96 255.16 902.02 C 254.89 904.733 254.425 907.423 253.77 910.07 C 252.93 913.79 254.11 915.88 257.77 916.83 C 258.86 917.12 259.92 917.52 261.71 918.1 C 259.49 920.22 257.71 922.01 255.87 923.63 C 254.44 924.87 252.87 925.9 255.14 927.96 C 250.77 929.08 246.79 929.96 243.06 927.42 C 241.47 929.29 239.87 930.91 238.57 932.74 C 237.27 934.57 236.35 936.61 235.15 938.49 C 234.198 939.997 233.138 941.434 231.98 942.79 C 229.4 945.79 229.38 946.1 232.58 948.34 L 228.38 950.51 C 233.62 955.15 239.38 955.03 242.13 947.93 C 242.92 945.821 243.947 943.808 245.19 941.93 C 246.19 940.44 247.75 939.3 249.39 937.67 C 250.025 938.833 250.534 940.06 250.91 941.33 C 251.33 944.33 251.43 947.42 251.91 950.44 C 252.216 952.372 252.736 954.263 253.46 956.08 C 253.64 956.55 254.94 956.9 255.62 956.78 C 257.291 956.413 258.935 955.932 260.54 955.34 C 262.59 954.66 264.62 953.92 267.08 953.06 C 263.55 950.83 261.36 948.23 261.16 944.53 C 260.97 941.2 261.16 937.85 261.16 934.03 C 264.43 936.73 265.25 936.54 266.93 933.34 C 267.28 932.67 267.62 931.99 268.02 931.34 C 269.586 928.725 271.689 926.472 274.19 924.73 C 274.81 926.55 275.31 928.1 275.87 929.61 C 277.46 933.88 281.26 935.61 285.47 933.97 C 287 933.37 288.47 932.6 289.97 931.92 C 292.61 930.73 295.27 929.75 298.28 929.97 C 299.8 930.08 300.41 930.8 299.9 932.04 C 299.074 934.2 298.043 936.277 296.82 938.24 C 295.56 940.19 293.82 941.81 292.45 943.69 C 289.97 947.12 290.45 950.18 293.73 952.88 C 295.18 954.07 296.58 955.35 298.12 956.69 C 295.182 958.927 291.755 960.435 288.12 961.09 C 284.03 961.77 283.63 962.31 284.95 966.33 C 281.95 965.55 279.21 964.88 276.48 964.09 C 274.079 963.39 272.004 961.863 270.62 959.78 C 269.208 958.034 268.789 955.687 269.51 953.56 C 273.28 957.2 273.28 957.2 274.66 957.14 C 273.702 956.432 272.79 955.664 271.93 954.84 C 271.47 954.33 270.93 953.4 271.12 952.92 C 271.483 952.21 272.124 951.682 272.89 951.46 C 275.57 950.755 278.367 952.086 279.51 954.61 C 279.73 955.03 280.03 955.41 280.3 955.82 L 280.55 955.66 C 280.3 954.98 280.04 954.31 279.68 953.32 L 283.08 954.91 L 283.22 954.62 L 281.09 952.98 L 282.09 952.32 L 273.74 950.32 C 277.47 947.42 280.69 944.77 284.08 942.32 C 285.29 941.45 286.91 941.15 288.33 940.58 C 288.43 940.58 288.5 940.44 288.6 940.36 L 287.29 939.92 L 292.66 935.71 L 292.17 935.11 L 273.42 949.22 C 272.999 947.542 272.742 945.827 272.65 944.1 C 272.877 942.398 273.276 940.722 273.84 939.1 L 272 942.1 C 271.27 940.17 270.68 938.59 270.08 937.02 L 269.73 937.15 C 270.25 938.94 270.78 940.73 271.43 942.97 L 269 941.62 L 268.67 942.01 C 269.25 942.47 269.84 942.91 270.41 943.38 C 272.32 944.928 272.997 947.539 272.08 949.82 C 271.42 951.57 270.02 952.09 268.76 950.76 C 267.833 949.612 267.091 948.327 266.56 946.95 C 265.83 945.38 265.25 943.75 264.61 942.14 L 263.96 942.41 C 265.4 945.52 265.62 949.19 268.39 951.68 C 269.45 952.68 269.21 953.41 268.1 953.87 C 265.9 954.79 263.64 955.59 261.38 956.37 C 260.04 956.82 258.64 957.13 257.27 957.5 L 257.4 958.28 L 264.33 958.28 C 263.98 959.651 263.511 960.99 262.93 962.28 C 261.7 964.48 260.27 966.58 258.93 968.7 C 257.59 970.82 257.78 971.63 259.93 972.7 C 260.159 972.822 260.379 972.959 260.59 973.11 C 254.59 976.95 248.09 980.52 241.81 974.64 L 236.91 980.34 C 239.84 981.99 239.91 982.75 237.41 985.16 C 236.861 985.674 236.276 986.148 235.66 986.58 C 234.37 987.5 233.02 988.33 231.78 989.3 C 229.24 991.3 228.92 993.43 230.66 996.13 L 233.01 999.77 L 225.8 1001 C 226.095 1001.636 226.472 1002.231 226.92 1002.77 C 230.53 1006.178 234.891 1008.688 239.65 1010.1 C 242.32 1010.83 245 1010.97 247.39 1009.41 C 248.356 1008.571 249.201 1007.602 249.9 1006.53 L 257.67 1006.53 C 256.918 1006.165 256.085 1006 255.25 1006.05 C 253.891 1006.089 252.531 1005.995 251.19 1005.77 C 249.66 1005.38 249.46 1004.24 250.51 1003.13 C 252.072 1001.603 254.468 1001.324 256.34 1002.45 C 257.04 1002.89 257.81 1003.23 258.55 1003.61 L 258.73 1003.27 L 256.63 1001.59 L 261.08 1000.98 L 261.08 1000.75 L 257.08 1000.52 L 259.13 997.96 C 257.71 998.59 256.74 999.74 255.51 1000.34 C 254.28 1000.94 252.65 1001.12 250.51 1001.64 C 253.25 997.05 253.14 991.7 256.71 988.74 C 255.86 985.99 258.05 984.1 257.84 981.86 L 255.01 987.79 L 254.08 986.44 C 254.19 989.77 251.63 998.24 249.52 1001.12 C 248.13 998.73 246.84 996.52 245.75 994.63 L 245.5 996.49 L 243.28 995.4 C 244.04 996.4 244.45 996.96 245.04 997.74 L 242.6 997.74 C 243.232 998.268 244.018 998.577 244.84 998.62 C 246.55 998.596 248.077 999.685 248.61 1001.31 C 248.825 1002.237 248.872 1003.196 248.75 1004.14 C 247.801 1004.245 246.841 1004.191 245.91 1003.98 C 244.821 1003.426 243.795 1002.755 242.85 1001.98 L 242.46 1002.6 L 247.73 1005.81 C 242.91 1008.37 237.91 1003.64 235.46 996.24 C 238.27 996.41 238.88 995.76 238.58 992.78 C 238.234 989.767 238.697 986.716 239.92 983.94 L 241.92 985.65 C 246.22 989.27 249.58 988.79 252.7 984.16 C 253.851 982.293 255.166 980.533 256.63 978.9 C 257.53 977.97 259.04 977.62 260.28 977.01 C 260.71 978.34 261.52 979.66 261.5 981.01 C 261.5 983.74 260.93 986.45 260.77 989.18 C 260.6 992.12 261.1 992.51 263.77 991.18 C 266.44 989.85 268.71 988.32 271.06 986.93 L 274.61 989.2 L 274.89 988.75 C 274.324 988.389 273.78 987.995 273.26 987.57 C 272.73 987.08 272.26 986.5 271.8 985.97 C 274 983.89 275.58 984.21 278.15 986.97 L 281.08 983.71 C 278.61 984.71 276.55 984.71 274.28 983.31 C 277.57 980.73 279.66 977.01 283.53 976.14 C 283.62 975.64 283.53 975.05 283.8 974.78 C 284.47 974.1 285.29 973.57 286.02 972.96 C 286.75 972.35 287.17 971.96 287.74 971.4 L 287.14 970.81 L 273.27 982.81 C 272.926 981.541 272.705 980.242 272.61 978.93 C 272.741 977.66 272.988 976.405 273.35 975.18 L 273.14 975.12 L 272 977.81 C 271.53 977.17 271.24 976.81 270.68 976.04 C 270.86 977.09 270.96 977.7 271.08 978.4 L 269.47 977.85 C 269.9 978.6 270.59 978.98 271.02 979.55 C 271.683 980.277 272.157 981.156 272.4 982.11 C 272.51 982.92 271.91 983.82 271.63 984.67 C 270.794 984.378 270.01 983.952 269.31 983.41 C 268.649 982.559 268.079 981.64 267.61 980.67 L 267.22 980.92 L 269.77 985.64 C 265.35 985.47 263.54 979.97 264.66 973.99 C 266.51 975.12 267.43 974.13 268.09 972.52 C 268.969 970.123 270.458 967.996 272.41 966.35 C 272.678 966.746 272.912 967.165 273.11 967.6 C 274.91 972.84 277.98 973.83 283.05 971.01 C 283.59 970.71 284.05 970.31 284.63 970.01 C 285.713 969.433 286.853 968.967 288.03 968.62 C 290.32 968.11 291.09 968.97 290.25 971.11 C 289.59 972.532 288.842 973.911 288.01 975.24 C 287.058 976.73 286.222 978.292 285.51 979.91 C 284.8 981.91 285.67 983.1 287.68 983.44 C 290.902 984.108 294.156 984.609 297.43 984.94 C 299.85 985.1 302.43 986.36 304.37 984.94 C 305.327 985.375 306.335 985.687 307.37 985.87 C 310.1 985.93 312.83 985.76 315.56 985.77 C 316.143 985.828 316.699 986.042 317.17 986.39 C 317.76 986.77 318.17 987.52 318.83 987.71 C 323.435 989.116 327.757 991.32 331.6 994.22 C 333 995.3 334.34 996.46 335.84 997.69 C 338.24 994.26 341.71 994.18 345.31 994.23 C 344.76 996.37 344.95 996.57 346.79 997.46 C 348.63 998.35 350.17 999.35 352.26 1000.54 C 351.17 1001.15 350.66 1001.46 350.13 1001.73 C 346.63 1003.56 346.07 1005.65 348.13 1009.11 C 348.951 1010.452 349.679 1011.849 350.31 1013.29 C 350.508 1014.125 350.589 1014.983 350.55 1015.84 C 349.646 1015.93 348.733 1015.866 347.85 1015.65 C 346.264 1014.838 344.722 1013.944 343.23 1012.97 C 340.5 1011.34 338.71 1011.73 336.93 1014.34 C 336.45 1015.04 335.99 1015.76 335.13 1017.05 C 334.02 1014.82 333.13 1013.18 332.39 1011.45 C 331.79 1009.99 331.39 1008.57 329.32 1009.26 C 329.18 1003.65 331.24 1000.26 334.4 1000.5 L 333.09 1003.16 C 333.432 1003.171 333.761 1003.024 333.98 1002.76 C 334.67 1002.29 335.39 1001.87 336.1 1001.44 C 336.379 1002.349 336.495 1003.301 336.44 1004.25 C 336.25 1005.08 335.44 1005.77 334.77 1006.65 L 336.91 1007.81 C 337.1 1006.29 337.28 1004.81 337.45 1003.42 L 338.04 1003.23 L 346.91 1012.41 L 347.54 1011.8 Q 343.13 1007.15 338.72 1002.51 C 340.9 1001.45 342.9 1000.51 344.91 999.51 L 344.7 999.02 C 343.31 999.51 341.94 1000.02 340.52 1000.45 C 339.39 1000.691 338.249 1000.871 337.1 1000.99 L 336.96 998.45 L 335.46 999.57 C 330.737 994.784 324.894 991.254 318.46 989.3 C 316.08 988.59 315.34 989.03 315.02 991.48 C 314.958 992.149 315.002 992.824 315.15 993.48 C 315.7 996.34 318.07 997.2 320.36 998.22 C 322.458 999.047 324.468 1000.082 326.36 1001.31 C 328.87 1003.12 328.59 1004.31 325.61 1005.24 C 324.082 1005.653 322.533 1005.986 320.97 1006.24 C 321.19 1006.61 321.25 1006.85 321.39 1006.93 C 325.5 1009.33 328.68 1012.5 330.1 1017.19 C 330.288 1017.592 330.662 1017.877 331.1 1017.95 C 334.91 1017.76 335.98 1020.54 337.26 1023.37 C 335.21 1023.74 335.68 1025.22 335.57 1026.47 C 335.46 1027.72 335.22 1028.94 335.02 1030.32 C 329.9 1027.26 329.94 1027.32 326.55 1031.83 C 325.548 1032.942 324.465 1033.978 323.31 1034.93 C 323.007 1033.953 322.803 1032.948 322.7 1031.93 C 322.7 1030.49 323.01 1029.07 323.1 1027.64 C 323.24 1025.26 322.51 1024.4 320.2 1023.95 C 319.5 1023.82 318.82 1023.61 317.74 1023.34 C 318.74 1022.02 319.59 1021.04 320.3 1019.98 C 321.01 1018.92 321.46 1017.98 322.03 1016.98 L 321.51 1016.37 L 327.51 1015.25 C 327.522 1015.057 327.498 1014.864 327.44 1014.68 C 327.216 1014.257 326.969 1013.846 326.7 1013.45 C 324.671 1010.663 321.899 1008.504 318.7 1007.22 C 315.12 1005.61 312.11 1007.63 312.1 1011.59 L 312.1 1016.36 C 309.297 1015.992 306.643 1014.884 304.41 1013.15 C 301.97 1011.41 301.47 1011.5 299.62 1013.97 C 298.49 1011.81 297.05 1009.87 296.44 1007.69 C 295.83 1005.51 296.03 1003.04 295.86 1000.4 C 293.65 1000.18 291.08 999.91 288.5 999.71 C 288.099 999.706 287.713 999.857 287.42 1000.13 C 283.54 1004 283.32 1008.46 288.03 1011.28 C 290.178 1012.497 292.207 1013.913 294.09 1015.51 C 296.97 1018.09 296.72 1019 293.22 1020.44 C 293.16 1020.44 293.13 1020.54 292.88 1020.83 C 293.94 1022.129 295.079 1023.361 296.29 1024.52 C 297.82 1025.85 299.1 1027.09 297.88 1029.28 C 297.88 1029.28 298 1029.48 297.81 1029.17 C 298.68 1028.78 299.61 1027.99 300.23 1028.17 C 301.47 1028.55 301.23 1030.42 299.8 1032.57 L 300.8 1034.42 L 302.2 1033.29 L 301.46 1028.91 C 305.68 1030.62 308.3 1034 312.46 1034.85 L 301.96 1027.85 L 306.84 1026.33 L 306.16 1024.21 C 305.3 1024.91 304.43 1025.67 303.52 1026.36 C 303.095 1026.704 302.6 1026.953 302.07 1027.09 C 301.554 1027.222 301.007 1027.143 300.55 1026.87 C 300.31 1026.65 300.49 1025.87 300.55 1025.43 C 300.627 1025.127 300.741 1024.835 300.89 1024.56 L 300.57 1024.3 L 299.24 1025.67 C 299.33 1022.09 302.01 1019.95 306.87 1019.57 C 306.51 1021.57 308.02 1021.68 309.36 1022.04 C 311.02 1022.49 312.65 1023.04 314.62 1023.62 L 312.83 1025.21 C 310.22 1027.51 310.11 1029.56 312.46 1032.07 C 313.438 1033.031 314.35 1034.056 315.19 1035.14 C 315.806 1036.227 316.328 1037.364 316.75 1038.54 C 314.75 1038.29 313.4 1038.23 312.11 1037.94 C 310.82 1037.65 309.53 1037.01 308.2 1036.72 C 305.8 1036.19 304.61 1036.9 303.68 1039.14 C 303.33 1039.99 302.93 1040.82 302.33 1042.14 C 300.9 1040.44 299.68 1039.14 298.67 1037.74 C 297.84 1036.56 297.17 1035.36 295.5 1036.47 C 294.573 1033.737 294.872 1030.736 296.32 1028.24 C 296.56 1027.683 296.523 1027.045 296.22 1026.52 C 294.72 1024.74 293.12 1023.03 291.48 1021.37 C 291.016 1020.884 290.411 1020.555 289.75 1020.43 C 287.649 1020.12 285.532 1019.93 283.41 1019.86 C 280.14 1019.78 278.41 1021.46 277.94 1024.73 C 277.74 1026.26 277.48 1027.73 277.22 1029.48 C 274.257 1028.505 271.594 1026.783 269.49 1024.48 C 267.34 1022.24 266.79 1022.27 264.78 1024.72 C 262.57 1019.64 260.3 1014.72 264 1009.23 C 263.111 1009.201 262.224 1009.313 261.37 1009.56 C 258.08 1010.63 254.84 1011.09 251.63 1009.25 C 251.141 1009.122 250.622 1009.197 250.19 1009.46 C 248.53 1010.33 246.9 1011.29 245.03 1012.35 C 245.03 1012.19 245.11 1012.45 245.03 1012.68 C 244.87 1013.58 244.23 1014.68 244.57 1015.31 C 245 1016.09 246.23 1016.41 247.06 1016.99 C 248.91 1018.31 250.73 1019.67 252.93 1021.28 C 251.73 1021.79 251.18 1022.05 250.62 1022.28 C 245.34 1024.28 244.5 1026.66 247.01 1031.8 C 248.017 1033.818 248.808 1035.936 249.37 1038.12 C 249.86 1040.12 249.08 1040.69 247.18 1040.12 C 246.063 1039.807 245.001 1039.325 244.03 1038.69 C 242.37 1037.6 240.87 1036.26 239.21 1035.17 C 236.75 1033.56 234.54 1034.02 232.72 1036.32 C 231.89 1037.38 231.04 1038.42 229.72 1040.08 C 228.55 1037.14 227.45 1034.83 226.72 1032.4 C 225.9 1029.72 225.64 1029.4 222.78 1030.2 C 223.213 1027.951 223.77 1025.727 224.45 1023.54 C 224.99 1022.04 224.45 1021.54 223.22 1021.17 C 220.08 1020.17 217.84 1021.46 216.32 1024.99 C 215.477 1027.083 214.522 1029.129 213.46 1031.12 C 213 1031.93 211.95 1032.39 211.17 1033.02 C 210.57 1032.14 209.66 1031.33 209.46 1030.37 C 209.019 1028.156 208.731 1025.914 208.6 1023.66 C 208.3 1019.76 206.17 1017.98 202.36 1018.49 C 201.308 1018.556 200.252 1018.556 199.2 1018.49 C 199.26 1015.71 200.48 1013.61 201.81 1011.49 C 202.434 1010.771 202.861 1009.903 203.05 1008.97 C 203.05 1008.24 202.14 1007.52 201.59 1006.73 L 204.16 1004.97 L 204.01 1004.41 C 203.01 1004.61 202.01 1004.76 201.01 1005.04 C 199.3 1005.53 197.64 1006.19 195.92 1006.59 C 195.218 1006.759 194.478 1006.589 193.92 1006.13 C 193.703 1005.427 193.821 1004.664 194.24 1004.06 C 195.38 1002.44 196.7 1000.95 197.96 999.42 C 199.02 998.14 199.66 996.81 198.69 995.09 C 192.96 997.09 191.06 1001.94 188.85 1006.73 C 195.35 1009.11 198.97 1015.95 197.21 1022 C 194.61 1020.62 193.81 1021 192.79 1023.85 C 192.525 1024.845 192.167 1025.813 191.72 1026.74 C 190.62 1028.63 189.37 1030.42 187.94 1032.62 C 187.02 1030.9 186.46 1029.8 185.86 1028.73 C 183.71 1024.82 179.92 1023.84 176.13 1026.23 C 174.51 1027.23 172.99 1028.46 171.31 1029.37 C 169.871 1030.158 168.339 1030.762 166.75 1031.17 C 164.68 1031.67 164.11 1031.17 164.49 1029.17 C 164.84 1027.362 165.414 1025.605 166.2 1023.94 C 167.02 1022.14 168.26 1020.54 169.2 1018.77 C 170.92 1015.37 170.06 1012.66 166.81 1010.77 C 165.43 1009.95 164.1 1009.05 162.64 1008.11 C 164.867 1005.695 167.672 1003.885 170.79 1002.85 C 174.06 1001.65 174.26 1001.08 172.79 997.99 C 178.73 998.39 184.86 997.76 188.07 1004.71 L 191.56 998.5 L 185.86 1000.31 C 186.08 999.47 186.14 999.15 186.26 998.84 C 187.39 995.84 186.68 994.71 183.47 994.33 C 182.04 994.17 180.6 994.13 179.16 994 C 175.257 993.631 171.472 992.463 168.04 990.57 C 169.59 988.9 170.99 987.3 172.48 985.81 C 176.91 981.36 176.89 975.99 172.3 971.81 C 170.18 969.81 167.91 968.08 165.76 966.15 C 163.377 964.155 161.588 961.543 160.59 958.6 C 160.15 957.19 160.51 956.19 162 956.05 C 164.354 955.67 166.745 955.583 169.12 955.79 C 172.97 956.4 176.71 957.6 180.52 958.46 C 183.032 959.112 185.703 958.466 187.64 956.74 C 188.04 956.38 188.54 955.55 188.39 955.23 C 187.14 952.62 185.75 950.08 184.16 947.05 C 181.91 952.6 177.53 953.34 172.82 954.15 C 173.73 951.68 172.54 951 170.61 950.67 C 167.922 950.366 165.379 949.289 163.29 947.57 C 164.29 946.79 165.2 946.17 166.05 945.48 C 168.82 943.22 169.12 940.29 166.85 937.56 C 165.85 936.4 164.73 935.38 163.85 934.16 C 162.962 932.874 162.189 931.512 161.54 930.09 C 160.99 928.94 161.42 928.09 162.77 928.31 C 164.71 928.59 166.64 929.01 168.55 929.47 C 169.446 929.75 170.324 930.084 171.18 930.47 C 171.18 926.36 170.86 922.37 171.27 918.47 C 171.68 914.57 172.83 910.63 173.64 906.75 C 167.23 908.13 163.75 904.58 160.03 899.43 C 162.75 898.77 163.03 898.25 162.26 895.71 C 162.092 895.334 161.952 894.946 161.84 894.55 C 161.39 891.97 160.97 889.38 160.54 886.79 L 161.16 886.47 C 162.47 887.02 163.75 887.6 165.07 888.1 C 168.45 889.4 171.43 888.18 172.83 884.85 C 173.46 883.34 173.83 881.69 174.45 880.2 C 175.13 878.487 176.002 876.856 177.05 875.34 C 178.49 873.43 179.2 873.54 180.3 875.6 C 180.916 876.743 181.364 877.969 181.63 879.24 C 182.13 881.58 182.29 884 182.85 886.32 C 183.62 889.5 185.79 890.75 189.02 890.26 C 190.48 890.03 191.96 889.93 193.61 889.75 C 193.375 892.804 192.385 895.752 190.73 898.33 C 190.104 899.207 189.755 900.252 189.73 901.33 C 189.83 902.02 191.08 902.55 191.94 903.25 C 187.1 906.5 182.52 910.86 176 906.25 C 175.62 907.12 175.3 907.79 175 908.48 C 172.521 914.99 171.85 922.05 173.06 928.91 C 173.2 929.71 173.71 931.06 174.06 931.08 C 175.065 931.062 176.036 930.71 176.82 930.08 C 177.442 929.454 177.92 928.7 178.22 927.87 C 178.79 926.72 179.22 925.54 180.07 923.72 C 181.9 926.02 183.41 927.9 184.9 929.81 C 185.49 930.56 185.9 931.69 186.61 932.03 C 187.32 932.37 188.37 931.84 189.33 931.69 C 189.87 936.77 190.95 942.15 184.46 944.93 L 189.55 953.93 L 192.4 944.51 L 198.99 948.92 C 199.07 944.8 199.93 940.98 196.79 937.56 L 199.43 937.56 C 199.74 934.1 199.99 930.76 200.35 927.43 C 200.441 926.14 200.731 924.872 201.21 923.67 C 202.21 921.51 203.42 919.46 204.62 917.21 C 197.93 916.5 194.73 914.35 192.92 909.54 C 195.07 909.54 195.64 908.31 195.09 906.4 C 194.922 905.947 194.821 905.472 194.79 904.99 C 194.79 902.87 194.79 900.75 194.79 898.46 C 197.4 899.11 199.01 901.46 201.79 900.61 C 201.19 887.78 199.79 875.19 194.92 862.73 C 191.37 867.73 186.85 866.54 181.98 865.82 C 183.72 864.05 183.07 862.99 181.58 862.09 C 179.226 860.823 177.264 858.935 175.91 856.63 C 176.98 856.34 177.91 856.1 178.8 855.84 C 182.21 854.84 183.67 852.24 182.6 848.84 C 181.928 847.268 181.357 845.655 180.89 844.01 C 180.747 842.412 180.764 840.804 180.94 839.21 C 182.41 839.77 183.94 840.29 185.34 840.93 C 185.795 841.231 186.206 841.595 186.56 842.01 C 187.622 843.073 188.744 844.074 189.92 845.01 C 190.795 845.765 191.941 846.129 193.091 846.018 C 194.242 845.906 195.296 845.329 196.01 844.42 C 196.89 843.49 197.62 842.42 198.43 841.42 L 199.43 841.74 C 200.31 844.74 201.19 847.66 202.17 850.98 C 203.79 842.46 194.01 815.33 188.54 812.52 C 186.99 816.76 183.6 818.6 177.15 818.43 C 177.78 816.24 177.51 815.96 175.27 815.12 C 173.03 814.28 170.74 813.12 168.49 812.12 L 168.65 811.42 L 171.03 809.89 C 174.33 807.76 174.85 805.08 172.57 801.89 C 171.456 800.575 170.453 799.17 169.57 797.69 C 169.04 796.277 168.661 794.812 168.44 793.32 C 169.966 793.273 171.493 793.401 172.99 793.7 C 174.704 794.395 176.373 795.193 177.99 796.09 C 181.05 797.48 183.15 796.73 184.63 793.81 C 185.16 792.75 185.77 791.73 186.71 790.04 C 188.193 792.142 189.568 794.318 190.83 796.56 C 191.72 798.35 192.44 799.79 194.77 798.29 C 194.94 803.29 195.38 808.18 189.77 810.61 C 191.61 813.61 193.48 816.27 195.04 819.15 C 201.5 831.08 204.11 844.01 204.51 857.42 C 204.85 868.6 204.86 879.8 205.06 890.99 C 205.06 892.86 205.34 894.72 205.49 896.59 L 206.01 896.69 L 212.07 885.92 C 207 882.15 205.2 877.03 206.82 871.08 C 209.19 872.62 210.03 872.33 211.12 869.57 C 211.297 869.198 211.408 868.799 211.45 868.39 C 211.55 861.59 213.51 855.14 215.19 848.64 C 215.88 845.95 216.53 843.26 217.19 840.64 L 222.31 842.28 C 221.61 841.52 220.68 841.37 219.99 840.89 C 219.3 840.41 218.46 839.58 218.51 838.98 C 218.56 838.38 219.51 837.66 220.2 837.17 C 220.65 836.843 221.21 836.706 221.76 836.79 C 223.51 837.23 225.22 837.79 226.66 838.26 L 226.12 837.15 L 229.86 837.51 L 229.92 836.95 L 220.29 835.65 C 223.07 831.79 224.86 827.04 228.45 823.71 C 228.96 822.55 229.45 821.39 230 820.23 L 229.82 820.11 L 227.59 822.71 L 227.13 821.4 C 226.04 827.01 221.94 830.69 219.5 835.33 L 218.89 835.24 C 217.98 833.02 217.08 830.8 216.28 828.84 L 215.91 829.7 L 214.77 829.02 L 214.77 831.49 C 216.94 831.95 218.02 833.77 218.22 836.13 C 218.282 836.93 217.981 837.716 217.4 838.27 C 216.606 838.592 215.703 838.491 215 838 C 213.813 837.11 212.687 836.142 211.63 835.1 L 211.26 835.49 L 216.11 839.96 C 213.934 840.577 211.594 840.003 209.95 838.45 C 206.24 835.45 205.85 830.99 204.59 826.66 C 207.92 827.66 208.38 827.39 208.97 824.2 C 209.012 823.722 209.086 823.248 209.19 822.78 C 210.07 820.17 210.97 817.57 211.87 814.97 L 212.58 815.05 C 213.48 816.15 214.29 817.33 215.29 818.33 C 216.126 819.225 217.115 819.963 218.21 820.51 C 220.84 821.67 221.44 821.18 221.55 818.34 C 221.812 809.42 220.589 800.518 217.93 792 C 217.05 789.08 216.08 786.2 214.93 782.79 C 211.31 788.2 206.66 786.79 201.93 786.19 C 203.27 784 203.14 783.47 201.19 782.19 C 200.406 781.766 199.663 781.27 198.97 780.71 C 197.84 779.64 196.82 778.44 195.54 777.07 C 197.31 776.53 198.54 776.24 199.65 775.79 C 202.28 774.73 202.99 772.79 201.92 770.23 C 199.1 763.39 197.69 756.34 198.92 748.93 C 199.21 747.17 199.65 745.43 200.04 743.58 C 193.19 744.78 187.52 740.78 185.55 733.63 C 188.71 733.72 189.03 733.31 188.66 729.9 C 188.14 726.643 188.379 723.309 189.36 720.16 L 192.36 722.16 C 196.86 725.16 200.21 724.37 202.92 719.68 C 204.19 717.49 205.22 715.01 206.99 713.29 C 209.94 710.43 208.35 707.29 208.75 703.75 C 203.47 706.5 199.81 703.89 195.91 701.46 C 198.03 700.14 198.16 699.46 196.77 697.56 C 195.38 695.66 193.98 693.4 193.77 690.68 C 195 690.8 196.01 690.95 197.03 690.99 C 200.56 691.12 202.41 689.57 202.85 686.05 C 203.01 684.7 202.85 683.3 202.99 681.94 C 203.23 679.75 202.99 677.33 205.44 675.99 C 205.65 675.88 205.76 675.4 205.74 675.1 C 205.63 673.62 205.46 672.1 205.3 670.48 C 199.83 672.43 196.68 669.04 193.3 665.88 C 195.52 664.76 195.67 664.26 194.74 661.99 C 194.241 660.861 193.843 659.69 193.55 658.49 C 193.339 657.192 193.198 655.883 193.13 654.57 L 195.38 655.32 C 199.92 656.88 202.38 655.42 203.38 650.69 C 203.611 649.202 204.025 647.748 204.61 646.36 C 205.362 645.129 206.24 643.979 207.23 642.93 C 208.142 643.99 208.924 645.155 209.56 646.4 C 210.32 648.4 210.56 650.66 211.26 652.74 C 212.09 655.34 214.06 656.38 216.72 655.85 L 220.43 655.12 L 221.01 655.62 C 220.29 657.85 219.66 660.11 218.81 662.29 C 218.15 663.98 217.34 665.55 219.81 666.43 C 215.64 670.53 212.69 672.72 207.03 670.21 C 206.94 670.452 206.876 670.704 206.84 670.96 C 206.67 676.29 208.47 681.05 211.18 685.49 C 212.4 687.49 214.36 687.97 216.57 687.09 C 217.81 686.6 219.04 686.09 220.27 685.54 L 220.98 685.87 C 220.851 688.268 220.601 690.658 220.23 693.03 C 219.85 694.9 219.72 696.31 222.6 696.56 C 221.34 697.9 220.36 698.89 219.43 699.94 C 216.43 703.3 214 703.94 210.05 702.43 C 210.607 702.217 211.188 702.072 211.78 702 Z  M 185.09 813.18 L 185.59 813.5 L 188.79 809.73 L 186.39 809.12 C 186.55 806.58 186.71 804.04 186.86 801.58 C 184.99 802.93 186.09 805.32 185.22 807.58 L 174 798.06 L 173.46 798.68 L 184.69 808.18 L 178.83 810.94 L 181.1 811.74 C 181.98 809.25 184.18 809.12 186.42 809.07 C 187.74 810.93 186.24 812 185.09 813.18 Z  M 303.61 997 C 303.124 997.378 302.605 997.713 302.06 998 C 301.55 998.26 300.73 997.91 300.06 997.83 C 300.37 997.34 300.65 996.83 300.99 996.36 C 302.07 994.86 303.99 993.73 303.31 991.36 C 300.18 992.36 298.79 994.47 298.87 997.94 C 297.312 996.454 296.906 994.125 297.87 992.2 C 298.775 990.358 299.776 988.566 300.87 986.83 L 289.72 985.5 L 290.43 987.62 C 288.23 988.62 286.05 989.69 283.77 990.54 C 281.49 991.39 281.23 991.54 281.77 994.03 C 277.45 993.76 273.35 993.29 270.95 989.03 L 262.53 993.59 C 264.31 996.42 268.63 993.95 270.53 997.17 L 275.83 994.27 C 275.61 997.52 276.18 997.91 279.17 997.7 C 281.351 997.619 283.534 997.712 285.7 997.98 C 289.17 998.3 292.62 998.89 296.1 999.09 C 297.85 999.18 298.65 999.59 298.44 1001.44 C 298.404 1002.17 298.702 1002.877 299.25 1003.36 C 299.145 1002.43 299.145 1001.49 299.25 1000.56 C 299.61 999.02 300.72 998.67 301.78 999.81 C 302.511 1000.7 303.111 1001.69 303.56 1002.75 C 303.99 1003.62 302.97 1004.75 304.42 1005.63 C 305.1 1006.03 305.1 1007.63 305.55 1009.12 C 305.55 1007.18 305.85 1005.68 305.47 1004.37 C 304.88 1002.844 304.129 1001.386 303.23 1000.02 C 306.08 999.53 314.34 1001.26 315.96 1002.6 C 317.96 1000.96 320.02 1002.85 322.49 1002.5 L 320.79 1001.85 C 315.65 999.85 310.09 1000.15 304.79 998.95 L 303.68 998.72 L 304.33 997.33 C 304.583 996.957 304.741 996.528 304.79 996.08 C 304.44 996.15 304 996.72 303.61 997 Z  M 209.67 983.16 L 211.81 977.3 C 212.64 977.76 213.43 978.57 214.07 978.46 C 214.91 978.33 215.64 977.46 216.39 976.93 C 218.27 975.51 220.13 974.07 222.48 972.26 C 222.7 974.26 222.82 975.53 222.98 976.79 C 223.177 979.131 224.949 981.035 227.27 981.4 C 231.74 982.12 237.08 979.29 239.27 974.83 C 231.13 976.14 227.99 970.19 224.27 965.1 C 225.39 964.77 226.82 964.78 227.27 964.1 C 227.79 963.27 227.6 961.92 227.53 960.8 C 227.38 958.35 227.09 955.9 226.9 953.45 C 226.84 952.73 226.9 952 226.9 951.04 C 222.57 952.37 218.56 952.66 215.02 949.82 C 213.839 952.55 212.814 955.344 211.95 958.19 C 211.6 959.61 212.38 961.27 212.48 962.83 C 212.834 965.397 212.924 967.994 212.75 970.58 C 212.14 975.02 210.53 977.03 206.02 980.18 L 209.67 983.16 Z  M 190.36 987.95 L 190.72 988.06 C 191.12 986.68 191.55 985.31 191.92 983.92 C 192.62 981.27 196.92 978.49 199.6 978.92 C 201.49 979.24 202.34 980.29 201.72 982.08 C 201.129 983.521 200.37 984.887 199.46 986.15 C 198.914 986.833 198.403 987.544 197.93 988.28 C 200.699 986.643 202.627 983.891 203.22 980.73 L 204 980.73 C 204.326 982.145 204.517 983.589 204.57 985.04 C 204.443 985.608 204.571 986.203 204.918 986.67 C 205.266 987.136 205.799 987.429 206.38 987.47 C 208.796 987.925 210.797 989.614 211.65 991.92 C 211.85 992.46 212.98 992.64 213.65 992.99 L 213.91 992.49 L 216.21 995.65 L 216.74 995.28 C 216.255 994.692 215.833 994.055 215.48 993.38 C 215.24 992.81 215.03 991.76 215.3 991.54 C 215.894 991.163 216.615 991.04 217.3 991.2 C 219.068 991.518 220.421 992.956 220.63 994.74 C 222.76 994.47 223.41 996.69 225.25 997.06 L 222.57 994 L 224.04 993.45 L 218.15 990.71 L 218.24 990.04 C 222.05 989.04 225.35 986.39 228.59 986.42 L 235.28 983.23 L 229.28 984.46 L 217.9 989.4 L 217.3 988.89 C 217.93 986.89 218.57 984.89 219.2 982.89 L 215.67 983.89 C 217.32 985.7 217.47 987.53 216.17 989.41 C 215.23 990.78 214.23 990.76 213.63 989.19 C 213.03 987.62 212.91 986.19 212.3 984.67 L 212.86 990.55 C 211.305 989.987 210.222 988.568 210.09 986.92 C 209.875 985.509 209.067 984.257 207.87 983.48 C 206.408 982.33 205.015 981.095 203.7 979.78 C 207.34 975.51 206.03 970.72 205.99 966.14 C 205.79 968.62 205.68 971.14 205.37 973.59 C 205.229 974.736 204.891 975.849 204.37 976.88 C 203.08 979.4 201.37 979.45 199.71 977.11 C 197.659 974.431 197.659 970.709 199.71 968.03 C 200.004 967.67 200.172 967.224 200.19 966.76 L 198.32 968.1 L 198.32 958.19 L 198.17 958.19 C 197.96 961.14 197.74 964.08 197.49 967.52 L 194.44 964.22 L 193.77 964.56 C 198.36 967.45 196.58 972.23 197.94 976.42 C 197.378 976.275 196.827 976.091 196.29 975.87 C 191.58 973.47 186.79 971.2 182.23 968.54 C 180.49 967.54 179.23 965.61 178.1 964.4 C 178.1 964.57 178.24 965.33 178.44 966.63 L 169.07 961.63 L 168.82 962.06 L 177.82 967.58 L 175.42 968.36 C 179.04 967.89 181.92 969.69 184.9 971.29 C 188.9 973.45 193.04 975.5 197.37 977.73 C 193.17 980.08 189.88 983.98 184.5 982.84 L 189.95 983.33 L 183.79 989.11 L 184.09 989.48 L 191.41 983.11 L 190.36 987.95 Z  M 202.84 858.13 L 196.13 862.13 C 200.77 873.89 202.22 886.83 203.06 899.89 L 203.68 899.75 Q 203.26 878.91 202.84 858.11 L 202.84 858.13 Z  M 211.69 955.78 C 212.33 953.07 212.91 950.61 213.63 947.53 C 207.97 949.87 204.1 947.72 200.74 943.93 C 199.41 948.76 201.74 954.68 205.74 957.14 C 206.203 957.511 206.799 957.672 207.385 957.584 C 207.972 957.497 208.495 957.169 208.83 956.68 C 209.3 956.09 209.7 955.45 210.2 954.75 L 211.69 955.78 Z  M 240.91 1012.22 L 227.05 1005.65 C 227.96 1009.16 228.78 1012.73 229.82 1016.23 C 230.34 1017.99 232.18 1019.67 229.54 1021.23 C 229.66 1021.23 229.81 1021.32 229.89 1021.28 C 230.76 1020.77 231.94 1019.22 232.53 1020.63 C 233.12 1022.04 232.4 1023.81 232.13 1025.41 C 232.07 1025.74 231.4 1025.95 231.3 1026.02 L 231.3 1028.02 L 232.53 1027.84 L 234.05 1021.97 C 236.67 1025.97 240.37 1028.39 241.56 1032.61 L 242.93 1031.38 L 234.68 1021.8 L 239.68 1020.67 L 239.68 1020.22 C 239.251 1020.087 238.808 1020.006 238.36 1019.98 C 238.05 1019.98 237.75 1020.28 237.43 1020.4 C 235.43 1021.15 233.15 1020.83 233 1019.66 C 232.77 1017.73 234.48 1017.3 235.8 1016.66 C 236.025 1016.54 236.242 1016.406 236.45 1016.26 L 236.18 1015.79 L 231.75 1018.32 C 233.21 1012.8 237.39 1012.39 240.91 1012.2 L 240.91 1012.22 Z  M 205.91 916.82 C 204.91 919.38 204.08 921.44 203.37 923.55 C 203.307 924.064 203.48 924.579 203.84 924.95 C 205.315 926.522 207.446 927.306 209.589 927.064 C 211.731 926.822 213.633 925.582 214.72 923.72 C 215.93 921.78 216.92 919.72 218.16 917.4 C 215.58 918.15 213.37 918.72 211.22 919.46 C 210.83 919.6 210.67 920.46 210.29 921.15 L 205.91 916.82 Z  M 220.07 1014.82 C 220.13 1013.82 219.07 1012 221.6 1011.59 C 221.204 1011.555 220.806 1011.555 220.41 1011.59 C 218.816 1011.966 217.162 1011.261 216.33 1009.85 C 215.877 1009.227 215.74 1008.428 215.96 1007.69 C 216.533 1007.168 217.321 1006.953 218.08 1007.11 C 219.447 1007.521 220.783 1008.025 222.08 1008.62 L 222.29 1008.1 L 216.02 1005.63 C 217.059 1005.251 218.14 1004.999 219.24 1004.88 C 220.462 1004.942 221.664 1005.219 222.79 1005.7 C 223.882 1006.276 224.923 1006.945 225.9 1007.7 C 225.59 1004.78 225.17 1002.29 222.29 1000.63 C 222.07 1001.53 221.89 1002.25 221.64 1003.24 L 216.37 1000.43 C 216.229 1000.71 216.112 1001.001 216.02 1001.3 C 215.76 1002.57 215.88 1004.11 215.17 1005.02 C 214.65 1005.7 213.07 1005.54 211.97 1005.81 C 211.334 1005.945 210.751 1006.261 210.29 1006.72 C 210.944 1006.558 211.617 1006.484 212.29 1006.5 C 213.107 1006.685 213.906 1006.939 214.68 1007.26 C 214.418 1008.046 214.033 1008.785 213.54 1009.45 C 212.41 1010.54 211.07 1011.19 209.44 1010.3 C 209.048 1010.13 208.602 1010.13 208.21 1010.3 L 209.66 1011.11 L 205.37 1012.51 L 205.46 1012.75 L 210.15 1012.39 L 214.43 1010.14 C 213.54 1016.14 212.74 1021.51 211.94 1026.93 L 212.7 1027.05 C 213.57 1021.6 214.45 1016.15 215.43 1010.05 L 220.07 1014.82 Z  M 244.49 973 C 243.83 972.91 242.84 972.46 242.71 972 C 242.604 971.216 242.82 970.422 243.31 969.8 C 244.786 968.077 247.169 967.438 249.31 968.19 C 250.402 968.583 251.559 968.767 252.72 968.73 C 252.13 968.53 251.53 968.35 250.95 968.11 C 250.37 967.87 249.88 967.61 249.2 967.29 L 257.25 964.88 L 257.12 964.43 L 249.68 966.37 L 250.63 964.27 L 243.48 968.51 C 243.18 963.75 245.66 955.03 248.1 951.99 L 246.24 952.44 C 246.76 950.03 247.24 947.75 247.76 945.44 C 244.76 952.56 243.76 960.16 242.06 967.86 C 239.31 965.86 236.57 964.22 236.35 960.3 C 235.46 961.46 237.46 963.65 234.35 963.3 L 236.35 965.01 L 233.02 965.31 L 232.96 965.75 C 234.14 965.82 235.32 965.97 236.5 965.93 C 238.5 965.86 241.35 968.21 241.5 970.21 C 241.59 971.37 241.06 972.21 239.89 972.07 C 238.427 971.828 236.993 971.436 235.61 970.9 C 234.61 970.54 233.74 969.9 232.73 969.62 C 237.16 973.48 242.35 974.22 247.84 973.7 L 247.84 973.01 C 246.725 973.086 245.605 973.083 244.49 973 Z  M 176.72 1009.65 L 183.43 1010.25 L 183.71 1010.79 C 179.95 1014.15 177.65 1019.06 172.44 1021.05 L 173.37 1021.68 L 169.24 1026.13 C 171.69 1025.85 172.4 1022.9 174.34 1022.78 L 184.74 1010.96 Q 185.8 1014.66 186.47 1016.96 L 189 1020 L 189.29 1019.84 L 187.89 1016.51 L 190.11 1016.9 C 189.61 1016.43 189.4 1016.1 189.11 1015.97 C 186.933 1015.199 185.654 1012.944 186.11 1010.68 C 186.2 1010 186.54 1008.96 187 1008.81 C 187.769 1008.663 188.565 1008.848 189.19 1009.32 C 190.008 1010.044 190.751 1010.848 191.41 1011.72 C 191.11 1008.34 184.59 1003.55 179.98 1003.39 C 181.65 1004.06 183.283 1004.821 184.87 1005.67 C 185.52 1006.06 185.87 1007.02 186.29 1007.73 C 185.54 1008.342 184.696 1008.828 183.79 1009.17 C 181.18 1009.71 179.34 1008.39 177.79 1006.34 L 178.39 1008.15 L 173.66 1006.73 L 173.53 1007.09 L 177.38 1008.73 L 176.72 1009.65 Z  M 214.33 942.19 C 212.77 939.58 209.23 938.68 209.19 935.09 C 209.19 935.8 209.12 936.52 209.08 937.37 L 206.77 936.2 L 206.59 936.48 L 209.32 938.62 L 206.69 938.99 C 209.03 939.23 211.45 939.24 212.82 941.68 C 213.125 942.135 213.405 942.605 213.66 943.09 C 214.41 944.84 213.66 945.94 211.81 945.91 C 211.129 945.873 210.457 945.745 209.81 945.53 C 209.194 945.315 208.59 945.068 208 944.79 C 209.67 947.06 217.3 948.56 221.16 947.21 C 219.578 947.322 217.989 947.305 216.41 947.16 C 214.27 946.76 213.94 945.37 215.41 943.8 C 217.029 941.929 219.729 941.431 221.91 942.6 C 222.462 942.889 223.077 943.04 223.7 943.04 L 221.42 941.52 L 224.82 940.81 L 224.82 940.58 L 222.54 940.36 C 222.64 939.84 222.72 939.36 222.73 939.36 L 215.25 942.55 C 216.04 939.62 216.6 937.25 217.32 934.92 C 218.04 932.59 219.04 930.34 219.66 927.99 C 220.23 925.83 220.45 923.57 220.83 921.35 L 220.32 921.21 C 218.37 928.11 216.38 935 214.33 942.17 L 214.33 942.19 Z  M 275.93 1005.27 L 273.88 1003.64 C 274.09 1005.8 272.79 1007.57 270.39 1008.45 C 269.652 1008.712 268.837 1008.646 268.15 1008.27 C 267.743 1007.663 267.644 1006.901 267.88 1006.21 C 268.441 1005.032 268.877 1003.799 269.18 1002.53 L 266.25 1007.81 C 265.94 1006.2 265.67 1004.86 265.41 1003.53 C 262.54 1005.07 262.71 1006.04 265.93 1008.66 L 265.93 1015.37 L 266.32 1015.37 C 266.32 1014.92 266.32 1014.47 266.32 1014.03 C 266.32 1013.59 266.02 1012.87 266.19 1012.41 C 266.636 1011.324 267.14 1010.262 267.7 1009.23 C 268.57 1010 269.95 1010.63 270.21 1011.57 C 270.63 1013.07 270.32 1014.79 270.32 1016.41 L 271.15 1015.92 C 271.27 1016.92 271.37 1017.92 271.47 1018.8 L 271.68 1018.8 C 271.75 1018.02 271.81 1017.23 271.89 1016.31 L 272.89 1016.73 C 272.19 1014.8 271.44 1012.73 270.5 1010.12 C 273.85 1011.24 276.67 1012.12 279.5 1013.12 C 282.163 1014.137 284.889 1014.982 287.66 1015.65 L 284.61 1013.74 L 270.84 1009.44 L 275.93 1005.27 Z  M 202.7 738.31 C 203.87 731.8 206.7 726.1 207.85 719.92 L 207.19 719.72 C 205.37 725.72 203.56 731.72 201.58 738.21 L 196.58 731.96 L 196.89 731.54 C 196.82 732.13 196.74 732.72 196.64 733.47 L 194.48 732.27 L 194.25 732.54 L 196.82 734.62 L 194.66 735.04 C 196.89 735.19 199.12 735.4 200.18 737.73 C 200.524 738.816 200.729 739.942 200.79 741.08 C 199.702 741.211 198.606 741.268 197.51 741.25 C 196.782 741.059 196.088 740.759 195.45 740.36 C 197.58 742.8 204.71 744.24 207.45 743.04 C 206.016 743.051 204.583 742.934 203.17 742.69 C 201.5 742.28 201.28 741.02 202.44 739.69 C 203.732 738.224 205.735 737.603 207.63 738.08 L 212.31 736.71 C 211.58 735.71 209.69 737.71 209.17 735.93 L 202.7 738.31 Z  M 210.42 895.15 L 209.63 894.96 C 208.34 900.44 207.06 905.96 205.63 911.96 L 201.46 907 C 201.37 907.25 200.76 908 200.9 908.61 C 201.39 910.69 199.51 908.86 199.36 910.05 L 201.5 910.05 C 203.44 910.05 204.45 911.45 205.17 912.94 C 205.66 913.94 205.27 914.87 203.91 914.86 C 203.243 914.791 202.569 914.821 201.91 914.95 C 204.54 915.81 207.14 916.84 210.05 915.8 C 209.28 915.809 208.51 915.752 207.75 915.63 C 207.21 915.5 206.46 915.14 206.33 914.73 C 206.29 914.134 206.504 913.549 206.92 913.12 C 208.31 911.58 209.63 911.5 213.31 912.68 L 212 911.27 L 214.88 910.36 L 214.88 910.06 L 212.33 910.23 L 212.47 908.79 L 207.23 912 L 206.74 911.43 L 210.42 895.15 Z  M 206.3 778.22 L 207.85 780.79 L 207.85 780.16 C 209.41 779.95 210.97 779.65 212.53 779.59 C 213.119 779.701 213.607 780.11 213.82 780.67 C 213.763 781.255 213.453 781.785 212.97 782.12 C 211.981 782.738 210.956 783.296 209.9 783.79 C 213.81 783.45 218.22 779.91 219.12 776.35 C 218.425 777.383 217.652 778.363 216.81 779.28 C 216.194 779.637 215.515 779.871 214.81 779.97 C 214.59 779.29 214.02 778.46 214.23 777.97 C 214.732 776.845 215.407 775.806 216.23 774.89 C 216.68 774.37 217.45 774.14 217.9 773.42 L 215.9 774.12 C 216.41 773.2 216.79 772.51 217.18 771.83 L 216.96 771.6 L 215.44 772.85 L 214.78 771.19 L 213.67 777.37 L 212.89 777.48 C 210.8 774.26 208.06 771.48 207.08 767.63 C 205.08 767.93 205.48 765.12 203.42 764.74 C 206.42 769.35 209.19 773.69 211.98 778.02 L 211.76 778.69 L 206.3 778.22 Z  M 209 668.43 C 208.415 668.502 207.834 668.277 207.45 667.83 C 207.299 667.263 207.417 666.659 207.77 666.19 C 208.77 664.8 209.99 663.75 211.95 664.4 C 212.524 664.51 213.117 664.455 213.66 664.24 L 212.56 663.88 L 212.18 661.19 L 207.44 665.25 C 206.55 659.43 208.12 654.1 206.44 648.86 L 206.44 664.59 L 205.73 665.03 L 201.16 661.49 C 201.16 661.49 201.16 662.01 201.22 662.61 L 199.37 662.61 L 201.37 663.92 L 199.01 664.92 C 200.22 664.83 200.82 664.79 201.42 664.73 C 201.76 664.73 202.1 664.57 202.42 664.55 C 203.91 664.43 206.04 665.9 206.2 667.15 C 206.35 668.23 205.97 668.41 202.8 668.72 C 204.98 670.13 210.24 669.45 213.43 667.08 C 211.976 667.602 210.498 668.053 209 668.43 L 209 668.43 Z  M 181.8 897.86 C 181.23 898.05 180.64 898.18 180.1 898.42 C 178.92 898.94 177.77 899.52 176.1 900.3 C 176.71 893.72 177.3 887.47 177.91 880.96 C 176.55 882.56 177.78 884.91 176.22 885.96 C 175.97 890.65 175.72 895.35 175.44 900.53 L 170.08 896.75 L 168.55 897.12 C 169.55 898.12 170.37 899.33 172.11 899.12 C 172.42 899.12 172.82 899.51 173.11 899.78 C 174.17 900.72 175.78 901.78 174.89 903.23 C 174.44 903.95 172.52 903.78 171.26 904.01 C 171.07 904.025 170.88 904.025 170.69 904.01 L 170.63 904.54 L 178.77 905.25 C 178.68 904.89 178.67 904.71 178.63 904.7 C 177.43 904.43 175.77 904.7 175.92 902.7 C 176.02 901.32 178.69 899.32 180.22 899.39 C 180.742 899.457 181.259 899.554 181.77 899.68 L 181.8 897.86 Z  M 186.53 847.63 L 185.28 845.38 L 184.4 846.08 C 185.62 847.95 186.83 849.82 188.06 851.68 C 189.29 853.54 190.63 855.55 192.06 857.62 C 190.11 858.63 187.79 858.63 185.84 857.62 L 187.02 858.94 L 183.59 859.94 L 183.65 860.22 L 187.26 859.61 C 187.32 859.98 187.39 860.34 187.47 860.85 C 187.794 860.665 188.09 860.437 188.35 860.17 C 189.3 858.82 190.68 858.79 192.04 859.17 C 192.734 859.344 193.329 859.791 193.69 860.41 C 193.84 860.73 193.15 861.51 192.69 861.99 C 192.343 862.299 191.956 862.562 191.54 862.77 L 191.97 863.36 L 198.17 858.8 L 197.73 858.22 C 197.514 858.444 197.272 858.642 197.01 858.81 C 196.25 859.17 195.47 859.47 194.7 859.81 C 194.437 858.88 194.269 857.925 194.2 856.96 C 194.27 856.275 194.603 855.643 195.13 855.2 C 196.59 854.08 196.03 853.2 194.92 852.14 C 194.7 853.07 194.56 853.91 194.29 854.71 C 194.02 855.51 193.59 856.34 193 857.71 C 191 853.71 187.18 851.09 187.2 846.04 C 186.93 846.51 186.79 846.85 186.49 847.63 L 186.53 847.63 Z  M 174.53 945 C 174.53 945.17 174.67 945.68 174.8 946.35 L 176.04 946.14 L 175.65 947.64 C 176.55 946.46 177.24 945.02 178.37 944.25 C 179.21 943.69 180.64 944 181.8 943.93 L 181.8 947.12 C 182.57 945.98 183.4 944.74 184.03 943.82 C 183.08 943.23 181.84 942.9 181.49 942.16 C 180.62 940.29 180.87 938.4 182.16 937.44 C 181.95 936.03 181.8 934.99 181.54 933.3 C 181 936.36 180.54 938.84 180.04 941.71 C 176.81 939.29 173.04 937.71 170.45 934.3 L 168.66 934.81 L 180.08 942.75 L 174.53 945 Z  M 207 995 L 208.4 996.05 L 203.32 999.75 L 203.59 1000.16 L 208.98 996.61 C 209.19 998.13 209.34 999.32 209.51 1000.61 L 211 1000.12 C 210.252 999.539 209.771 998.681 209.663 997.74 C 209.556 996.799 209.832 995.855 210.43 995.12 L 207 995 Z  M 327.93 1017.48 L 327.77 1017.75 L 329.23 1018.83 C 328.46 1021.47 325.68 1019.54 324.41 1021.14 C 326.06 1021.14 327.62 1021.14 329.17 1021.14 C 329.41 1021.14 329.63 1020.73 329.84 1020.5 L 331.45 1018.8 L 327.93 1017.48 Z  M 227.39 1018.55 C 227.39 1018.77 228.12 1019.07 228.27 1018.97 C 228.59 1018.77 229.02 1018.23 228.93 1017.97 C 228.35 1016.14 227.65 1014.35 226.98 1012.55 L 226.17 1012.73 C 226.52 1014.7 226.88 1016.65 227.34 1018.57 L 227.39 1018.55 Z " id="Compound Path" class="cls-7" fill="rgb(23,91,93)"/><path d=" M 314.81 898.96 L 300.3 868.99 L 266.4 864.34 L 254.87 849.6 L 256 839.02" id="Path" class="cls-5" fill="none" vector-effect="non-scaling-stroke" stroke-width="2" stroke="rgb(8,76,65)" stroke-linejoin="miter" stroke-linecap="butt" stroke-miterlimit="10"/><path d=" M 288.2 745.89 L 274.22 712.73 L 276.68 684.57 L 262.69 664.54 L 267.23 653.76" id="Path" class="cls-5" fill="none" vector-effect="non-scaling-stroke" stroke-width="2" stroke="rgb(8,76,65)" stroke-linejoin="miter" stroke-linecap="butt" stroke-miterlimit="10"/><path d=" M 218.68 485.26 L 204.86 491.06 L 205.64 489.87 L 205.47 502.53 L 205.46 502.92 L 205.24 503.21 L 194.02 517.61 L 194.08 516.65 L 201.46 529.79 L 201.64 530.11 L 201.49 530.41 L 193.33 545.76 L 200.29 529.83 L 200.31 530.45 L 192.58 517.52 L 192.28 517.03 L 192.63 516.56 L 203.45 501.86 L 203.22 502.53 L 203.05 489.87 L 203.04 489.04 L 203.83 488.68 L 217.49 482.51 L 218.68 485.26 L 218.68 485.26 L 218.68 485.26 Z " id="Path" class="cls-8" fill="rgb(8,76,65)"/><path d=" M 401 383 L 406.21 371.34 L 406.38 370.96 C 407.573 370.694 408.728 370.28 409.82 369.73 C 412.963 368.112 415.865 366.062 418.44 363.64 L 418.82 363.83 L 431 369.91 L 430.65 369.91 L 437.92 367.27 L 438 367.27 L 438.09 367.27 C 438.03 367.27 455.53 370.21 455.34 370.21 L 462.27 368.74 C 462.27 368.74 455.38 370.41 455.34 370.4 L 438 367.91 L 438.18 367.91 L 430.99 370.74 L 430.81 370.81 L 430.63 370.73 L 418.31 364.95 L 419.01 364.84 C 415.53 368.05 411.8 371.08 407.16 372.46 L 407.76 371.97 L 402.88 383.77 L 401 383 Z " id="Path" class="cls-8" fill="rgb(8,76,65)"/><path d=" M 493.64 349.8 L 493.72 344.13 L 494.39 345.02 L 484.5 342.02 L 484.19 341.93 L 484.04 341.66 L 473.04 322.52 L 473.4 322.76 L 459.82 320.6 L 459.73 320.6 L 441.73 304.71 C 441.78 304.8 460.52 320.33 459.92 319.99 L 473.55 321.8 L 473.78 321.8 L 473.91 322.01 L 485.36 340.85 L 484.9 340.49 L 494.85 343.2 L 495.52 343.38 C 495.52 343.57 495.6 349.38 495.6 349.76 L 493.64 349.8 Z " id="Path" class="cls-8" fill="rgb(8,76,65)"/><path d=" M 312.85 567.12 C 311.19 560.76 307.32 555.18 303.2 550.12 C 298.81 544.941 293.916 540.211 288.59 536 L 288.14 535.63 L 288.14 535.13 L 285.61 495.95 L 285.99 496.39 L 259.79 489.59 L 286.23 495.42 L 286.57 495.49 L 286.57 495.86 L 290.57 534.92 L 290.09 534.05 C 299.15 540.89 307.76 548.84 313.5 558.76 C 314.923 561.163 316.026 563.741 316.78 566.43 L 312.85 567.17 L 312.85 567.12 Z " id="Path" class="cls-8" fill="rgb(8,76,65)"/><path d=" M 317.51 188.24 C 317.97 190.14 318.32 192.05 318.61 193.98 C 317.2 195.65 315.72 197.26 314.21 198.85 L 314.32 198.64 C 313.75 200.867 313.066 203.063 312.27 205.22 C 312.53 202.93 312.93 200.67 313.41 198.43 C 314.798 196.728 316.277 195.102 317.84 193.56 L 317.73 193.9 C 317.58 192.02 317.49 190.14 317.51 188.24 L 317.51 188.24 Z " id="Path" class="cls-8" fill="rgb(8,76,65)"/><path d=" M 360.75 445.96 L 367.97 449.36 L 381.39 445.24" id="Path" class="cls-8" fill="rgb(8,76,65)"/><path d=" M 358.57 526.05 L 353.36 518.09 L 365.78 520.02 L 358.57 526.05 L 358.57 526.05 Z " id="Path" class="cls-8" fill="rgb(8,76,65)"/><path d=" M 342.78 969.06 C 343.23 970.97 343.59 972.88 343.88 974.8 C 342.47 976.48 340.98 978.09 339.48 979.68 L 339.59 979.47 C 339.01 981.68 338.34 983.88 337.59 986.05 C 337.85 983.75 338.25 981.49 338.73 979.25 C 340.118 977.551 341.597 975.929 343.16 974.39 L 343.05 974.72 C 342.9 972.85 342.81 970.96 342.83 969.06 L 342.78 969.06 Z " id="Path" class="cls-8" fill="rgb(8,76,65)"/><path d=" M 228.06 357.78 C 228.06 357.12 227.93 351.78 227.92 351.33 L 228.65 350.94 L 239 345.35 L 238.47 346.5 L 236.79 335.1 L 236.72 334.64 L 238.6 333.49 L 238.33 333.95 L 239.1 326.95 L 239.1 326.68 L 239.33 326.62 L 245.44 324.99 L 245.35 325.07 L 247.35 321.07 L 245.61 325.2 L 245.61 325.26 L 245.54 325.26 L 239.54 327.31 L 239.8 326.98 L 239.51 334.04 L 239.51 334.32 L 237.8 335.54 L 238.09 334.86 L 240.61 346.1 L 240.77 346.83 L 240.08 347.25 L 230.08 353.38 L 230.79 352.11 L 231.09 357.66 L 228.09 357.78 L 228.06 357.78 Z " id="Path" class="cls-8" fill="rgb(8,76,65)"/><path d=" M 289.69 285 L 277.59 275.34 L 278.37 275.52 L 253.57 279.35 L 253.57 279.35 L 249.57 276.09 L 253.74 279.09 L 253.61 279.09 L 278 273.61 L 278.4 273.52 L 278.78 273.79 L 291.48 282.64 L 289.69 285.04 L 289.69 285 Z " id="Path" class="cls-8" fill="rgb(8,76,65)"/><path d=" M 340.71 164.91 L 362.93 184.13 L 361.92 183.94 L 385.67 176.32 L 385.75 176.29 L 385.81 176.31 L 401.49 179.72 L 385.71 176.85 L 385.85 176.84 L 362.61 185.89 L 362.08 186.09 L 361.61 185.71 L 338.78 167.21 L 340.71 164.91 L 340.71 164.91 L 340.71 164.91 Z " id="Path" class="cls-8" fill="rgb(8,76,65)"/></g></svg>