<?xml version="1.0" encoding="UTF-8" standalone="no"?><!-- Generator: Gravit.io --><svg xmlns="http://www.w3.org/2000/svg" xmlns:xlink="http://www.w3.org/1999/xlink" style="isolation:isolate" viewBox="157.33 121.71 379.21 920.57" width="379.21pt" height="920.57pt"><g id="Layer_2"><path d=" M 516.54 408.76 L 413.21 408.76 L 413.21 445.24 L 321.57 445.24 L 321.57 473.48 L 240.96 473.48 L 240.96 1022.28" id="Path" class="cls-4" fill="none" vector-effect="non-scaling-stroke" stroke-width="4" stroke="rgb(8,76,65)" stroke-linejoin="miter" stroke-linecap="butt" stroke-miterlimit="10"/><path d=" M 516.54 383.24 L 387.7 383.24 L 387.7 419.73 L 296.06 419.73 L 296.06 447.97 L 215.44 447.97 L 215.44 1022.28" id="Path" class="cls-4" fill="none" vector-effect="non-scaling-stroke" stroke-width="4" stroke="rgb(8,76,65)" stroke-linejoin="miter" stroke-linecap="butt" stroke-miterlimit="10"/><path d=" M 312.18 1022.28 L 312.18 566.75 L 315.73 562.15 C 316.42 561.26 332.97 540.15 366.07 519.34 C 396.18 500.44 446.72 477.92 516.54 477.92" id="Path" class="cls-4" fill="none" vector-effect="non-scaling-stroke" stroke-width="4" stroke="rgb(8,76,65)" stroke-linejoin="miter" stroke-linecap="butt" stroke-miterlimit="10"/><path d=" M 516.54 511.94 C 467.54 511.94 423.54 523.84 385.48 547.33 C 371.055 556.092 357.845 566.713 346.19 578.92 L 346.19 1022.28 L 181.43 1022.28 L 181.43 414 L 262.05 414 L 262.05 385.71 L 353.68 385.71 L 353.68 349.23 L 516.54 349.23" id="Path" class="cls-4" fill="none" vector-effect="non-scaling-stroke" stroke-width="4" stroke="rgb(8,76,65)" stroke-linejoin="miter" stroke-linecap="butt" stroke-miterlimit="10"/><line x1="346.19" y1="930.15" x2="240.96" y2="930.15" id="Path" class="cls-5" vector-effect="non-scaling-stroke" stroke-width="2" stroke="rgb(8,76,65)" stroke-linejoin="miter" stroke-linecap="butt" stroke-miterlimit="10"/><line x1="346.19" y1="838.02" x2="240.96" y2="838.02" id="Path" class="cls-5" vector-effect="non-scaling-stroke" stroke-width="2" stroke="rgb(8,76,65)" stroke-linejoin="miter" stroke-linecap="butt" stroke-miterlimit="10"/><line x1="346.19" y1="745.9" x2="240.96" y2="745.9" id="Path" class="cls-5" vector-effect="non-scaling-stroke" stroke-width="2" stroke="rgb(8,76,65)" stroke-linejoin="miter" stroke-linecap="butt" stroke-miterlimit="10"/><line x1="240.96" y1="653.77" x2="346.19" y2="653.77" id="Path" class="cls-5" vector-effect="non-scaling-stroke" stroke-width="2" stroke="rgb(8,76,65)" stroke-linejoin="miter" stroke-linecap="butt" stroke-miterlimit="10"/><line x1="346.19" y1="578.92" x2="312.18" y2="566.75" id="Path" class="cls-5" vector-effect="non-scaling-stroke" stroke-width="2" stroke="rgb(8,76,65)" stroke-linejoin="miter" stroke-linecap="butt" stroke-miterlimit="10"/><line x1="312.18" y1="566.75" x2="240.96" y2="566.75" id="Path" class="cls-5" vector-effect="non-scaling-stroke" stroke-width="2" stroke="rgb(8,76,65)" stroke-linejoin="miter" stroke-linecap="butt" stroke-miterlimit="10"/><line x1="321.57" y1="473.48" x2="374.55" y2="554.55" id="Path" class="cls-5" vector-effect="non-scaling-stroke" stroke-width="2" stroke="rgb(8,76,65)" stroke-linejoin="miter" stroke-linecap="butt" stroke-miterlimit="10"/><line x1="413.21" y1="445.24" x2="440.9" y2="522.53" id="Path" class="cls-5" vector-effect="non-scaling-stroke" stroke-width="2" stroke="rgb(8,76,65)" stroke-linejoin="miter" stroke-linecap="butt" stroke-miterlimit="10"/><line x1="212.04" y1="413.95" x2="212.04" y2="241.89" id="Path" class="cls-6" vector-effect="non-scaling-stroke" stroke-width="3" stroke="rgb(8,76,65)" stroke-linejoin="miter" stroke-linecap="butt" stroke-miterlimit="10"/><line x1="353.68" y1="357.45" x2="212.23" y2="357.45" id="Path" class="cls-5" vector-effect="non-scaling-stroke" stroke-width="2" stroke="rgb(8,76,65)" stroke-linejoin="miter" stroke-linecap="butt" stroke-miterlimit="10"/><path d=" M 394.88 349.23 L 394.88 241.89 L 516.6 241.89" id="Path" class="cls-6" fill="none" vector-effect="non-scaling-stroke" stroke-width="3" stroke="rgb(8,76,65)" stroke-linejoin="miter" stroke-linecap="butt" stroke-miterlimit="10"/><path d=" M 516.54 268.72 L 419.82 268.72 L 419.82 349.23" id="Path" class="cls-6" fill="none" vector-effect="non-scaling-stroke" stroke-width="3" stroke="rgb(8,76,65)" stroke-linejoin="miter" stroke-linecap="butt" stroke-miterlimit="10"/><line x1="394.88" y1="304.72" x2="212.23" y2="304.72" id="Path" class="cls-5" vector-effect="non-scaling-stroke" stroke-width="2" stroke="rgb(8,76,65)" stroke-linejoin="miter" stroke-linecap="butt" stroke-miterlimit="10"/><line x1="303.55" y1="357.45" x2="303.55" y2="304.72" id="Path" class="cls-5" vector-effect="non-scaling-stroke" stroke-width="2" stroke="rgb(8,76,65)" stroke-linejoin="miter" stroke-linecap="butt" stroke-miterlimit="10"/><path d=" M 287.95 304.72 L 287.95 233.57 L 344.19 233.57 L 344.19 304.72" id="Path" class="cls-6" fill="none" vector-effect="non-scaling-stroke" stroke-width="3" stroke="rgb(8,76,65)" stroke-linejoin="miter" stroke-linecap="butt" stroke-miterlimit="10"/><line x1="287.95" y1="267.59" x2="344.19" y2="267.59" id="Path" class="cls-6" vector-effect="non-scaling-stroke" stroke-width="3" stroke="rgb(8,76,65)" stroke-linejoin="miter" stroke-linecap="butt" stroke-miterlimit="10"/><path d=" M 287.95 242.46 L 198.81 242.46 L 198.81 204.85 L 295 204.85" id="Path" class="cls-6" fill="none" vector-effect="non-scaling-stroke" stroke-width="3" stroke="rgb(8,76,65)" stroke-linejoin="miter" stroke-linecap="butt" stroke-miterlimit="10"/><line x1="396.86" y1="241.89" x2="344.19" y2="241.89" id="Path" class="cls-5" vector-effect="non-scaling-stroke" stroke-width="2" stroke="rgb(8,76,65)" stroke-linejoin="miter" stroke-linecap="butt" stroke-miterlimit="10"/><line x1="295" y1="233.57" x2="295" y2="146.97" id="Path" class="cls-6" vector-effect="non-scaling-stroke" stroke-width="3" stroke="rgb(8,76,65)" stroke-linejoin="miter" stroke-linecap="butt" stroke-miterlimit="10"/><line x1="337.16" y1="146.97" x2="337.16" y2="233.57" id="Path" class="cls-6" vector-effect="non-scaling-stroke" stroke-width="3" stroke="rgb(8,76,65)" stroke-linejoin="miter" stroke-linecap="butt" stroke-miterlimit="10"/><rect x="272.33" y="123.21" width="87.5" height="23.76" transform="matrix(1,0,0,1,0,0)" id="Rectangle" class="cls-6" fill="none" vector-effect="non-scaling-stroke" stroke-width="3" stroke="rgb(8,76,65)" stroke-linejoin="miter" stroke-linecap="butt" stroke-miterlimit="2"/><line x1="516.54" y1="129.64" x2="359.83" y2="129.64" id="Path" class="cls-5" vector-effect="non-scaling-stroke" stroke-width="2" stroke="rgb(8,76,65)" stroke-linejoin="miter" stroke-linecap="butt" stroke-miterlimit="10"/><line x1="337.16" y1="164.31" x2="516.54" y2="164.31" id="Path" class="cls-5" vector-effect="non-scaling-stroke" stroke-width="2" stroke="rgb(8,76,65)" stroke-linejoin="miter" stroke-linecap="butt" stroke-miterlimit="10"/><linearGradient id="_lgradient_0" x1="-0.0008323795650816423" y1="0.5000375760915861" x2="1.0002080948912693" y2="0.5000375760915861" gradientTransform="matrix(192.22,0,0,399.19,157.33,642.93)" gradientUnits="userSpaceOnUse"><stop offset="0%" stop-opacity="1" style="stop-color:rgb(21,150,91)"/><stop offset="100%" stop-opacity="1" style="stop-color:rgb(42,149,142)"/></linearGradient><path d=" M 209.14 702 C 210.74 701.94 210.74 702 211.41 700 C 211.097 700.184 210.76 700.325 210.41 700.42 C 209.46 700.51 208.51 700.54 207.56 700.6 C 207.79 699.6 207.7 698.2 208.33 697.68 C 209.476 696.904 210.725 696.292 212.04 695.86 C 210.48 695.73 210.47 694.32 210.88 692.92 C 209.74 694.49 208.54 696.17 207.33 697.85 L 206.71 697.68 L 203.5 681.76 L 203.17 681.76 C 203.26 682.98 203.86 684.5 203.34 685.34 C 202.41 686.84 203.67 687.54 203.9 688.59 L 205.9 697.73 L 205.43 698.17 L 200.29 695.82 L 199.12 697.41 L 203.28 698.12 C 203.49 698.12 203.74 698.12 203.87 698.28 C 204.76 699.11 205.62 699.98 206.49 700.83 C 205.367 701.299 204.215 701.693 203.04 702.01 C 202.243 702.07 201.442 702.016 200.66 701.85 C 200.66 702.12 200.66 702.39 200.66 702.66 L 207.6 702.3 C 207.76 705.7 206.71 709.3 209.2 712.3 C 209.474 712.699 209.61 713.176 209.59 713.66 C 209.59 716.8 209.67 719.94 209.59 723.08 C 209.59 727.74 211.45 729.75 216.07 729.95 C 217.46 730.01 218.85 730.23 220.41 730.39 C 219.48 733.473 217.851 736.299 215.65 738.65 C 214.763 739.471 214.137 740.535 213.85 741.71 C 213.78 742.41 215.05 743.25 215.85 744.13 C 210.31 746.51 204.85 749.94 198.85 744.69 C 197.676 748.233 197.161 751.961 197.33 755.69 C 197.39 757.69 197.57 759.37 200.1 759.63 C 200.839 759.804 201.514 760.182 202.05 760.72 C 203.56 762.01 204.99 763.39 206.48 764.72 C 208.85 766.85 211.15 766.81 213.34 764.55 C 214.19 763.67 214.89 762.64 215.66 761.69 L 216.66 761.92 C 217.444 764.117 218.111 766.353 218.66 768.62 C 219.16 771.31 219.25 771.62 221.88 771.68 C 220.65 777 219.94 780.3 213.71 781.99 C 217.82 794.24 221.19 806.66 220.71 819.88 C 222.56 818.55 223.96 817.06 225.55 815.79 C 227.164 814.427 228.921 813.243 230.79 812.26 C 232.79 811.26 233.64 811.87 233.59 814.09 C 233.573 815.661 233.358 817.223 232.95 818.74 C 232.35 820.91 231.37 822.98 230.74 825.15 C 229.74 828.76 231 831.15 234.49 832.43 C 236.02 832.99 237.54 833.6 239.29 834.27 C 238.91 834.926 238.461 835.54 237.95 836.1 C 235.76 837.93 233.56 839.77 231.26 841.47 C 229.26 842.97 229.06 843.59 230.7 845.47 C 230.81 845.59 230.8 845.82 230.89 846.19 C 225.4 846.78 219.89 848.31 215.22 843.27 C 213.41 850.78 210.78 857.59 210.22 864.88 L 210.79 865.22 L 213.43 861.61 C 214.3 863.54 214.84 864.77 215.43 865.99 C 217.07 869.51 220.33 870.65 223.81 868.9 C 225.4 868.1 226.89 867.07 228.53 866.41 C 230.191 865.806 231.9 865.348 233.64 865.04 C 235.03 864.76 235.64 865.61 235.23 866.86 C 234.869 868.31 234.332 869.711 233.63 871.03 C 232.49 873.03 231 874.72 229.84 876.66 C 228.03 879.71 228.64 882.04 231.54 884.09 C 232.76 884.95 233.91 885.89 235.24 886.91 C 232.982 888.944 230.259 890.393 227.31 891.13 C 224.13 892.01 223.98 892.26 224.66 895.42 C 220.74 894.91 216.77 894.89 213.66 891.99 C 212.07 890.49 211.01 888.75 211.6 886.54 L 217.09 889.76 L 217.37 889.25 C 216.863 889.05 216.372 888.813 215.9 888.54 C 214.56 887.65 212.4 887.23 213.06 884.94 C 213.42 883.71 216.94 883.37 218.32 884.67 C 219.9 886.15 222.02 885.37 223.46 886.81 L 223.73 886.13 L 215.38 882.59 C 219.31 879.89 221.77 875.5 226.6 874.14 C 226.36 873.87 226.73 873 227.91 871.05 C 226.673 871.505 225.503 872.124 224.43 872.89 C 221.17 875.96 218.07 879.2 214.91 882.38 L 214.24 882.13 C 214.06 879.66 213.88 877.19 213.73 875.13 L 211.52 877.58 C 211.929 877.886 212.317 878.22 212.68 878.58 C 213.75 879.75 213.9 883.07 212.84 883.97 C 211.21 885.34 210.45 883.76 209.5 882.87 C 209.5 882.87 209.27 882.87 209.03 882.93 C 209.3 883.36 209.46 883.88 209.81 884.12 C 211.38 885.2 211.33 886.27 210.1 887.62 C 209.71 888.05 209.34 889.04 209.56 889.42 C 211.27 892.42 210.83 895.68 210.91 898.88 C 211.01 902.88 212.73 904.53 216.79 904.61 C 217.79 904.61 218.86 904.74 220.39 904.85 C 219.39 906.94 218.66 908.56 217.79 910.08 C 217.22 911.08 216.25 911.88 215.79 912.91 C 215.51 913.49 215.79 914.36 215.9 915.11 C 216.552 915.014 217.19 914.839 217.8 914.59 C 218.89 913.96 219.88 913.19 221.3 912.21 C 221.94 914.07 222.76 915.44 222.85 916.86 C 223.06 920.06 222.85 923.29 222.91 926.5 C 222.91 931.77 228.51 935.5 233.12 932.94 C 236.26 931.17 238.566 928.223 239.53 924.75 L 245.18 925.4 C 243.919 924.889 242.618 924.485 241.29 924.19 C 240.77 924.04 239.97 923.39 240.02 923.07 C 240.202 922.442 240.608 921.901 241.16 921.55 C 242.98 920.29 244.65 920.79 246.16 922.17 C 246.39 922.39 246.79 922.42 247.47 922.67 L 246.21 921.01 L 251.71 921.01 L 251.71 920.82 L 246.71 920.31 L 247.36 919.06 L 241.56 920.55 L 241.26 919.93 L 249.15 905.32 L 248.43 904.92 L 240 920.4 L 237.39 913.8 L 237.04 915.35 L 234.88 913.66 L 234.55 913.98 L 236.36 916.47 L 234.63 916.47 C 235.27 916.92 236.06 916.94 236.52 917.34 C 237.573 918.206 238.499 919.216 239.27 920.34 C 239.475 921.033 239.321 921.783 238.86 922.34 C 238.58 922.65 237.62 922.43 236.99 922.34 C 236.467 922.171 235.965 921.946 235.49 921.67 L 235.24 922.16 L 238 923.7 C 233.92 925.33 230.19 921.7 228.31 914.33 C 231.11 914.26 231.1 914.08 231.46 911.1 C 231.879 908.631 232.437 906.187 233.13 903.78 C 234.33 904.9 235.13 905.57 235.82 906.29 C 238.49 909.01 241.42 909.02 244.05 906.29 C 244.72 905.59 245.28 904.8 245.98 904.14 C 247.252 902.809 248.641 901.594 250.13 900.51 C 251.88 899.37 252.79 899.85 252.63 901.91 C 252.36 904.623 251.895 907.313 251.24 909.96 C 250.4 913.68 251.58 915.77 255.24 916.72 C 256.33 917.01 257.4 917.41 259.18 917.99 C 256.96 920.11 255.18 921.9 253.34 923.52 C 251.91 924.76 250.34 925.79 252.61 927.85 C 248.24 928.97 244.26 929.85 240.54 927.31 C 238.94 929.18 237.34 930.8 236.04 932.63 C 234.74 934.46 233.82 936.5 232.62 938.38 C 231.668 939.887 230.608 941.324 229.45 942.68 C 226.87 945.68 226.86 945.99 230.05 948.23 L 225.85 950.4 C 231.09 955.04 236.85 954.92 239.6 947.82 C 240.39 945.711 241.417 943.698 242.66 941.82 C 243.66 940.33 245.22 939.19 246.86 937.56 C 247.495 938.723 248.004 939.95 248.38 941.22 C 248.8 944.22 248.9 947.31 249.38 950.33 C 249.686 952.262 250.206 954.153 250.93 955.97 C 251.11 956.44 252.41 956.79 253.09 956.67 C 254.764 956.302 256.411 955.821 258.02 955.23 C 260.02 954.55 262.09 953.81 264.55 952.95 C 261.02 950.72 258.83 948.12 258.63 944.42 C 258.45 941.09 258.63 937.74 258.63 933.92 C 261.9 936.62 262.72 936.43 264.4 933.23 C 264.75 932.56 265.09 931.88 265.49 931.23 C 267.056 928.615 269.159 926.362 271.66 924.62 C 272.29 926.44 272.78 927.99 273.34 929.5 C 274.93 933.77 278.73 935.5 282.94 933.86 C 284.47 933.26 285.94 932.49 287.44 931.81 C 290.08 930.62 292.74 929.64 295.75 929.86 C 297.27 929.97 297.88 930.69 297.37 931.93 C 296.544 934.09 295.513 936.167 294.29 938.13 C 293.03 940.08 291.29 941.7 289.92 943.58 C 287.44 947.01 287.92 950.07 291.2 952.77 C 292.66 953.96 294.05 955.24 295.59 956.58 C 292.652 958.818 289.225 960.326 285.59 960.98 C 281.5 961.66 281.1 962.2 282.42 966.22 C 279.42 965.44 276.68 964.77 273.95 963.98 C 271.549 963.28 269.474 961.753 268.09 959.67 C 266.678 957.924 266.259 955.577 266.98 953.45 C 270.75 957.09 270.75 957.09 272.13 957.03 C 271.172 956.322 270.26 955.554 269.4 954.73 C 268.94 954.22 268.4 953.29 268.59 952.81 C 268.953 952.1 269.594 951.572 270.36 951.35 C 273.04 950.645 275.837 951.976 276.98 954.5 C 277.2 954.92 277.5 955.3 277.77 955.71 L 278.02 955.55 L 277.15 953.21 L 280.55 954.8 L 280.69 954.51 L 278.57 952.87 L 279.57 952.21 L 271.22 950.21 C 274.95 947.31 278.22 944.66 281.56 942.21 C 282.77 941.34 284.39 941.04 285.81 940.47 C 285.91 940.47 285.98 940.33 286.08 940.25 L 284.77 939.81 L 290.14 935.6 L 289.65 935 L 270.9 949.11 C 270.479 947.432 270.221 945.717 270.13 943.99 C 270.362 942.288 270.761 940.614 271.32 938.99 L 269.38 942.1 C 268.65 940.17 268.06 938.59 267.46 937.02 L 267.11 937.15 C 267.63 938.94 268.11 940.73 268.81 942.97 L 266.43 941.62 L 266 942 C 266.58 942.46 267.17 942.9 267.74 943.37 C 269.65 944.918 270.327 947.529 269.41 949.81 C 268.75 951.56 267.35 952.08 266.09 950.75 C 265.167 949.599 264.425 948.315 263.89 946.94 C 263.16 945.37 262.58 943.74 261.94 942.13 L 261.3 942.4 C 262.73 945.51 262.95 949.18 265.72 951.67 C 266.78 952.67 266.54 953.4 265.43 953.86 C 263.23 954.78 260.97 955.58 258.71 956.36 C 257.37 956.81 255.97 957.12 254.6 957.49 L 254.73 958.27 L 261.66 958.27 C 261.31 959.641 260.841 960.98 260.26 962.27 C 259.03 964.47 257.6 966.57 256.26 968.69 C 254.92 970.81 255.11 971.62 257.26 972.69 C 257.491 972.814 257.714 972.951 257.93 973.1 C 251.93 976.94 245.42 980.51 239.14 974.63 L 234.24 980.33 C 237.17 981.98 237.24 982.74 234.74 985.15 C 234.191 985.664 233.606 986.138 232.99 986.57 C 231.7 987.49 230.35 988.32 229.11 989.29 C 226.57 991.29 226.26 993.42 227.99 996.12 L 230.34 999.76 L 223.13 1000.99 C 223.425 1001.629 223.805 1002.224 224.26 1002.76 C 227.865 1006.169 232.223 1008.681 236.98 1010.09 C 239.65 1010.82 242.33 1010.96 244.72 1009.4 C 245.689 1008.563 246.534 1007.594 247.23 1006.52 L 255 1006.52 C 254.248 1006.155 253.414 1005.99 252.58 1006.04 C 251.221 1006.079 249.861 1005.985 248.52 1005.76 C 247 1005.37 246.79 1004.23 247.84 1003.12 C 249.402 1001.593 251.798 1001.314 253.67 1002.44 C 254.37 1002.88 255.14 1003.22 255.88 1003.6 L 256.06 1003.26 L 253.97 1001.58 L 258.41 1000.97 L 258.41 1000.74 L 254.41 1000.51 L 256.41 997.95 C 254.99 998.58 254.02 999.73 252.79 1000.33 C 251.56 1000.93 249.93 1001.11 247.79 1001.63 C 250.53 997.04 250.42 991.69 253.99 988.73 C 253.14 985.98 255.33 984.09 255.12 981.85 L 252.3 987.78 L 251.36 986.43 C 251.47 989.76 248.91 998.23 246.8 1001.11 C 245.41 998.72 244.12 996.51 243.03 994.62 L 242.78 996.48 L 240.56 995.39 C 241.32 996.39 241.73 996.95 242.32 997.73 L 240 997.73 C 240.632 998.258 241.418 998.567 242.24 998.61 C 243.95 998.586 245.477 999.675 246.01 1001.3 C 246.225 1002.227 246.272 1003.186 246.15 1004.13 C 245.201 1004.235 244.241 1004.181 243.31 1003.97 C 242.221 1003.416 241.195 1002.745 240.25 1001.97 L 239.86 1002.59 L 245.13 1005.8 C 240.31 1008.36 235.31 1003.63 232.86 996.23 C 235.67 996.4 236.28 995.75 235.98 992.77 C 235.64 989.757 236.102 986.707 237.32 983.93 L 239.32 985.64 C 243.62 989.26 246.98 988.78 250.1 984.15 C 251.255 982.286 252.57 980.526 254.03 978.89 C 254.93 977.96 256.44 977.61 257.68 977 C 258.11 978.33 258.92 979.65 258.9 981 C 258.9 983.73 258.33 986.44 258.17 989.17 C 258 992.11 258.5 992.5 261.17 991.17 C 263.84 989.84 266.11 988.31 268.46 986.92 L 272.01 989.19 L 272.29 988.74 C 271.724 988.379 271.18 987.985 270.66 987.56 C 270.13 987.07 269.66 986.49 269.2 985.96 C 271.4 983.88 272.98 984.2 275.55 986.96 L 278.48 983.7 C 276.01 984.7 273.95 984.7 271.68 983.3 C 274.97 980.72 277.06 977 280.93 976.13 C 281.02 975.63 280.93 975.04 281.21 974.77 C 281.915 974.126 282.652 973.518 283.42 972.95 C 284.01 972.45 284.57 971.95 285.14 971.39 L 284.55 970.8 L 270.67 982.8 C 270.326 981.531 270.105 980.232 270.01 978.92 C 270.141 977.65 270.388 976.395 270.75 975.17 L 270.54 975.11 L 269.29 977.79 C 268.82 977.15 268.53 976.79 267.97 976.02 C 268.15 977.07 268.25 977.68 268.37 978.38 L 266.76 977.83 C 267.19 978.58 267.88 978.96 268.31 979.53 C 268.977 980.256 269.454 981.135 269.7 982.09 C 269.8 982.9 269.2 983.8 268.92 984.65 C 268.084 984.358 267.3 983.932 266.6 983.39 C 265.939 982.539 265.369 981.62 264.9 980.65 L 264.51 980.9 L 267.06 985.62 C 262.64 985.45 260.83 979.95 261.96 973.97 C 263.8 975.1 264.72 974.11 265.38 972.5 C 266.259 970.103 267.748 967.976 269.7 966.33 C 269.972 966.724 270.206 967.143 270.4 967.58 C 272.2 972.82 275.27 973.81 280.34 970.99 C 280.88 970.69 281.34 970.29 281.92 969.99 C 283.004 969.414 284.143 968.949 285.32 968.6 C 287.61 968.09 288.38 968.95 287.54 971.09 C 286.88 972.512 286.132 973.891 285.3 975.22 C 284.348 976.71 283.512 978.271 282.8 979.89 C 282.09 981.89 282.96 983.08 284.97 983.42 C 288.192 984.088 291.446 984.589 294.72 984.92 C 297.14 985.08 299.72 986.34 301.66 984.92 C 302.617 985.355 303.625 985.667 304.66 985.85 C 307.39 985.91 310.12 985.74 312.85 985.75 C 313.433 985.808 313.989 986.022 314.46 986.37 C 315.05 986.75 315.46 987.5 316.12 987.69 C 320.725 989.096 325.047 991.3 328.89 994.2 C 330.29 995.28 331.63 996.44 333.13 997.67 C 335.53 994.24 339 994.16 342.6 994.21 C 342.05 996.35 342.24 996.55 344.08 997.44 C 345.92 998.33 347.46 999.33 349.55 1000.52 C 348.46 1001.13 347.95 1001.44 347.42 1001.71 C 343.92 1003.54 343.36 1005.63 345.42 1009.09 C 346.241 1010.432 346.969 1011.829 347.6 1013.27 C 347.798 1014.105 347.879 1014.963 347.84 1015.82 C 346.936 1015.91 346.023 1015.846 345.14 1015.63 C 343.554 1014.818 342.012 1013.924 340.52 1012.95 C 337.79 1011.32 336 1011.71 334.22 1014.32 C 333.74 1015.02 333.28 1015.74 332.42 1017.03 C 331.31 1014.8 330.42 1013.16 329.68 1011.43 C 329.08 1009.97 328.68 1008.55 326.61 1009.24 C 326.47 1003.63 328.53 1000.24 331.69 1000.48 L 330.38 1003.14 C 330.723 1003.151 331.051 1003.004 331.27 1002.74 C 331.96 1002.27 332.68 1001.85 333.39 1001.42 C 333.669 1002.329 333.785 1003.281 333.73 1004.23 C 333.54 1005.06 332.73 1005.75 332.06 1006.63 L 334.2 1007.79 L 334.75 1003.4 L 335.33 1003.21 L 344.2 1012.39 L 344.83 1011.78 L 336.01 1002.49 C 338.19 1001.43 340.19 1000.49 342.2 999.49 L 342 999 C 340.61 999.49 339.24 1000 337.82 1000.43 C 336.69 1000.671 335.549 1000.851 334.4 1000.97 L 334.26 998.43 L 332.76 999.55 C 328.037 994.764 322.194 991.234 315.76 989.28 C 313.38 988.57 312.64 989.01 312.32 991.46 C 312.258 992.129 312.302 992.804 312.45 993.46 C 313 996.32 315.37 997.18 317.66 998.2 C 319.758 999.027 321.768 1000.062 323.66 1001.29 C 326.17 1003.1 325.89 1004.29 322.91 1005.22 C 321.382 1005.633 319.833 1005.966 318.27 1006.22 C 318.49 1006.59 318.55 1006.83 318.7 1006.91 C 322.8 1009.31 325.98 1012.48 327.4 1017.17 C 327.588 1017.572 327.962 1017.857 328.4 1017.93 C 332.21 1017.74 333.28 1020.52 334.56 1023.35 C 332.56 1023.72 332.99 1025.2 332.87 1026.45 C 332.75 1027.7 332.52 1028.92 332.32 1030.3 C 327.2 1027.24 327.24 1027.3 323.85 1031.81 C 322.851 1032.925 321.768 1033.961 320.61 1034.91 C 320.307 1033.933 320.103 1032.928 320 1031.91 C 320 1030.47 320.31 1029.05 320.4 1027.62 C 320.54 1025.24 319.81 1024.38 317.5 1023.93 C 316.8 1023.8 316.12 1023.59 315.04 1023.32 C 316.04 1022 316.89 1021.02 317.6 1019.96 C 318.31 1018.9 318.76 1017.96 319.33 1016.96 L 318.81 1016.35 L 324.81 1015.23 C 324.822 1015.037 324.798 1014.844 324.74 1014.66 C 324.516 1014.237 324.269 1013.826 324 1013.43 C 321.971 1010.643 319.199 1008.484 316 1007.2 C 312.42 1005.59 309.41 1007.61 309.4 1011.57 L 309.4 1016.34 C 306.597 1015.972 303.943 1014.864 301.71 1013.13 C 299.27 1011.39 298.77 1011.48 296.92 1013.95 C 295.79 1011.79 294.35 1009.85 293.74 1007.67 C 293.13 1005.49 293.33 1003.02 293.16 1000.38 C 290.95 1000.16 288.38 999.89 285.8 999.69 C 285.399 999.686 285.013 999.837 284.72 1000.11 C 280.84 1003.98 280.62 1008.44 285.33 1011.26 C 287.478 1012.477 289.507 1013.893 291.39 1015.49 C 294.27 1018.07 294.02 1018.98 290.52 1020.42 C 290.46 1020.42 290.43 1020.52 290.18 1020.81 C 291.243 1022.106 292.381 1023.339 293.59 1024.5 C 295.12 1025.83 296.4 1027.07 295.19 1029.26 C 295.19 1029.26 295.3 1029.46 295.11 1029.15 C 295.98 1028.76 296.91 1027.97 297.54 1028.15 C 298.77 1028.53 298.54 1030.4 297.1 1032.55 L 298.1 1034.4 L 299.5 1033.27 L 298.76 1028.89 C 302.99 1030.6 305.6 1033.98 309.76 1034.83 L 299.26 1027.83 L 304.14 1026.31 L 303.46 1024.19 C 302.6 1024.89 301.73 1025.65 300.82 1026.34 C 300.395 1026.684 299.9 1026.933 299.37 1027.07 C 298.854 1027.202 298.307 1027.123 297.85 1026.85 C 297.61 1026.63 297.79 1025.85 297.85 1025.41 C 297.927 1025.107 298.041 1024.815 298.19 1024.54 L 297.87 1024.28 L 296.54 1025.65 C 296.63 1022.07 299.31 1019.93 304.17 1019.55 C 303.81 1021.55 305.32 1021.66 306.66 1022.02 C 308.32 1022.47 309.95 1023.02 311.92 1023.6 L 310.13 1025.19 C 307.52 1027.49 307.41 1029.54 309.76 1032.05 C 310.738 1033.011 311.65 1034.036 312.49 1035.12 C 313.106 1036.207 313.628 1037.344 314.05 1038.52 C 312.05 1038.27 310.7 1038.21 309.41 1037.92 C 308.12 1037.63 306.83 1036.99 305.5 1036.7 C 303.1 1036.17 301.91 1036.88 300.98 1039.12 C 300.64 1039.97 300.23 1040.8 299.63 1042.12 C 298.2 1040.42 296.98 1039.12 295.97 1037.72 C 295.14 1036.54 294.47 1035.34 292.8 1036.45 C 291.873 1033.717 292.172 1030.716 293.62 1028.22 C 293.86 1027.663 293.823 1027.025 293.52 1026.5 C 292.02 1024.72 290.42 1023.01 288.79 1021.35 C 288.321 1020.865 287.713 1020.537 287.05 1020.41 C 284.949 1020.1 282.832 1019.91 280.71 1019.84 C 277.44 1019.76 275.71 1021.44 275.24 1024.71 C 275.04 1026.24 274.78 1027.71 274.52 1029.46 C 271.557 1028.485 268.894 1026.763 266.79 1024.46 C 264.64 1022.22 264.09 1022.25 262.08 1024.7 C 259.87 1019.62 257.6 1014.7 261.3 1009.21 C 260.411 1009.181 259.524 1009.293 258.67 1009.54 C 255.38 1010.61 252.14 1011.07 248.93 1009.23 C 248.441 1009.102 247.922 1009.177 247.49 1009.44 C 245.83 1010.31 244.2 1011.27 242.33 1012.33 C 242.33 1012.17 242.41 1012.43 242.33 1012.66 C 242.17 1013.56 241.53 1014.66 241.87 1015.29 C 242.3 1016.07 243.53 1016.39 244.36 1016.97 C 246.21 1018.29 248.03 1019.65 250.23 1021.26 C 249.03 1021.77 248.48 1022.03 247.92 1022.26 C 242.64 1024.26 241.8 1026.64 244.31 1031.78 C 245.315 1033.799 246.11 1035.917 246.68 1038.1 C 247.16 1040.1 246.38 1040.67 244.48 1040.1 C 243.363 1039.787 242.301 1039.305 241.33 1038.67 C 239.67 1037.58 238.17 1036.24 236.51 1035.15 C 234.05 1033.54 231.84 1034 230.02 1036.3 C 229.19 1037.36 228.34 1038.4 227.02 1040.06 C 225.85 1037.12 224.75 1034.81 224.02 1032.38 C 223.2 1029.7 222.94 1029.38 220.08 1030.18 C 220.513 1027.931 221.07 1025.707 221.75 1023.52 C 222.29 1022.02 221.75 1021.52 220.52 1021.15 C 217.38 1020.15 215.14 1021.44 213.62 1024.97 C 212.777 1027.063 211.822 1029.109 210.76 1031.1 C 210.3 1031.91 209.25 1032.37 208.47 1033 C 207.88 1032.12 206.96 1031.31 206.76 1030.35 C 206.324 1028.135 206.036 1025.893 205.9 1023.64 C 205.6 1019.74 203.47 1017.96 199.66 1018.47 C 198.608 1018.536 197.552 1018.536 196.5 1018.47 C 196.56 1015.69 197.78 1013.59 199.11 1011.47 C 199.734 1010.751 200.161 1009.883 200.35 1008.95 C 200.35 1008.22 199.45 1007.5 198.89 1006.71 L 201.46 1004.95 L 201.31 1004.39 C 200.31 1004.59 199.31 1004.74 198.31 1005.02 C 196.6 1005.51 194.94 1006.17 193.22 1006.57 C 192.518 1006.739 191.778 1006.569 191.22 1006.11 C 191.003 1005.408 191.121 1004.644 191.54 1004.04 C 192.68 1002.42 194 1000.93 195.26 999.4 C 196.32 998.12 196.96 996.79 195.99 995.07 C 190.26 997.07 188.36 1001.92 186.15 1006.71 C 192.65 1009.09 196.27 1015.93 194.51 1021.98 C 191.91 1020.6 191.12 1020.98 190.09 1023.83 C 189.825 1024.825 189.467 1025.792 189.02 1026.72 C 187.92 1028.61 186.67 1030.4 185.24 1032.6 C 184.32 1030.88 183.76 1029.78 183.16 1028.71 C 181.01 1024.8 177.22 1023.82 173.43 1026.21 C 171.81 1027.21 170.29 1028.44 168.61 1029.35 C 167.171 1030.138 165.639 1030.742 164.05 1031.15 C 161.98 1031.65 161.41 1031.15 161.79 1029.15 C 162.14 1027.342 162.714 1025.585 163.5 1023.92 C 164.33 1022.12 165.56 1020.52 166.5 1018.75 C 168.22 1015.35 167.36 1012.64 164.11 1010.75 C 162.73 1009.93 161.4 1009.03 159.94 1008.09 C 162.167 1005.674 164.972 1003.865 168.09 1002.83 C 171.36 1001.63 171.56 1001.06 170.09 997.97 C 176.03 998.37 182.16 997.74 185.37 1004.69 L 188.86 998.48 L 183.16 1000.29 C 183.39 999.45 183.44 999.13 183.56 998.82 C 184.69 995.82 183.98 994.69 180.77 994.31 C 179.34 994.15 177.9 994.11 176.46 993.98 C 172.557 993.611 168.772 992.443 165.34 990.55 C 166.9 988.88 168.34 987.28 169.78 985.79 C 174.21 981.34 174.19 975.97 169.6 971.79 C 167.48 969.79 165.21 968.06 163.07 966.13 C 160.681 964.139 158.888 961.526 157.89 958.58 C 157.45 957.17 157.81 956.17 159.3 956.03 C 161.654 955.65 164.045 955.563 166.42 955.77 C 170.27 956.38 174.01 957.58 177.82 958.44 C 180.332 959.091 183.003 958.446 184.94 956.72 C 185.34 956.36 185.84 955.53 185.69 955.21 C 184.44 952.6 183.05 950.06 181.46 947.03 C 179.21 952.58 174.83 953.32 170.12 954.13 C 171.03 951.66 169.84 950.98 167.91 950.65 C 165.222 950.346 162.679 949.269 160.59 947.55 C 161.59 946.77 162.51 946.15 163.35 945.46 C 166.12 943.2 166.43 940.27 164.15 937.54 C 163.15 936.38 162.03 935.36 161.15 934.14 C 160.262 932.854 159.489 931.492 158.84 930.07 C 158.29 928.92 158.72 928.07 160.07 928.29 C 162.01 928.57 163.94 928.99 165.85 929.45 C 166.746 929.73 167.624 930.064 168.48 930.45 C 168.48 926.34 168.16 922.35 168.57 918.45 C 168.98 914.55 170.13 910.61 170.94 906.73 C 164.53 908.11 161.05 904.56 157.33 899.41 C 160.05 898.75 160.33 898.23 159.56 895.69 C 159.392 895.314 159.252 894.926 159.14 894.53 C 158.69 891.95 158.27 889.36 157.84 886.77 L 158.47 886.45 C 159.77 887 161.05 887.58 162.37 888.08 C 165.75 889.38 168.73 888.16 170.13 884.83 C 170.76 883.32 171.13 881.67 171.75 880.18 C 172.43 878.467 173.302 876.836 174.35 875.32 C 175.8 873.41 176.5 873.52 177.61 875.58 C 178.219 876.725 178.663 877.951 178.93 879.22 C 179.43 881.56 179.59 883.98 180.15 886.3 C 180.92 889.48 183.09 890.73 186.32 890.24 C 187.78 890.01 189.26 889.91 190.91 889.73 C 190.673 892.782 189.688 895.729 188.04 898.31 C 187.41 899.186 187.062 900.232 187.04 901.31 C 187.14 902 188.39 902.53 189.25 903.23 C 184.41 906.48 179.83 910.84 173.31 906.23 C 172.93 907.1 172.61 907.77 172.31 908.46 C 169.831 914.97 169.16 922.03 170.37 928.89 C 170.51 929.69 171.03 931.04 171.42 931.06 C 172.425 931.042 173.396 930.69 174.18 930.06 C 174.802 929.434 175.28 928.68 175.58 927.85 C 176.15 926.7 176.58 925.52 177.43 923.7 C 179.26 926 180.78 927.88 182.26 929.79 C 182.85 930.54 183.26 931.67 183.97 932.01 C 184.68 932.35 185.73 931.82 186.69 931.67 C 187.23 936.75 188.31 942.13 181.82 944.91 L 186.91 953.91 L 189.76 944.49 L 196.35 948.9 C 196.43 944.78 197.29 940.96 194.15 937.54 L 196.79 937.54 C 197.1 934.08 197.35 930.74 197.71 927.41 C 197.801 926.12 198.091 924.852 198.57 923.65 C 199.57 921.49 200.78 919.44 201.99 917.19 C 195.29 916.48 192.09 914.33 190.28 909.52 C 192.43 909.52 193 908.29 192.45 906.38 C 192.287 905.926 192.186 905.451 192.15 904.97 C 192.15 902.85 192.15 900.73 192.15 898.44 C 194.76 899.09 196.38 901.44 199.15 900.59 C 198.55 887.76 197.15 875.17 192.28 862.71 C 188.73 867.71 184.21 866.52 179.34 865.8 C 181.08 864.03 180.43 862.97 178.94 862.07 C 176.586 860.803 174.624 858.915 173.27 856.61 C 174.34 856.32 175.27 856.08 176.16 855.82 C 179.57 854.82 181.03 852.22 179.96 848.82 C 179.293 847.246 178.721 845.633 178.25 843.99 C 178.09 842.394 178.09 840.786 178.25 839.19 C 179.72 839.75 181.25 840.27 182.65 840.91 C 183.105 841.211 183.516 841.575 183.87 841.99 C 184.932 843.053 186.054 844.054 187.23 844.99 C 188.105 845.745 189.251 846.109 190.401 845.998 C 191.552 845.886 192.606 845.309 193.32 844.4 C 194.2 843.47 194.93 842.4 195.74 841.4 L 196.74 841.72 C 197.62 844.72 198.5 847.64 199.48 850.96 C 201.1 842.44 191.32 815.31 185.85 812.5 C 184.3 816.74 180.91 818.58 174.46 818.41 C 175.09 816.22 174.82 815.94 172.58 815.1 C 170.34 814.26 168.05 813.1 165.8 812.1 L 165.96 811.4 L 168.34 809.87 C 171.64 807.74 172.16 805.06 169.88 801.87 C 168.766 800.555 167.763 799.15 166.88 797.67 C 166.35 796.257 165.971 794.792 165.75 793.3 C 167.276 793.253 168.803 793.381 170.3 793.68 C 172.014 794.375 173.683 795.173 175.3 796.07 C 178.36 797.46 180.46 796.71 181.94 793.79 C 182.47 792.73 183.08 791.71 184.02 790.02 C 185.503 792.122 186.878 794.298 188.14 796.54 C 189.03 798.33 189.75 799.77 192.08 798.27 C 192.25 803.27 192.69 808.16 187.08 810.59 C 188.92 813.59 190.79 816.25 192.35 819.13 C 198.81 831.06 201.42 843.99 201.82 857.4 C 202.16 868.58 202.17 879.78 202.37 890.97 C 202.37 892.84 202.65 894.7 202.8 896.57 L 203.32 896.67 L 209.38 885.9 C 204.31 882.13 202.51 877.01 204.13 871.06 C 206.5 872.6 207.34 872.31 208.43 869.55 C 208.607 869.178 208.718 868.779 208.76 868.37 C 208.86 861.57 210.83 855.12 212.5 848.62 C 213.19 845.93 213.84 843.24 214.5 840.62 L 219.62 842.26 C 218.92 841.5 217.99 841.35 217.3 840.87 C 216.61 840.39 215.77 839.56 215.82 838.96 C 215.87 838.36 216.82 837.64 217.51 837.15 C 217.96 836.823 218.52 836.686 219.07 836.77 C 220.82 837.21 222.53 837.77 223.97 838.24 L 223.43 837.13 L 227.17 837.49 L 227.23 836.93 L 217.6 835.63 C 220.39 831.77 222.17 827.02 225.76 823.69 C 226.27 822.53 226.76 821.37 227.31 820.21 L 227.13 820.09 L 224.9 822.69 L 224.44 821.38 C 223.35 826.99 219.25 830.67 216.81 835.31 L 216.2 835.22 C 215.29 833 214.39 830.78 213.59 828.82 L 213.22 829.68 L 212 829 L 212 831.47 C 214.17 831.93 215.25 833.75 215.45 836.11 C 215.512 836.91 215.211 837.696 214.63 838.25 C 213.888 838.51 213.068 838.41 212.41 837.98 C 211.223 837.09 210.097 836.122 209.04 835.08 L 208.67 835.47 L 213.5 840 C 211.324 840.617 208.984 840.043 207.34 838.49 C 203.63 835.49 203.24 831.03 201.98 826.7 C 205.31 827.7 205.77 827.43 206.36 824.24 C 206.402 823.762 206.476 823.288 206.58 822.82 C 207.46 820.21 208.36 817.61 209.26 815.01 L 209.97 815.09 C 210.87 816.19 211.68 817.37 212.68 818.37 C 213.516 819.265 214.505 820.003 215.6 820.55 C 218.23 821.71 218.83 821.22 218.94 818.38 C 219.197 809.445 217.964 800.53 215.29 792 C 214.41 789.08 213.44 786.2 212.34 782.79 C 208.72 788.2 204.07 786.79 199.34 786.19 C 200.68 784 200.55 783.47 198.6 782.19 C 197.816 781.766 197.073 781.27 196.38 780.71 C 195.25 779.64 194.23 778.44 192.95 777.07 C 194.72 776.53 195.95 776.24 197.06 775.79 C 199.69 774.73 200.4 772.79 199.33 770.23 C 196.51 763.39 195.1 756.34 196.33 748.93 C 196.62 747.17 197.06 745.43 197.45 743.58 C 190.6 744.78 184.93 740.78 182.96 733.63 C 186.12 733.72 186.44 733.31 186.07 729.9 C 185.55 726.643 185.789 723.309 186.77 720.16 L 189.77 722.16 C 194.27 725.16 197.62 724.37 200.33 719.68 C 201.6 717.49 202.63 715.01 204.4 713.29 C 207.35 710.43 205.76 707.29 206.16 703.75 C 200.88 706.5 197.22 703.89 193.33 701.46 C 195.44 700.14 195.57 699.46 194.18 697.56 C 192.79 695.66 191.39 693.4 191.18 690.68 C 192.41 690.8 193.42 690.95 194.44 690.99 C 197.97 691.12 199.82 689.57 200.26 686.05 C 200.42 684.7 200.26 683.3 200.4 681.94 C 200.64 679.75 200.4 677.33 202.85 675.99 C 203.06 675.88 203.17 675.4 203.15 675.1 C 203.04 673.62 202.87 672.1 202.71 670.48 C 197.24 672.43 194.09 669.04 190.71 665.88 C 192.93 664.76 193.08 664.26 192.15 661.99 C 191.655 660.859 191.257 659.688 190.96 658.49 C 190.749 657.192 190.608 655.883 190.54 654.57 L 192.79 655.32 C 197.33 656.88 199.79 655.42 200.84 650.69 C 201.071 649.202 201.485 647.748 202.07 646.36 C 202.822 645.129 203.7 643.979 204.69 642.93 C 205.602 643.99 206.384 645.155 207.02 646.4 C 207.78 648.4 208.02 650.66 208.72 652.74 C 209.55 655.34 211.52 656.38 214.18 655.85 L 217.89 655.12 L 218.47 655.62 C 217.75 657.85 217.12 660.11 216.27 662.29 C 215.61 663.98 214.8 665.55 217.27 666.43 C 213.1 670.53 210.15 672.72 204.49 670.21 C 204.4 670.452 204.336 670.704 204.3 670.96 C 204.13 676.29 205.93 681.05 208.64 685.49 C 209.86 687.49 211.83 687.97 214.03 687.09 C 215.27 686.6 216.5 686.09 217.73 685.54 L 218.44 685.87 C 218.311 688.268 218.061 690.658 217.69 693.03 C 217.31 694.9 217.18 696.31 220.06 696.56 C 218.8 697.9 217.82 698.89 216.89 699.94 C 213.89 703.3 211.46 703.94 207.51 702.43 C 208.035 702.224 208.582 702.08 209.14 702 L 209.14 702 Z  M 182.45 813.18 L 182.95 813.5 L 186.15 809.73 L 183.75 809.12 C 183.91 806.58 184.07 804.04 184.22 801.58 C 182.35 802.93 183.45 805.32 182.58 807.58 L 171.37 798.07 L 170.83 798.69 L 182.06 808.19 L 176.2 810.95 L 178.47 811.75 C 179.35 809.26 181.55 809.13 183.79 809.08 C 185.1 810.93 183.6 812 182.45 813.18 Z  M 301 997 C 300.514 997.378 299.995 997.713 299.45 998 C 298.94 998.26 298.12 997.91 297.45 997.83 C 297.76 997.34 298.04 996.83 298.38 996.36 C 299.46 994.86 301.38 993.73 300.7 991.36 C 297.57 992.36 296.18 994.47 296.26 997.94 C 294.702 996.454 294.296 994.125 295.26 992.2 C 296.165 990.358 297.166 988.566 298.26 986.83 L 287.11 985.5 L 287.82 987.62 C 285.62 988.62 283.44 989.69 281.16 990.54 C 278.88 991.39 278.62 991.54 279.16 994.03 C 274.84 993.76 270.74 993.29 268.34 989.03 L 259.92 993.59 C 261.7 996.42 266.03 993.95 267.92 997.17 L 273.23 994.27 C 273 997.52 273.57 997.91 276.56 997.7 C 278.741 997.619 280.924 997.712 283.09 997.98 C 286.56 998.3 290.01 998.89 293.49 999.09 C 295.24 999.18 296.04 999.59 295.84 1001.44 C 295.798 1002.169 296.093 1002.877 296.64 1003.36 C 296.535 1002.43 296.535 1001.49 296.64 1000.56 C 297 999.02 298.11 998.67 299.17 999.81 C 299.901 1000.7 300.501 1001.69 300.95 1002.75 C 301.38 1003.62 300.36 1004.75 301.81 1005.63 C 302.5 1006.03 302.49 1007.63 302.94 1009.12 C 302.94 1007.18 303.24 1005.68 302.86 1004.37 C 302.27 1002.844 301.519 1001.386 300.62 1000.02 C 303.47 999.53 311.73 1001.26 313.35 1002.6 C 315.35 1000.96 317.41 1002.85 319.88 1002.5 L 318.18 1001.85 C 313.04 999.85 307.48 1000.15 302.18 998.95 L 301.07 998.72 L 301.72 997.33 C 301.973 996.957 302.131 996.528 302.18 996.08 C 301.8 996.15 301.32 996.72 301 997 Z  M 207 983.14 L 209.14 977.28 C 209.97 977.74 210.76 978.55 211.4 978.44 C 212.24 978.31 212.97 977.44 213.72 976.91 C 215.6 975.49 217.46 974.05 219.81 972.24 C 220.03 974.24 220.15 975.51 220.31 976.77 C 220.507 979.111 222.279 981.015 224.6 981.38 C 229.07 982.1 234.41 979.27 236.6 974.81 C 228.46 976.12 225.32 970.17 221.6 965.08 C 222.72 964.75 224.15 964.76 224.55 964.08 C 225.07 963.25 224.88 961.9 224.81 960.78 C 224.66 958.33 224.37 955.88 224.18 953.43 C 224.12 952.71 224.18 951.98 224.18 951.02 C 219.85 952.35 215.85 952.64 212.3 949.8 C 211.119 952.53 210.094 955.324 209.23 958.17 C 208.88 959.59 209.66 961.25 209.77 962.81 C 210.115 965.378 210.202 967.974 210.03 970.56 C 209.42 975 207.81 977.01 203.3 980.16 L 207 983.14 Z  M 187.69 987.93 L 188.05 988.04 C 188.45 986.66 188.88 985.29 189.25 983.9 C 189.95 981.25 194.25 978.47 196.93 978.9 C 198.82 979.22 199.67 980.27 199.05 982.06 C 198.459 983.501 197.7 984.867 196.79 986.13 C 196.244 986.813 195.733 987.524 195.26 988.26 C 198.029 986.623 199.957 983.871 200.55 980.71 L 201.28 980.71 C 201.606 982.125 201.797 983.569 201.85 985.02 C 201.723 985.588 201.851 986.183 202.198 986.65 C 202.546 987.117 203.079 987.409 203.66 987.45 C 206.076 987.905 208.077 989.594 208.93 991.9 C 209.13 992.44 210.26 992.62 210.93 992.97 L 211.19 992.47 L 213.49 995.63 L 214.02 995.26 C 213.535 994.672 213.113 994.035 212.76 993.36 C 212.52 992.79 212.31 991.74 212.58 991.52 C 213.174 991.143 213.895 991.02 214.58 991.18 C 216.348 991.498 217.701 992.935 217.91 994.72 C 220.04 994.45 220.69 996.67 222.53 997.04 L 219.93 994 L 221.4 993.45 L 215.51 990.71 L 215.6 990.04 C 219.41 989.04 222.71 986.39 225.95 986.42 L 232.64 983.23 L 226.64 984.46 L 215.26 989.4 L 214.66 988.89 C 215.29 986.89 215.93 984.89 216.56 982.89 L 213.03 983.89 C 214.68 985.7 214.83 987.53 213.53 989.41 C 212.59 990.78 211.59 990.76 210.99 989.19 C 210.39 987.62 210.27 986.19 209.66 984.67 C 209.84 986.56 210.02 988.46 210.22 990.55 C 208.665 989.987 207.582 988.568 207.45 986.92 C 207.235 985.509 206.427 984.257 205.23 983.48 C 203.768 982.33 202.375 981.095 201.06 979.78 C 204.7 975.51 203.39 970.72 203.35 966.14 C 203.15 968.62 203.04 971.14 202.73 973.59 C 202.589 974.736 202.251 975.849 201.73 976.88 C 200.43 979.4 198.73 979.45 197.06 977.11 C 195.009 974.431 195.009 970.709 197.06 968.03 C 197.354 967.67 197.522 967.224 197.54 966.76 L 195.67 968.1 L 195.67 958.19 L 195.52 958.19 C 195.31 961.14 195.09 964.08 194.84 967.52 L 191.79 964.22 L 191.12 964.56 C 195.71 967.45 193.93 972.23 195.29 976.42 C 194.728 976.275 194.177 976.091 193.64 975.87 C 188.93 973.47 184.14 971.2 179.64 968.54 C 177.89 967.54 176.64 965.61 175.5 964.4 C 175.5 964.57 175.64 965.33 175.85 966.63 L 166.47 961.63 L 166.22 962.06 L 175.22 967.58 L 172.82 968.36 C 176.44 967.89 179.32 969.69 182.3 971.29 C 186.3 973.45 190.45 975.5 194.77 977.73 C 190.57 980.08 187.28 983.98 181.9 982.84 L 187.35 983.33 L 181.19 989.11 L 181.49 989.48 L 188.81 983.11 L 187.69 987.93 Z  M 200.2 858.11 L 193.49 862.11 C 198.13 873.87 199.58 886.81 200.42 899.87 L 201.04 899.73 Q 200.62 878.91 200.2 858.11 Z  M 209.06 955.76 C 209.69 953.05 210.27 950.59 210.99 947.51 C 205.33 949.85 201.46 947.7 198.1 943.91 C 196.77 948.74 199.1 954.66 203.1 957.12 C 203.563 957.491 204.159 957.652 204.745 957.564 C 205.332 957.477 205.855 957.149 206.19 956.66 C 206.66 956.07 207.06 955.43 207.56 954.73 L 209.06 955.76 Z  M 238.28 1012.2 L 224.41 1005.63 C 225.32 1009.14 226.14 1012.71 227.18 1016.21 C 227.7 1017.97 229.55 1019.65 226.9 1021.21 C 227.02 1021.21 227.17 1021.3 227.26 1021.26 C 228.12 1020.75 229.26 1019.2 229.89 1020.61 C 230.52 1022.02 229.76 1023.79 229.49 1025.39 C 229.43 1025.72 228.76 1025.93 228.66 1026 L 228.66 1028 L 229.89 1027.82 L 231.41 1021.95 C 234.03 1025.95 237.73 1028.37 238.92 1032.59 L 240.29 1031.36 L 232.04 1021.78 L 237.04 1020.65 L 237.04 1020.2 C 236.611 1020.067 236.168 1019.986 235.72 1019.96 C 235.41 1019.96 235.11 1020.26 234.79 1020.38 C 232.79 1021.13 230.51 1020.81 230.36 1019.64 C 230.13 1017.71 231.84 1017.28 233.17 1016.64 C 233.39 1016.518 233.604 1016.384 233.81 1016.24 L 233.54 1015.77 L 229.11 1018.3 C 230.57 1012.8 234.75 1012.39 238.28 1012.2 Z  M 203.28 916.8 C 202.28 919.36 201.45 921.42 200.74 923.53 C 200.677 924.044 200.85 924.559 201.21 924.93 C 202.685 926.502 204.816 927.286 206.958 927.044 C 209.101 926.802 211.003 925.562 212.09 923.7 C 213.3 921.76 214.29 919.7 215.53 917.38 C 212.95 918.13 210.74 918.7 208.59 919.44 C 208.2 919.58 208.04 920.44 207.66 921.13 L 203.28 916.8 Z  M 217.44 1014.8 C 217.5 1013.8 216.44 1011.98 218.97 1011.57 C 218.574 1011.535 218.176 1011.535 217.78 1011.57 C 216.186 1011.946 214.532 1011.241 213.7 1009.83 C 213.247 1009.207 213.11 1008.408 213.33 1007.67 C 213.903 1007.148 214.691 1006.933 215.45 1007.09 C 216.816 1007.501 218.153 1008.005 219.45 1008.6 L 219.66 1008.08 L 213.39 1005.61 C 214.429 1005.231 215.51 1004.979 216.61 1004.86 C 217.832 1004.922 219.034 1005.2 220.16 1005.68 C 221.252 1006.256 222.293 1006.925 223.27 1007.68 C 222.96 1004.76 222.54 1002.27 219.66 1000.61 C 219.44 1001.51 219.26 1002.23 219.02 1003.22 L 213.74 1000.41 C 213.599 1000.69 213.482 1000.981 213.39 1001.28 C 213.13 1002.55 213.25 1004.09 212.54 1005 C 212.02 1005.68 210.44 1005.52 209.34 1005.79 C 208.704 1005.925 208.121 1006.241 207.66 1006.7 C 208.314 1006.538 208.987 1006.464 209.66 1006.48 C 210.477 1006.665 211.276 1006.919 212.05 1007.24 C 211.788 1008.026 211.403 1008.765 210.91 1009.43 C 209.78 1010.52 208.44 1011.17 206.81 1010.28 C 206.418 1010.11 205.972 1010.11 205.58 1010.28 L 207.03 1011.09 L 202.74 1012.49 L 202.83 1012.73 L 207.52 1012.37 L 211.8 1010.12 C 210.91 1016.12 210.11 1021.49 209.31 1026.91 L 210.07 1027.03 C 210.94 1021.58 211.82 1016.13 212.8 1010.03 L 217.44 1014.8 Z  M 241.85 973 C 241.19 972.91 240.2 972.46 240.07 972 C 239.964 971.216 240.18 970.422 240.67 969.8 C 242.146 968.077 244.529 967.438 246.67 968.19 C 247.762 968.583 248.919 968.767 250.08 968.73 C 249.49 968.53 248.89 968.35 248.31 968.11 C 247.73 967.87 247.24 967.61 246.56 967.29 L 254.61 964.88 L 254.48 964.43 L 247.04 966.37 L 247.99 964.27 L 240.84 968.51 C 240.54 963.75 243.02 955.03 245.46 951.99 L 243.6 952.44 C 244.12 950.03 244.6 947.75 245.12 945.44 C 242.12 952.56 241.12 960.16 239.42 967.86 C 236.67 965.86 233.93 964.22 233.71 960.3 C 232.82 961.46 234.82 963.65 231.71 963.3 L 233.71 965.01 L 230.38 965.31 L 230.32 965.75 C 231.5 965.82 232.68 965.97 233.86 965.93 C 235.86 965.86 238.71 968.21 238.86 970.21 C 238.95 971.37 238.42 972.21 237.25 972.07 C 235.79 971.83 234.359 971.437 232.98 970.9 C 231.98 970.54 231.1 969.9 230.09 969.62 C 234.52 973.48 239.71 974.22 245.2 973.7 L 245.2 973.01 C 244.085 973.086 242.965 973.083 241.85 973 L 241.85 973 Z  M 174.08 1009.65 L 180.79 1010.25 L 181.07 1010.79 C 177.31 1014.15 175.01 1019.06 169.8 1021.05 L 170.73 1021.68 L 166.6 1026.13 C 169.05 1025.85 169.76 1022.9 171.7 1022.78 L 182.1 1010.96 C 182.82 1013.43 183.39 1015.42 183.83 1016.96 L 186.31 1020.08 L 186.6 1019.92 L 185.2 1016.59 L 187.42 1016.98 C 186.92 1016.51 186.71 1016.18 186.42 1016.05 C 184.237 1015.286 182.955 1013.026 183.42 1010.76 C 183.5 1010.08 183.84 1009.04 184.3 1008.89 C 185.069 1008.743 185.865 1008.928 186.49 1009.4 C 187.308 1010.125 188.051 1010.928 188.71 1011.8 C 188.41 1008.42 181.89 1003.63 177.28 1003.47 C 178.95 1004.14 180.583 1004.901 182.17 1005.75 C 182.82 1006.14 183.17 1007.1 183.59 1007.81 C 182.84 1008.422 181.996 1008.909 181.09 1009.25 C 178.48 1009.79 176.64 1008.47 175.09 1006.42 L 175.69 1008.23 L 170.96 1006.81 L 170.84 1007.17 L 174.68 1008.81 L 174.08 1009.65 Z  M 211.69 942.19 C 210.13 939.58 206.59 938.68 206.55 935.09 C 206.55 935.8 206.48 936.52 206.44 937.37 L 204.13 936.2 L 203.95 936.48 L 206.68 938.62 L 204.05 938.99 C 206.39 939.23 208.81 939.24 210.18 941.68 C 210.485 942.135 210.765 942.605 211.02 943.09 C 211.77 944.84 211.02 945.94 209.17 945.91 C 208.489 945.873 207.817 945.745 207.17 945.53 C 206.554 945.315 205.95 945.068 205.36 944.79 C 207.03 947.06 214.66 948.56 218.53 947.21 C 216.945 947.322 215.353 947.305 213.77 947.16 C 211.63 946.76 211.3 945.37 212.77 943.8 C 214.389 941.929 217.089 941.431 219.27 942.6 C 219.822 942.889 220.437 943.04 221.06 943.04 L 218.78 941.52 L 222.18 940.81 L 222.18 940.58 L 219.9 940.36 C 220 939.84 220.08 939.36 220.09 939.36 L 212.62 942.55 C 213.4 939.62 213.96 937.25 214.68 934.92 C 215.4 932.59 216.4 930.34 217.02 927.99 C 217.59 925.83 217.81 923.57 218.19 921.35 L 217.68 921.21 C 215.73 928.11 213.74 935 211.69 942.17 L 211.69 942.19 Z  M 273.29 1005.27 L 271.24 1003.64 C 271.45 1005.8 270.15 1007.57 267.75 1008.45 C 267.012 1008.712 266.197 1008.646 265.51 1008.27 C 265.103 1007.663 265.004 1006.901 265.24 1006.21 C 265.801 1005.032 266.237 1003.799 266.54 1002.53 L 263.61 1007.81 C 263.3 1006.2 263.03 1004.86 262.77 1003.53 C 259.9 1005.07 260.07 1006.04 263.29 1008.66 L 263.29 1015.37 L 263.68 1015.37 C 263.68 1014.92 263.68 1014.47 263.68 1014.03 C 263.68 1013.59 263.38 1012.87 263.55 1012.41 C 263.996 1011.324 264.5 1010.262 265.06 1009.23 C 265.93 1010 267.31 1010.63 267.57 1011.57 C 267.99 1013.07 267.68 1014.79 267.68 1016.41 L 268.51 1015.92 C 268.63 1016.92 268.73 1017.92 268.83 1018.8 L 269 1018.8 C 269.07 1018.02 269.14 1017.23 269.21 1016.31 L 270.21 1016.73 C 269.51 1014.8 268.76 1012.73 267.82 1010.12 C 271.17 1011.24 273.99 1012.12 276.82 1013.12 C 279.483 1014.137 282.209 1014.982 284.98 1015.65 L 281.98 1013.74 L 268.21 1009.44 L 273.29 1005.27 Z  M 200.06 738.31 C 201.23 731.8 204.06 726.1 205.21 719.92 L 204.55 719.72 C 202.73 725.72 200.92 731.72 198.94 738.21 L 194 732 L 194.31 731.58 C 194.24 732.17 194.16 732.76 194.07 733.51 L 191.9 732.31 L 191.67 732.58 L 194.24 734.66 L 192 735 C 194.23 735.15 196.46 735.36 197.52 737.69 C 197.864 738.776 198.069 739.902 198.13 741.04 C 197.042 741.172 195.946 741.228 194.85 741.21 C 194.122 741.019 193.428 740.719 192.79 740.32 C 194.92 742.76 202.05 744.2 204.79 743 C 203.356 743.011 201.923 742.894 200.51 742.65 C 198.84 742.24 198.62 740.98 199.78 739.65 C 201.072 738.184 203.075 737.563 204.97 738.04 L 209.65 736.67 C 208.92 735.67 207.03 737.67 206.51 735.89 L 200.06 738.31 Z  M 207.78 895.15 L 207 895 C 205.71 900.48 204.43 906 203 912 L 198.83 907 C 198.73 907.25 198.12 908 198.26 908.61 C 198.75 910.69 196.87 908.86 196.72 910.05 L 198.87 910.05 C 200.8 910.05 201.81 911.45 202.53 912.94 C 203.02 913.94 202.63 914.87 201.27 914.86 C 200.586 914.786 199.895 914.816 199.22 914.95 C 201.85 915.81 204.45 916.84 207.36 915.8 C 206.59 915.809 205.82 915.752 205.06 915.63 C 204.52 915.5 203.77 915.14 203.64 914.73 C 203.605 914.135 203.819 913.552 204.23 913.12 C 205.62 911.58 206.94 911.5 210.62 912.68 L 209.38 911.24 L 212.26 910.33 L 212.26 910.03 L 209.71 910.2 L 209.85 908.76 L 204.59 912 L 204.1 911.43 L 207.78 895.15 Z  M 203.66 778.22 L 205.21 780.79 L 205.21 780.16 C 206.77 779.95 208.33 779.65 209.89 779.59 C 210.48 779.699 210.969 780.109 211.18 780.67 C 211.123 781.255 210.813 781.785 210.33 782.12 C 209.344 782.736 208.322 783.294 207.27 783.79 C 211.17 783.45 215.58 779.91 216.48 776.35 C 215.785 777.383 215.012 778.363 214.17 779.28 C 213.554 779.637 212.875 779.871 212.17 779.97 C 211.95 779.29 211.38 778.46 211.59 777.97 C 212.107 776.84 212.803 775.8 213.65 774.89 C 214.09 774.37 214.86 774.14 215.31 773.42 L 213.31 774.12 C 213.82 773.2 214.2 772.51 214.59 771.83 L 214.37 771.6 L 212.85 772.85 L 212.19 771.19 L 211.08 777.37 L 210.3 777.48 C 208.21 774.26 205.47 771.48 204.49 767.63 C 202.49 767.93 202.89 765.12 200.83 764.74 C 203.83 769.35 206.6 773.69 209.39 778.02 L 209.17 778.69 L 203.66 778.22 Z  M 206.32 668.43 C 205.735 668.502 205.154 668.277 204.77 667.83 C 204.619 667.263 204.737 666.659 205.09 666.19 C 206.09 664.8 207.31 663.75 209.27 664.4 C 209.844 664.51 210.437 664.455 210.98 664.24 L 209.88 663.88 L 209.5 661.19 L 204.76 665.25 C 203.87 659.43 205.44 654.1 203.76 648.86 L 203.76 664.59 L 203.05 665.03 L 198.48 661.49 C 198.48 661.49 198.48 662.01 198.54 662.61 L 196.69 662.61 L 198.74 663.92 L 196.38 664.92 C 197.59 664.83 198.19 664.79 198.79 664.73 C 199.13 664.73 199.47 664.57 199.79 664.55 C 201.27 664.43 203.4 665.9 203.57 667.15 C 203.71 668.23 203.33 668.41 200.17 668.72 C 202.34 670.13 207.6 669.45 210.79 667.08 C 209.323 667.603 207.831 668.054 206.32 668.43 L 206.32 668.43 Z  M 179.12 897.86 C 178.55 898.05 177.96 898.18 177.42 898.42 C 176.24 898.94 175.09 899.52 173.42 900.3 C 174.03 893.72 174.62 887.47 175.23 880.96 C 173.87 882.56 175.1 884.91 173.54 885.96 C 173.29 890.65 173.04 895.35 172.76 900.53 L 167.4 896.75 L 165.87 897.12 C 166.87 898.12 167.69 899.33 169.43 899.12 C 169.74 899.12 170.14 899.51 170.43 899.78 C 171.49 900.72 173.1 901.78 172.21 903.23 C 171.76 903.95 169.84 903.78 168.58 904.01 C 168.39 904.025 168.2 904.025 168.01 904.01 L 167.95 904.54 L 176.09 905.25 C 176 904.89 176 904.71 175.95 904.7 C 174.75 904.43 173.09 904.7 173.24 902.7 C 173.34 901.32 176.01 899.32 177.54 899.39 C 178.062 899.457 178.579 899.554 179.09 899.68 L 179.12 897.86 Z  M 183.85 847.63 L 182.6 845.38 L 181.72 846.08 C 182.94 847.95 184.15 849.82 185.38 851.68 C 186.61 853.54 187.95 855.55 189.38 857.62 C 187.43 858.63 185.11 858.63 183.16 857.62 L 184.34 858.94 L 180.91 859.94 L 180.97 860.22 L 184.58 859.61 C 184.65 859.98 184.71 860.34 184.79 860.85 C 185.114 860.665 185.41 860.437 185.67 860.17 C 186.67 858.82 188 858.79 189.36 859.17 C 190.054 859.344 190.649 859.791 191.01 860.41 C 191.16 860.73 190.47 861.51 190.01 861.99 C 189.663 862.299 189.276 862.562 188.86 862.77 L 189.29 863.36 L 195.49 858.8 L 195.05 858.22 C 194.834 858.444 194.592 858.642 194.33 858.81 C 193.57 859.17 192.79 859.47 192.02 859.81 C 191.757 858.88 191.589 857.925 191.52 856.96 C 191.59 856.275 191.923 855.643 192.45 855.2 C 193.91 854.08 193.35 853.2 192.24 852.14 C 192.02 853.07 191.88 853.91 191.61 854.71 C 191.34 855.51 190.91 856.34 190.33 857.71 C 188.28 853.71 184.5 851.09 184.52 846.04 C 184.29 846.51 184.15 846.85 183.85 847.63 L 183.85 847.63 Z  M 171.9 945 C 171.9 945.17 172.04 945.68 172.17 946.35 L 173.41 946.14 L 173.02 947.64 C 173.92 946.46 174.61 945.02 175.75 944.25 C 176.58 943.69 178.01 944 179.17 943.93 L 179.17 947.12 C 179.94 945.98 180.77 944.74 181.4 943.82 C 180.4 943.23 179.21 942.9 178.86 942.16 C 177.99 940.29 178.24 938.4 179.53 937.44 C 179.32 936.03 179.17 934.99 178.91 933.3 C 178.37 936.36 177.91 938.84 177.41 941.71 C 174.18 939.29 170.41 937.71 167.82 934.3 L 166.03 934.81 L 177.45 942.75 L 171.9 945 Z  M 204.31 995 L 205.71 996.05 L 200.63 999.75 L 200.9 1000.16 L 206.3 996.61 C 206.5 998.13 206.65 999.32 206.82 1000.61 L 208.31 1000.12 C 207.562 999.539 207.081 998.681 206.973 997.74 C 206.866 996.799 207.142 995.855 207.74 995.12 L 204.31 995 Z  M 325.24 1017.48 L 325.08 1017.75 L 326.54 1018.83 C 325.77 1021.47 322.99 1019.54 321.72 1021.14 C 323.37 1021.14 324.93 1021.14 326.48 1021.14 C 326.72 1021.14 326.94 1020.73 327.16 1020.5 L 328.76 1018.8 L 325.24 1017.48 Z  M 224.7 1018.55 C 224.75 1018.77 225.43 1019.07 225.58 1018.97 C 225.9 1018.77 226.33 1018.23 226.24 1017.97 C 225.66 1016.14 224.96 1014.35 224.24 1012.55 L 223.43 1012.73 C 223.88 1014.7 224.24 1016.65 224.7 1018.57 L 224.7 1018.55 Z " id="Compound Path" class="cls-7" fill="url(#_lgradient_0)"/><path d=" M 312.18 898.96 L 297.66 868.99 L 263.76 864.34 L 252.23 849.6 L 253.36 839.02" id="Path" class="cls-5" fill="none" vector-effect="non-scaling-stroke" stroke-width="2" stroke="rgb(8,76,65)" stroke-linejoin="miter" stroke-linecap="butt" stroke-miterlimit="10"/><path d=" M 285.56 745.89 L 271.58 712.73 L 274.04 684.57 L 260.05 664.54 L 264.59 653.76" id="Path" class="cls-5" fill="none" vector-effect="non-scaling-stroke" stroke-width="2" stroke="rgb(8,76,65)" stroke-linejoin="miter" stroke-linecap="butt" stroke-miterlimit="10"/><path d=" M 216.04 485.26 L 202.22 491.06 L 203 489.87 L 202.82 502.53 L 202.82 502.92 L 202.6 503.21 L 191.38 517.61 L 191.44 516.65 L 198.82 529.79 L 199 530.11 L 198.84 530.41 L 190.69 545.76 L 197.65 529.83 L 197.67 530.45 L 189.94 517.52 L 189.65 517.03 L 190 516.56 L 200.81 501.86 L 200.58 502.53 L 200.41 489.87 L 200.4 489.04 L 201.19 488.68 L 214.85 482.51 L 216.04 485.26 L 216.04 485.26 L 216.04 485.26 Z " id="Path" class="cls-8" fill="rgb(8,76,65)"/><path d=" M 398.35 383 L 403.56 371.34 L 403.73 370.96 C 404.923 370.694 406.078 370.28 407.17 369.73 C 410.315 368.11 413.219 366.06 415.8 363.64 L 416.17 363.83 L 428.33 369.95 L 427.98 369.95 L 435.25 367.31 L 435.34 367.31 L 435.42 367.31 C 435.36 367.31 452.86 370.25 452.67 370.25 L 459.6 368.78 C 459.6 368.78 452.71 370.45 452.67 370.44 L 435.31 367.98 L 435.49 367.98 L 428.3 370.81 L 428.12 370.88 L 427.94 370.8 L 415.62 365.02 L 416.32 364.91 C 412.84 368.12 409.11 371.15 404.47 372.53 L 405.07 372.04 L 400.19 383.84 L 398.35 383.05 L 398.35 383 Z " id="Path" class="cls-8" fill="rgb(8,76,65)"/><path d=" M 491 349.8 L 491.08 344.13 L 491.75 345.02 L 481.86 342.02 L 481.55 341.93 L 481.4 341.66 L 470.45 322.52 L 470.81 322.76 L 457.23 320.6 L 457.14 320.6 L 439.14 304.71 C 439.19 304.8 457.93 320.33 457.33 319.99 L 471 321.81 L 471.23 321.81 L 471.36 322.02 L 482.81 340.86 L 482.35 340.5 L 492.3 343.21 L 492.97 343.39 C 492.97 343.58 493.05 349.39 493.05 349.77 L 491 349.8 Z " id="Path" class="cls-8" fill="rgb(8,76,65)"/><path d=" M 310.21 567.12 C 308.55 560.76 304.68 555.18 300.56 550.12 C 296.186 544.943 291.308 540.214 286 536 L 285.56 535.63 L 285.56 535.13 L 283.03 495.95 L 283.41 496.39 L 257.21 489.59 L 283.65 495.42 L 283.99 495.49 L 283.99 495.86 L 287.99 534.92 L 287.51 534.05 C 296.57 540.89 305.18 548.84 310.92 558.76 C 312.343 561.163 313.446 563.741 314.2 566.43 L 310.27 567.17 L 310.21 567.12 Z " id="Path" class="cls-8" fill="rgb(8,76,65)"/><path d=" M 314.87 188.24 C 315.33 190.14 315.68 192.05 315.97 193.98 C 314.56 195.65 313.08 197.26 311.57 198.85 L 311.68 198.64 C 311.11 200.867 310.426 203.063 309.63 205.22 C 309.89 202.93 310.29 200.67 310.77 198.43 C 312.161 196.73 313.639 195.105 315.2 193.56 L 315.09 193.9 C 314.94 192.02 314.86 190.14 314.87 188.24 L 314.87 188.24 Z " id="Path" class="cls-8" fill="rgb(8,76,65)"/><path d=" M 358.11 445.96 L 365.33 449.36 L 378.75 445.24" id="Path" class="cls-8" fill="rgb(8,76,65)"/><path d=" M 355.93 526.05 L 350.73 518.09 L 363.14 520.02 L 355.93 526.05 L 355.93 526.05 Z " id="Path" class="cls-8" fill="rgb(8,76,65)"/><path d=" M 340.14 969.06 C 340.6 970.97 340.95 972.88 341.24 974.8 C 339.83 976.48 338.35 978.09 336.84 979.68 L 336.95 979.47 C 336.378 981.696 335.693 983.892 334.9 986.05 C 335.16 983.75 335.56 981.49 336.04 979.25 C 337.428 977.551 338.907 975.929 340.47 974.39 L 340.36 974.72 C 340.21 972.85 340.12 970.96 340.14 969.06 L 340.14 969.06 Z " id="Path" class="cls-8" fill="rgb(8,76,65)"/><path d=" M 225.42 357.78 C 225.42 357.12 225.29 351.78 225.28 351.33 L 226.01 350.94 L 236.35 345.35 L 235.82 346.5 L 234.14 335.1 L 234.07 334.64 L 235.95 333.49 L 235.68 333.95 L 236.45 326.95 L 236.45 326.68 L 236.68 326.62 L 242.79 324.99 L 242.7 325.07 L 244.7 321.07 L 243 325.18 L 243 325.24 L 242.93 325.24 L 236.93 327.29 L 237.19 326.96 L 236.9 334.02 L 236.9 334.3 L 235.19 335.52 L 235.48 334.84 L 238 346.1 L 238.16 346.83 L 237.47 347.25 L 227.47 353.38 L 228.17 352.11 L 228.47 357.66 L 225.47 357.78 L 225.42 357.78 Z " id="Path" class="cls-8" fill="rgb(8,76,65)"/><path d=" M 287.05 285 L 275 275.38 L 275.78 275.56 L 250.98 279.39 L 250.93 279.39 L 246.93 276.13 L 251.1 279.13 L 250.97 279.13 L 275.38 273.69 L 275.78 273.6 L 276.16 273.87 L 288.87 282.72 L 287.07 285.12 L 287.05 285 Z " id="Path" class="cls-8" fill="rgb(8,76,65)"/><path d=" M 338.07 164.91 L 360.29 184.13 L 359.28 183.94 L 383.03 176.32 L 383.11 176.29 L 383.18 176.31 L 398.85 179.72 L 383.07 176.85 L 383.21 176.84 L 359.97 185.89 L 359.44 186.09 L 358.96 185.71 L 336.14 167.21 L 338.07 164.91 L 338.07 164.91 L 338.07 164.91 Z " id="Path" class="cls-8" fill="rgb(8,76,65)"/></g></svg>