<?xml version="1.0" encoding="UTF-8" standalone="no"?>
<!-- Created with Inkscape (http://www.inkscape.org/) -->

<svg
   version="1.1"
   id="svg18"
   width="288.21585"
   height="416.2655"
   viewBox="0 0 288.21584 416.2655"
   sodipodi:docname="MetaFest_23_web.ai"
   inkscape:version="1.2.1 (9c6d41e, 2022-07-14)"
   xmlns:inkscape="http://www.inkscape.org/namespaces/inkscape"
   xmlns:sodipodi="http://sodipodi.sourceforge.net/DTD/sodipodi-0.dtd"
   xmlns="http://www.w3.org/2000/svg"
   xmlns:svg="http://www.w3.org/2000/svg">
  <defs
     id="defs22">
    <clipPath
       clipPathUnits="userSpaceOnUse"
       id="clipPath22382">
      <path
         d="m 225.406,2699.007 c -1.077,-1.001 -1.051,-2.068 -0.159,-3.158 v 0 c 0.139,-0.169 0.092,-0.363 0.171,-0.499 v 0 c 0.365,-0.631 0.158,-0.859 -0.513,-0.841 v 0 c -2.192,0.053 -4.207,0.771 -5.782,2.217 v 0 c -0.873,0.802 -1.228,0.532 -1.891,-0.037 v 0 c -0.581,-0.498 -1.025,-1.106 -1.533,-1.636 v 0 c -1.328,-1.383 -1.418,-2.777 -0.617,-4.373 v 0 c 0.234,-0.465 0.376,-1.018 0.996,-1.169 v 0 c 2.579,-0.625 4.389,-2.207 5.678,-4.487 v 0 c 0.346,-0.612 1.757,-1.114 -0.004,-1.707 v 0 c -0.034,-0.012 -0.131,-0.548 0.151,-0.805 v 0 c 0.462,-0.423 0.913,-0.864 1.333,-1.331 v 0 c 1.1,-1.223 0.923,-1.806 -0.657,-2.507 v 0 c -0.503,-0.223 -1.462,-0.418 -1.274,-0.964 v 0 c 0.4,-1.163 -0.413,-2.114 -0.239,-3.189 v 0 c 0.114,-0.707 0.049,-1.382 -0.656,-1.834 v 0 c -1.27,-0.816 -2.286,-1.926 -3.324,-3.003 v 0 c -0.39,-0.406 -0.676,-0.443 -1.008,0.01 v 0 c -0.715,0.975 -1.733,1.719 -2.709,2.251 v 0 c -1.082,0.589 -2.434,1.738 -3.755,0.706 v 0 c -1.236,-0.965 -2.463,-1.072 -3.863,-0.794 v 0 c -0.79,0.157 -1.636,0.494 -2.32,-0.176 v 0 c -0.772,-0.755 -1.521,-0.569 -2.346,-0.161 v 0 c -0.958,0.476 -1.884,0.096 -1.928,-0.831 v 0 c -0.065,-1.397 -0.968,-1.735 -1.863,-2.378 v 0 c -0.697,-0.501 -2.062,-0.744 -1.826,-1.94 v 0 c 0.336,-1.71 -1.667,-0.443 -1.701,-1.507 v 0 c -0.003,-0.11 -0.128,-0.199 -0.154,-0.337 v 0 c -0.208,-1.077 -1.042,-1.908 -1.178,-2.995 v 0 c -0.164,-1.302 -1.139,-1.332 -2,-1.136 v 0 c -1.592,0.36 -3.19,0.332 -4.787,0.304 v 0 c -0.684,-0.012 -1.366,-0.024 -2.048,-0.01 v 0 c -0.394,0.01 -0.835,-0.01 -0.82,0.504 v 0 c 0.052,1.782 -1.36,1.773 -2.506,2.18 v 0 c -1.849,0.657 -3.752,0.609 -5.666,0.695 v 0 c -1.104,0.05 -2.854,-0.202 -3.058,1.14 v 0 c -0.243,1.593 -1.094,1.839 -2.266,2.176 v 0 c -0.572,0.163 -1.394,0.348 -1.17,1.303 v 0 c 0.309,1.32 1.368,2.473 0.769,4.04 v 0 c -0.061,0.16 -0.003,0.692 -0.28,0.952 v 0 c -1.275,1.194 -2.726,2.13 -4.324,2.837 v 0 c -1.072,0.472 -2.47,0.743 -3.27,0.238 v 0 c -1.23,-0.777 -2.257,-0.195 -3.008,0.194 v 0 c -0.91,0.471 -1.371,0.451 -1.874,-0.271 v 0 c -1.037,-1.486 -2.462,-1.837 -4.175,-1.678 v 0 c -1.389,0.129 -2.818,0.159 -3.987,-0.824 v 0 c -0.338,-0.284 -0.746,-0.235 -0.996,-0.129 v 0 c -1.108,0.467 -2.046,0.81 -1.867,-1.03 v 0 c 0.009,-0.091 -0.205,-0.355 -0.477,-0.333 v 0 c -1.236,0.096 -2.233,-0.661 -3.31,-1.052 v 0 c -0.964,-0.351 -1.238,-0.335 -1.197,0.722 v 0 c 0.041,1.057 -0.626,0.912 -1.142,0.484 v 0 c -2.013,-1.666 -4.233,-3.054 -6.228,-4.753 v 0 c -0.666,-0.566 -1.732,-0.971 -2.996,-0.14 v 0 c -1.842,1.212 -2.995,3.455 -5.446,3.737 v 0 c -0.528,0.061 -0.705,0.582 -0.787,0.852 v 0 c -0.252,0.831 -0.897,0.893 -1.533,1.179 v 0 c -2.04,0.918 -4.315,1.069 -6.331,1.995 v 0 c -1.293,0.594 -2.528,1.234 -4.007,0.971 v 0 c -0.116,-0.02 -0.189,0.106 -0.339,0.157 v 0 c -1.734,0.58 -3.214,1.536 -4.506,2.831 v 0 c -0.414,0.416 -0.734,1.29 -1.47,0.979 v 0 c -0.951,-0.403 -1.425,0.276 -1.817,0.727 v 0 c -1.468,1.692 -3.42,2.712 -5.201,3.959 v 0 c -2.699,1.891 -5.726,3.198 -8.607,4.76 v 0 c -2.121,1.151 -4.543,1.422 -6.54,2.75 v 0 c -0.533,0.355 -1.129,0.186 -1.664,0.134 v 0 c -0.842,-0.079 -1.403,-0.66 -0.805,-1.445 v 0 c 0.655,-0.86 -0.017,-0.844 -0.379,-0.828 v 0 c -0.064,0 -0.118,0.01 -0.153,0.01 v 0 c -1.279,-0.071 -1.592,-0.985 -1.272,-1.843 v 0 c 0.36,-0.963 0.289,-1.057 -0.714,-1.247 v 0 c -1.098,-0.207 -1.766,-1.797 -1.157,-2.42 v 0 c 1.592,-1.628 2.665,-3.835 4.981,-4.672 v 0 c 0.887,-0.32 0.951,-0.695 0.532,-1.529 v 0 c -0.402,-0.802 -0.802,-2.366 -0.012,-2.521 v 0 c 1.712,-0.334 0.885,-1.194 0.595,-1.767 v 0 c -0.269,-0.533 -0.681,-0.654 0.189,-1.073 v 0 c 1.007,-0.483 1.448,-2.177 0.843,-2.412 v 0 c -2.165,-0.842 -0.491,-1.104 0.18,-1.535 v 0 l 0.334,0.166 c -0.457,-0.653 -0.579,-1.519 -1.654,-1.725 v 0 c -0.59,-0.113 -0.691,-0.768 -0.223,-1.469 v 0 c 0.363,-0.546 0.352,-0.662 1.073,-0.379 v 0 c 0.776,0.303 1.883,0.285 2.309,-0.921 v 0 c 0.407,-1.157 -0.271,-1.635 -1.173,-2.001 v 0 l -0.213,0.036 c 0.388,-0.17 0.616,-0.505 0.495,-1.024 v 0 c -0.154,-0.672 -0.16,-1.111 0.385,-1.51 v 0 c 1.223,-0.892 0.793,-1.349 -0.305,-2.043 v 0 c -1.343,-0.849 -1.75,-3.255 -0.649,-3.873 v 0 c 1.168,-0.656 1.654,-1.711 2.475,-2.558 v 0 c 0.766,-0.792 0.99,-2.278 2.649,-2.077 v 0 c 0.415,0.05 0.377,-0.546 0.007,-0.954 v 0 c -1.005,-1.109 -0.711,-2.069 0.49,-2.814 v 0 c 0.558,-0.346 0.975,-0.579 0.174,-1.186 v 0 c -1.675,-1.27 -1.653,-1.309 -0.174,-2.814 v 0 c 0.468,-0.477 0.9,-0.998 1.495,-1.336 v 0 c 1.518,-0.859 0.519,-1.236 -0.342,-1.463 v 0 c -0.386,-0.102 -0.746,-0.309 -0.786,-0.542 v 0 c -0.085,-0.501 0.533,-0.525 0.808,-0.625 v 0 c 1.034,-0.373 1.276,-0.563 0.375,-1.581 v 0 c -1.089,-1.23 -0.154,-3.236 1.435,-3.811 v 0 c 0.472,-0.171 0.911,-0.151 1.34,-0.114 v 0 c 0.609,0.053 0.897,-0.343 1.149,-0.704 v 0 c 0.335,-0.479 -0.352,-0.513 -0.488,-0.817 v 0 c -0.448,-0.999 -1.457,-1.255 -2.329,-1.659 v 0 c -1.972,-0.913 -2.545,-1.618 -1.022,-3.693 v 0 c 0.368,-0.502 1.184,-1.276 -0.13,-1.836 v 0 c -0.46,-0.195 -0.553,-0.771 -0.163,-1.128 v 0 c 0.916,-0.844 0.612,-1.516 -0.18,-2.179 v 0 c -0.857,-0.717 -0.356,-1.193 0.343,-1.476 v 0 c 0.482,-0.193 0.92,-0.512 1.489,-0.538 v 0 c 0.796,-0.036 1.338,-0.348 1.354,-1.318 v 0 c 0.016,-1.065 0.455,-1.385 1.318,-0.506 v 0 c 0.301,0.306 0.485,0.836 1.176,0.365 v 0 c 1.33,-0.907 1.313,-1.407 -0.166,-2.383 v 0 c -0.229,-0.151 -0.792,-0.228 -0.652,-0.629 v 0 c 0.12,-0.34 0.478,-0.598 0.97,-0.526 v 0 c 0.366,0.054 0.68,0.051 1.018,0.324 v 0 c 0.414,0.334 0.842,0.462 1.517,0.096 v 0 c 0.655,-0.353 1.528,-0.449 2.305,-0.703 v 0 c 1.098,-0.36 2.204,0.249 3.312,0.365 v 0 c 0.755,0.08 0.559,1.094 0.718,1.755 v 0 c 0.216,0.899 1.065,1.518 1.927,1.118 v 0 c 0.77,-0.356 1.483,-0.106 2.188,-0.289 v 0 c 0.159,-0.041 0.326,0.029 0.486,0.099 v 0 c 0.251,0.111 0.487,0.221 0.659,-0.099 v 0 c 0.238,-0.444 -0.089,-0.856 -0.474,-1.152 v 0 c -0.905,-0.697 -0.449,-1.039 0.328,-1.343 v 0 c 0.25,-0.098 0.448,-0.322 0.671,-0.489 v 0 h 1.332 c -1.334,-0.607 -2.965,-0.626 -3.983,-1.844 v 0 c -0.868,-1.037 -2.179,-1.422 -3.247,-2.032 v 0 c -1.095,-0.626 -0.636,-1.225 -0.56,-1.782 v 0 c 0.156,-1.139 0.245,-1.123 -0.871,-0.839 v 0 c -0.887,0.227 -1.866,0.283 -2.639,0.713 v 0 c -0.788,0.437 -1.222,-0.262 -1.856,-0.281 v 0 c -0.657,-0.02 -0.179,-0.696 0.016,-0.914 v 0 c 1.467,-1.64 2.931,-3.287 4.5,-4.825 v 0 c 0.827,-0.813 2.115,-0.729 3.144,-1.187 v 0 l 0.832,0.832 c -1.215,-1.886 -1.215,-1.886 0.168,-2.831 v 0 l 0.54,-0.192 c -0.408,-0.102 -0.757,-0.518 -1.208,-0.491 v 0 c -1.293,0.075 -2.616,-0.119 -3.829,0.518 v 0 c -0.57,0.3 -0.948,0.224 -0.822,-0.5 v 0 c 0.226,-1.302 -0.568,-2.215 -1.202,-3.149 v 0 c -0.253,-0.373 -0.555,-0.712 -0.795,-1.094 v 0 c -0.122,-0.19 -0.364,-0.837 0.134,-0.605 v 0 c 0.097,0.045 0.173,0.125 0.254,0.195 v 0 c 0.198,0.167 0.449,0.277 0.709,0.285 v 0 c 0.258,0.01 0.524,-0.098 0.691,-0.296 v 0 c 0.168,-0.2 0.225,-0.477 0.195,-0.736 v 0 c -0.03,-0.26 -0.141,-0.504 -0.276,-0.727 v 0 c -0.282,-0.467 -2.102,-1.691 -0.982,-2.056 v 0 c 0.747,-0.243 1.381,-0.833 2.222,-0.683 v 0 c 0.591,0.106 1.082,0.577 1.682,0.613 v 0 c 0.373,0.022 0.752,-0.142 0.992,-0.428 v 0 c 0.239,-0.288 0.333,-0.69 0.244,-1.053 v 0 c -0.152,-0.623 -0.795,-1.132 -0.68,-1.762 v 0 c 0.073,-0.397 0.436,-0.677 0.809,-0.83 v 0 c 0.374,-0.152 0.781,-0.217 1.143,-0.395 v 0 c 0.361,-0.178 0.688,-0.519 0.677,-0.922 v 0 c -0.011,-0.387 -0.322,-0.695 -0.641,-0.914 v 0 c -0.319,-0.219 -0.68,-0.406 -0.89,-0.731 v 0 c -0.326,-0.503 -0.189,-1.167 -0.013,-1.74 v 0 c 0.175,-0.573 0.377,-1.199 0.153,-1.755 v 0 c -0.112,-0.277 -0.318,-0.502 -0.506,-0.734 v 0 c -0.187,-0.231 -0.365,-0.488 -0.402,-0.784 v 0 c -0.058,-0.461 0.351,-0.595 0.435,-0.978 v 0 c 0.096,-0.44 -0.154,-0.969 -0.369,-1.334 v 0 c -0.384,-0.655 -0.415,-1.061 -0.3,-1.712 v 0 c 0.073,-0.415 0.345,-1.007 -0.617,-1.222 v 0 c -0.961,-0.215 0.22,-1.015 -0.038,-1.42 v 0 c -0.644,-1.008 -0.15,-1.133 0.689,-1.004 v 0 c 0.64,0.097 1.078,-0.227 1.302,-0.694 v 0 c 0.164,-0.339 0.136,-1.016 -0.31,-1.106 v 0 c -0.555,-0.112 -0.97,-0.938 -1.656,-0.375 v 0 c -0.293,0.241 -0.828,0.508 -0.948,0.301 v 0 c -0.17,-0.291 -0.164,-0.796 0.27,-1.149 v 0 c 0.636,-0.519 -0.236,-0.62 -0.321,-0.619 v 0 c -0.196,0 -0.352,-0.1 -0.507,-0.201 v 0 c -0.197,-0.129 -0.393,-0.258 -0.663,-0.176 v 0 c -0.327,0.101 -0.726,0.011 -0.806,-0.329 v 0 c -0.101,-0.423 0.356,-0.489 0.638,-0.667 v 0 c 0.538,-0.341 0.781,-0.832 0.678,-1.494 v 0 c -0.075,-0.48 0.032,-0.794 0.657,-0.854 v 0 c 0.78,-0.074 1.063,-0.462 0.709,-1.326 v 0 c -0.195,-0.477 0.116,-0.744 0.804,-0.521 v 0 c 0.92,0.298 3.375,-2.025 3.109,-2.947 v 0 c -0.184,-0.634 -1.034,-0.735 -1.627,-0.793 v 0 c -0.135,-0.013 -0.275,-0.01 -0.42,0 v 0 c -0.184,0.01 -0.377,0.018 -0.58,-0.013 v 0 c -0.534,-0.083 -1.069,-0.564 -1.092,-0.718 v 0 c -0.085,-0.543 0.565,-0.585 0.932,-0.821 v 0 c 0.808,-0.52 2.471,-0.68 0.855,-2.19 v 0 c -0.205,-0.192 0.128,-0.499 0.469,-0.658 v 0 c 0.995,-0.466 1.535,-1.456 2.316,-2.175 v 0 c 1.095,-1.006 0.61,-2.659 -0.81,-3.139 v 0 c -1.247,-0.422 -2.097,-2.404 -1.495,-3.496 v 0 c 0.036,-0.066 0.098,-0.132 0.165,-0.166 v 0 c 1.271,-0.632 -1.499,-1.464 0.143,-2.215 v 0 c 0.789,-0.361 0.885,-1.298 0.355,-2.117 v 0 h -0.666 c 0.99,-0.022 1.591,-1.704 2.831,-0.666 v 0 c 1.288,-1.785 2.039,-0.026 2.8,0.541 v 0 c 0.841,0.625 1.615,1.007 2.685,1.188 v 0 c 1.601,0.272 2.937,-0.52 4.349,-0.628 v 0 c 3.272,-0.248 6.556,-0.18 9.83,-0.704 v 0 c 1.306,-0.209 2.627,-0.081 4.088,0.758 v 0 c 1.372,0.787 3.502,1.184 5.214,1.022 v 0 c 0.278,-0.026 0.601,0.016 0.938,0.058 v 0 c 0.884,0.11 1.868,0.22 2.408,-0.903 v 0 l 1.181,-0.633 c -0.286,0.023 -0.571,0.039 -0.85,0.044 v 0 c -0.468,0.01 -0.925,-0.032 -1.386,-0.075 v 0 c -0.733,-0.067 -1.48,-0.134 -2.303,0.01 v 0 c -1.29,0.221 -3.059,0.034 -4.291,-1.024 v 0 c -0.751,-0.644 -1.431,-0.894 -2.51,-0.902 v 0 c -2.232,-0.014 -4.436,-0.265 -6.672,0.208 v 0 c -0.76,0.161 -1.562,0.12 -2.363,0.079 v 0 c -0.377,-0.019 -0.754,-0.038 -1.126,-0.036 v 0 c -1.626,0.01 -3.241,-0.049 -4.838,0.473 v 0 c -1.368,0.448 -3.21,-1.079 -3.157,-2.473 v 0 c 0.004,-0.111 -0.016,-0.317 0.003,-0.319 v 0 c 1.904,-0.313 -0.043,-2.048 0.982,-2.703 v 0 c 0.061,-0.038 -0.041,-0.458 -0.163,-0.635 v 0 c -0.31,-0.45 -0.547,-0.014 -0.639,0.168 v 0 c -0.427,0.839 -1.443,0.738 -2.015,1.324 v 0 l 0.167,-0.5 c -0.309,-0.185 -0.408,-0.766 -1.023,-0.368 v 0 c -0.273,0.176 -0.863,0.196 -1.142,-0.298 v 0 l -1,-0.167 c 1.244,-0.544 2.222,-1.308 2.158,-2.83 v 0 c -0.045,-1.079 0.335,-1.826 1.33,-2.352 v 0 c 1.1,-0.581 1.743,-1.952 3.352,-1.719 v 0 c 0.33,0.048 1.039,-0.671 0.989,-1.426 v 0 l -0.115,-0.458 c 0.283,0.891 1.09,0.63 1.78,0.624 v 0 c 0.97,-0.01 0.815,-0.721 0.837,-1.332 v 0 c 0.008,-0.229 0.095,-0.464 0.129,-0.672 v 0 c 0.287,-1.702 -0.339,-2.655 -1.965,-3.159 v 0 c -1.686,-0.522 -1.686,-0.522 -1,-2.165 v 0 l -0.832,-0.5 c 0.425,-0.052 0.741,0.184 1.056,0.42 v 0 c 0.328,0.245 0.656,0.49 1.108,0.412 v 0 c 0.092,-0.016 0.184,-0.012 0.276,-0.01 v 0 c 0.189,0.01 0.378,0.018 0.567,-0.148 v 0 c 0.496,-0.434 -0.123,-0.732 -0.207,-0.811 v 0 c -0.824,-0.784 -1.078,-1.48 -0.348,-2.562 v 0 c 0.446,-0.661 -0.035,-1.082 -0.952,-1.151 v 0 c -0.214,-0.017 -0.408,0.037 -0.598,0.09 v 0 c -0.187,0.053 -0.372,0.105 -0.57,0.093 v 0 l -0.499,0.667 c 0.162,-0.489 0.436,-0.953 0.333,-1.5 v 0 c 0.762,-0.123 -0.48,-1.776 0.996,-1.321 v 0 c 0.251,0.077 0.472,0.01 0.702,-0.063 v 0 c 0.333,-0.101 0.687,-0.203 1.189,0.135 v 0 c 1.98,1.332 2.439,1.253 5.093,0.212 v 0 c 1.34,-0.524 2.473,-1.555 4.01,-1.649 v 0 c 0.177,-0.011 0.398,-0.283 0.492,-0.483 v 0 c 1.079,-2.294 1.489,-2.7 3.847,-3.298 v 0 c 0.482,-0.122 0.937,-0.212 0.96,-0.696 v 0 c 0.019,-0.408 -0.382,-0.8 -0.801,-0.81 v 0 c -1.05,-0.025 -1.046,-0.924 -0.782,-1.321 v 0 c 0.644,-0.971 1.462,-1.827 2.365,-2.626 v 0 c 0.462,-0.409 -0.639,-1.861 0.258,-2.727 v 0 c 0.401,-0.387 0.375,-0.608 0.011,-1.026 v 0 c -0.476,-0.55 -0.959,-1.158 -0.363,-1.99 v 0 c 0.678,-0.948 1.679,-0.831 2.491,-0.594 v 0 c 0.595,0.174 1.054,0.469 1.508,-0.071 v 0 c 0.592,-0.704 1.07,-0.526 1.704,-0.029 v 0 c 0.201,0.158 0.804,0.549 1.151,-0.123 v 0 c 0.192,-0.373 0.239,-0.664 -0.011,-1.009 v 0 c -0.657,-0.903 -0.768,-1.95 -0.123,-2.794 v 0 c 0.398,-0.523 0.122,-0.78 -0.065,-1.021 v 0 c -0.611,-0.784 -0.354,-1.001 0.517,-1.026 v 0 c 0.127,0 0.283,0.013 0.442,0.03 v 0 c 0.394,0.044 0.805,0.087 0.832,-0.189 v 0 c 0.106,-1.07 1.478,-1.475 1.233,-2.661 v 0 c -0.176,-0.856 0.174,-1.367 0.965,-1.872 v 0 c 1.261,-0.806 2.852,-1.537 2.224,-3.632 v 0 c -0.193,-0.64 0.247,-1.1 0.953,-0.636 v 0 c 0.282,0.185 0.54,0.439 0.841,0.3 v 0 c 1.457,-0.674 2.859,-1.066 4.366,-0.032 v 0 c 0.292,0.201 0.939,-0.253 1.464,-0.325 v 0 c 0.97,-0.134 0.329,-0.699 0.184,-1.134 v 0 c -0.067,-0.199 -0.107,-0.517 0.002,-0.65 v 0 c 1.684,-2.066 1.323,-5.041 3.27,-7.052 v 0 c 1.008,-1.042 2.152,-1.969 3.031,-3.131 v 0 c 0.244,-0.324 1.119,-0.495 0.504,-1.146 v 0 c -1.144,-1.212 -0.093,-2.054 0.544,-2.811 v 0 c 0.61,-0.725 1.211,-1.353 0.954,-2.358 v 0 c -0.115,-0.448 0.292,-0.89 0.379,-0.954 v 0 c 1.143,-0.841 1.552,-2.263 2.508,-3.165 v 0 c 0.953,-0.901 0.848,-1.879 0.763,-2.877 v 0 c -0.15,-1.758 -0.062,-3.377 1.348,-4.676 v 0 c 0.504,-0.464 0.978,-0.374 1.509,-0.157 v 0 l -0.334,-0.332 c 0.412,-0.389 -1.043,-0.702 -0.012,-1.191 v 0 c 0.767,-0.365 0.875,-1.051 0.168,-1.627 v 0 c -0.434,-0.354 -0.223,-0.788 -0.336,-1.176 v 0 c -0.267,-0.924 -0.662,-1.966 -1.661,-2.105 v 0 c -0.829,-0.116 -1.196,-0.613 -1.641,-1.078 v 0 c -0.48,-0.503 -1.543,-1.008 -0.956,-1.772 v 0 c 0.343,-0.449 0.708,-0.167 1.103,0.114 v 0 c 0.265,0.19 0.543,0.379 0.838,0.348 v 0 c 0.049,-0.01 0.109,0.104 0.165,0.158 v 0 c 0.877,0.833 0.764,-0.081 0.816,-0.501 v 0 c 0.048,-0.4 0.02,-0.771 -0.28,-1.189 v 0 c -0.488,-0.68 0.103,-1.947 0.969,-2.108 v 0 c 0.582,-0.109 1.022,-0.05 1.029,-0.865 v 0 c 0.002,-0.44 0.615,-0.598 0.923,-0.879 v 0 c 1.068,-0.973 1.819,0.105 2.707,0.199 v 0 c 1.028,0.111 2.396,0.747 2.995,1.514 v 0 c 0.122,0.158 0.245,0.322 0.357,0.483 v 0 c 0.558,0.799 1.235,0.61 1.983,0.194 v 0 c 1.46,-0.811 1.085,-2.32 1.256,-3.519 v 0 c 0.141,-0.993 -0.887,-1.566 -1.762,-1.989 v 0 l -0.666,0.499 c 0.671,-0.502 1.151,-1.276 0.784,-1.973 v 0 c -0.506,-0.957 -1.5,-1.506 -2.617,-1.687 v 0 c -0.369,-0.06 -0.562,0.121 -0.677,0.493 v 0 c -0.198,0.642 -0.524,0.759 -0.993,0.174 v 0 c -0.334,-0.417 -0.766,-0.369 -1.191,-0.323 v 0 c -0.277,0.03 -0.551,0.061 -0.795,-0.035 v 0 c -0.932,-0.369 -1.065,0.322 -1.543,0.817 v 0 c -0.987,1.025 -2.454,1.591 -2.816,3.196 v 0 c -0.064,0.286 -2.634,0.591 -2.791,0.326 v 0 c -0.362,-0.609 -0.383,-1.445 -0.126,-1.957 v 0 c 0.363,-0.724 0.532,-1.407 0.653,-2.188 v 0 c 0.086,-0.563 0.324,-1.371 1.287,-1.177 v 0 c 0.16,0.032 0.411,0.076 0.486,-0.01 v 0 c 0.701,-0.771 1.462,-0.855 2.351,-0.335 v 0 c 0.221,0.129 0.325,-0.211 0.493,-0.321 v 0 l 0.238,-0.772 c 0.028,0.141 0.085,0.283 0.194,0.427 v 0 c 0.334,0.439 0.863,0.132 1.224,-0.012 v 0 c 0.687,-0.274 1.812,-0.623 1.913,-1 v 0 c 0.371,-1.389 1.628,-1.77 2.427,-2.64 v 0 -0.666 c -0.646,-0.577 -1.146,-1.249 -0.318,-1.981 v 0 c 0.826,-0.73 0.71,-1.182 -0.175,-1.695 v 0 c -0.555,-0.321 -1.102,-0.566 -0.559,-1.517 v 0 c 0.528,-0.927 1.105,-0.676 1.71,-0.447 v 0 c 0.55,0.21 1.175,0.392 1.507,0.976 v 0 l 0.5,0.084 c -0.257,0.084 -0.627,0.078 -0.655,0.417 v 0 c -0.124,1.48 0.841,2.623 2.487,2.997 v 0 l -1.499,-3.83 c 0.49,-0.701 0.013,-1.678 0.666,-2.332 v 0 l -2.498,-1.833 c 0.166,0 0.4,-0.072 0.489,0.011 v 0 c 1.906,1.761 4.195,1.588 6.506,1.322 v 0 l -4.497,-0.333 c -0.126,-1.175 0.655,-2.269 0.215,-3.514 v 0 c -0.167,-0.472 0.529,-0.494 0.951,-0.484 v 0 l -0.667,1 c 0.611,-0.055 1.229,-0.079 1.826,-0.199 v 0 c 0.099,-0.02 0.734,0 0.371,-0.651 v 0 c -0.736,-1.325 -0.443,-1.688 1.135,-1.642 v 0 c 0.389,0.011 0.777,0.104 1.166,0.16 v 0 l 0.149,0.079 c -0.051,-0.13 -0.102,-0.26 -0.149,-0.412 v 0 c -0.429,-1.354 0.543,-2.54 1.999,-2.514 v 0 c 0.494,0.01 1.004,0.168 1.514,-0.123 v 0 c 0.189,-0.107 0.396,-0.078 0.313,-0.36 v 0 c -0.067,-0.228 -0.787,-0.397 -0.002,-0.685 v 0 c 0.479,-0.176 1.011,-0.349 1.32,0.033 v 0 c 1.661,2.059 3.751,0.913 5.68,0.786 v 0 c 0.617,-0.04 1.048,-0.649 0.814,-1.293 v 0 c -0.471,-1.302 -0.142,-2.547 -0.041,-3.844 v 0 c 0.076,-0.964 -0.462,-1.967 -0.133,-3.001 v 0 c 0.015,-0.049 -0.183,-0.457 -0.133,-0.469 v 0 c 1.643,-0.397 0.714,-1.583 0.617,-2.348 v 0 c -0.195,-1.551 1.19,-2.924 0.396,-4.513 v 0 c -0.142,-0.283 0.343,-0.63 0.479,-0.624 v 0 c 1.417,0.066 2.6,-0.871 3.999,-0.886 v 0 c 0.484,0 0.808,0.193 0.977,0.532 v 0 c 0.199,0.394 -0.228,0.694 -0.487,0.799 v 0 c -1.725,0.708 -0.99,1.855 -0.99,1.855 v 0 c -0.573,0.106 -1.419,-0.082 -1.613,0.516 v 0 c -0.229,0.709 0.624,0.86 1.112,1.151 v 0 c 0.065,0.039 0.104,0.122 0.169,0.162 v 0 c 0.725,0.452 0.768,0.506 0.147,0.976 v 0 c -0.275,0.207 -0.556,0.329 -0.473,0.691 v 0 c 0.212,0.914 -0.241,1.664 -0.709,2.308 v 0 c -0.372,0.513 -0.323,0.825 0.039,1.187 v 0 c 1.195,1.194 1.383,1.652 1.325,3.502 v 0 c -0.012,0.373 0.136,0.549 0.498,0.679 v 0 c 0.862,0.306 0.868,0.771 0.174,1.323 v 0 c -0.419,0.334 -0.491,0.893 -0.728,1.294 v 0 c -0.895,1.516 -1.752,3.311 -4.106,2.705 v 0 c -0.333,-0.087 -0.641,0.012 -0.83,0.328 v 0 c -0.531,0.887 -1.462,0.99 -2.335,1.156 v 0 c -1.193,0.228 -2.015,0.85 -2.413,2.008 v 0 l 4.247,-2.498 c 1.497,0.737 0.61,1.632 0.166,2.498 v 0 l 0.334,-0.166 c 0.283,0.307 0.564,0.193 0.848,0.078 v 0 c 0.16,-0.064 0.321,-0.128 0.487,-0.117 v 0 c 0.918,0.056 1.296,0.302 0.824,1.201 v 0 c -0.241,0.461 -0.345,0.978 0.027,1.312 v 0 c 0.385,0.346 0.832,0.188 1.328,-0.114 v 0 c 1.202,-0.733 2.39,-1.475 3.476,-2.367 v 0 c 0.665,-0.547 0.371,-0.876 -0.329,-0.985 v 0 c -0.418,-0.064 -0.695,-0.129 -0.686,-0.674 v 0 c 0.01,-0.535 0.404,-0.75 0.706,-0.973 v 0 c 0.247,-0.181 0.564,0.051 0.825,0.294 v 0 c 0.405,0.375 0.536,1.413 1.287,0.956 v 0 c 0.467,-0.286 0.165,-1.164 0.199,-1.776 v 0 c 0.007,-0.107 0.002,-0.214 0.001,-0.322 v 0 c 0.197,0.038 0.402,-0.01 0.614,-0.229 v 0 c 0.834,-0.865 2.516,-0.908 2.465,-2.782 v 0 c -0.029,-1.082 1.324,-1.41 2.591,-1.205 v 0 c 0.909,0.147 1.94,0.896 2.822,-0.128 v 0 c 0.13,-0.15 0.224,-0.218 0.336,-0.164 v 0 c 1.642,0.785 3.388,0.402 4.98,0.085 v 0 c 0.697,-0.139 1.349,0.029 1.991,0.196 v 0 c 0.782,0.204 1.547,0.409 2.359,0.06 v 0 c 0.077,-0.034 0.164,-0.03 0.252,-0.027 v 0 c 0.144,0.01 0.293,0.011 0.417,-0.143 v 0 c 0.43,-0.54 1.041,-0.894 1.452,-0.148 v 0 c 0.318,0.575 -0.206,1.033 -0.78,1.332 v 0 c -0.164,0.086 -1.196,-0.066 -0.346,0.645 v 0 c 1.013,0.848 0.606,1.489 -0.335,1.991 v 0 c -0.888,0.473 -2.215,0.523 -1.563,2.198 v 0 c 0.125,0.32 -0.548,1.083 -1.266,1.132 v 0 c -0.473,0.032 -0.917,0.115 -1.048,-0.65 v 0 c -0.079,-0.451 -0.657,-0.689 -1.281,-0.715 v 0 c -0.594,-0.025 -1.01,0.267 -1.307,0.568 v 0 c -0.526,0.532 0.347,0.615 0.476,0.969 v 0 c 0.311,0.856 1.107,1.14 1.83,1.5 v 0 c 1.7,0.845 2.041,2.396 0.828,3.83 v 0 c -0.202,0.238 -0.45,0.437 -0.661,0.67 v 0 c -1.256,1.377 -1.701,2.828 -0.878,4.68 v 0 c 0.533,1.199 0.457,2.712 2.205,2.998 v 0 c 0.189,0.031 0.447,0.293 0.486,0.484 v 0 c 0.281,1.411 0.854,2.425 2.511,2.549 v 0 c 0.39,0.029 0.98,0.677 0.01,1.126 v 0 c -0.914,0.423 -1.189,1.01 -0.545,2.01 v 0 c 0.398,0.619 -0.33,1.301 -0.807,1.42 v 0 c -1.001,0.25 -0.895,0.937 -0.791,1.548 v 0 c 0.13,0.748 0.612,1.239 1.469,1.355 v 0 c 1.107,0.148 1.978,0.556 1.867,1.984 v 0 c -0.046,0.58 -0.096,0.774 -0.701,0.677 v 0 c -0.433,-0.07 -0.887,-0.03 -1.33,-0.01 v 0 c -0.15,0.01 -0.305,0 -0.459,-0.012 v 0 c -0.668,-0.039 -1.313,-0.079 -1.275,1.177 v 0 c 0.017,0.598 -0.696,1.298 -1.597,1.157 v 0 c -1.002,-0.158 -1.204,0.036 -0.714,1.029 v 0 c 0.248,0.501 0.228,1.206 0.387,1.807 v 0 c 0.056,0.21 0.448,0.353 0.335,0.163 v 0 c -0.01,-0.017 0.102,-0.106 0.158,-0.162 v 0 l 0.167,-0.332 c 1.317,-1.232 2.233,-2.939 4.694,-2.279 v 0 c 1.092,0.292 1.902,0.51 2.465,1.447 v 0 c 0.545,0.906 0.529,0.888 1.673,0.515 v 0 c 0.278,-0.09 0.695,0.01 0.815,0.321 v 0 c 0.621,1.636 3.128,2.189 2.438,4.684 v 0 c -0.244,0.885 0.207,1.14 -0.593,1.474 v 0 c -1.577,0.659 -1.566,0.727 -0.348,1.848 v 0 c 0.476,0.437 1.181,0.547 1.514,1.15 v 0 h 0.666 c 0.166,-0.167 0.329,-0.338 0.501,-0.499 v 0 c 1.152,-1.086 1.185,-1.099 1.814,0.34 v 0 c 0.218,0.502 1.372,0.978 0.183,1.658 v 0 c 0.361,0.454 1.112,0.77 0.813,1.49 v 0 c -0.388,0.933 1.282,1.211 0.655,1.982 v 0 c -0.803,0.987 -0.323,1.084 0.53,1.013 v 0 c 0.948,-0.08 0.69,0.774 0.993,1.184 v 0 c 0.445,0.603 -0.241,0.574 -0.438,0.863 v 0 c -0.944,1.387 -2.896,1.913 -3.219,3.795 v 0 l -0.183,0.256 c 0.143,-0.066 0.306,-0.105 0.515,-0.077 v 0 c 0.848,0.112 1.421,-0.53 2.165,-0.685 v 0 c 0.555,-0.115 0.955,-1.222 1.654,-0.318 v 0 c 0.525,0.679 1.179,1.431 0.339,2.316 v 0 c -0.46,0.483 -0.504,0.907 0.01,1.335 v 0 c 0.694,0.581 1.231,1.13 0.355,2.027 v 0 c -0.203,0.208 0.085,0.632 0.475,0.633 v 0 c 1.01,0 1.039,1.54 2.169,1.365 v 0 c 0.081,-0.013 0.458,0.266 0.315,0.466 v 0 c -0.919,1.286 1.293,2.347 0.225,3.709 v 0 c -0.264,0.337 0.323,1.001 0.75,0.436 v 0 c 0.613,-0.812 1.238,-0.469 1.866,-0.286 v 0 c 0.599,0.174 1.056,0.559 0.332,1.141 v 0 c -1.14,0.915 -1.263,1.987 -0.862,3.348 v 0 c 0.343,1.161 -0.015,2.199 -1.465,2.309 v 0 c -1.713,0.13 -3.142,1.594 -4.998,1.019 v 0 c -0.381,-0.117 -0.523,0.092 -0.504,0.493 v 0 c 0.064,1.345 -0.89,1.317 -1.825,1.34 v 0 c -0.091,0 -0.192,-0.01 -0.295,-0.016 v 0 c -0.393,-0.035 -0.817,-0.069 -0.842,0.509 v 0 c -0.024,0.546 -0.316,1.221 0.306,1.662 v 0 c 1.158,0.819 1.374,2.202 1.959,3.352 v 0 c 0.193,0.379 0.496,1.137 0.019,1.452 v 0 c -1.717,1.133 -0.986,3.386 -2.268,4.736 v 0 c -0.286,0.302 -0.358,1.174 0.78,1.336 v 0 c 2.353,0.337 3.493,-0.484 3.503,-2.879 v 0 c 0.004,-0.795 -0.056,-1.431 0.971,-1.9 v 0 c 1.103,-0.504 1.218,-1.988 0.523,-3.092 v 0 c -0.588,-0.931 -1.172,-1.841 -1.165,-3.003 v 0 c 0.001,-0.521 -0.056,-1.127 0.514,-1.308 v 0 c 0.935,-0.298 1.909,-0.432 2.851,-0.781 v 0 c 0.447,-0.166 1.237,0.413 1.792,0.775 v 0 c 0.546,0.356 1.274,1.165 1.614,0.899 v 0 c 0.449,-0.353 0.384,-1.278 -0.092,-1.925 v 0 c -0.079,-0.108 -0.08,-0.378 0,-0.483 v 0 c 1.103,-1.446 0.847,-3.208 1.198,-4.829 v 0 c 0.091,-0.424 0.202,-1.561 1.324,-0.721 v 0 c 0.323,0.243 0.449,-0.432 0.461,-0.787 v 0 c 0.026,-0.791 0.095,-1.553 0.295,-2.343 v 0 c 0.341,-1.342 1.915,-0.654 2.375,-1.655 v 0 l 1.165,-0.166 c -0.996,-0.896 -2.502,-0.546 -3.522,-1.472 v 0 c -0.357,-0.324 -0.859,0.247 -1.291,0.366 v 0 c -2.196,0.602 -2.813,0.238 -2.678,-1.892 v 0 c 0.022,-0.344 -0.021,-0.643 -0.338,-0.832 v 0 c -1.751,-1.043 -1.489,-2.795 -1.263,-4.321 v 0 c 0.16,-1.069 -0.166,-1.831 -0.568,-2.675 v 0 l -0.334,-0.5 c 0.179,0.2 0.348,0.355 0.667,0.343 v 0 c 1.217,-0.046 2.166,-0.068 2.592,1.632 v 0 c 0.436,1.744 1.316,3.63 3.093,4.473 v 0 c 1.899,0.901 3.365,2.299 4.973,3.548 v 0 c 0.825,0.64 3.577,0.383 4.349,-0.318 v 0 c 0.561,-0.51 0.006,-0.633 -0.193,-0.842 v 0 c -0.399,-0.418 -0.587,-0.798 0.012,-1.17 v 0 c 0.466,-0.29 0.872,-1.34 1.451,-0.633 v 0 c 0.885,1.084 2.423,0.332 3.229,1.448 v 0 c 0.446,0.619 0.527,-0.185 0.622,-0.335 v 0 c 0.291,-0.457 0.447,-0.996 0.695,-1.482 v 0 c 1.436,-2.814 1.635,-2.814 3.512,-0.349 v 0 c 0.447,0.589 1.034,1.258 1.076,1.851 v 0 c 0.089,1.269 0.718,2.116 1.586,2.807 v 0 c 1.219,0.97 1.347,2.756 2.797,3.553 v 0 c 0.249,0.137 0.317,0.737 0.34,1.131 v 0 c 0.11,1.867 -0.222,3.679 -0.623,5.502 v 0 c -0.326,1.473 -1.132,2.823 -0.745,4.502 v 0 c 0.469,2.034 -0.069,3.874 -1.556,5.539 v 0 c -0.681,0.761 -1.072,1.887 -1.653,2.823 v 0 c -0.235,0.377 -0.563,1.492 0.426,1.953 v 0 l 0.999,-0.333 c -0.278,0.138 -0.765,0.237 -0.801,0.422 v 0 c -0.531,2.732 -1.704,5.109 -3.687,7.081 v 0 c -0.247,0.246 -0.865,0.463 -0.338,0.987 v 0 c 0.436,0.434 0.781,-0.048 1.162,-0.162 v 0 c 1.283,-0.384 1.436,-2.123 2.521,-2.416 v 0 c 0.245,-0.065 0.426,-0.16 0.578,-0.268 v 0 l -0.101,0.185 c -0.078,0.665 0.298,1.47 -0.194,1.972 v 0 c -0.749,0.767 -0.924,1.299 0.01,2.047 v 0 c 0.629,0.503 0.641,1.201 -0.16,1.625 v 0 c -0.326,0.173 -0.567,0.323 -0.481,0.684 v 0 c 0.282,1.17 -0.65,1.458 -1.325,2.019 v 0 c -1.368,1.134 1.268,1.162 0.653,2.148 v 0 c -0.252,0.404 -0.582,0.99 -0.297,1.295 v 0 c 0.436,0.469 -0.112,1.475 0.96,1.551 v 0 c 0.964,0.069 1.031,-0.424 1.029,-1.182 v 0 c -10e-4,-0.374 2.005,-1.234 2.112,-0.989 v 0 c 0.604,1.382 2.278,1.828 2.825,3.167 v 0 c 0.602,1.473 1.513,2.661 2.706,3.639 v 0 c 1.086,0.889 1.592,2.141 1.918,3.363 v 0 c 0.235,0.877 0.523,1.588 1.041,2.332 v 0 c 1.162,1.669 1.039,4.449 -0.329,5.443 v 0 c -1.4,1.016 -1.619,3.117 -1.813,4.859 v 0 c 0.449,-0.419 0.851,-0.902 1.179,-1.49 v 0 c 0.296,-0.531 0.74,-0.882 1.291,-1.225 v 0 c 0.645,-0.402 1.503,-0.716 1.846,-1.454 v 0 c 0.732,-1.575 1.536,-0.742 1.976,0.034 v 0 c 0.684,1.202 0.762,2.668 1.247,3.959 v 0 c 0.414,1.107 -0.149,3.051 2.13,2.879 v 0 c 0.421,-0.033 0.862,0.387 0.827,0.966 v 0 c -0.088,1.44 0.755,2.637 1.047,3.987 v 0 c 0.377,1.742 0.349,1.952 -1.195,2.707 v 0 c -0.656,0.32 -1.437,0.375 -1.898,1.274 v 0 c -0.927,1.803 -2.551,2.959 -4.448,3.688 v 0 c -0.435,0.166 -0.532,0.3 -0.367,0.846 v 0 c 0.561,1.844 0.867,3.751 1.222,5.648 v 0 c 0.868,4.642 0.06,9.348 0.639,13.995 v 0 c 0.047,0.383 0.134,0.836 -0.013,1.157 v 0 c -1.944,4.238 -1.938,9.137 -4.49,13.159 v 0 c -0.111,0.176 -0.109,0.337 -0.162,0.504 v 0 c -0.707,2.189 -0.04,4.335 0.16,6.5 v 0 c 0.177,1.921 0.782,3.877 -0.625,5.683 v 0 c -0.641,0.823 -0.792,2 -0.48,2.962 v 0 c 0.427,1.313 0.149,2.443 -0.185,3.686 v 0 c -0.605,2.246 -0.965,4.464 0.426,6.684 v 0 c 0.818,1.305 1.658,2.652 1.928,4.294 v 0 c 0.208,1.256 1.733,2.212 2.781,2.179 v 0 c 0.888,-0.028 2.403,-0.28 2.546,0.046 v 0 c 0.412,0.941 -0.487,1.857 -0.878,2.781 v 0 c -0.02,0.047 0.017,0.119 -0.006,0.163 v 0 c -1.254,2.519 -2.979,4.918 -2.001,7.999 v 0 c 0.047,0.151 0.05,0.346 -10e-4,0.495 v 0 c -0.471,1.362 -0.328,2.772 -0.315,4.167 v 0 c 0.011,1.07 -0.157,1.81 -1.306,2.404 v 0 c -0.988,0.51 -1.979,1.179 -2.875,1.919 v 0 c -0.8,0.661 -1.777,3.661 -1.31,4.495 v 0 c 0.737,1.317 1.427,2.697 2.814,3.508 v 0 c 0.838,0.49 1.718,0.929 2.487,1.512 v 0 c 1.312,0.993 1.225,1.914 -0.33,2.63 v 0 c -2.781,1.28 -5.537,2.634 -8.483,3.524 v 0 c -0.959,0.289 -1.941,0.55 -2.668,1.325 v 0 c -2.421,2.577 -5.607,4.144 -8.344,6.309 v 0 c -1.875,1.484 -3.652,3.314 -3.823,5.53 v 0 c -0.164,2.139 -1.252,3.224 -2.489,4.485 v 0 c -0.165,0.168 -0.31,0.369 -0.503,0.493 v 0 c -0.863,0.555 -0.72,1.314 -0.316,1.997 v 0 c 1.442,2.444 1.737,4.717 -0.077,7.244 v 0 c -0.493,0.686 -0.737,0.893 -1.436,0.934 v 0 c -0.651,0.037 -1.3,-0.052 -1.95,-0.143 v 0 c -1.068,-0.148 -2.137,-0.296 -3.217,0.124 v 0 c -1.358,0.527 -3.069,0.407 -4.104,1.401 v 0 c -1.127,1.084 -2.38,2.089 -3.512,3.139 v 0 c -0.881,0.819 -2.504,1.118 -3.553,2.117 v 0 c -0.117,0.112 -0.489,0.103 -0.642,0 v 0 c -0.608,-0.408 -1.003,0.037 -1.33,0.362 v 0 c -1.199,1.188 -2.532,2.303 -3.465,3.681 v 0 c -1.309,1.931 -3.321,3.02 -4.894,4.615 v 0 c -0.278,0.281 -1.018,0.404 -1.766,0.404 v 0 c -0.804,0 -1.618,-0.142 -1.879,-0.385 M 84,2663.53 l 0.785,-0.13 c -0.201,0.087 -0.444,0.131 -0.705,0.131 v 0 c -0.027,0 -0.053,0 -0.08,-10e-4 m 33.976,-140.239 0.053,0.208 c -0.021,-0.063 -0.038,-0.133 -0.053,-0.208 m 154.564,-21.986 c -0.306,0.56 -0.311,1.23 -0.898,1.647 v 0 z m -124.629,-43.766 c -0.347,-0.413 -0.56,-0.778 -0.427,-1.196 v 0 c 0.123,-0.389 0.459,-0.367 0.79,-0.346 v 0 c 0.12,0.01 0.24,0.016 0.349,0.01 v 0 l 2.665,-1.332 c -0.167,0.666 -0.422,1.325 -0.476,2 v 0 c -0.06,0.749 0.016,1.553 -0.863,1.81 v 0 c -0.161,0.047 -0.312,0.069 -0.454,0.069 v 0 c -0.641,0 -1.107,-0.443 -1.584,-1.01 m 2.877,-3.369 c -0.398,-0.472 -0.987,-0.648 -1.485,-0.462 v 0 c -0.467,0.175 -0.717,0.073 -1.013,-0.204 v 0 c 0.366,-0.316 -0.057,-0.879 0.339,-1.157 v 0 c 0.302,-0.212 0.643,-0.42 0.996,-0.495 v 0 c 1.496,-0.318 2.274,-0.667 3.495,-1.68 v 0 c 1.412,-1.17 1.533,-3.332 -0.032,-3.911 v 0 c -1.785,-0.662 -1.451,-1.478 -1.01,-2.766 v 0 c 0.238,-0.697 0.758,-0.813 1.198,-1.164 v 0 c 0.511,-0.406 0.928,-0.782 -0.135,-1.204 v 0 c -0.638,-0.252 -1.874,-0.183 -1.672,-1.445 v 0 c 0.088,-0.552 0.458,-0.492 0.835,-0.434 v 0 c 0.323,0.051 0.653,0.103 0.816,-0.235 v 0 l 0.23,-0.689 c -0.2,0.689 -0.174,1.381 0.617,1.648 v 0 c 1,0.339 0.803,1.026 0.816,1.707 v 0 c 0.013,0.776 0.076,1.562 -0.016,2.329 v 0 c -0.115,0.97 0.411,1.465 1.191,1.643 v 0 c 0.954,0.218 0.082,-1.072 0.818,-1.19 v 0 c 0.037,0 -0.079,-0.79 0.348,-0.93 v 0 c 0.508,-0.169 0.866,0.361 0.956,0.657 v 0 c 0.351,1.155 0.969,1.156 1.874,0.665 v 0 c 0.625,-0.34 1.245,-0.283 1.477,0.494 v 0 c 0.198,0.667 -0.063,1.117 -0.804,1.364 v 0 c -0.336,0.112 -1.043,0.025 -0.97,0.625 v 0 c 0.039,0.315 0.487,0.501 0.955,0.543 v 0 c 0.493,0.042 0.911,0.452 0.325,0.949 v 0 c -0.511,0.433 -0.425,1.95 -1.45,1.287 v 0 c -1.411,-0.915 -1.777,-0.551 -2.071,0.884 v 0 c -0.158,0.772 -0.778,1.012 -1.64,0.697 v 0 c -0.996,-0.364 -1.076,-0.284 -1.135,0.81 v 0 c -0.029,0.533 -0.387,0.508 -0.685,0.671 v 0 c -0.787,0.427 -1.557,0.882 -2.335,1.326 v 0 z m 20.225,-28.421 c -0.093,-0.478 0.206,-0.942 0.428,-1.392 v 0 l -0.428,1.392 c 0,0 0,0 0,0 m 33.63,-19.088 c -0.142,-0.2 -0.588,-1.335 0.608,-1.292 v 0 l 0.5,2.332 v 0.011 c -0.449,-0.088 -0.845,-0.677 -1.108,-1.051"
         id="path22380" />
    </clipPath>
  </defs>
  <sodipodi:namedview
     id="namedview20"
     pagecolor="#505050"
     bordercolor="#eeeeee"
     borderopacity="1"
     inkscape:showpageshadow="0"
     inkscape:pageopacity="0"
     inkscape:pagecheckerboard="0"
     inkscape:deskcolor="#505050"
     showgrid="false"
     inkscape:zoom="1.1121501"
     inkscape:cx="552.98289"
     inkscape:cy="1710.2007"
     inkscape:window-width="1920"
     inkscape:window-height="1163"
     inkscape:window-x="0"
     inkscape:window-y="0"
     inkscape:window-maximized="1"
     inkscape:current-layer="g28" />
  <g
     id="g26"
     inkscape:groupmode="layer"
     inkscape:label="Page 1"
     transform="matrix(1.3333333,0,0,-1.3333333,-101.7155,3599.8565)">
    <g
       id="g56328"
       inkscape:label="island">
      <g
         id="g22376"
         style="display:inline"
         inkscape:label="island-rays">
        <g
           id="g22378"
           clip-path="url(#clipPath22382)">
          <g
             id="g22384"
             transform="translate(-93.027,2437.4006)">
            <path
               d="M 0,0 H 530.567"
               style="fill:none;stroke:#106651;stroke-width:0.35;stroke-linecap:butt;stroke-linejoin:miter;stroke-miterlimit:10;stroke-dasharray:none;stroke-opacity:1"
               id="path22386" />
          </g>
          <g
             id="g22388"
             transform="translate(-90.7575,2402.7742)">
            <path
               d="M 0,0 526.028,69.253"
               style="fill:none;stroke:#106651;stroke-width:0.35;stroke-linecap:butt;stroke-linejoin:miter;stroke-miterlimit:10;stroke-dasharray:none;stroke-opacity:1"
               id="path22390" />
          </g>
          <g
             id="g22392"
             transform="translate(-83.9877,2368.7402)">
            <path
               d="M 0,0 512.489,137.321"
               style="fill:none;stroke:#106651;stroke-width:0.35;stroke-linecap:butt;stroke-linejoin:miter;stroke-miterlimit:10;stroke-dasharray:none;stroke-opacity:1"
               id="path22394" />
          </g>
          <g
             id="g22396"
             transform="translate(-72.8335,2335.8811)">
            <path
               d="M 0,0 490.18,203.039"
               style="fill:none;stroke:#106651;stroke-width:0.35;stroke-linecap:butt;stroke-linejoin:miter;stroke-miterlimit:10;stroke-dasharray:none;stroke-opacity:1"
               id="path22398" />
          </g>
          <g
             id="g22400"
             transform="translate(-57.4857,2304.7588)">
            <path
               d="M 0,0 459.485,265.284"
               style="fill:none;stroke:#106651;stroke-width:0.35;stroke-linecap:butt;stroke-linejoin:miter;stroke-miterlimit:10;stroke-dasharray:none;stroke-opacity:1"
               id="path22402" />
          </g>
          <g
             id="g22404"
             transform="translate(-38.207,2275.9063)">
            <path
               d="M 0,0 420.927,322.989"
               style="fill:none;stroke:#106651;stroke-width:0.35;stroke-linecap:butt;stroke-linejoin:miter;stroke-miterlimit:10;stroke-dasharray:none;stroke-opacity:1"
               id="path22406" />
          </g>
          <g
             id="g22408"
             transform="translate(-15.3272,2249.8167)">
            <path
               d="M 0,0 375.168,375.168"
               style="fill:none;stroke:#106651;stroke-width:0.35;stroke-linecap:butt;stroke-linejoin:miter;stroke-miterlimit:10;stroke-dasharray:none;stroke-opacity:1"
               id="path22410" />
          </g>
          <g
             id="g22412"
             transform="translate(10.7622,2226.937)">
            <path
               d="M 0,0 322.989,420.927"
               style="fill:none;stroke:#106651;stroke-width:0.35;stroke-linecap:butt;stroke-linejoin:miter;stroke-miterlimit:10;stroke-dasharray:none;stroke-opacity:1"
               id="path22414" />
          </g>
          <g
             id="g22416"
             transform="translate(39.6148,2207.6582)">
            <path
               d="M 0,0 265.284,459.485"
               style="fill:none;stroke:#106651;stroke-width:0.35;stroke-linecap:butt;stroke-linejoin:miter;stroke-miterlimit:10;stroke-dasharray:none;stroke-opacity:1"
               id="path22418" />
          </g>
          <g
             id="g22420"
             transform="translate(70.737,2192.3105)">
            <path
               d="M 0,0 203.039,490.18"
               style="fill:none;stroke:#106651;stroke-width:0.35;stroke-linecap:butt;stroke-linejoin:miter;stroke-miterlimit:10;stroke-dasharray:none;stroke-opacity:1"
               id="path22422" />
          </g>
          <g
             id="g22424"
             transform="translate(103.5962,2181.1563)">
            <path
               d="M 0,0 137.321,512.489"
               style="fill:none;stroke:#106651;stroke-width:0.35;stroke-linecap:butt;stroke-linejoin:miter;stroke-miterlimit:10;stroke-dasharray:none;stroke-opacity:1"
               id="path22426" />
          </g>
          <g
             id="g22428"
             transform="translate(137.6302,2174.3865)">
            <path
               d="M 0,0 69.253,526.028"
               style="fill:none;stroke:#106651;stroke-width:0.35;stroke-linecap:butt;stroke-linejoin:miter;stroke-miterlimit:10;stroke-dasharray:none;stroke-opacity:1"
               id="path22430" />
          </g>
          <g
             id="g22432"
             transform="translate(172.2566,2172.1169)">
            <path
               d="M 0,0 V 530.567"
               style="fill:none;stroke:#106651;stroke-width:0.35;stroke-linecap:butt;stroke-linejoin:miter;stroke-miterlimit:10;stroke-dasharray:none;stroke-opacity:1"
               id="path22434" />
          </g>
          <g
             id="g22436"
             transform="translate(206.8831,2174.3865)">
            <path
               d="M 0,0 -69.253,526.028"
               style="fill:none;stroke:#106651;stroke-width:0.35;stroke-linecap:butt;stroke-linejoin:miter;stroke-miterlimit:10;stroke-dasharray:none;stroke-opacity:1"
               id="path22438" />
          </g>
          <g
             id="g22440"
             transform="translate(240.9171,2181.1563)">
            <path
               d="M 0,0 -137.321,512.489"
               style="fill:none;stroke:#106651;stroke-width:0.35;stroke-linecap:butt;stroke-linejoin:miter;stroke-miterlimit:10;stroke-dasharray:none;stroke-opacity:1"
               id="path22442" />
          </g>
          <g
             id="g22444"
             transform="translate(273.7763,2192.3105)">
            <path
               d="M 0,0 -203.039,490.18"
               style="fill:none;stroke:#106651;stroke-width:0.35;stroke-linecap:butt;stroke-linejoin:miter;stroke-miterlimit:10;stroke-dasharray:none;stroke-opacity:1"
               id="path22446" />
          </g>
          <g
             id="g22448"
             transform="translate(304.8984,2207.6582)">
            <path
               d="M 0,0 -265.284,459.485"
               style="fill:none;stroke:#106651;stroke-width:0.35;stroke-linecap:butt;stroke-linejoin:miter;stroke-miterlimit:10;stroke-dasharray:none;stroke-opacity:1"
               id="path22450" />
          </g>
          <g
             id="g22452"
             transform="translate(333.7511,2226.937)">
            <path
               d="M 0,0 -322.989,420.927"
               style="fill:none;stroke:#106651;stroke-width:0.35;stroke-linecap:butt;stroke-linejoin:miter;stroke-miterlimit:10;stroke-dasharray:none;stroke-opacity:1"
               id="path22454" />
          </g>
          <g
             id="g22456"
             transform="translate(359.8405,2249.8167)">
            <path
               d="M 0,0 -375.168,375.168"
               style="fill:none;stroke:#106651;stroke-width:0.35;stroke-linecap:butt;stroke-linejoin:miter;stroke-miterlimit:10;stroke-dasharray:none;stroke-opacity:1"
               id="path22458" />
          </g>
          <g
             id="g22460"
             transform="translate(382.7203,2275.9063)">
            <path
               d="M 0,0 -420.927,322.989"
               style="fill:none;stroke:#106651;stroke-width:0.35;stroke-linecap:butt;stroke-linejoin:miter;stroke-miterlimit:10;stroke-dasharray:none;stroke-opacity:1"
               id="path22462" />
          </g>
          <g
             id="g22464"
             transform="translate(401.999,2304.7588)">
            <path
               d="M 0,0 -459.485,265.284"
               style="fill:none;stroke:#106651;stroke-width:0.35;stroke-linecap:butt;stroke-linejoin:miter;stroke-miterlimit:10;stroke-dasharray:none;stroke-opacity:1"
               id="path22466" />
          </g>
          <g
             id="g22468"
             transform="translate(417.3468,2335.8811)">
            <path
               d="M 0,0 -490.18,203.039"
               style="fill:none;stroke:#106651;stroke-width:0.35;stroke-linecap:butt;stroke-linejoin:miter;stroke-miterlimit:10;stroke-dasharray:none;stroke-opacity:1"
               id="path22470" />
          </g>
          <g
             id="g22472"
             transform="translate(428.5009,2368.7402)">
            <path
               d="M 0,0 -512.489,137.321"
               style="fill:none;stroke:#106651;stroke-width:0.35;stroke-linecap:butt;stroke-linejoin:miter;stroke-miterlimit:10;stroke-dasharray:none;stroke-opacity:1"
               id="path22474" />
          </g>
          <g
             id="g22476"
             transform="translate(435.2707,2402.7742)">
            <path
               d="M 0,0 -526.028,69.253"
               style="fill:none;stroke:#106651;stroke-width:0.35;stroke-linecap:butt;stroke-linejoin:miter;stroke-miterlimit:10;stroke-dasharray:none;stroke-opacity:1"
               id="path22478" />
          </g>
          <g
             id="g22480"
             transform="translate(-92.4112,2419.335)">
            <path
               d="M 0,0 529.336,36.131"
               style="fill:none;stroke:#106651;stroke-width:0.35;stroke-linecap:butt;stroke-linejoin:miter;stroke-miterlimit:10;stroke-dasharray:none;stroke-opacity:1"
               id="path22482" />
          </g>
          <g
             id="g22484"
             transform="translate(-87.7889,2384.9436)">
            <path
               d="M 0,0 520.091,104.914"
               style="fill:none;stroke:#106651;stroke-width:0.35;stroke-linecap:butt;stroke-linejoin:miter;stroke-miterlimit:10;stroke-dasharray:none;stroke-opacity:1"
               id="path22486" />
          </g>
          <g
             id="g22488"
             transform="translate(-78.7171,2351.4495)">
            <path
               d="M 0,0 501.948,171.902"
               style="fill:none;stroke:#106651;stroke-width:0.35;stroke-linecap:butt;stroke-linejoin:miter;stroke-miterlimit:10;stroke-dasharray:none;stroke-opacity:1"
               id="path22490" />
          </g>
          <g
             id="g22492"
             transform="translate(-65.3512,2319.4263)">
            <path
               d="M 0,0 475.216,235.949"
               style="fill:none;stroke:#106651;stroke-width:0.35;stroke-linecap:butt;stroke-linejoin:miter;stroke-miterlimit:10;stroke-dasharray:none;stroke-opacity:1"
               id="path22494" />
          </g>
          <g
             id="g22496"
             transform="translate(-47.9196,2289.4214)">
            <path
               d="M 0,0 440.353,295.958"
               style="fill:none;stroke:#106651;stroke-width:0.35;stroke-linecap:butt;stroke-linejoin:miter;stroke-miterlimit:10;stroke-dasharray:none;stroke-opacity:1"
               id="path22498" />
          </g>
          <g
             id="g22500"
             transform="translate(-26.7208,2261.9487)">
            <path
               d="M 0,0 397.955,350.904"
               style="fill:none;stroke:#106651;stroke-width:0.35;stroke-linecap:butt;stroke-linejoin:miter;stroke-miterlimit:10;stroke-dasharray:none;stroke-opacity:1"
               id="path22502" />
          </g>
          <g
             id="g22504"
             transform="translate(-2.1175,2237.478)">
            <path
               d="M 0,0 348.748,399.845"
               style="fill:none;stroke:#106651;stroke-width:0.35;stroke-linecap:butt;stroke-linejoin:miter;stroke-miterlimit:10;stroke-dasharray:none;stroke-opacity:1"
               id="path22506" />
          </g>
          <g
             id="g22508"
             transform="translate(25.4695,2216.428)">
            <path
               d="M 0,0 293.574,441.945"
               style="fill:none;stroke:#106651;stroke-width:0.35;stroke-linecap:butt;stroke-linejoin:miter;stroke-miterlimit:10;stroke-dasharray:none;stroke-opacity:1"
               id="path22510" />
          </g>
          <g
             id="g22512"
             transform="translate(55.568,2199.1587)">
            <path
               d="M 0,0 233.377,476.484"
               style="fill:none;stroke:#106651;stroke-width:0.35;stroke-linecap:butt;stroke-linejoin:miter;stroke-miterlimit:10;stroke-dasharray:none;stroke-opacity:1"
               id="path22514" />
          </g>
          <g
             id="g22516"
             transform="translate(87.6631,2185.9661)">
            <path
               d="M 0,0 169.187,502.869"
               style="fill:none;stroke:#106651;stroke-width:0.35;stroke-linecap:butt;stroke-linejoin:miter;stroke-miterlimit:10;stroke-dasharray:none;stroke-opacity:1"
               id="path22518" />
          </g>
          <g
             id="g22520"
             transform="translate(121.2056,2177.0754)">
            <path
               d="M 0,0 102.102,520.65"
               style="fill:none;stroke:#106651;stroke-width:0.35;stroke-linecap:butt;stroke-linejoin:miter;stroke-miterlimit:10;stroke-dasharray:none;stroke-opacity:1"
               id="path22522" />
          </g>
          <g
             id="g22524"
             transform="translate(155.6216,2172.6392)">
            <path
               d="M 0,0 33.27,529.523"
               style="fill:none;stroke:#106651;stroke-width:0.35;stroke-linecap:butt;stroke-linejoin:miter;stroke-miterlimit:10;stroke-dasharray:none;stroke-opacity:1"
               id="path22526" />
          </g>
          <g
             id="g22528"
             transform="translate(190.3222,2172.7329)">
            <path
               d="M 0,0 -36.131,529.335"
               style="fill:none;stroke:#106651;stroke-width:0.35;stroke-linecap:butt;stroke-linejoin:miter;stroke-miterlimit:10;stroke-dasharray:none;stroke-opacity:1"
               id="path22530" />
          </g>
          <g
             id="g22532"
             transform="translate(224.7137,2177.3552)">
            <path
               d="M 0,0 -104.914,520.091"
               style="fill:none;stroke:#106651;stroke-width:0.35;stroke-linecap:butt;stroke-linejoin:miter;stroke-miterlimit:10;stroke-dasharray:none;stroke-opacity:1"
               id="path22534" />
          </g>
          <g
             id="g22536"
             transform="translate(258.2077,2186.4268)">
            <path
               d="M 0,0 -173.098,505.438"
               style="fill:none;stroke:#106651;stroke-width:0.35;stroke-linecap:butt;stroke-linejoin:miter;stroke-miterlimit:10;stroke-dasharray:none;stroke-opacity:1"
               id="path22538" />
          </g>
          <g
             id="g22540"
             transform="translate(290.231,2199.793)">
            <path
               d="M 0,0 -235.949,475.215"
               style="fill:none;stroke:#106651;stroke-width:0.35;stroke-linecap:butt;stroke-linejoin:miter;stroke-miterlimit:10;stroke-dasharray:none;stroke-opacity:1"
               id="path22542" />
          </g>
          <g
             id="g22544"
             transform="translate(320.2358,2217.2244)">
            <path
               d="M 0,0 -295.958,440.353"
               style="fill:none;stroke:#106651;stroke-width:0.35;stroke-linecap:butt;stroke-linejoin:miter;stroke-miterlimit:10;stroke-dasharray:none;stroke-opacity:1"
               id="path22546" />
          </g>
          <g
             id="g22548"
             transform="translate(347.7086,2238.4231)">
            <path
               d="M 0,0 -350.904,397.955"
               style="fill:none;stroke:#106651;stroke-width:0.35;stroke-linecap:butt;stroke-linejoin:miter;stroke-miterlimit:10;stroke-dasharray:none;stroke-opacity:1"
               id="path22550" />
          </g>
          <g
             id="g22552"
             transform="translate(372.1793,2263.0266)">
            <path
               d="M 0,0 -399.845,348.748"
               style="fill:none;stroke:#106651;stroke-width:0.35;stroke-linecap:butt;stroke-linejoin:miter;stroke-miterlimit:10;stroke-dasharray:none;stroke-opacity:1"
               id="path22554" />
          </g>
          <g
             id="g22556"
             transform="translate(393.2293,2290.6135)">
            <path
               d="M 0,0 -441.945,293.574"
               style="fill:none;stroke:#106651;stroke-width:0.35;stroke-linecap:butt;stroke-linejoin:miter;stroke-miterlimit:10;stroke-dasharray:none;stroke-opacity:1"
               id="path22558" />
          </g>
          <g
             id="g22560"
             transform="translate(410.4984,2320.7119)">
            <path
               d="M 0,0 -476.484,233.377"
               style="fill:none;stroke:#106651;stroke-width:0.35;stroke-linecap:butt;stroke-linejoin:miter;stroke-miterlimit:10;stroke-dasharray:none;stroke-opacity:1"
               id="path22562" />
          </g>
          <g
             id="g22564"
             transform="translate(423.6912,2352.8071)">
            <path
               d="M 0,0 -502.869,169.187"
               style="fill:none;stroke:#106651;stroke-width:0.35;stroke-linecap:butt;stroke-linejoin:miter;stroke-miterlimit:10;stroke-dasharray:none;stroke-opacity:1"
               id="path22566" />
          </g>
          <g
             id="g22568"
             transform="translate(432.5818,2386.3496)">
            <path
               d="M 0,0 -520.65,102.102"
               style="fill:none;stroke:#106651;stroke-width:0.35;stroke-linecap:butt;stroke-linejoin:miter;stroke-miterlimit:10;stroke-dasharray:none;stroke-opacity:1"
               id="path22570" />
          </g>
          <g
             id="g22572"
             transform="translate(437.0182,2420.7656)">
            <path
               d="M 0,0 -529.523,33.27"
               style="fill:none;stroke:#106651;stroke-width:0.35;stroke-linecap:butt;stroke-linejoin:miter;stroke-miterlimit:10;stroke-dasharray:none;stroke-opacity:1"
               id="path22574" />
          </g>
        </g>
      </g>
      <g
         id="g22838"
         transform="translate(291.7393,2544.7664)"
         style="display:inline">
        <path
           d="m 0,0 c -0.292,-1.35 -1.135,-2.547 -1.047,-3.988 0.035,-0.578 -0.406,-0.998 -0.828,-0.966 -2.278,0.173 -1.715,-1.771 -2.13,-2.879 -0.484,-1.291 -0.563,-2.756 -1.246,-3.959 -0.441,-0.775 -1.244,-1.608 -1.976,-0.033 -0.343,0.738 -1.201,1.052 -1.846,1.454 -0.551,0.343 -0.995,0.694 -1.291,1.225 -0.329,0.588 -0.731,1.071 -1.179,1.49 0.193,-1.742 0.413,-3.843 1.813,-4.86 1.367,-0.993 1.49,-3.774 0.329,-5.442 -0.518,-0.744 -0.806,-1.456 -1.041,-2.333 -0.327,-1.221 -0.832,-2.473 -1.918,-3.363 -1.193,-0.977 -2.104,-2.165 -2.706,-3.638 -0.547,-1.339 -2.221,-1.785 -2.825,-3.167 -0.107,-0.245 -2.113,0.615 -2.112,0.989 0.002,0.758 -0.066,1.25 -1.029,1.182 -1.073,-0.076 -0.524,-1.082 -0.961,-1.551 -0.284,-0.306 0.046,-0.892 0.298,-1.296 0.614,-0.985 -2.021,-1.014 -0.654,-2.148 0.675,-0.56 1.608,-0.849 1.326,-2.019 -0.087,-0.36 0.154,-0.511 0.481,-0.684 0.8,-0.424 0.789,-1.121 0.16,-1.625 -0.934,-0.747 -0.759,-1.279 -0.01,-2.045 0.492,-0.503 0.116,-1.309 0.194,-1.973 l 0.101,-0.185 c -0.152,0.107 -0.333,0.202 -0.579,0.268 -1.084,0.293 -1.237,2.032 -2.52,2.416 -0.381,0.114 -0.726,0.596 -1.162,0.162 -0.528,-0.524 0.09,-0.741 0.337,-0.987 1.984,-1.972 3.156,-4.349 3.688,-7.081 0.036,-0.186 0.523,-0.284 0.801,-0.422 l -0.999,0.333 c -0.989,-0.461 -0.66,-1.576 -0.426,-1.953 0.58,-0.936 0.972,-2.062 1.652,-2.823 1.488,-1.665 2.025,-3.505 1.557,-5.54 -0.387,-1.678 0.419,-3.028 0.744,-4.501 0.402,-1.823 0.733,-3.635 0.624,-5.502 -0.024,-0.394 -0.091,-0.994 -0.34,-1.131 -1.45,-0.797 -1.578,-2.583 -2.797,-3.553 -0.869,-0.691 -1.497,-1.538 -1.586,-2.807 -0.041,-0.594 -0.629,-1.263 -1.076,-1.851 -1.878,-2.466 -2.076,-2.465 -3.512,0.349 -0.248,0.486 -0.404,1.025 -0.695,1.481 -0.095,0.151 -0.176,0.955 -0.623,0.336 -0.806,-1.117 -2.343,-0.365 -3.229,-1.448 -0.578,-0.707 -0.984,0.343 -1.45,0.632 -0.6,0.373 -0.411,0.752 -0.012,1.171 0.198,0.208 0.754,0.332 0.192,0.842 -0.772,0.701 -3.524,0.958 -4.349,0.318 -1.607,-1.249 -3.073,-2.647 -4.972,-3.548 -1.777,-0.844 -2.657,-2.729 -3.094,-4.473 -0.426,-1.7 -1.374,-1.678 -2.591,-1.632 -0.319,0.012 -0.489,-0.143 -0.666,-0.343 l 0.333,0.499 c 0.402,0.844 0.727,1.606 0.568,2.675 -0.227,1.527 -0.489,3.279 1.263,4.322 0.317,0.189 0.36,0.488 0.338,0.832 -0.135,2.13 0.481,2.493 2.677,1.892 0.433,-0.119 0.935,-0.691 1.292,-0.367 1.02,0.926 2.526,0.577 3.522,1.472 l -1.166,0.167 c -0.459,1 -2.033,0.312 -2.374,1.655 -0.2,0.79 -0.269,1.551 -0.295,2.342 -0.012,0.355 -0.138,1.03 -0.462,0.788 -1.121,-0.84 -1.232,0.297 -1.323,0.72 -0.351,1.622 -0.095,3.384 -1.198,4.83 -0.081,0.105 -0.079,0.375 0,0.483 0.475,0.646 0.54,1.572 0.091,1.925 -0.339,0.266 -1.067,-0.543 -1.613,-0.899 -0.555,-0.362 -1.345,-0.941 -1.792,-0.775 -0.942,0.349 -1.916,0.483 -2.852,0.78 -0.57,0.181 -0.512,0.788 -0.514,1.309 -0.006,1.162 0.578,2.072 1.165,3.003 0.696,1.104 0.58,2.588 -0.523,3.092 -1.025,0.469 -0.966,1.105 -0.969,1.899 -0.011,2.395 -1.151,3.217 -3.504,2.881 -1.138,-0.163 -1.066,-1.036 -0.779,-1.338 1.281,-1.35 0.55,-3.602 2.267,-4.735 0.476,-0.315 0.174,-1.073 -0.019,-1.452 -0.585,-1.15 -0.801,-2.533 -1.96,-3.353 -0.622,-0.44 -0.329,-1.115 -0.305,-1.661 0.031,-0.729 0.699,-0.483 1.136,-0.494 0.935,-0.022 1.89,0.006 1.825,-1.339 -0.019,-0.401 0.123,-0.611 0.505,-0.493 1.856,0.575 3.285,-0.89 4.998,-1.019 1.449,-0.11 1.807,-1.148 1.465,-2.309 -0.401,-1.361 -0.278,-2.433 0.862,-3.349 0.724,-0.581 0.267,-0.967 -0.333,-1.141 -0.627,-0.182 -1.252,-0.525 -1.865,0.287 -0.427,0.565 -1.014,-0.1 -0.75,-0.436 1.068,-1.362 -1.144,-2.423 -0.225,-3.709 0.143,-0.199 -0.234,-0.479 -0.316,-0.466 -1.129,0.175 -1.158,-1.364 -2.168,-1.365 -0.39,-0.001 -0.678,-0.425 -0.475,-0.633 0.875,-0.898 0.339,-1.447 -0.356,-2.026 -0.514,-0.429 -0.469,-0.853 -0.01,-1.337 0.84,-0.884 0.187,-1.637 -0.338,-2.315 -0.699,-0.904 -1.099,0.204 -1.654,0.318 -0.745,0.154 -1.318,0.796 -2.166,0.684 -0.208,-0.027 -0.371,0.012 -0.515,0.078 l 0.184,-0.257 c 0.322,-1.882 2.275,-2.408 3.219,-3.793 0.197,-0.29 0.883,-0.261 0.437,-0.864 -0.303,-0.41 -0.044,-1.264 -0.992,-1.185 -0.853,0.072 -1.333,-0.025 -0.53,-1.012 0.627,-0.771 -1.043,-1.05 -0.656,-1.982 0.3,-0.72 -0.452,-1.036 -0.812,-1.49 1.188,-0.68 0.035,-1.156 -0.184,-1.658 -0.629,-1.439 -0.661,-1.426 -1.814,-0.34 -0.171,0.161 -0.334,0.332 -0.5,0.499 h -0.666 c -0.333,-0.604 -1.038,-0.713 -1.514,-1.15 -1.218,-1.121 -1.229,-1.19 0.348,-1.848 0.8,-0.334 0.348,-0.589 0.593,-1.473 0.69,-2.496 -1.817,-3.049 -2.439,-4.685 -0.119,-0.312 -0.537,-0.411 -0.814,-0.321 -1.144,0.372 -1.129,0.39 -1.673,-0.515 -0.563,-0.937 -1.374,-1.155 -2.466,-1.447 -2.46,-0.66 -3.376,1.047 -4.694,2.278 l -0.166,0.333 c -0.056,0.056 -0.168,0.145 -0.158,0.162 0.113,0.19 -0.279,0.047 -0.335,-0.163 -0.159,-0.601 -0.14,-1.306 -0.387,-1.807 -0.49,-0.993 -0.289,-1.187 0.714,-1.029 0.901,0.141 1.614,-0.559 1.597,-1.158 -0.046,-1.544 0.94,-1.129 1.733,-1.164 0.444,-0.02 0.898,-0.06 1.331,0.01 0.604,0.097 0.655,-0.097 0.701,-0.678 0.112,-1.427 -0.76,-1.835 -1.867,-1.984 -0.857,-0.115 -1.34,-0.606 -1.469,-1.354 -0.105,-0.611 -0.211,-1.298 0.791,-1.548 0.476,-0.119 1.205,-0.801 0.807,-1.42 -0.645,-1 -0.37,-1.587 0.545,-2.01 0.97,-0.449 0.38,-1.097 -0.01,-1.126 -1.657,-0.124 -2.231,-1.138 -2.512,-2.548 -0.038,-0.193 -0.296,-0.455 -0.485,-0.485 -1.748,-0.286 -1.672,-1.799 -2.205,-2.998 -0.823,-1.852 -0.379,-3.303 0.877,-4.681 0.212,-0.232 0.46,-0.431 0.662,-0.67 1.213,-1.433 0.871,-2.985 -0.829,-3.83 -0.723,-0.359 -1.518,-0.643 -1.829,-1.499 -0.129,-0.355 -1.003,-0.438 -0.476,-0.97 0.297,-0.301 0.712,-0.593 1.306,-0.567 0.625,0.026 1.203,0.263 1.281,0.715 0.132,0.765 0.575,0.682 1.049,0.65 0.718,-0.05 1.39,-0.812 1.266,-1.133 -0.652,-1.674 0.675,-1.725 1.562,-2.198 0.941,-0.501 1.349,-1.143 0.336,-1.99 -0.85,-0.712 0.181,-0.559 0.346,-0.645 0.573,-0.299 1.098,-0.757 0.78,-1.333 -0.411,-0.745 -1.023,-0.391 -1.453,0.148 -0.198,0.25 -0.464,0.082 -0.668,0.17 -1.477,0.637 -2.804,-0.562 -4.35,-0.255 -1.593,0.317 -3.339,0.7 -4.98,-0.085 -0.112,-0.054 -0.206,0.014 -0.336,0.164 -0.882,1.023 -1.913,0.275 -2.822,0.128 -1.267,-0.205 -2.62,0.123 -2.591,1.205 0.051,1.874 -1.631,1.917 -2.465,2.782 -0.212,0.22 -0.417,0.267 -0.614,0.229 0.001,0.107 0.005,0.215 -0.001,0.322 -0.034,0.612 0.267,1.49 -0.2,1.775 -0.749,0.458 -0.881,-0.581 -1.286,-0.956 -0.261,-0.242 -0.579,-0.474 -0.825,-0.293 -0.303,0.223 -0.697,0.438 -0.706,0.973 -0.009,0.545 0.268,0.61 0.685,0.674 0.701,0.109 0.995,0.438 0.329,0.985 -1.085,0.892 -2.274,1.634 -3.475,2.366 -0.496,0.303 -0.944,0.46 -1.328,0.115 -0.372,-0.334 -0.269,-0.851 -0.027,-1.312 0.471,-0.9 0.094,-1.145 -0.825,-1.202 -0.458,-0.028 -0.891,0.52 -1.335,0.039 l -0.333,0.167 c 0.444,-0.866 1.331,-1.762 -0.167,-2.498 l -4.247,2.498 c 0.398,-1.158 1.221,-1.781 2.414,-2.008 0.872,-0.167 1.804,-0.27 2.334,-1.156 0.19,-0.317 0.498,-0.415 0.831,-0.329 2.353,0.607 3.211,-1.188 4.106,-2.704 0.237,-0.402 0.309,-0.961 0.728,-1.294 0.694,-0.553 0.688,-1.017 -0.174,-1.324 -0.363,-0.129 -0.51,-0.305 -0.498,-0.679 0.058,-1.849 -0.13,-2.307 -1.325,-3.501 -0.362,-0.362 -0.412,-0.674 -0.039,-1.187 0.467,-0.644 0.921,-1.395 0.709,-2.309 -0.084,-0.361 0.197,-0.483 0.472,-0.69 0.622,-0.47 0.579,-0.524 -0.146,-0.976 -0.065,-0.04 -0.104,-0.123 -0.169,-0.162 -0.488,-0.291 -1.341,-0.442 -1.112,-1.151 0.194,-0.599 1.039,-0.411 1.613,-0.517 0,0 -0.736,-1.146 0.99,-1.853 0.258,-0.106 0.686,-0.406 0.487,-0.801 -0.169,-0.338 -0.493,-0.536 -0.978,-0.531 -1.398,0.015 -2.581,0.951 -3.998,0.886 -0.137,-0.006 -0.621,0.34 -0.479,0.624 0.794,1.589 -0.591,2.962 -0.396,4.512 0.097,0.766 1.026,1.952 -0.617,2.349 -0.051,0.012 0.148,0.42 0.133,0.468 -0.329,1.035 0.208,2.037 0.133,3.002 -0.101,1.297 -0.431,2.541 0.04,3.844 0.234,0.645 -0.196,1.253 -0.814,1.293 -1.928,0.127 -4.018,1.273 -5.68,-0.786 -0.309,-0.382 -0.84,-0.21 -1.319,-0.033 -0.786,0.288 -0.065,0.457 0.002,0.685 0.083,0.281 -0.124,0.252 -0.313,0.36 -0.511,0.29 -1.021,0.131 -1.515,0.123 -1.456,-0.026 -2.427,1.16 -1.999,2.514 0.048,0.151 0.099,0.282 0.149,0.411 l -0.149,-0.078 c -0.388,-0.056 -0.776,-0.149 -1.166,-0.16 -1.578,-0.046 -1.87,0.317 -1.134,1.641 0.362,0.651 -0.273,0.632 -0.371,0.652 -0.598,0.12 -1.215,0.143 -1.826,0.199 l 0.667,-1 c -0.422,-0.01 -1.118,0.012 -0.952,0.483 0.44,1.246 -0.34,2.34 -0.214,3.515 l 4.497,0.333 c -2.311,0.266 -4.601,0.439 -6.506,-1.322 -0.09,-0.083 -0.323,-0.011 -0.49,-0.011 l 2.499,1.832 c -0.653,0.654 -0.176,1.632 -0.666,2.332 l 1.499,3.831 c -1.646,-0.374 -2.612,-1.517 -2.488,-2.997 0.028,-0.339 0.399,-0.333 0.655,-0.417 l -0.499,-0.084 c -0.332,-0.584 -0.957,-0.766 -1.508,-0.976 -0.605,-0.229 -1.181,-0.481 -1.71,0.446 -0.543,0.953 0.005,1.197 0.56,1.518 0.885,0.513 1.001,0.965 0.175,1.695 -0.829,0.732 -0.328,1.404 0.318,1.981 v 0.666 c -0.8,0.869 -2.056,1.251 -2.427,2.639 -0.101,0.377 -1.227,0.726 -1.914,1.001 -0.361,0.144 -0.89,0.451 -1.223,0.012 -0.109,-0.144 -0.167,-0.286 -0.195,-0.428 l -0.237,0.773 c -0.168,0.11 -0.273,0.45 -0.493,0.321 -0.889,-0.521 -1.65,-0.437 -2.351,0.335 -0.076,0.082 -0.327,0.038 -0.487,0.006 -0.963,-0.193 -1.2,0.615 -1.287,1.178 -0.12,0.781 -0.29,1.464 -0.653,2.188 -0.256,0.512 -0.235,1.348 0.127,1.957 0.157,0.265 2.727,-0.041 2.791,-0.326 0.361,-1.605 1.828,-2.171 2.815,-3.196 0.478,-0.496 0.611,-1.186 1.544,-0.817 0.62,0.244 1.435,-0.328 1.985,0.358 0.47,0.585 0.796,0.468 0.994,-0.175 0.115,-0.371 0.308,-0.552 0.677,-0.492 1.117,0.18 2.111,0.73 2.616,1.688 0.367,0.696 -0.113,1.47 -0.783,1.972 l 0.666,-0.5 c 0.875,0.424 1.903,0.996 1.762,1.989 -0.171,1.2 0.203,2.709 -1.256,3.52 -0.749,0.416 -1.425,0.604 -1.983,-0.195 -0.112,-0.16 -0.235,-0.325 -0.357,-0.482 -0.599,-0.768 -1.968,-1.404 -2.995,-1.513 -0.889,-0.095 -1.64,-1.173 -2.708,-0.2 -0.308,0.281 -0.92,0.438 -0.923,0.879 -0.006,0.815 -0.446,0.756 -1.028,0.864 -0.866,0.162 -1.457,1.429 -0.969,2.108 0.3,0.418 0.327,0.789 0.279,1.19 -0.051,0.42 0.062,1.334 -0.815,0.501 -0.057,-0.054 -0.117,-0.163 -0.166,-0.158 -0.731,0.079 -1.366,-1.212 -1.941,-0.463 -0.586,0.765 0.477,1.27 0.957,1.773 0.444,0.466 0.811,0.962 1.641,1.078 0.998,0.139 1.393,1.181 1.661,2.105 0.113,0.387 -0.098,0.822 0.335,1.175 0.708,0.577 0.6,1.264 -0.167,1.627 -1.031,0.489 0.424,0.803 0.012,1.191 l 0.333,0.333 c -0.53,-0.218 -1.004,-0.307 -1.508,0.157 -1.411,1.299 -1.498,2.918 -1.348,4.675 0.085,0.999 0.19,1.977 -0.764,2.877 -0.956,0.903 -1.364,2.325 -2.507,3.165 -0.087,0.065 -0.495,0.506 -0.38,0.955 0.258,1.005 -0.343,1.633 -0.953,2.358 -0.638,0.757 -1.688,1.599 -0.544,2.811 0.614,0.65 -0.261,0.822 -0.505,1.146 -0.878,1.162 -2.022,2.089 -3.03,3.13 -1.947,2.012 -1.586,4.987 -3.27,7.052 -0.109,0.134 -0.07,0.451 -0.003,0.651 0.146,0.435 0.787,1 -0.183,1.134 -0.525,0.072 -1.172,0.525 -1.464,0.325 -1.508,-1.034 -2.91,-0.643 -4.366,0.031 -0.302,0.139 -0.56,-0.114 -0.841,-0.299 -0.707,-0.465 -1.146,-0.005 -0.954,0.635 0.629,2.095 -0.962,2.827 -2.223,3.633 -0.791,0.505 -1.141,1.016 -0.965,1.872 0.245,1.187 -1.128,1.59 -1.233,2.66 -0.039,0.389 -0.832,0.146 -1.274,0.159 -0.871,0.026 -1.129,0.242 -0.518,1.028 0.187,0.24 0.464,0.497 0.065,1.02 -0.644,0.844 -0.533,1.891 0.123,2.794 0.25,0.345 0.204,0.635 0.011,1.009 -0.346,0.672 -0.949,0.28 -1.151,0.122 -0.633,-0.496 -1.111,-0.674 -1.703,0.029 -0.455,0.541 -0.913,0.246 -1.509,0.072 -0.811,-0.237 -1.812,-0.355 -2.491,0.594 -0.595,0.832 -0.113,1.44 0.364,1.99 0.363,0.418 0.39,0.639 -0.011,1.025 -0.897,0.867 0.204,2.319 -0.258,2.728 -0.903,0.799 -1.721,1.655 -2.366,2.626 -0.263,0.397 -0.267,1.295 0.783,1.321 0.418,0.01 0.82,0.402 0.801,0.809 -0.023,0.485 -0.478,0.575 -0.96,0.697 -2.358,0.598 -2.769,1.004 -3.847,3.298 -0.095,0.2 -0.316,0.472 -0.492,0.483 -1.537,0.094 -2.67,1.125 -4.01,1.65 -2.654,1.04 -3.114,1.119 -5.093,-0.213 -0.851,-0.572 -1.278,0.116 -1.891,-0.073 -1.476,-0.454 -0.235,1.199 -0.996,1.322 0.103,0.547 -0.172,1.01 -0.333,1.499 l 0.499,-0.666 c 0.401,0.027 0.745,-0.215 1.167,-0.184 0.918,0.07 1.399,0.491 0.953,1.152 -0.73,1.082 -0.476,1.778 0.348,2.561 0.084,0.08 0.703,0.377 0.207,0.812 -0.282,0.247 -0.564,0.106 -0.843,0.154 -0.886,0.154 -1.296,-0.936 -2.165,-0.831 l 0.833,0.5 c -0.687,1.643 -0.687,1.643 0.999,2.165 1.627,0.504 2.252,1.457 1.966,3.159 -0.035,0.208 -0.121,0.443 -0.13,0.672 -0.022,0.611 0.134,1.322 -0.836,1.331 -0.739,0.007 -1.613,0.306 -1.833,-0.832 l 0.167,0.666 c 0.051,0.756 -0.659,1.475 -0.989,1.427 -1.608,-0.233 -2.252,1.137 -3.352,1.719 -0.995,0.526 -1.374,1.272 -1.329,2.351 0.064,1.522 -0.915,2.286 -2.158,2.831 l 0.999,0.167 c 0.279,0.494 0.87,0.474 1.143,0.297 0.614,-0.397 0.714,0.184 1.022,0.369 l -0.166,0.5 c 0.572,-0.586 1.588,-0.485 2.015,-1.324 0.093,-0.182 0.329,-0.618 0.639,-0.168 0.122,0.177 0.223,0.596 0.162,0.635 -1.024,0.654 0.923,2.39 -0.982,2.702 -0.018,0.003 0.002,0.209 -0.003,0.32 -0.053,1.394 1.79,2.92 3.157,2.473 1.598,-0.522 3.213,-0.466 4.839,-0.473 1.166,-0.006 2.373,0.194 3.489,-0.043 2.236,-0.473 4.44,-0.222 6.671,-0.207 1.079,0.006 1.759,0.257 2.51,0.901 1.233,1.057 3.002,1.245 4.292,1.024 1.341,-0.23 2.476,0.092 3.689,0.067 0.278,-0.006 -0.332,0.588 -0.332,0.588 -0.744,1.552 -2.336,0.751 -3.345,0.846 -1.712,0.162 -3.842,-0.236 -5.214,-1.023 -1.461,-0.839 -2.782,-0.966 -4.088,-0.757 -3.274,0.524 -6.559,0.455 -9.83,0.704 -1.413,0.108 -2.749,0.9 -4.349,0.628 -1.07,-0.181 -1.844,-0.563 -2.685,-1.189 -0.761,-0.566 -1.512,-2.325 -2.8,-0.541 -1.24,-1.037 -1.841,0.645 -2.832,0.666 h 0.666 c 0.531,0.82 0.435,1.757 -0.354,2.118 -1.643,0.751 1.127,1.583 -0.144,2.215 -0.066,0.034 -0.129,0.099 -0.165,0.165 -0.601,1.093 0.249,3.075 1.496,3.497 1.42,0.48 1.904,2.133 0.81,3.139 -0.782,0.719 -1.322,1.709 -2.316,2.174 -0.341,0.159 -0.674,0.467 -0.469,0.658 1.615,1.51 -0.048,1.671 -0.856,2.191 -0.367,0.236 -1.017,0.278 -0.932,0.821 0.024,0.153 0.559,0.634 1.092,0.717 0.366,0.057 0.697,-0.017 1.001,0.013 0.592,0.058 1.443,0.159 1.627,0.792 0.266,0.923 -2.189,3.246 -3.109,2.948 -0.688,-0.223 -0.999,0.044 -0.804,0.521 0.353,0.863 0.071,1.251 -0.709,1.326 -0.625,0.06 -0.732,0.375 -0.657,0.855 0.103,0.661 -0.141,1.152 -0.679,1.492 -0.282,0.178 -0.738,0.245 -0.637,0.668 0.08,0.34 0.479,0.429 0.806,0.33 0.484,-0.147 0.726,0.379 1.169,0.376 0.085,-0.001 0.957,0.1 0.321,0.618 -0.433,0.353 -0.439,0.859 -0.27,1.15 0.121,0.207 0.655,-0.06 0.949,-0.301 0.686,-0.563 1.101,0.263 1.656,0.375 0.446,0.09 0.473,0.766 0.309,1.107 -0.224,0.466 -0.661,0.79 -1.301,0.692 -0.84,-0.128 -1.333,-0.003 -0.689,1.004 0.258,0.405 -0.923,1.206 0.038,1.421 0.962,0.215 0.69,0.807 0.617,1.222 -0.115,0.651 -0.085,1.056 0.3,1.712 0.215,0.365 0.464,0.894 0.368,1.334 -0.083,0.383 -0.492,0.517 -0.434,0.978 0.037,0.295 0.215,0.553 0.402,0.784 0.188,0.232 0.394,0.457 0.505,0.733 0.225,0.557 0.023,1.182 -0.153,1.756 -0.175,0.573 -0.312,1.237 0.014,1.74 0.21,0.325 0.571,0.512 0.89,0.731 0.318,0.218 0.63,0.527 0.641,0.914 0.011,0.403 -0.316,0.743 -0.678,0.922 -0.362,0.178 -0.769,0.243 -1.142,0.395 -0.373,0.152 -0.736,0.433 -0.809,0.83 -0.116,0.63 0.528,1.139 0.68,1.762 0.088,0.363 -0.005,0.766 -0.245,1.052 -0.239,0.287 -0.619,0.451 -0.992,0.429 -0.599,-0.036 -1.09,-0.507 -1.681,-0.613 -0.841,-0.15 -1.476,0.44 -2.222,0.683 -1.12,0.364 0.699,1.59 0.981,2.056 0.136,0.223 0.246,0.467 0.277,0.726 0.03,0.26 -0.027,0.537 -0.195,0.737 -0.168,0.198 -0.433,0.302 -0.692,0.295 -0.259,-0.006 -0.51,-0.117 -0.708,-0.284 -0.082,-0.07 -0.157,-0.15 -0.254,-0.195 -0.498,-0.232 -0.256,0.414 -0.135,0.605 0.241,0.382 0.542,0.721 0.795,1.094 0.635,0.934 1.428,1.847 1.202,3.15 -0.125,0.722 0.252,0.799 0.823,0.499 1.213,-0.637 2.536,-0.444 3.829,-0.519 0.45,-0.026 0.801,0.39 1.208,0.492 l -0.541,0.192 c -1.383,0.945 -1.383,0.945 -0.167,2.831 l -0.832,-0.833 c -1.03,0.459 -2.317,0.375 -3.145,1.187 -1.569,1.539 -3.033,3.186 -4.499,4.825 -0.196,0.219 -0.672,0.894 -0.016,0.914 0.634,0.019 1.068,0.719 1.855,0.281 0.773,-0.429 1.753,-0.485 2.64,-0.712 1.116,-0.285 1.027,-0.3 0.871,0.839 -0.076,0.557 -0.535,1.155 0.559,1.781 1.069,0.611 2.38,0.996 3.248,2.033 1.017,1.217 2.649,1.236 3.983,1.844 h -1.333 c -0.222,0.166 -0.421,0.391 -0.67,0.489 -0.778,0.304 -1.233,0.646 -0.329,1.343 0.385,0.296 0.713,0.708 0.475,1.152 -0.282,0.525 -0.736,-0.107 -1.145,0 -0.705,0.183 -1.419,-0.067 -2.188,0.289 -0.862,0.399 -1.711,-0.219 -1.928,-1.119 -0.159,-0.661 0.037,-1.674 -0.717,-1.754 -1.109,-0.117 -2.214,-0.725 -3.313,-0.365 -0.776,0.253 -1.649,0.349 -2.304,0.703 -0.675,0.366 -1.103,0.237 -1.518,-0.097 -0.338,-0.272 -0.651,-0.269 -1.017,-0.323 -0.492,-0.073 -0.851,0.186 -0.97,0.526 -0.14,0.401 0.422,0.477 0.652,0.629 1.479,0.976 1.496,1.475 0.166,2.383 -0.692,0.471 -0.875,-0.06 -1.176,-0.365 -0.864,-0.879 -1.302,-0.559 -1.319,0.506 -0.015,0.97 -0.557,1.281 -1.353,1.318 -0.569,0.026 -1.007,0.345 -1.489,0.539 -0.7,0.282 -1.2,0.758 -0.343,1.475 0.792,0.663 1.096,1.335 0.179,2.178 -0.389,0.358 -0.296,0.934 0.164,1.129 1.314,0.559 0.498,1.335 0.13,1.836 -1.523,2.075 -0.951,2.78 1.022,3.693 0.872,0.403 1.881,0.661 2.329,1.659 0.136,0.303 0.823,0.337 0.488,0.817 -0.253,0.36 -0.54,0.757 -1.149,0.704 -0.429,-0.038 -0.868,-0.057 -1.341,0.114 -1.589,0.574 -2.522,2.581 -1.434,3.811 0.901,1.018 0.659,1.207 -0.375,1.581 -0.275,0.1 -0.893,0.124 -0.808,0.625 0.04,0.232 0.399,0.44 0.786,0.542 0.861,0.226 1.859,0.603 0.342,1.463 -0.595,0.337 -1.028,0.858 -1.496,1.336 -1.478,1.505 -1.5,1.544 0.175,2.813 0.801,0.607 0.384,0.841 -0.174,1.187 -1.202,0.745 -1.496,1.705 -0.49,2.814 0.37,0.407 0.408,1.004 -0.007,0.954 -1.659,-0.201 -1.883,1.284 -2.65,2.076 -0.821,0.848 -1.307,1.903 -2.474,2.559 -1.101,0.618 -0.695,3.024 0.648,3.873 1.098,0.693 1.529,1.151 0.306,2.043 -0.546,0.398 -0.539,0.838 -0.385,1.51 0.12,0.519 -0.107,0.854 -0.495,1.023 l 0.213,-0.036 c 0.901,0.368 1.58,0.845 1.172,2.001 -0.425,1.207 -1.532,1.225 -2.308,0.922 -0.721,-0.282 -0.71,-0.167 -1.074,0.378 -0.468,0.702 -0.367,1.357 0.223,1.47 1.075,0.205 1.197,1.071 1.654,1.725 l -0.333,-0.166 c -0.671,0.431 -2.346,0.692 -0.18,1.535 0.605,0.235 0.164,1.928 -0.843,2.412 -0.871,0.418 -0.458,0.539 -0.189,1.073 0.289,0.573 1.116,1.433 -0.595,1.767 -0.791,0.154 -0.39,1.719 0.012,2.521 0.419,0.834 0.354,1.209 -0.532,1.529 -2.317,0.837 -3.39,3.043 -4.981,4.672 -0.609,0.623 0.059,2.213 1.157,2.42 1.003,0.189 1.073,0.283 0.714,1.246 -0.32,0.858 -0.008,1.773 1.272,1.843 0.238,0.013 1.302,-0.187 0.532,0.824 -0.599,0.784 -0.037,1.366 0.805,1.445 0.534,0.051 1.13,0.221 1.664,-0.134 1.996,-1.328 4.419,-1.599 6.54,-2.75 2.881,-1.563 5.908,-2.87 8.606,-4.76 1.782,-1.248 3.734,-2.268 5.202,-3.959 0.392,-0.451 0.865,-1.13 1.817,-0.727 0.736,0.311 1.056,-0.563 1.47,-0.979 1.292,-1.295 2.771,-2.252 4.506,-2.832 0.15,-0.05 0.222,-0.177 0.339,-0.156 1.479,0.263 2.714,-0.377 4.007,-0.971 2.015,-0.926 4.291,-1.078 6.331,-1.995 0.636,-0.286 1.281,-0.348 1.533,-1.179 0.081,-0.27 0.258,-0.792 0.786,-0.852 2.452,-0.282 3.604,-2.525 5.446,-3.737 1.265,-0.831 2.331,-0.427 2.996,0.14 1.996,1.699 4.216,3.087 6.228,4.753 0.516,0.427 1.184,0.573 1.143,-0.484 -0.041,-1.057 0.233,-1.073 1.197,-0.723 1.077,0.392 2.074,1.149 3.31,1.052 0.272,-0.021 0.486,0.242 0.477,0.334 -0.179,1.84 0.758,1.497 1.867,1.029 0.25,-0.105 0.658,-0.154 0.996,0.13 1.169,0.983 2.597,0.953 3.987,0.824 1.712,-0.16 3.138,0.191 4.174,1.678 0.503,0.721 0.965,0.741 1.874,0.27 0.751,-0.389 1.779,-0.97 3.008,-0.193 0.8,0.505 2.198,0.235 3.27,-0.239 1.598,-0.706 3.05,-1.642 4.325,-2.837 0.277,-0.259 0.219,-0.791 0.28,-0.952 0.598,-1.566 -0.46,-2.72 -0.769,-4.039 -0.224,-0.956 0.598,-1.139 1.169,-1.304 1.173,-0.336 2.024,-0.583 2.267,-2.176 0.204,-1.341 1.954,-1.09 3.057,-1.139 1.915,-0.086 3.817,-0.038 5.666,-0.695 1.146,-0.407 2.559,-0.398 2.507,-2.18 -0.015,-0.51 0.426,-0.494 0.819,-0.505 2.279,-0.061 4.564,0.217 6.836,-0.299 0.861,-0.195 1.836,-0.165 1.999,1.136 0.137,1.088 0.971,1.919 1.178,2.996 0.026,0.137 0.152,0.227 0.155,0.336 0.033,1.065 2.037,-0.202 1.7,1.508 -0.235,1.196 1.129,1.438 1.826,1.939 0.896,0.644 1.799,0.981 1.864,2.38 0.043,0.925 0.969,1.305 1.928,0.83 0.825,-0.409 1.574,-0.594 2.345,0.161 0.685,0.67 1.531,0.333 2.321,0.176 1.4,-0.278 2.627,-0.172 3.863,0.794 1.321,1.032 2.673,-0.117 3.755,-0.707 0.976,-0.532 1.993,-1.275 2.709,-2.25 0.332,-0.453 0.618,-0.415 1.008,-0.01 1.037,1.077 2.053,2.187 3.325,3.004 0.703,0.452 0.768,1.127 0.654,1.834 -0.174,1.075 0.64,2.026 0.24,3.188 -0.188,0.547 0.771,0.742 1.274,0.965 1.58,0.701 1.756,1.283 0.656,2.507 -0.419,0.467 -0.87,0.907 -1.333,1.331 -0.282,0.257 -0.184,0.793 -0.15,0.805 1.761,0.593 0.35,1.095 0.004,1.707 -1.289,2.28 -3.099,3.862 -5.679,4.487 -0.62,0.151 -0.761,0.703 -0.996,1.169 -0.8,1.596 -0.711,2.989 0.617,4.373 0.509,0.53 0.952,1.138 1.533,1.636 0.664,0.568 1.018,0.839 1.892,0.037 1.575,-1.446 3.59,-2.164 5.782,-2.218 0.671,-0.017 0.878,0.211 0.513,0.841 -0.08,0.137 -0.032,0.331 -0.171,0.5 -0.892,1.09 -0.918,2.157 0.158,3.157 0.505,0.469 3.07,0.565 3.645,-0.018 1.574,-1.595 3.586,-2.684 4.894,-4.615 0.934,-1.378 2.267,-2.493 3.466,-3.681 0.327,-0.325 0.721,-0.771 1.329,-0.362 0.154,0.103 0.526,0.111 0.642,0 1.05,-1 2.673,-1.298 3.554,-2.117 1.131,-1.051 2.385,-2.055 3.512,-3.139 1.035,-0.995 2.746,-0.874 4.104,-1.402 1.737,-0.675 3.445,0.12 5.167,0.02 0.699,-0.041 0.943,-0.249 1.435,-0.934 1.815,-2.527 1.519,-4.801 0.078,-7.244 -0.404,-0.684 -0.547,-1.443 0.315,-1.997 0.194,-0.124 0.338,-0.325 0.503,-0.494 1.238,-1.26 2.326,-2.346 2.49,-4.484 0.17,-2.217 1.947,-4.046 3.823,-5.53 2.736,-2.165 5.923,-3.733 8.343,-6.309 0.728,-0.775 1.71,-1.036 2.668,-1.326 2.947,-0.889 5.702,-2.243 8.483,-3.523 1.556,-0.716 1.642,-1.637 0.331,-2.63 -0.769,-0.583 -1.649,-1.022 -2.488,-1.512 -1.387,-0.81 -2.076,-2.192 -2.813,-3.509 -0.467,-0.832 0.51,-3.833 1.31,-4.494 0.895,-0.74 1.887,-1.409 2.874,-1.919 1.149,-0.594 1.317,-1.335 1.307,-2.405 -0.014,-1.394 -0.156,-2.804 0.315,-4.166 0.051,-0.149 0.048,-0.344 0,-0.496 -0.977,-3.08 0.747,-5.479 2.002,-7.997 0.023,-0.045 -0.014,-0.118 0.006,-0.165 0.391,-0.923 1.289,-1.839 0.878,-2.78 -0.143,-0.326 -1.659,-0.074 -2.546,-0.046 -1.048,0.033 -2.573,-0.923 -2.781,-2.18 -0.27,-1.641 -1.111,-2.988 -1.928,-4.293 -1.391,-2.22 -1.031,-4.439 -0.427,-6.683 0.335,-1.244 0.613,-2.374 0.186,-3.687 -0.313,-0.962 -0.161,-2.14 0.48,-2.962 1.407,-1.806 0.802,-3.763 0.625,-5.683 -0.2,-2.165 -0.867,-4.311 -0.161,-6.499 0.054,-0.168 0.052,-0.33 0.163,-0.505 2.552,-4.022 2.546,-8.922 4.489,-13.159 C -5.913,28.994 -6,28.541 -6.047,28.158 -6.626,23.511 -5.819,18.805 -6.686,14.163 -7.041,12.266 -7.348,10.358 -7.908,8.515 -8.074,7.969 -7.976,7.835 -7.541,7.668 -5.644,6.94 -4.02,5.784 -3.094,3.981 -2.632,3.082 -1.851,3.027 -1.195,2.707 0.349,1.952 0.376,1.742 0,0 Z m -206.954,118.633 c -0.221,0.096 -0.493,0.14 -0.786,0.131 z m 86.656,-239.043 -0.429,1.392 c -0.093,-0.478 0.207,-0.942 0.429,-1.392 z m 33.201,-17.695 c -0.141,-0.2 -0.587,-1.335 0.61,-1.292 l 0.499,2.332 v 0.011 c -0.449,-0.089 -0.845,-0.677 -1.109,-1.051 z m 67,96.291 0.898,-1.647 c -0.306,0.559 -0.312,1.231 -0.898,1.647 z m -123.019,-46.95 2.665,-1.333 c -0.167,0.667 -0.422,1.326 -0.476,2.001 -0.06,0.748 0.015,1.553 -0.863,1.81 -0.889,0.259 -1.455,-0.248 -2.038,-0.941 -0.347,-0.413 -0.56,-0.778 -0.428,-1.196 0.169,-0.531 0.732,-0.297 1.14,-0.341 z m 12.808,-10.655 c -0.231,-0.777 -0.853,-0.834 -1.477,-0.495 -0.905,0.492 -1.523,0.491 -1.874,-0.665 -0.09,-0.295 -0.448,-0.825 -0.956,-0.657 -0.427,0.141 -0.311,0.926 -0.348,0.932 -0.737,0.117 0.136,1.406 -0.819,1.188 -0.779,-0.178 -1.305,-0.672 -1.19,-1.642 0.091,-0.767 0.029,-1.553 0.015,-2.33 -0.012,-0.68 0.185,-1.367 -0.816,-1.705 -0.791,-0.268 -0.817,-0.96 -0.616,-1.65 l -0.23,0.69 c -0.353,0.73 -1.486,-0.357 -1.651,0.669 -0.203,1.262 1.034,1.193 1.671,1.445 1.064,0.422 0.647,0.797 0.136,1.204 -0.44,0.35 -0.96,0.466 -1.199,1.164 -0.441,1.288 -0.774,2.104 1.011,2.765 1.564,0.58 1.444,2.742 0.032,3.912 -1.222,1.012 -1.999,1.362 -3.495,1.679 -0.353,0.075 -0.694,0.284 -0.996,0.496 -0.396,0.278 0.027,0.841 -0.339,1.157 0.296,0.277 0.545,0.379 1.013,0.204 0.498,-0.186 1.087,-0.01 1.485,0.462 l 0.833,0.333 c 0.777,-0.444 1.548,-0.9 2.334,-1.327 0.299,-0.162 0.657,-0.137 0.685,-0.671 0.059,-1.093 0.14,-1.173 1.135,-0.809 0.863,0.316 1.483,0.075 1.641,-0.698 0.294,-1.434 0.66,-1.798 2.071,-0.884 1.024,0.663 0.939,-0.853 1.45,-1.286 0.586,-0.497 0.168,-0.907 -0.326,-0.95 -0.467,-0.041 -0.916,-0.227 -0.954,-0.542 -0.074,-0.6 0.634,-0.513 0.97,-0.625 0.74,-0.247 1.002,-0.697 0.804,-1.364 z"
           style="display:inline;fill:none;stroke:#106651;stroke-width:1;stroke-linecap:butt;stroke-linejoin:miter;stroke-miterlimit:10;stroke-dasharray:none;stroke-opacity:1"
           id="path22840" />
      </g>
    </g>
  </g>
</svg>
