<?xml version="1.0" encoding="UTF-8" standalone="no"?>
<!-- Created with Inkscape (http://www.inkscape.org/) -->

<svg
   version="1.1"
   id="svg18"
   width="152.052"
   height="61.066662"
   viewBox="0 0 152.052 61.066661"
   xmlns="http://www.w3.org/2000/svg"
   xmlns:svg="http://www.w3.org/2000/svg">
  <defs
     id="defs22">
    <clipPath
       clipPathUnits="userSpaceOnUse"
       id="clipPath22828">
      <path
         d="M 0,3601.179 H 976.954 V 0 H 0 Z"
         id="path22826" />
    </clipPath>
  </defs>
  <g
     id="g26"
     transform="matrix(1.3333333,0,0,-1.3333333,-575.27718,4752.1524)">
    <g
       id="g22822"
       style="display:inline">
      <g
         id="g22824"
         clip-path="url(#clipPath22828)"
         style="display:inline">
        <g
           id="g23208"
           style="display:inline">
          <g
             id="g22846"
             transform="translate(538.3769,3539.6204)">
            <path
               d="m 0,0 c -0.286,-0.293 -0.644,-0.299 -1.07,-0.299 h -1.51 -1.895 c -0.274,0 -0.496,0.222 -0.496,0.496 0,0.469 -0.051,0.903 0.091,1.353 0.075,0.24 0.248,0.458 0.4,0.657 0.177,0.23 0.409,0.267 0.644,0.413 -0.414,0.11 -0.566,0.402 -0.77,0.748 -0.134,0.228 -0.274,0.462 -0.341,0.721 -0.064,0.249 -0.024,0.505 -0.024,0.759 0,0.595 0,1.189 0,1.783 0,0.488 0.001,0.975 0.001,1.463 0,0.383 -0.082,0.759 -0.061,1.142 0.035,0.629 0.301,1.327 0.581,1.889 0.088,0.176 0.264,0.359 0.407,0.498 0.131,0.128 0.53,0.259 0.56,0.412 -0.561,0.202 -0.95,0.446 -1.217,0.988 -0.34,0.691 -0.271,1.331 -0.271,2.069 0,0.371 0,0.741 0,1.112 0,0.733 0.595,1.327 1.328,1.327 h 3.117 c 0.733,0 1.328,-0.594 1.328,-1.327 0,-0.244 -0.018,-0.497 -0.109,-0.728 -0.02,-0.05 -0.361,-0.515 -0.415,-0.419 0.097,-0.173 0.275,-0.29 0.364,-0.485 0.089,-0.193 0.049,-0.411 0.096,-0.614 0.043,-0.185 0.063,-0.342 0.064,-0.535 0,-0.521 0,-1.043 0,-1.565 V 9.764 C 0.802,9.194 0.68,8.575 0.24,8.169 0.022,7.969 -0.35,7.806 -0.63,7.712 -0.836,7.642 -1.078,7.642 -1.27,7.527 -1.228,7.381 -0.944,7.383 -0.825,7.344 -0.537,7.249 -0.283,7.013 -0.06,6.815 0.338,6.461 0.5,5.936 0.601,5.43 0.711,4.876 0.802,4.335 0.802,3.771 0.802,3.235 0.84,2.68 0.779,2.148 0.724,1.665 0.51,1.239 0.403,0.769 0.352,0.546 0.245,0.325 0.114,0.139 0.077,0.086 0.039,0.041 0,0 m 3.32,-2.481 c 0,-0.413 0.053,-0.716 -0.313,-1 C 2.513,-3.864 1.779,-3.99 1.17,-3.971 1.451,-3.97 1.727,-3.996 2.007,-4.02 c 0.29,-0.024 0.579,-0.01 0.81,-0.206 0.265,-0.223 0.527,-0.591 0.542,-0.95 0.01,-0.23 -0.039,-0.475 -0.039,-0.713 0,-0.273 -0.222,-0.495 -0.495,-0.495 h -9.818 c -0.477,0 -0.603,0.599 -0.505,0.973 0.051,0.195 0.176,0.463 0.357,0.56 0.047,0.026 0.636,0.164 0.637,0.163 -0.12,0.146 -0.328,0.224 -0.456,0.385 -0.113,0.139 -0.194,0.296 -0.273,0.456 -0.233,0.471 -0.256,0.848 -0.256,1.366 0,0.273 0.222,0.495 0.496,0.495 h 0.336 9.146 0.336 c 0.273,0 0.495,-0.222 0.495,-0.495 M 4.6,-13.684 H -8.769 c -0.901,0 -0.453,1.774 -0.017,2.085 0.467,0.335 1.055,0.427 1.609,0.502 0.509,0.068 1.053,0.045 1.553,0.14 -0.165,0.012 -0.33,0.064 -0.493,0.096 -0.433,0.084 -0.876,0.121 -1.305,0.22 -0.332,0.076 -0.649,0.209 -0.951,0.365 -0.276,0.143 -0.421,0.333 -0.518,0.624 -0.104,0.31 -0.526,0.817 -0.203,1.132 0.098,0.097 0.242,0.105 0.367,0.112 0.175,0.009 0.354,0 0.529,0 h 3.077 4.278 3.8 1.643 c 0.558,0 0.572,-0.574 0.233,-0.867 C 4.55,-9.52 4.239,-9.576 3.89,-9.68 c 0.29,-0.201 0.658,-0.251 0.947,-0.481 0.233,-0.185 0.193,-0.311 0.158,-0.57 -0.025,-0.184 -0.04,-0.368 -0.187,-0.492 -0.148,-0.125 -0.687,-0.16 -0.726,-0.346 0.406,-0.136 0.824,-0.099 0.979,-0.582 0.101,-0.313 0.035,-0.71 0.035,-1.038 0,-0.273 -0.222,-0.495 -0.496,-0.495 m -3.959,-5.935 h -1.974 -2.342 c -0.276,0 -0.552,0.001 -0.828,0 -0.129,-0.001 -0.294,-0.043 -0.411,0.01 -0.216,0.098 -0.317,0.42 -0.308,0.634 0.007,0.169 0.05,0.338 0.147,0.48 0.107,0.156 0.298,0.225 0.401,0.36 -0.198,0.023 -0.516,0.323 -0.551,0.521 -0.026,0.156 0.051,0.31 0.139,0.423 0.132,0.171 0.257,0.103 0.411,0.19 -0.53,0.191 -0.25,0.855 0.05,1.121 0.311,0.276 0.826,0.172 1.218,0.172 h 4.048 c 0.236,0 0.548,-0.238 0.583,-0.482 0.042,-0.283 -0.303,-0.461 -0.444,-0.663 -0.377,-0.545 -1.216,-0.708 -1.846,-0.688 0.325,-0.001 0.625,-0.009 0.946,-0.059 0.326,-0.05 0.768,-0.015 1.035,-0.216 0.227,-0.171 0.142,-0.482 0.179,-0.723 0.03,-0.197 0.042,-0.383 0.042,-0.585 0,-0.274 -0.222,-0.495 -0.495,-0.495 m -88.656,10.778 c -0.274,0 -0.495,0.222 -0.495,0.496 v 1.465 c 0,0.274 -0.222,0.496 -0.496,0.496 h -1.122 c -0.274,0 -0.496,0.222 -0.496,0.495 v 5.095 c 0,0.273 -0.221,0.495 -0.495,0.495 h -1.527 c -0.274,0 -0.496,0.222 -0.496,0.496 v 10.821 c 0,0.733 0.595,1.327 1.328,1.327 h 41.022 1.785 41.022 c 0.733,0 1.328,-0.594 1.328,-1.327 V 0.197 c 0,-0.274 -0.222,-0.496 -0.496,-0.496 H -8.68 c -0.274,0 -0.496,-0.222 -0.496,-0.495 v -5.095 c 0,-0.273 -0.222,-0.495 -0.495,-0.495 h -1.122 c -0.274,0 -0.496,-0.222 -0.496,-0.496 v -1.465 c 0,-0.274 -0.222,-0.496 -0.495,-0.496 z m -3.55,-4.74 c -0.003,-0.015 -0.006,-0.029 -0.01,-0.044 -0.107,-0.369 -0.422,-0.137 -0.688,-0.085 -0.258,0.05 -0.534,0.026 -0.796,0.026 h -3.696 -6.97 -0.675 c -0.273,0 -0.495,0.222 -0.495,0.496 v 0.993 c 0,0.315 0.012,0.633 0,0.948 -0.008,0.202 -0.052,0.421 0.158,0.544 0.092,0.053 0.232,0.106 0.335,0.13 0.248,0.061 0.59,-0.064 0.804,0.07 -0.143,0.279 -0.3,0.288 -0.583,0.318 -0.776,0.084 -0.714,0.653 -0.714,1.281 0,0.274 0.222,0.496 0.495,0.496 h 13.37 c 0.274,0 0.495,-0.222 0.495,-0.496 0,-0.631 0.175,-1.972 -0.408,-2.419 -0.407,-0.313 -0.935,-0.474 -1.37,-0.739 -0.204,-0.124 -0.433,-0.14 -0.618,-0.239 -0.051,-0.027 -0.104,-0.049 -0.14,-0.105 0.308,-0.145 0.667,-0.132 0.972,-0.278 0.291,-0.14 0.601,-0.549 0.534,-0.897 m -3.424,-6.038 h -5.451 c -0.274,0 -0.496,0.221 -0.496,0.495 0,0.333 0.018,0.567 0.324,0.756 0.273,0.169 0.623,0.23 0.94,0.244 0.267,0.012 0.649,-0.052 0.889,0.092 -0.46,-0.016 -0.907,0.091 -1.35,0.191 -0.182,0.04 -0.325,0.032 -0.488,0.123 -0.443,0.247 -0.315,1.081 -0.315,1.514 0,0.274 0.222,0.496 0.496,0.496 h 5.451 c 0.273,0 0.495,-0.222 0.495,-0.496 v -2.92 c 0,-0.274 -0.222,-0.495 -0.495,-0.495 m -8.13,17.138 c 0,0.273 0.221,0.495 0.495,0.495 h 0.336 c 1.34,0 2.666,-0.005 4.003,-0.045 1.718,-0.051 3.429,0.045 5.143,0.045 h 0.336 c 0.274,0 0.496,-0.222 0.496,-0.495 0,-0.503 0.053,-1.036 -0.349,-1.417 -0.237,-0.225 -0.635,-0.238 -0.934,-0.306 -0.418,-0.095 -0.875,-0.149 -1.297,-0.178 0.235,-0.201 0.964,-0.145 1.267,-0.151 0.268,-0.006 0.551,-0.004 0.817,-0.036 0.104,-0.013 0.21,-0.036 0.293,-0.104 0.25,-0.205 0.148,-0.702 0.206,-0.994 0.066,-0.332 -0.113,-0.717 -0.499,-0.717 -1.194,0 -2.388,-0.021 -3.582,-0.033 -1.174,-0.012 -2.344,0.033 -3.517,0.033 h -2.719 c -0.274,0 -0.495,0.222 -0.495,0.495 0,0.191 -0.099,0.521 -0.047,0.69 0.156,0.508 0.999,0.294 1.345,0.315 0.339,0.021 0.863,0.035 1.096,0.328 -0.527,0.068 -1.095,0.146 -1.593,0.36 -0.304,0.13 -0.513,0.39 -0.666,0.675 -0.18,0.333 -0.135,0.668 -0.135,1.04 m 3.846,20.012 h 3.116 c 0.734,0 1.328,-0.594 1.328,-1.327 0,-0.487 -0.061,-0.84 -0.371,-1.219 -0.084,-0.102 -0.994,-0.635 -0.966,-0.698 0.236,-0.537 1.129,-0.463 1.326,-1.071 0.159,-0.488 0.011,-1.038 0.011,-1.537 V 9.745 5.683 c 0,-0.637 -0.072,-1.127 -0.32,-1.718 -0.078,-0.186 -0.373,-0.403 -0.378,-0.595 -0.007,-0.313 0.287,-0.23 0.462,-0.348 0.263,-0.176 0.236,-0.774 0.236,-1.06 10e-4,-0.588 0,-1.177 0,-1.765 0,-0.274 -0.222,-0.496 -0.495,-0.496 h -4.782 c -0.273,0 -0.495,0.222 -0.495,0.496 v 1.941 2.025 c 0,0.677 -0.028,1.333 0.243,1.962 0.122,0.284 0.358,0.613 0.54,0.855 0.164,0.219 0.409,0.392 0.37,0.698 -0.259,0.133 -0.543,0.178 -0.752,0.39 -0.25,0.252 -0.273,0.756 -0.358,1.083 -0.115,0.441 -0.043,0.97 -0.043,1.427 v 2.857 2.769 c 0,0.733 0.594,1.327 1.328,1.327 m -5.127,4.938 h 13.37 c 0.452,0 0.671,-0.618 0.373,-0.931 -0.264,-0.279 -0.755,-0.247 -1.107,-0.282 -0.605,-0.06 -1.218,-0.044 -1.824,-0.071 -0.233,-0.01 -0.454,0.011 -0.681,-0.045 -0.255,-0.063 -0.646,-0.045 -0.861,-0.18 1.201,-0.068 2.4,-0.01 3.597,-0.151 0.02,-0.003 0.041,-0.005 0.061,-0.007 0.416,-0.047 0.866,-0.092 0.86,-0.594 -0.004,-0.361 0.005,-0.616 -0.429,-0.652 -0.187,-0.016 -0.383,0 -0.571,0 h -3.087 -4.282 -3.793 -1.626 c -0.273,0 -0.495,0.221 -0.495,0.495 0,0.331 -0.046,0.744 0.13,1.042 0.188,0.318 0.645,0.436 0.988,0.447 -0.275,0.147 -0.65,0.058 -0.881,0.277 -0.272,0.257 -0.122,0.652 0.258,0.652 m 54.5,-1 h 38.116 c 0.273,0 0.495,-0.221 0.495,-0.495 0,-0.274 -0.222,-0.495 -0.495,-0.495 h -37.606 -1.02 -37.605 c -0.274,0 -0.495,0.221 -0.495,0.495 0,0.274 0.221,0.495 0.495,0.495 z m 41.204,0.864 c 0.164,0.086 0.383,0.135 0.513,0.136 0.218,0.004 0.436,0 0.654,0 h 1.842 4.763 4.196 1.328 c 0.274,0 0.496,-0.221 0.496,-0.495 0,-0.299 0.03,-0.571 -0.132,-0.837 C 4.788,20.85 4.459,20.598 4.107,20.623 4.382,20.634 4.837,20.656 5.042,20.432 5.316,20.133 4.975,19.556 4.6,19.556 H -8.769 c -0.513,0 -0.555,0.548 -0.374,0.902 0.191,0.373 0.634,0.602 1.006,0.751 0.437,0.176 0.998,0.306 1.473,0.293 -0.412,-0.017 -0.937,0.013 -1.345,0.109 -0.234,0.055 -0.619,0.079 -0.795,0.25 -0.211,0.205 -0.091,0.367 0.108,0.472 m 2.039,-6.129 c 0,-0.734 -0.595,-1.328 -1.328,-1.328 h -83.829 c -0.449,0 -1.54,0.532 -1.189,1.134 0.245,0.418 0.9,0.189 1.247,0.436 -0.245,0.181 -0.642,0.049 -0.785,0.368 -0.229,0.507 0.326,0.717 0.727,0.717 h 2.808 c 0.274,0 0.496,0.222 0.496,0.496 v 0.269 c 0,0.274 0.221,0.496 0.495,0.496 h 37.605 1.02 37.606 c 0.273,0 0.495,-0.222 0.495,-0.496 v -0.269 c 0,-0.274 0.222,-0.496 0.496,-0.496 h 2.808 c 0.733,0 1.328,-0.594 1.328,-1.327 M 7.12,18.027 v 5.971 c 0,0.274 -0.222,0.496 -0.495,0.496 h -17.418 c -0.274,0 -0.496,-0.222 -0.496,-0.496 v -0.346 c 0,-0.274 -0.222,-0.496 -0.495,-0.496 H -49.9 -88.015 c -0.274,0 -0.495,0.222 -0.495,0.496 v 0.346 c 0,0.274 -0.222,0.496 -0.496,0.496 h -17.418 c -0.274,0 -0.495,-0.222 -0.495,-0.496 v -5.971 c 0,-0.274 0.221,-0.496 0.495,-0.496 h 2.808 c 0.734,0 1.328,-0.594 1.328,-1.327 V 0.197 c 0,-0.274 -0.222,-0.496 -0.495,-0.496 h -1.528 c -0.273,0 -0.495,-0.222 -0.495,-0.495 v -5.095 c 0,-0.273 -0.222,-0.495 -0.496,-0.495 h -1.122 c -0.274,0 -0.495,-0.222 -0.495,-0.496 v -8.333 c 0,-0.273 0.221,-0.495 0.495,-0.495 h 3.306 c 0.274,0 0.495,-0.222 0.495,-0.496 v -4.607 c 0,-0.273 0.222,-0.495 0.496,-0.495 h 8.824 c 0.274,0 0.496,0.222 0.496,0.495 v 4.607 c 0,0.274 0.222,0.496 0.495,0.496 h 3.306 c 0.274,0 0.496,0.222 0.496,0.495 v 3.347 c 0,0.273 0.221,0.495 0.495,0.495 h 76.231 c 0.273,0 0.495,-0.222 0.495,-0.495 v -3.347 c 0,-0.273 0.222,-0.495 0.496,-0.495 h 3.305 c 0.274,0 0.496,-0.222 0.496,-0.496 v -4.607 c 0,-0.273 0.222,-0.495 0.495,-0.495 h 8.825 c 0.273,0 0.495,0.222 0.495,0.495 v 4.607 c 0,0.274 0.222,0.496 0.496,0.496 h 3.306 c 0.273,0 0.495,0.222 0.495,0.495 v 8.333 c 0,0.274 -0.222,0.496 -0.495,0.496 H 5.502 c -0.273,0 -0.495,0.222 -0.495,0.495 v 5.095 c 0,0.273 -0.222,0.495 -0.496,0.495 H 2.984 c -0.274,0 -0.495,0.222 -0.495,0.496 v 16.007 c 0,0.733 0.594,1.327 1.327,1.327 h 2.809 c 0.273,0 0.495,0.222 0.495,0.496"
               style="fill:#0b1627;fill-opacity:1;fill-rule:nonzero;stroke:none"
               id="path22848" />
          </g>
        </g>
      </g>
    </g>
  </g>
</svg>
