<?xml version="1.0" encoding="UTF-8" standalone="no"?>
<!-- Created with Inkscape (http://www.inkscape.org/) -->

<svg
   width="40.230431mm"
   height="26.36598mm"
   viewBox="0 0 40.230431 26.36598"
   version="1.1"
   id="svg23295"
   xmlns:inkscape="http://www.inkscape.org/namespaces/inkscape"
   xmlns:sodipodi="http://sodipodi.sourceforge.net/DTD/sodipodi-0.dtd"
   xmlns="http://www.w3.org/2000/svg"
   xmlns:svg="http://www.w3.org/2000/svg">
  <sodipodi:namedview
     id="namedview23297"
     pagecolor="#505050"
     bordercolor="#eeeeee"
     borderopacity="1"
     inkscape:showpageshadow="0"
     inkscape:pageopacity="0"
     inkscape:pagecheckerboard="0"
     inkscape:deskcolor="#505050"
     inkscape:document-units="mm"
     showgrid="false" />
  <defs
     id="defs23292" />
  <g
     inkscape:label="Layer 1"
     inkscape:groupmode="layer"
     id="layer1"
     transform="translate(-86.598185,-24.645013)">
    <g
       id="g23208"
       style="display:inline"
       inkscape:label="logo"
       transform="matrix(0.35277777,0,0,-0.35277777,-65.610572,1292.1941)"
       inkscape:export-filename="logo.svg"
       inkscape:export-xdpi="96"
       inkscape:export-ydpi="96">
      <g
         id="g22846"
         transform="translate(538.3769,3539.6204)">
        <path
           d="m 0,0 c -0.286,-0.293 -0.644,-0.299 -1.07,-0.299 h -1.51 -1.895 c -0.274,0 -0.496,0.222 -0.496,0.496 0,0.469 -0.051,0.903 0.091,1.353 0.075,0.24 0.248,0.458 0.4,0.657 0.177,0.23 0.409,0.267 0.644,0.413 -0.414,0.11 -0.566,0.402 -0.77,0.748 -0.134,0.228 -0.274,0.462 -0.341,0.721 -0.064,0.249 -0.024,0.505 -0.024,0.759 0,0.595 0,1.189 0,1.783 0,0.488 0.001,0.975 0.001,1.463 0,0.383 -0.082,0.759 -0.061,1.142 0.035,0.629 0.301,1.327 0.581,1.889 0.088,0.176 0.264,0.359 0.407,0.498 0.131,0.128 0.53,0.259 0.56,0.412 -0.561,0.202 -0.95,0.446 -1.217,0.988 -0.34,0.691 -0.271,1.331 -0.271,2.069 0,0.371 0,0.741 0,1.112 0,0.733 0.595,1.327 1.328,1.327 h 3.117 c 0.733,0 1.328,-0.594 1.328,-1.327 0,-0.244 -0.018,-0.497 -0.109,-0.728 -0.02,-0.05 -0.361,-0.515 -0.415,-0.419 0.097,-0.173 0.275,-0.29 0.364,-0.485 0.089,-0.193 0.049,-0.411 0.096,-0.614 0.043,-0.185 0.063,-0.342 0.064,-0.535 0,-0.521 0,-1.043 0,-1.565 V 9.764 C 0.802,9.194 0.68,8.575 0.24,8.169 0.022,7.969 -0.35,7.806 -0.63,7.712 -0.836,7.642 -1.078,7.642 -1.27,7.527 -1.228,7.381 -0.944,7.383 -0.825,7.344 -0.537,7.249 -0.283,7.013 -0.06,6.815 0.338,6.461 0.5,5.936 0.601,5.43 0.711,4.876 0.802,4.335 0.802,3.771 0.802,3.235 0.84,2.68 0.779,2.148 0.724,1.665 0.51,1.239 0.403,0.769 0.352,0.546 0.245,0.325 0.114,0.139 0.077,0.086 0.039,0.041 0,0 m 3.32,-2.481 c 0,-0.413 0.053,-0.716 -0.313,-1 C 2.513,-3.864 1.779,-3.99 1.17,-3.971 1.451,-3.97 1.727,-3.996 2.007,-4.02 c 0.29,-0.024 0.579,-0.01 0.81,-0.206 0.265,-0.223 0.527,-0.591 0.542,-0.95 0.01,-0.23 -0.039,-0.475 -0.039,-0.713 0,-0.273 -0.222,-0.495 -0.495,-0.495 h -9.818 c -0.477,0 -0.603,0.599 -0.505,0.973 0.051,0.195 0.176,0.463 0.357,0.56 0.047,0.026 0.636,0.164 0.637,0.163 -0.12,0.146 -0.328,0.224 -0.456,0.385 -0.113,0.139 -0.194,0.296 -0.273,0.456 -0.233,0.471 -0.256,0.848 -0.256,1.366 0,0.273 0.222,0.495 0.496,0.495 h 0.336 9.146 0.336 c 0.273,0 0.495,-0.222 0.495,-0.495 M 4.6,-13.684 H -8.769 c -0.901,0 -0.453,1.774 -0.017,2.085 0.467,0.335 1.055,0.427 1.609,0.502 0.509,0.068 1.053,0.045 1.553,0.14 -0.165,0.012 -0.33,0.064 -0.493,0.096 -0.433,0.084 -0.876,0.121 -1.305,0.22 -0.332,0.076 -0.649,0.209 -0.951,0.365 -0.276,0.143 -0.421,0.333 -0.518,0.624 -0.104,0.31 -0.526,0.817 -0.203,1.132 0.098,0.097 0.242,0.105 0.367,0.112 0.175,0.009 0.354,0 0.529,0 h 3.077 4.278 3.8 1.643 c 0.558,0 0.572,-0.574 0.233,-0.867 C 4.55,-9.52 4.239,-9.576 3.89,-9.68 c 0.29,-0.201 0.658,-0.251 0.947,-0.481 0.233,-0.185 0.193,-0.311 0.158,-0.57 -0.025,-0.184 -0.04,-0.368 -0.187,-0.492 -0.148,-0.125 -0.687,-0.16 -0.726,-0.346 0.406,-0.136 0.824,-0.099 0.979,-0.582 0.101,-0.313 0.035,-0.71 0.035,-1.038 0,-0.273 -0.222,-0.495 -0.496,-0.495 m -3.959,-5.935 h -1.974 -2.342 c -0.276,0 -0.552,0.001 -0.828,0 -0.129,-0.001 -0.294,-0.043 -0.411,0.01 -0.216,0.098 -0.317,0.42 -0.308,0.634 0.007,0.169 0.05,0.338 0.147,0.48 0.107,0.156 0.298,0.225 0.401,0.36 -0.198,0.023 -0.516,0.323 -0.551,0.521 -0.026,0.156 0.051,0.31 0.139,0.423 0.132,0.171 0.257,0.103 0.411,0.19 -0.53,0.191 -0.25,0.855 0.05,1.121 0.311,0.276 0.826,0.172 1.218,0.172 h 4.048 c 0.236,0 0.548,-0.238 0.583,-0.482 0.042,-0.283 -0.303,-0.461 -0.444,-0.663 -0.377,-0.545 -1.216,-0.708 -1.846,-0.688 0.325,-0.001 0.625,-0.009 0.946,-0.059 0.326,-0.05 0.768,-0.015 1.035,-0.216 0.227,-0.171 0.142,-0.482 0.179,-0.723 0.03,-0.197 0.042,-0.383 0.042,-0.585 0,-0.274 -0.222,-0.495 -0.495,-0.495 m -88.656,10.778 c -0.274,0 -0.495,0.222 -0.495,0.496 v 1.465 c 0,0.274 -0.222,0.496 -0.496,0.496 h -1.122 c -0.274,0 -0.496,0.222 -0.496,0.495 v 5.095 c 0,0.273 -0.221,0.495 -0.495,0.495 h -1.527 c -0.274,0 -0.496,0.222 -0.496,0.496 v 10.821 c 0,0.733 0.595,1.327 1.328,1.327 h 41.022 1.785 41.022 c 0.733,0 1.328,-0.594 1.328,-1.327 V 0.197 c 0,-0.274 -0.222,-0.496 -0.496,-0.496 H -8.68 c -0.274,0 -0.496,-0.222 -0.496,-0.495 v -5.095 c 0,-0.273 -0.222,-0.495 -0.495,-0.495 h -1.122 c -0.274,0 -0.496,-0.222 -0.496,-0.496 v -1.465 c 0,-0.274 -0.222,-0.496 -0.495,-0.496 z m -3.55,-4.74 c -0.003,-0.015 -0.006,-0.029 -0.01,-0.044 -0.107,-0.369 -0.422,-0.137 -0.688,-0.085 -0.258,0.05 -0.534,0.026 -0.796,0.026 h -3.696 -6.97 -0.675 c -0.273,0 -0.495,0.222 -0.495,0.496 v 0.993 c 0,0.315 0.012,0.633 0,0.948 -0.008,0.202 -0.052,0.421 0.158,0.544 0.092,0.053 0.232,0.106 0.335,0.13 0.248,0.061 0.59,-0.064 0.804,0.07 -0.143,0.279 -0.3,0.288 -0.583,0.318 -0.776,0.084 -0.714,0.653 -0.714,1.281 0,0.274 0.222,0.496 0.495,0.496 h 13.37 c 0.274,0 0.495,-0.222 0.495,-0.496 0,-0.631 0.175,-1.972 -0.408,-2.419 -0.407,-0.313 -0.935,-0.474 -1.37,-0.739 -0.204,-0.124 -0.433,-0.14 -0.618,-0.239 -0.051,-0.027 -0.104,-0.049 -0.14,-0.105 0.308,-0.145 0.667,-0.132 0.972,-0.278 0.291,-0.14 0.601,-0.549 0.534,-0.897 m -3.424,-6.038 h -5.451 c -0.274,0 -0.496,0.221 -0.496,0.495 0,0.333 0.018,0.567 0.324,0.756 0.273,0.169 0.623,0.23 0.94,0.244 0.267,0.012 0.649,-0.052 0.889,0.092 -0.46,-0.016 -0.907,0.091 -1.35,0.191 -0.182,0.04 -0.325,0.032 -0.488,0.123 -0.443,0.247 -0.315,1.081 -0.315,1.514 0,0.274 0.222,0.496 0.496,0.496 h 5.451 c 0.273,0 0.495,-0.222 0.495,-0.496 v -2.92 c 0,-0.274 -0.222,-0.495 -0.495,-0.495 m -8.13,17.138 c 0,0.273 0.221,0.495 0.495,0.495 h 0.336 c 1.34,0 2.666,-0.005 4.003,-0.045 1.718,-0.051 3.429,0.045 5.143,0.045 h 0.336 c 0.274,0 0.496,-0.222 0.496,-0.495 0,-0.503 0.053,-1.036 -0.349,-1.417 -0.237,-0.225 -0.635,-0.238 -0.934,-0.306 -0.418,-0.095 -0.875,-0.149 -1.297,-0.178 0.235,-0.201 0.964,-0.145 1.267,-0.151 0.268,-0.006 0.551,-0.004 0.817,-0.036 0.104,-0.013 0.21,-0.036 0.293,-0.104 0.25,-0.205 0.148,-0.702 0.206,-0.994 0.066,-0.332 -0.113,-0.717 -0.499,-0.717 -1.194,0 -2.388,-0.021 -3.582,-0.033 -1.174,-0.012 -2.344,0.033 -3.517,0.033 h -2.719 c -0.274,0 -0.495,0.222 -0.495,0.495 0,0.191 -0.099,0.521 -0.047,0.69 0.156,0.508 0.999,0.294 1.345,0.315 0.339,0.021 0.863,0.035 1.096,0.328 -0.527,0.068 -1.095,0.146 -1.593,0.36 -0.304,0.13 -0.513,0.39 -0.666,0.675 -0.18,0.333 -0.135,0.668 -0.135,1.04 m 3.846,20.012 h 3.116 c 0.734,0 1.328,-0.594 1.328,-1.327 0,-0.487 -0.061,-0.84 -0.371,-1.219 -0.084,-0.102 -0.994,-0.635 -0.966,-0.698 0.236,-0.537 1.129,-0.463 1.326,-1.071 0.159,-0.488 0.011,-1.038 0.011,-1.537 V 9.745 5.683 c 0,-0.637 -0.072,-1.127 -0.32,-1.718 -0.078,-0.186 -0.373,-0.403 -0.378,-0.595 -0.007,-0.313 0.287,-0.23 0.462,-0.348 0.263,-0.176 0.236,-0.774 0.236,-1.06 10e-4,-0.588 0,-1.177 0,-1.765 0,-0.274 -0.222,-0.496 -0.495,-0.496 h -4.782 c -0.273,0 -0.495,0.222 -0.495,0.496 v 1.941 2.025 c 0,0.677 -0.028,1.333 0.243,1.962 0.122,0.284 0.358,0.613 0.54,0.855 0.164,0.219 0.409,0.392 0.37,0.698 -0.259,0.133 -0.543,0.178 -0.752,0.39 -0.25,0.252 -0.273,0.756 -0.358,1.083 -0.115,0.441 -0.043,0.97 -0.043,1.427 v 2.857 2.769 c 0,0.733 0.594,1.327 1.328,1.327 m -5.127,4.938 h 13.37 c 0.452,0 0.671,-0.618 0.373,-0.931 -0.264,-0.279 -0.755,-0.247 -1.107,-0.282 -0.605,-0.06 -1.218,-0.044 -1.824,-0.071 -0.233,-0.01 -0.454,0.011 -0.681,-0.045 -0.255,-0.063 -0.646,-0.045 -0.861,-0.18 1.201,-0.068 2.4,-0.01 3.597,-0.151 0.02,-0.003 0.041,-0.005 0.061,-0.007 0.416,-0.047 0.866,-0.092 0.86,-0.594 -0.004,-0.361 0.005,-0.616 -0.429,-0.652 -0.187,-0.016 -0.383,0 -0.571,0 h -3.087 -4.282 -3.793 -1.626 c -0.273,0 -0.495,0.221 -0.495,0.495 0,0.331 -0.046,0.744 0.13,1.042 0.188,0.318 0.645,0.436 0.988,0.447 -0.275,0.147 -0.65,0.058 -0.881,0.277 -0.272,0.257 -0.122,0.652 0.258,0.652 m 54.5,-1 h 38.116 c 0.273,0 0.495,-0.221 0.495,-0.495 0,-0.274 -0.222,-0.495 -0.495,-0.495 h -37.606 -1.02 -37.605 c -0.274,0 -0.495,0.221 -0.495,0.495 0,0.274 0.221,0.495 0.495,0.495 z m 41.204,0.864 c 0.164,0.086 0.383,0.135 0.513,0.136 0.218,0.004 0.436,0 0.654,0 h 1.842 4.763 4.196 1.328 c 0.274,0 0.496,-0.221 0.496,-0.495 0,-0.299 0.03,-0.571 -0.132,-0.837 C 4.788,20.85 4.459,20.598 4.107,20.623 4.382,20.634 4.837,20.656 5.042,20.432 5.316,20.133 4.975,19.556 4.6,19.556 H -8.769 c -0.513,0 -0.555,0.548 -0.374,0.902 0.191,0.373 0.634,0.602 1.006,0.751 0.437,0.176 0.998,0.306 1.473,0.293 -0.412,-0.017 -0.937,0.013 -1.345,0.109 -0.234,0.055 -0.619,0.079 -0.795,0.25 -0.211,0.205 -0.091,0.367 0.108,0.472 m 2.039,-6.129 c 0,-0.734 -0.595,-1.328 -1.328,-1.328 h -83.829 c -0.449,0 -1.54,0.532 -1.189,1.134 0.245,0.418 0.9,0.189 1.247,0.436 -0.245,0.181 -0.642,0.049 -0.785,0.368 -0.229,0.507 0.326,0.717 0.727,0.717 h 2.808 c 0.274,0 0.496,0.222 0.496,0.496 v 0.269 c 0,0.274 0.221,0.496 0.495,0.496 h 37.605 1.02 37.606 c 0.273,0 0.495,-0.222 0.495,-0.496 v -0.269 c 0,-0.274 0.222,-0.496 0.496,-0.496 h 2.808 c 0.733,0 1.328,-0.594 1.328,-1.327 M 7.12,18.027 v 5.971 c 0,0.274 -0.222,0.496 -0.495,0.496 h -17.418 c -0.274,0 -0.496,-0.222 -0.496,-0.496 v -0.346 c 0,-0.274 -0.222,-0.496 -0.495,-0.496 H -49.9 -88.015 c -0.274,0 -0.495,0.222 -0.495,0.496 v 0.346 c 0,0.274 -0.222,0.496 -0.496,0.496 h -17.418 c -0.274,0 -0.495,-0.222 -0.495,-0.496 v -5.971 c 0,-0.274 0.221,-0.496 0.495,-0.496 h 2.808 c 0.734,0 1.328,-0.594 1.328,-1.327 V 0.197 c 0,-0.274 -0.222,-0.496 -0.495,-0.496 h -1.528 c -0.273,0 -0.495,-0.222 -0.495,-0.495 v -5.095 c 0,-0.273 -0.222,-0.495 -0.496,-0.495 h -1.122 c -0.274,0 -0.495,-0.222 -0.495,-0.496 v -8.333 c 0,-0.273 0.221,-0.495 0.495,-0.495 h 3.306 c 0.274,0 0.495,-0.222 0.495,-0.496 v -4.607 c 0,-0.273 0.222,-0.495 0.496,-0.495 h 8.824 c 0.274,0 0.496,0.222 0.496,0.495 v 4.607 c 0,0.274 0.222,0.496 0.495,0.496 h 3.306 c 0.274,0 0.496,0.222 0.496,0.495 v 3.347 c 0,0.273 0.221,0.495 0.495,0.495 h 76.231 c 0.273,0 0.495,-0.222 0.495,-0.495 v -3.347 c 0,-0.273 0.222,-0.495 0.496,-0.495 h 3.305 c 0.274,0 0.496,-0.222 0.496,-0.496 v -4.607 c 0,-0.273 0.222,-0.495 0.495,-0.495 h 8.825 c 0.273,0 0.495,0.222 0.495,0.495 v 4.607 c 0,0.274 0.222,0.496 0.496,0.496 h 3.306 c 0.273,0 0.495,0.222 0.495,0.495 v 8.333 c 0,0.274 -0.222,0.496 -0.495,0.496 H 5.502 c -0.273,0 -0.495,0.222 -0.495,0.495 v 5.095 c 0,0.273 -0.222,0.495 -0.496,0.495 H 2.984 c -0.274,0 -0.495,0.222 -0.495,0.496 v 16.007 c 0,0.733 0.594,1.327 1.327,1.327 h 2.809 c 0.273,0 0.495,0.222 0.495,0.496"
           style="fill:#0b1627;fill-opacity:1;fill-rule:nonzero;stroke:none"
           id="path22848" />
      </g>
      <g
         id="g22850"
         transform="translate(463.2207,3537.8347)">
        <path
           d="M 0,0 0.012,-0.198 0.062,-0.583 0.074,-0.769 0.062,-0.868 0.05,-1.004 -0.012,-1.103 -0.087,-1.165 -0.223,-1.19 -0.409,-1.202 h -0.198 l -0.496,0.037 -0.211,0.012 h -0.31 l -0.223,0.013 -0.458,0.062 -0.087,0.024 -0.05,0.062 -0.012,0.124 -0.013,0.174 -0.012,0.186 0.025,0.421 v 1.165 l -0.037,0.781 v 0.198 l 0.049,0.769 v 0.967 l -0.025,0.148 -0.074,0.05 H -2.615 L -2.702,3.879 -2.826,3.706 -3.346,3.111 -4.103,2.206 -4.598,1.586 -4.71,1.487 -4.797,1.45 H -4.896 L -5.032,1.475 -5.181,1.512 -5.317,1.611 -5.937,2.355 -6.396,2.962 -6.519,3.111 -7.164,3.83 -7.325,3.991 -7.399,3.966 -7.424,3.83 -7.461,3.049 V 2.851 L -7.412,2.07 V 1.872 L -7.387,1.091 V 0.892 L -7.399,0.124 v -0.186 l 0.012,-0.372 -0.012,-0.198 -0.013,-0.211 -0.025,-0.161 -0.049,-0.074 -0.087,-0.025 -0.322,-0.037 -0.199,-0.013 -0.483,0.038 -0.198,-0.013 -0.595,-0.049 h -0.285 l -0.149,0.024 -0.074,0.075 -0.025,0.086 -0.025,0.124 v 0.285 l 0.025,0.385 V 1.71 l -0.025,0.657 v 0.199 l 0.012,0.657 -0.012,0.198 -0.037,0.669 v 0.198 l 0.037,0.657 0.012,0.199 -0.049,0.657 0.012,0.198 0.05,0.657 v 0.198 l -0.05,0.459 v 0.198 l 0.025,0.161 0.05,0.087 0.074,0.062 0.099,0.025 0.161,0.012 0.211,-0.025 0.273,-0.062 h 0.198 l 0.384,0.037 0.211,0.025 0.186,0.013 0.471,-0.013 h 0.161 L -7.313,7.771 -7.189,7.635 -6.755,7.152 -6.631,6.99 -6.272,6.482 -6.148,6.321 -5.739,5.838 -5.615,5.664 -5.23,5.181 -5.106,5.044 -4.995,4.982 h 0.124 l 0.112,0.062 0.111,0.124 0.372,0.496 0.124,0.174 0.397,0.483 0.123,0.161 0.434,0.484 0.124,0.161 0.322,0.396 0.1,0.137 0.099,0.099 0.124,0.062 0.161,-0.013 0.657,-0.037 0.582,-0.012 H -0.83 L -0.459,7.784 -0.248,7.771 -0.099,7.746 -0.012,7.722 0.062,7.66 0.087,7.561 0.074,7.412 0.025,6.854 0.012,6.656 0.037,5.999 V 5.801 L 0.025,5.144 V 4.945 L 0.037,4.288 V 4.09 L 0.087,3.421 V 3.223 L 0.037,2.566 V 2.367 L 0.074,1.71 V 1.512 L 0.025,0.855 V 0.657 Z"
           style="fill:#0b1627;fill-opacity:1;fill-rule:nonzero;stroke:none"
           id="path22852" />
      </g>
      <g
         id="g22854"
         transform="translate(472.2426,3537.8718)">
        <path
           d="m 0,0 -0.012,-0.198 -0.05,-0.67 -0.012,-0.123 -0.05,-0.087 -0.062,-0.05 -1.624,-0.049 h -0.198 l -0.657,0.049 -0.198,-0.012 -0.645,-0.05 -0.198,-0.012 h -0.855 l -0.645,0.049 h -0.198 l -1.066,-0.062 -0.421,0.025 -0.149,0.025 -0.087,0.062 -0.037,0.087 -0.025,0.136 -0.025,0.285 -0.012,0.198 0.012,0.186 v 0.186 l 0.05,0.657 V 0.83 l 0.012,0.657 -0.012,0.199 -0.037,0.657 -0.013,0.198 0.025,0.669 v 1.054 l 0.05,0.657 -0.013,0.198 -0.037,0.657 -0.012,0.198 v 0.298 l 0.025,0.372 v 0.185 l 0.037,0.645 0.012,0.173 0.037,0.1 0.062,0.049 0.1,0.013 0.161,0.024 0.805,-0.049 0.756,0.012 h 0.199 l 0.743,-0.049 h 0.199 l 0.743,0.049 h 0.199 l 1.685,-0.025 0.211,0.013 0.421,0.037 h 0.31 L -0.322,7.784 -0.248,7.722 -0.223,7.635 -0.198,7.474 V 7.139 L -0.223,6.829 V 6.619 L -0.211,6.309 -0.198,6.123 -0.211,5.937 -0.235,5.788 -0.285,5.701 -0.347,5.652 -0.496,5.627 H -0.595 L -0.793,5.615 -1.958,5.639 H -2.157 L -2.789,5.615 H -2.987 L -3.632,5.639 -4.189,5.677 H -4.375 L -4.474,5.664 -4.598,5.639 -4.66,5.578 -4.673,5.503 -4.697,5.367 -4.722,5.069 V 4.871 L -4.71,4.66 -4.697,4.524 -4.673,4.437 -4.623,4.375 -4.487,4.338 -4.09,4.313 -3.693,4.338 h 1.177 L -1.128,4.413 -0.744,4.388 -0.607,4.363 -0.533,4.301 -0.496,4.227 -0.483,4.09 -0.458,3.88 -0.446,3.669 V 3.26 L -0.421,2.975 -0.446,2.603 -0.471,2.454 -0.52,2.367 -0.607,2.305 -0.731,2.281 H -0.979 L -1.537,2.343 -1.735,2.355 -2.727,2.293 -3.52,2.318 H -3.718 L -4.214,2.355 -4.425,2.343 -4.573,2.33 -4.635,2.293 -4.673,2.206 -4.685,2.02 -4.722,1.71 -4.735,1.512 V 1.24 l 0.013,-0.125 0.037,-0.086 0.05,-0.05 0.136,-0.012 0.681,-0.025 h 0.199 l 0.669,0.049 0.88,-0.049 h 0.199 l 0.88,0.049 h 0.185 L -0.62,0.979 -0.174,0.93 -0.099,0.892 -0.049,0.818 -0.037,0.682 Z"
           style="fill:#0b1627;fill-opacity:1;fill-rule:nonzero;stroke:none"
           id="path22856" />
      </g>
      <g
         id="g22858"
         transform="translate(480.856,3544.6765)">
        <path
           d="M 0,0 -0.012,-0.186 0,-0.558 -0.012,-0.756 -0.025,-0.855 -0.05,-1.004 -0.087,-1.091 -0.161,-1.153 -0.31,-1.177 h -0.198 l -0.372,0.037 -0.199,0.012 -0.57,-0.037 h -0.198 l -0.31,0.025 h -0.186 l -0.087,-0.013 -0.123,-0.037 -0.05,-0.074 -0.012,-0.162 -0.05,-0.731 v -0.198 l 0.05,-0.744 -0.013,-0.198 -0.049,-0.744 -0.013,-0.198 0.025,-0.731 v -1.141 l -0.025,-0.731 0.013,-0.186 0.062,-0.557 0.012,-0.199 -0.037,-0.149 -0.062,-0.062 -0.161,-0.024 -0.236,0.012 -0.309,0.037 -0.211,0.013 -0.558,-0.038 h -0.198 l -0.558,0.038 -0.149,0.012 -0.074,0.037 -0.025,0.137 v 0.21 l 0.037,0.521 0.013,0.198 v 0.93 l 0.012,0.744 v 0.198 l 0.012,0.731 v 0.198 l -0.049,0.744 -0.013,0.198 v 0.942 l -0.024,0.731 v 0.174 l -0.037,0.099 -0.125,0.025 H -5.54 L -5.937,-1.153 H -6.16 l -0.335,0.025 -0.211,0.012 -0.21,-0.012 -0.285,-0.012 h -0.186 l -0.099,0.012 -0.137,0.025 -0.074,0.049 -0.05,0.075 -0.024,0.124 v 0.086 l -0.013,0.199 0.025,0.372 v 0.186 l -0.037,0.47 0.012,0.199 0.037,0.161 0.05,0.087 0.074,0.037 0.124,0.025 h 0.285 l 0.459,-0.038 h 0.198 l 0.719,0.05 h 0.198 l 0.732,-0.062 h 0.198 l 0.917,0.062 0.719,-0.012 h 0.198 l 0.93,0.012 h 0.917 L -0.62,1.004 -0.409,0.991 -0.31,0.979 -0.161,0.954 -0.074,0.905 -0.012,0.818 0.012,0.669 V 0.583 L 0.025,0.396 Z"
           style="fill:#0b1627;fill-opacity:1;fill-rule:nonzero;stroke:none"
           id="path22860" />
      </g>
      <g
         id="g22862"
         transform="translate(485.9491,3540.5615)">
        <path
           d="M 0,0 -0.049,0.161 -0.322,1.004 -0.384,1.19 -0.632,1.921 -0.694,2.082 -0.818,2.169 -0.979,2.206 -1.116,2.169 -1.239,2.045 -1.574,1.202 -1.648,1.016 -1.971,0.186 -2.008,0 l 0.037,-0.149 0.137,-0.062 0.173,-0.025 h 0.781 l 0.583,-0.037 0.161,0.05 0.099,0.099 z M 4.14,-3.495 4.177,-3.669 4.09,-3.805 3.954,-3.867 3.793,-3.892 H 3.619 L 3.334,-3.867 3.148,-3.855 H 2.59 L 1.822,-3.904 1.661,-3.842 1.586,-3.756 1.525,-3.619 1.14,-2.578 1.054,-2.454 0.942,-2.429 0.793,-2.417 0.05,-2.367 h -0.199 l -0.929,0.024 -0.744,0.013 h -0.186 l -0.186,-0.013 h -0.57 L -2.925,-2.367 -3.024,-2.429 -3.099,-2.578 -3.384,-3.421 -3.458,-3.619 -3.594,-3.781 -3.78,-3.842 h -0.199 l -0.719,0.037 h -0.198 l -0.768,-0.05 -0.161,-0.012 -0.149,0.074 -0.099,0.137 0.012,0.161 0.025,0.099 0.074,0.198 0.174,0.385 0.074,0.185 0.31,0.694 0.074,0.174 0.323,0.694 0.074,0.186 0.285,0.669 0.075,0.186 0.334,0.694 0.074,0.174 0.447,1.016 0.347,0.744 0.086,0.198 0.273,0.558 0.087,0.198 0.235,0.57 0.075,0.186 0.223,0.508 0.062,0.137 0.124,0.074 0.186,0.037 0.57,0.025 h 0.967 L 0.087,5.082 0.298,5.044 0.434,4.945 0.496,4.784 0.669,4.301 0.744,4.115 1.054,3.532 1.128,3.359 1.401,2.751 1.475,2.578 1.698,1.946 1.773,1.772 2.045,1.177 2.12,1.004 2.392,0.396 2.467,0.223 2.714,-0.397 2.789,-0.57 3.173,-1.339 3.471,-1.921 3.557,-2.095 3.892,-2.875 Z"
           style="fill:#0b1627;fill-opacity:1;fill-rule:nonzero;stroke:none"
           id="path22864" />
      </g>
      <g
         id="g22866"
         transform="translate(498.3176,3544.1929)">
        <path
           d="M 0,0 0.012,-0.198 0,-0.384 -0.012,-0.52 -0.05,-0.607 -0.124,-0.669 -0.26,-0.706 h -0.261 l -0.371,0.049 -0.199,0.013 h -0.805 l -1.413,-0.05 -0.558,0.037 H -4.14 l -0.124,-0.037 -0.049,-0.087 -0.013,-0.173 -0.024,-1.103 0.012,-0.137 0.012,-0.074 0.062,-0.05 0.149,-0.037 h 0.322 l 0.422,0.037 0.198,0.013 0.744,-0.025 h 0.942 l 0.186,0.012 0.471,0.038 h 0.297 l 0.136,-0.025 0.075,-0.062 0.049,-0.099 0.025,-0.149 0.012,-0.099 0.013,-0.186 -0.025,-0.372 v -0.186 l 0.012,-0.285 -0.012,-0.186 -0.012,-0.198 -0.025,-0.149 -0.037,-0.099 -0.062,-0.05 -0.149,-0.037 H -0.83 l -0.459,0.062 -0.198,0.013 -0.744,-0.025 h -0.198 l -1.339,0.025 -0.186,-0.013 -0.173,-0.025 -0.124,-0.037 -0.05,-0.074 v -0.161 l -0.012,-0.707 v -0.198 l -0.05,-0.694 v -0.199 l 0.013,-0.272 -0.013,-0.199 -0.012,-0.21 -0.013,-0.149 -0.037,-0.074 -0.074,-0.038 -0.137,-0.024 -0.21,-0.025 -0.199,-0.013 -0.458,0.013 h -0.198 l -0.509,-0.037 -0.371,0.024 -0.137,0.025 -0.074,0.05 -0.025,0.087 -0.012,0.136 -0.038,0.657 -0.012,0.198 -0.012,0.657 0.012,0.198 0.05,0.657 0.012,0.199 -0.037,0.656 v 0.199 l -0.037,0.669 v 0.198 l 0.024,0.657 v 1.054 l 0.025,0.657 v 1.053 l 0.025,0.657 0.012,0.149 0.025,0.087 0.075,0.037 0.124,0.025 h 0.272 l 0.471,-0.037 h 0.199 l 0.731,0.037 h 0.198 l 0.719,-0.037 h 0.198 l 0.732,0.037 0.198,0.012 0.731,-0.037 h 0.198 l 0.732,0.037 h 0.198 L -0.694,1.463 -0.496,1.45 -0.285,1.426 -0.149,1.413 -0.074,1.376 -0.025,1.302 -0.012,1.165 0,1.054 V 0.868 L -0.025,0.496 V 0.298 Z"
           style="fill:#0b1627;fill-opacity:1;fill-rule:nonzero;stroke:none"
           id="path22868" />
      </g>
      <g
         id="g22870"
         transform="translate(506.9928,3537.8718)">
        <path
           d="m 0,0 -0.012,-0.198 -0.05,-0.67 -0.012,-0.123 -0.05,-0.087 -0.062,-0.05 -1.624,-0.049 h -0.198 l -0.657,0.049 -0.198,-0.012 -0.645,-0.05 -0.198,-0.012 h -0.855 l -0.645,0.049 h -0.198 l -1.066,-0.062 -0.421,0.025 -0.149,0.025 -0.087,0.062 -0.037,0.087 -0.025,0.136 -0.025,0.285 -0.012,0.198 0.012,0.186 v 0.186 l 0.05,0.657 V 0.83 l 0.012,0.657 -0.012,0.199 -0.037,0.657 -0.013,0.198 0.025,0.669 v 1.054 l 0.05,0.657 -0.013,0.198 -0.037,0.657 -0.012,0.198 v 0.298 l 0.025,0.372 v 0.185 l 0.037,0.645 0.012,0.173 0.037,0.1 0.062,0.049 0.1,0.013 0.161,0.024 0.805,-0.049 0.756,0.012 h 0.199 l 0.743,-0.049 h 0.199 l 0.743,0.049 h 0.199 l 1.685,-0.025 0.211,0.013 0.421,0.037 h 0.31 L -0.322,7.784 -0.248,7.722 -0.223,7.635 -0.198,7.474 V 7.139 L -0.223,6.829 V 6.619 L -0.211,6.309 -0.198,6.123 -0.211,5.937 -0.235,5.788 -0.285,5.701 -0.347,5.652 -0.496,5.627 H -0.595 L -0.793,5.615 -1.958,5.639 H -2.157 L -2.789,5.615 H -2.987 L -3.632,5.639 -4.189,5.677 H -4.375 L -4.474,5.664 -4.598,5.639 -4.66,5.578 -4.673,5.503 -4.698,5.367 -4.722,5.069 V 4.871 L -4.71,4.66 -4.698,4.524 -4.673,4.437 -4.623,4.375 -4.487,4.338 -4.09,4.313 -3.694,4.338 h 1.178 L -1.128,4.413 -0.744,4.388 -0.607,4.363 -0.533,4.301 -0.496,4.227 -0.483,4.09 -0.459,3.88 -0.446,3.669 V 3.26 L -0.421,2.975 -0.446,2.603 -0.471,2.454 -0.521,2.367 -0.607,2.305 -0.731,2.281 H -0.979 L -1.537,2.343 -1.735,2.355 -2.727,2.293 -3.52,2.318 H -3.718 L -4.214,2.355 -4.425,2.343 -4.574,2.33 -4.635,2.293 -4.673,2.206 -4.685,2.02 -4.722,1.71 -4.735,1.512 V 1.24 l 0.013,-0.125 0.037,-0.086 0.05,-0.05 0.136,-0.012 0.681,-0.025 h 0.199 l 0.669,0.049 0.88,-0.049 h 0.198 l 0.88,0.049 h 0.186 L -0.62,0.979 -0.174,0.93 -0.099,0.892 -0.05,0.818 -0.037,0.682 Z"
           style="fill:#0b1627;fill-opacity:1;fill-rule:nonzero;stroke:none"
           id="path22872" />
      </g>
      <g
         id="g22874"
         transform="translate(515.8043,3539.4832)">
        <path
           d="M 0,0 -0.012,-0.211 -0.037,-0.421 -0.074,-0.62 -0.136,-0.892 -0.198,-1.066 -0.31,-1.314 -0.397,-1.475 -0.545,-1.698 -0.669,-1.847 -0.818,-1.996 -0.967,-2.132 -1.215,-2.293 -1.376,-2.405 -1.562,-2.504 -1.735,-2.59 -2.02,-2.69 -2.392,-2.813 -2.59,-2.851 -2.9,-2.9 -3.086,-2.925 -3.359,-2.95 -3.532,-2.962 -3.818,-2.975 -4.412,-3.012 H -4.685 L -4.859,-3 l -0.285,0.025 -0.185,0.025 -0.211,0.037 -0.186,0.062 -0.273,0.087 -0.174,0.087 -0.185,0.087 -0.174,0.086 -0.161,0.099 -0.397,0.273 -0.148,0.124 -0.223,0.174 -0.149,0.124 -0.137,0.136 -0.099,0.111 -0.012,0.087 0.062,0.112 0.049,0.062 0.124,0.136 0.347,0.322 0.112,0.137 0.211,0.322 0.111,0.136 0.124,0.137 0.137,0.074 0.136,-0.025 0.136,-0.099 0.397,-0.273 0.186,-0.099 0.173,-0.087 0.285,-0.136 0.186,-0.062 0.199,-0.062 0.198,-0.037 0.285,-0.012 0.198,-0.013 0.781,0.05 0.198,0.024 0.1,0.025 0.185,0.075 0.162,0.099 0.124,0.124 0.062,0.087 0.074,0.185 -0.013,0.211 -0.024,0.099 -0.099,0.174 -0.062,0.074 -0.161,0.124 -0.1,0.037 -0.186,0.075 -0.21,0.049 -0.211,0.038 -1.177,0.111 -0.372,0.074 -0.198,0.05 -0.273,0.099 -0.186,0.062 -0.186,0.087 -0.422,0.211 -0.161,0.111 -0.186,0.112 -0.161,0.111 -0.21,0.174 -0.112,0.161 -0.112,0.186 -0.074,0.186 -0.087,0.26 -0.037,0.186 -0.037,0.273 -0.025,0.396 0.013,0.199 0.024,0.297 0.037,0.186 0.05,0.161 0.062,0.186 0.124,0.273 0.087,0.173 0.099,0.149 0.124,0.136 0.198,0.186 0.161,0.124 0.162,0.112 0.173,0.086 0.236,0.137 0.371,0.148 0.186,0.062 0.285,0.05 0.199,0.037 0.372,0.05 0.272,0.049 0.198,0.025 0.186,0.013 H -3.78 L -3.408,6.358 -3.223,6.333 -3.136,6.309 -2.938,6.284 -2.516,6.21 -2.305,6.16 -2.107,6.098 -1.896,6.036 -1.698,5.962 -1.512,5.875 -1.326,5.801 -1.091,5.664 -0.917,5.577 -0.756,5.466 -0.645,5.354 V 5.23 L -0.719,5.094 -0.855,4.846 -0.954,4.698 -1.425,4.078 -1.562,3.904 -1.71,3.78 -1.81,3.743 -1.896,3.756 -2.02,3.818 -2.206,3.929 -2.392,4.003 -2.479,4.041 -2.665,4.103 -2.764,4.127 -2.975,4.177 -3.26,4.239 -3.458,4.251 -3.78,4.276 H -4.103 L -4.313,4.264 -4.524,4.227 -4.722,4.165 -4.797,4.127 -4.945,4.016 -5.007,3.941 -5.094,3.768 -5.119,3.57 -5.082,3.408 -4.983,3.247 -4.846,3.123 -4.697,3.049 -4.611,3.012 -4.425,2.975 -4.115,2.938 -3.694,2.913 -3.483,2.875 -3.061,2.776 -2.665,2.652 -2.38,2.59 l 0.186,-0.049 0.347,-0.124 0.248,-0.112 0.174,-0.086 0.173,-0.1 0.161,-0.099 0.36,-0.297 0.136,-0.149 0.124,-0.149 0.149,-0.223 0.099,-0.161 0.087,-0.186 0.049,-0.186 0.05,-0.273 0.025,-0.185 z"
           style="fill:#0b1627;fill-opacity:1;fill-rule:nonzero;stroke:none"
           id="path22876" />
      </g>
      <g
         id="g22878"
         transform="translate(523.674,3544.6765)">
        <path
           d="M 0,0 -0.012,-0.186 0,-0.558 -0.012,-0.756 -0.025,-0.855 -0.05,-1.004 -0.087,-1.091 -0.161,-1.153 -0.31,-1.177 h -0.198 l -0.372,0.037 -0.198,0.012 -0.57,-0.037 h -0.199 l -0.31,0.025 h -0.186 l -0.086,-0.013 -0.124,-0.037 -0.05,-0.074 -0.012,-0.162 -0.05,-0.731 v -0.198 l 0.05,-0.744 -0.013,-0.198 -0.049,-0.744 -0.013,-0.198 0.025,-0.731 v -1.141 l -0.025,-0.731 0.013,-0.186 0.062,-0.557 0.012,-0.199 -0.037,-0.149 -0.062,-0.062 -0.161,-0.024 -0.236,0.012 -0.31,0.037 -0.21,0.013 -0.558,-0.038 h -0.198 l -0.558,0.038 -0.149,0.012 -0.074,0.037 -0.025,0.137 v 0.21 l 0.037,0.521 0.013,0.198 v 0.93 l 0.012,0.744 v 0.198 l 0.012,0.731 v 0.198 l -0.049,0.744 -0.013,0.198 v 0.942 l -0.024,0.731 v 0.174 l -0.037,0.099 -0.124,0.025 H -5.54 L -5.937,-1.153 H -6.16 l -0.335,0.025 -0.21,0.012 -0.211,-0.012 -0.285,-0.012 h -0.186 l -0.099,0.012 -0.137,0.025 -0.074,0.049 -0.05,0.075 -0.024,0.124 v 0.086 l -0.013,0.199 0.025,0.372 v 0.186 l -0.037,0.47 0.012,0.199 0.037,0.161 0.05,0.087 0.074,0.037 0.124,0.025 h 0.285 l 0.459,-0.038 h 0.198 l 0.719,0.05 h 0.198 l 0.732,-0.062 h 0.198 l 0.917,0.062 0.719,-0.012 h 0.198 l 0.93,0.012 h 0.917 L -0.62,1.004 -0.409,0.991 -0.31,0.979 -0.161,0.954 -0.074,0.905 -0.012,0.818 0.012,0.669 V 0.583 L 0.025,0.396 Z"
           style="fill:#0b1627;fill-opacity:1;fill-rule:nonzero;stroke:none"
           id="path22880" />
      </g>
      <g
         id="g22882"
         transform="translate(488.6831,3574.991)">
        <path
           d="m 0,0 c -8.051,0 -14.904,-5.229 -17.34,-12.47 h 1.832 c 2.361,6.272 8.421,10.745 15.508,10.745 7.087,0 13.147,-4.473 15.509,-10.745 H 17.34 C 14.904,-5.229 8.051,0 0,0"
           style="fill:#0b1627;fill-opacity:1;fill-rule:nonzero;stroke:none"
           id="path22884" />
      </g>
      <g
         id="g22886"
         transform="translate(515.5746,3566.656)">
        <path
           d="m 0,0 c -0.527,0.048 -1.07,0.093 -1.626,0.106 -0.824,0.02 -1.561,-0.045 -2.255,-0.198 -0.38,-0.084 -0.771,-0.203 -1.197,-0.364 -0.202,-0.076 -0.385,-0.159 -0.547,-0.233 -0.214,-0.098 -0.416,-0.19 -0.543,-0.207 -0.604,-0.081 -1.348,0.289 -1.561,0.777 -0.048,0.109 -0.067,0.22 -0.058,0.34 0.061,0.856 0.747,1.77 1.672,1.766 C -4.108,1.98 -2.458,1.184 -0.711,0.341 -0.477,0.228 -0.241,0.114 0,0 m -9.292,0.329 c -0.027,-0.38 0.041,-0.734 0.181,-1.053 0.497,-1.138 1.903,-1.834 3.144,-1.668 0.515,0.069 0.944,0.345 1.421,0.524 0.324,0.122 0.652,0.227 0.991,0.302 0.621,0.138 1.258,0.179 1.893,0.164 1.321,-0.033 2.629,-0.263 3.953,-0.249 1.802,0.019 3.54,0.483 5.166,1.247 0.233,0.11 0.464,0.226 0.693,0.346 0.102,0.054 0.137,0.167 0.109,0.232 C 8.243,0.21 8.207,0.231 8.151,0.217 2.1,-1.245 -0.704,3.477 -6.109,3.497 -7.837,3.503 -9.174,1.99 -9.292,0.329"
           style="fill:#0b1627;fill-opacity:1;fill-rule:nonzero;stroke:none"
           id="path22888" />
      </g>
      <g
         id="g22890"
         transform="translate(503.3082,3575.6853)">
        <path
           d="M 0,0 C 1.857,0.761 3.686,0.657 5.622,0.547 5.882,0.532 6.144,0.517 6.41,0.504 5.904,0.346 5.386,0.18 4.867,-0.02 4.099,-0.317 3.442,-0.659 2.859,-1.067 2.541,-1.289 2.225,-1.549 1.893,-1.86 1.735,-2.008 1.598,-2.155 1.477,-2.285 1.317,-2.458 1.165,-2.62 1.054,-2.685 0.528,-2.99 -0.301,-2.933 -0.685,-2.564 -0.771,-2.482 -0.831,-2.386 -0.869,-2.271 -1.14,-1.458 -0.856,-0.351 0,0 m -2.301,-2.749 c 0.121,-0.36 0.319,-0.662 0.57,-0.903 0.896,-0.861 2.46,-0.966 3.543,-0.338 0.45,0.262 0.741,0.68 1.113,1.029 0.252,0.237 0.515,0.459 0.799,0.658 0.522,0.365 1.094,0.646 1.687,0.875 1.233,0.476 2.53,0.763 3.748,1.283 1.656,0.708 3.085,1.801 4.294,3.13 0.174,0.191 0.343,0.385 0.509,0.584 0.074,0.089 0.063,0.207 0.012,0.256 C 13.945,3.853 13.903,3.858 13.857,3.823 8.827,0.158 4.429,3.447 -0.573,1.396 -2.171,0.741 -2.827,-1.168 -2.301,-2.749"
           style="fill:#0b1627;fill-opacity:1;fill-rule:nonzero;stroke:none"
           id="path22892" />
      </g>
      <g
         id="g22894"
         transform="translate(494.9302,3579.8372)">
        <path
           d="M 0,0 C 1.424,1.414 3.154,2.018 4.985,2.656 5.23,2.742 5.479,2.829 5.729,2.918 5.322,2.58 4.907,2.228 4.504,1.844 3.908,1.276 3.432,0.708 3.05,0.109 2.841,-0.219 2.648,-0.58 2.46,-0.995 2.371,-1.191 2.301,-1.38 2.239,-1.546 2.157,-1.767 2.079,-1.975 2.001,-2.077 1.632,-2.561 0.844,-2.825 0.348,-2.631 0.238,-2.588 0.145,-2.522 0.066,-2.431 -0.496,-1.783 -0.656,-0.652 0,0 m -1.074,-3.42 c 0.249,-0.287 0.548,-0.489 0.873,-0.617 1.156,-0.452 2.642,0.049 3.402,1.045 0.316,0.413 0.424,0.911 0.634,1.375 0.143,0.316 0.301,0.622 0.487,0.914 0.342,0.537 0.763,1.016 1.223,1.454 0.958,0.912 2.046,1.674 2.972,2.62 1.26,1.288 2.161,2.845 2.77,4.535 0.088,0.242 0.169,0.487 0.246,0.734 0.034,0.11 -0.021,0.216 -0.087,0.241 C 11.409,8.896 11.369,8.885 11.339,8.835 8.095,3.523 2.772,4.879 -1.063,1.071 -2.289,-0.146 -2.165,-2.161 -1.074,-3.42"
           style="fill:#0b1627;fill-opacity:1;fill-rule:nonzero;stroke:none"
           id="path22896" />
      </g>
      <g
         id="g22898"
         transform="translate(485.601,3580.4666)">
        <path
           d="M 0,0 C 0.775,1.852 2.142,3.071 3.589,4.362 3.783,4.535 3.979,4.71 4.176,4.889 3.93,4.42 3.681,3.936 3.456,3.428 3.122,2.674 2.9,1.968 2.776,1.268 2.708,0.885 2.668,0.478 2.654,0.023 2.647,-0.193 2.654,-0.394 2.66,-0.571 2.669,-0.807 2.676,-1.029 2.644,-1.153 2.488,-1.741 1.861,-2.287 1.329,-2.297 1.21,-2.3 1.099,-2.274 0.992,-2.22 0.225,-1.837 -0.357,-0.853 0,0 m 0.317,-3.57 c 0.34,-0.17 0.693,-0.243 1.042,-0.236 1.241,0.025 2.422,1.056 2.743,2.266 0.134,0.503 0.044,1.005 0.06,1.514 0.011,0.346 0.04,0.69 0.1,1.031 0.111,0.627 0.316,1.231 0.574,1.812 0.535,1.208 1.249,2.328 1.742,3.557 0.672,1.672 0.909,3.455 0.824,5.25 -0.012,0.257 -0.03,0.515 -0.053,0.772 -0.011,0.115 -0.102,0.191 -0.173,0.19 C 7.136,12.585 7.103,12.559 7.095,12.502 6.13,6.353 0.694,5.569 -1.392,0.583 -2.059,-1.011 -1.173,-2.825 0.317,-3.57"
           style="fill:#0b1627;fill-opacity:1;fill-rule:nonzero;stroke:none"
           id="path22900" />
      </g>
      <g
         id="g22902"
         transform="translate(463.7033,3567.4531)">
        <path
           d="M 0,0 C 0.568,-0.597 1.136,-1.073 1.735,-1.455 2.063,-1.664 2.424,-1.856 2.839,-2.044 3.035,-2.133 3.224,-2.203 3.39,-2.265 3.611,-2.348 3.819,-2.426 3.921,-2.503 4.405,-2.873 4.669,-3.66 4.475,-4.156 4.432,-4.267 4.366,-4.359 4.275,-4.438 3.627,-5 2.496,-5.161 1.844,-4.504 0.43,-3.08 -0.173,-1.351 -0.812,0.48 -0.898,0.726 -0.985,0.974 -1.074,1.225 -0.735,0.818 -0.384,0.403 0,0 m -6.991,6.835 c 5.024,-3.069 4.084,-7.997 7.19,-11.767 h 5.578 c 0.039,0.074 0.073,0.149 0.104,0.226 0.452,1.157 -0.049,2.643 -1.045,3.403 -0.413,0.315 -0.911,0.424 -1.375,0.634 -0.316,0.143 -0.622,0.3 -0.914,0.487 C 2.01,0.16 1.531,0.581 1.093,1.041 0.181,1.998 -0.581,3.086 -1.527,4.012 -2.815,5.272 -4.372,6.174 -6.062,6.782 -6.304,6.87 -6.549,6.952 -6.796,7.029 -6.906,7.063 -7.012,7.007 -7.037,6.942 -7.052,6.905 -7.041,6.864 -6.991,6.835"
           style="fill:#0b1627;fill-opacity:1;fill-rule:nonzero;stroke:none"
           id="path22904" />
      </g>
      <g
         id="g22906"
         transform="translate(469.1526,3576.949)">
        <path
           d="M 0,0 C 0.015,0.259 0.03,0.522 0.043,0.788 0.2,0.282 0.366,-0.236 0.567,-0.755 0.863,-1.524 1.206,-2.181 1.613,-2.763 1.836,-3.081 2.096,-3.397 2.407,-3.73 2.555,-3.887 2.702,-4.024 2.832,-4.145 3.004,-4.306 3.167,-4.458 3.231,-4.568 3.537,-5.094 3.48,-5.924 3.111,-6.307 3.028,-6.393 2.933,-6.453 2.818,-6.491 2.004,-6.762 0.898,-6.478 0.547,-5.622 -0.215,-3.765 -0.11,-1.937 0,0 m -0.85,-6.195 c 0.656,-1.598 2.565,-2.255 4.145,-1.728 0.361,0.12 0.662,0.319 0.904,0.57 0.86,0.895 0.966,2.46 0.337,3.543 -0.261,0.45 -0.68,0.741 -1.028,1.112 -0.237,0.253 -0.459,0.516 -0.658,0.8 C 2.485,-1.377 2.203,-0.804 1.975,-0.211 1.498,1.022 1.211,2.318 0.691,3.536 -0.016,5.193 -1.109,6.622 -2.438,7.831 -2.629,8.005 -2.824,8.174 -3.022,8.339 -3.111,8.413 -3.23,8.402 -3.278,8.351 -3.306,8.323 -3.311,8.281 -3.277,8.235 0.389,3.205 -2.9,-1.194 -0.85,-6.195"
           style="fill:#0b1627;fill-opacity:1;fill-rule:nonzero;stroke:none"
           id="path22908" />
      </g>
      <g
         id="g22910"
         transform="translate(478.3876,3582.8818)">
        <path
           d="M 0,0 C 0.113,0.234 0.227,0.471 0.341,0.711 0.293,0.184 0.248,-0.358 0.235,-0.914 0.215,-1.738 0.28,-2.476 0.433,-3.17 0.517,-3.549 0.636,-3.941 0.797,-4.367 0.873,-4.569 0.956,-4.752 1.03,-4.914 1.128,-5.128 1.22,-5.33 1.237,-5.457 1.318,-6.06 0.948,-6.804 0.46,-7.018 0.351,-7.065 0.24,-7.084 0.12,-7.076 -0.736,-7.015 -1.65,-6.328 -1.646,-5.404 -1.639,-3.397 -0.843,-1.747 0,0 m 0.012,-8.581 c 0.38,-0.027 0.734,0.041 1.053,0.181 1.138,0.498 1.834,1.903 1.668,3.144 C 2.664,-4.74 2.388,-4.311 2.209,-3.835 2.086,-3.511 1.981,-3.183 1.907,-2.844 1.769,-2.223 1.728,-1.586 1.743,-0.951 1.775,0.371 2.006,1.678 1.992,3.003 1.973,4.804 1.509,6.542 0.744,8.168 0.635,8.401 0.519,8.632 0.399,8.861 0.345,8.963 0.232,8.999 0.167,8.97 0.13,8.954 0.11,8.918 0.124,8.862 c 1.462,-6.05 -3.26,-8.855 -3.28,-14.26 -0.006,-1.728 1.507,-3.065 3.168,-3.183"
           style="fill:#0b1627;fill-opacity:1;fill-rule:nonzero;stroke:none"
           id="path22912" />
      </g>
    </g>
  </g>
</svg>
