 <svg version="1.0" xmlns="http://www.w3.org/2000/svg" width="600.000000pt" height="600.000000pt" viewBox="0 0 600.000000 600.000000" preserveAspectRatio="xMidYMid meet">  <g transform="translate(0.000000,600.000000) scale(0.050000,-0.050000)" fill="#000000" stroke="none"> <path d="M1938 11756 c-9 -28 -6 -221 4 -227 6 -4 10 26 9 67 -2 41 4 89 13 108 9 19 7 39 -4 46 -11 7 -21 10 -22 6z"></path> <path d="M4450 10296 c-22 -12 -44 -28 -50 -34 -5 -7 -37 -26 -70 -42 -33 -17 -126 -68 -206 -115 -80 -47 -149 -85 -153 -85 -4 0 -99 -54 -211 -120 -112 -66 -207 -120 -211 -120 -4 0 -82 -44 -173 -98 -91 -53 -202 -118 -246 -143 -44 -24 -107 -61 -140 -82 -33 -20 -73 -43 -90 -51 -35 -16 -317 -177 -360 -206 -16 -11 -43 -26 -60 -34 -16 -7 -93 -50 -170 -95 -77 -45 -174 -98 -215 -118 -92 -43 -101 -7 72 -297 146 -245 534 -906 878 -1496 99 -170 201 -344 228 -385 26 -41 47 -78 47 -83 0 -5 63 -113 140 -241 77 -127 140 -237 140 -242 0 -6 30 -58 66 -115 37 -57 73 -117 80 -134 8 -16 32 -57 54 -90 21 -33 57 -96 80 -140 76 -147 173 -312 202 -346 16 -19 45 -65 64 -104 49 -96 129 -234 192 -330 29 -44 74 -123 100 -175 60 -118 61 -118 129 10 101 191 143 265 154 275 13 12 125 196 146 240 8 17 41 75 73 130 32 55 68 118 80 140 11 22 36 64 55 93 34 52 137 227 205 347 19 33 176 303 351 600 174 297 342 585 374 640 31 55 73 127 93 160 20 33 99 168 176 300 77 132 267 456 422 720 168 287 272 483 258 488 -13 4 -37 19 -54 32 -16 14 -75 50 -130 79 -55 29 -113 61 -130 72 -81 50 -344 199 -351 199 -4 0 -73 39 -153 87 -178 105 -500 287 -746 421 -22 12 -53 32 -70 45 -16 13 -93 56 -170 97 -77 40 -176 95 -220 122 -44 27 -99 57 -123 67 -24 10 -49 28 -56 40 -8 12 -21 17 -30 12 -9 -6 -28 3 -41 19 -14 17 -34 30 -44 30 -11 0 -43 18 -71 40 -58 46 -61 47 -115 16z m133 -129 c21 -18 37 -44 37 -57 0 -38 1269 -810 1332 -810 3 0 71 -39 151 -87 181 -107 315 -182 454 -256 l107 -57 -67 -31 c-91 -43 -297 -157 -517 -288 -88 -53 -416 -238 -506 -287 -57 -31 -138 -78 -179 -105 -41 -27 -82 -49 -91 -49 -9 0 -37 -21 -62 -47 l-44 -48 50 6 c42 4 319 141 382 189 11 8 61 37 110 64 373 205 851 488 899 531 75 68 93 79 128 73 48 -7 98 -51 79 -69 -9 -8 -47 -33 -86 -54 -88 -49 -973 -552 -1540 -875 -236 -135 -466 -265 -510 -290 -44 -24 -109 -62 -145 -84 l-65 -39 0 -1139 c0 -626 8 -1138 17 -1138 10 0 16 20 15 45 -1 25 7 47 18 50 11 3 20 -4 20 -14 0 -11 14 -36 30 -55 38 -45 30 -92 -35 -190 -51 -76 -105 -101 -105 -47 0 16 -22 53 -50 83 -28 30 -50 78 -50 109 0 31 -8 59 -18 62 -11 4 -22 20 -25 36 -4 16 -22 47 -41 68 -19 22 -30 47 -24 56 6 9 0 17 -12 17 -12 0 -18 8 -12 17 6 10 -7 34 -28 53 -21 19 -35 42 -30 50 5 9 -4 27 -20 40 -17 14 -30 32 -30 41 0 17 -141 262 -160 279 -7 6 -27 43 -46 82 -18 40 -47 84 -64 98 -16 14 -30 33 -30 44 0 21 -214 392 -315 546 -79 120 -78 116 -10 151 30 15 102 57 160 93 129 81 108 83 208 -25 100 -109 294 -222 413 -241 70 -11 83 -19 71 -46 -53 -108 -21 -1342 34 -1342 32 0 40 161 39 708 -1 602 -5 662 -52 680 -17 6 -28 39 -28 81 0 43 -10 71 -25 71 -271 2 -583 464 -524 773 23 119 8 121 304 -45 l244 -138 1 -260 c0 -143 7 -271 16 -284 23 -36 54 -3 58 64 17 247 20 391 8 460 -10 59 -6 86 15 102 32 24 -11 50 -667 422 -1740 985 -1631 920 -1617 957 14 37 139 39 161 3 28 -45 265 -194 606 -379 61 -33 137 -76 170 -96 33 -19 92 -53 130 -75 39 -22 160 -91 270 -154 186 -106 310 -151 310 -111 0 9 -29 31 -65 50 -36 18 -101 55 -145 82 -44 27 -98 59 -120 70 -22 11 -67 37 -100 58 -61 39 -81 51 -260 149 -55 30 -127 72 -160 93 -33 20 -91 53 -130 72 -38 19 -98 55 -132 81 -34 25 -66 41 -72 35 -6 -5 -22 4 -36 21 -14 16 -36 30 -50 30 -14 0 -36 13 -50 30 -13 16 -31 25 -40 20 -8 -5 -30 8 -48 28 -32 35 -30 39 52 82 141 73 294 160 503 283 108 64 200 117 203 117 5 0 588 334 834 478 36 22 113 64 171 94 57 30 119 71 138 91 18 20 45 37 59 37 15 0 22 11 17 25 -32 85 139 150 214 82z m-1893 -1821 c77 -44 239 -137 360 -206 121 -69 295 -169 387 -223 91 -53 172 -97 180 -97 52 -2 61 -35 32 -129 -40 -133 -36 -263 10 -413 22 -70 37 -129 34 -132 -52 -52 -353 -213 -353 -189 0 9 -73 142 -163 295 -89 153 -178 305 -197 338 -94 165 -364 618 -437 733 -95 150 -101 173 -38 133 25 -16 108 -65 185 -110z m3850 124 c0 -5 -30 -57 -67 -115 -37 -58 -178 -294 -313 -525 -135 -231 -260 -442 -279 -470 -32 -48 -137 -227 -201 -346 -38 -71 -41 -70 -225 31 -129 71 -154 92 -144 125 68 244 77 342 42 481 -19 81 -26 141 -15 145 11 4 224 124 476 268 251 144 488 279 526 301 39 22 93 56 120 77 49 36 80 47 80 28z m-1333 -879 c24 -205 -56 -436 -204 -586 -126 -127 -389 -241 -355 -153 7 17 12 150 12 296 l0 265 65 33 c36 18 146 82 245 142 225 135 222 135 237 3z m263 -739 c22 -12 51 -29 64 -38 17 -10 -4 -60 -72 -169 -52 -85 -101 -168 -108 -185 -8 -16 -22 -43 -33 -60 -47 -73 -215 -353 -228 -380 -8 -16 -25 -48 -39 -70 -13 -22 -55 -94 -94 -160 -38 -66 -79 -135 -90 -153 -78 -128 -180 -309 -180 -321 0 -8 -12 -26 -28 -40 -23 -22 -25 -6 -15 102 7 70 13 386 13 703 l0 574 86 22 c126 32 265 115 371 223 l93 95 110 -60 c61 -34 128 -71 150 -83z"></path> <path d="M4455 10118 c-32 -19 -35 -82 -35 -888 0 -967 15 -870 -140 -901 -101 -20 -276 -113 -377 -201 l-87 -75 67 -36 c86 -45 81 -46 149 14 254 220 714 218 938 -6 52 -52 190 -28 190 33 0 57 -303 244 -440 271 -155 31 -140 -66 -140 902 0 837 -1 868 -39 888 -46 25 -42 25 -86 -1z"></path> <path d="M4351 8029 c-148 -51 -152 -95 -5 -68 107 20 284 6 389 -31 15 -5 25 8 25 32 0 22 -9 35 -20 28 -11 -7 -20 -1 -20 12 0 14 -6 19 -13 12 -7 -7 -30 -3 -52 9 -61 32 -218 36 -304 6z"></path> <path d="M4035 7907 c14 -6 25 -23 25 -39 0 -15 8 -28 17 -28 10 0 52 -28 95 -62 175 -139 287 -173 412 -125 143 55 394 236 366 264 -4 3 -101 -49 -217 -115 -248 -144 -225 -140 -376 -52 -65 39 -124 70 -129 70 -6 0 -43 23 -84 50 -40 28 -87 49 -104 48 -20 -1 -22 -4 -5 -11z"></path> <path d="M3940 7398 c0 -68 54 -198 82 -198 10 0 18 -9 18 -21 0 -38 129 -152 164 -144 27 6 13 38 -75 167 -60 88 -109 171 -109 185 0 28 -39 73 -64 73 -9 0 -16 -28 -16 -62z"></path> <path d="M5000 7413 c0 -15 -18 -43 -40 -63 -21 -19 -35 -42 -30 -50 5 -8 -9 -31 -30 -50 -22 -20 -40 -49 -40 -64 0 -15 -13 -32 -30 -39 -52 -20 -38 -92 15 -76 39 12 64 35 152 140 30 37 67 169 55 200 -14 36 -52 38 -52 2z"></path> </g> </svg> 