<?xml version="1.0" standalone="no"?>
<!DOCTYPE svg PUBLIC "-//W3C//DTD SVG 20010904//EN"
 "http://www.w3.org/TR/2001/REC-SVG-20010904/DTD/svg10.dtd">
<svg version="1.0" xmlns="http://www.w3.org/2000/svg"
 width="1904.000000pt" height="1904.000000pt" viewBox="0 0 1904.000000 1904.000000"
 preserveAspectRatio="xMidYMid meet">
<metadata>
Created by potrace 1.14, written by Peter Selinger 2001-2017
</metadata>
<g transform="translate(0.000000,1904.000000) scale(0.100000,-0.100000)"
fill="#000000" stroke="none">
<path d="M10225 14360 c-3 -5 -14 -54 -25 -110 -115 -604 -402 -1094 -935
-1594 -71 -67 -242 -223 -380 -346 -562 -506 -797 -784 -999 -1187 -77 -154
-110 -248 -127 -362 -54 -376 172 -782 537 -965 95 -47 175 -66 285 -66 117 0
200 20 314 76 182 88 327 234 417 419 68 140 78 197 78 457 0 447 62 682 303
1158 60 118 158 310 216 425 267 526 380 963 398 1535 7 231 -10 513 -33 547
-15 24 -38 30 -49 13z m-924 -2347 c-147 -294 -214 -465 -271 -693 -49 -193
-62 -304 -69 -595 l-6 -270 -34 -62 c-44 -82 -133 -166 -217 -205 -132 -62
-225 -36 -360 98 -54 53 -82 91 -114 157 -40 80 -43 94 -48 185 -4 92 -3 102
27 177 70 175 196 383 341 565 47 58 163 184 260 281 166 167 546 517 563 518
4 1 -28 -70 -72 -156z"/>
<path d="M6204 14016 c-3 -8 4 -59 16 -113 103 -475 71 -942 -101 -1446 -59
-174 -162 -412 -339 -783 -352 -737 -461 -1066 -501 -1516 -32 -357 36 -581
240 -792 95 -98 173 -154 292 -211 147 -69 239 -90 399 -90 122 0 142 3 208
27 110 40 178 84 267 174 83 83 142 173 188 284 54 134 62 175 62 340 0 175
-1 180 -118 455 -66 155 -100 268 -130 430 -33 179 -30 562 6 970 46 526 46
712 -3 1048 -37 252 -137 598 -245 852 -64 149 -163 352 -181 369 -19 20 -53
21 -60 2z m44 -2472 c-19 -189 -16 -615 5 -759 36 -240 84 -408 188 -650 37
-89 71 -179 75 -202 3 -22 1 -72 -6 -111 -28 -167 -144 -312 -268 -335 -50
-10 -177 20 -258 59 -185 91 -284 244 -284 438 0 366 110 758 366 1296 53 113
116 247 141 299 24 51 46 91 49 89 2 -3 -1 -59 -8 -124z"/>
<path d="M14004 13039 c-189 -287 -427 -530 -704 -721 -288 -198 -603 -338
-1340 -593 -649 -225 -1069 -460 -1380 -774 -142 -143 -185 -209 -230 -349
-59 -183 -62 -356 -10 -556 60 -226 226 -452 394 -535 240 -118 566 -88 813
76 80 53 185 154 230 221 20 31 67 131 104 223 102 252 170 377 297 544 76 99
297 318 462 458 488 413 570 487 704 637 336 375 580 810 752 1343 22 67 26
92 18 105 -24 37 -42 24 -110 -79z m-1544 -1593 c0 -2 -57 -52 -127 -112 -430
-367 -665 -681 -838 -1119 -26 -66 -56 -136 -66 -156 -40 -79 -167 -159 -293
-186 -128 -26 -219 2 -285 89 -133 177 -159 405 -65 578 52 96 276 286 491
416 220 133 450 233 918 400 143 51 261 93 263 93 1 1 2 -1 2 -3z"/>
<path d="M2638 12183 c-10 -3 -18 -12 -18 -21 0 -9 39 -75 86 -147 212 -321
341 -664 406 -1080 31 -198 36 -643 12 -1042 -25 -418 -25 -915 -1 -1108 43
-331 121 -609 229 -818 76 -147 251 -301 428 -376 289 -123 650 -97 873 63
160 113 263 310 288 549 20 184 -30 405 -122 548 -22 33 -99 118 -170 187
-345 335 -482 583 -690 1251 -139 448 -222 660 -345 886 -203 371 -487 719
-824 1010 -103 89 -126 104 -152 98z m977 -2323 c65 -198 164 -443 231 -570
123 -232 235 -381 460 -610 142 -145 164 -172 183 -225 29 -77 37 -177 21
-257 -33 -168 -122 -242 -305 -255 -214 -14 -420 93 -494 259 -67 148 -127
372 -157 588 -22 149 -29 554 -15 830 12 250 22 392 26 388 2 -2 24 -68 50
-148z"/>
<path d="M17100 10499 c-184 -136 -477 -282 -717 -359 -396 -127 -791 -153
-1608 -105 -383 23 -859 16 -1060 -14 -374 -57 -711 -176 -868 -306 -152 -126
-261 -317 -308 -540 -8 -34 -13 -121 -12 -200 1 -215 42 -352 148 -492 81
-109 222 -199 380 -245 69 -20 102 -23 245 -22 151 0 173 2 255 28 162 50 211
82 400 268 190 187 270 255 396 333 200 124 398 207 814 338 349 111 516 169
635 219 494 210 942 549 1339 1013 41 47 51 66 49 90 -4 42 -24 41 -88 -6z
m-2340 -889 c118 -6 226 -14 240 -17 18 -3 -32 -24 -181 -73 -323 -107 -581
-230 -799 -383 -103 -71 -281 -229 -367 -323 -127 -141 -201 -178 -353 -178
-146 0 -257 50 -307 139 -67 120 -53 355 32 498 29 51 117 137 163 161 96 49
334 119 513 150 83 14 241 32 359 40 82 6 455 -2 700 -14z"/>
<path d="M8685 9239 c-1141 -96 -2177 -535 -3030 -1284 -606 -531 -1095 -1231
-1396 -1993 l-83 -212 -259 0 c-216 0 -258 2 -254 14 3 7 15 44 26 80 72 232
6 527 -167 755 -102 134 -195 196 -429 287 -317 122 -560 290 -811 562 -59 65
-202 229 -317 367 -357 425 -551 608 -855 810 -171 114 -308 192 -475 270
-181 86 -531 215 -581 215 -23 0 -48 -23 -42 -39 1 -5 50 -40 108 -78 388
-256 688 -595 905 -1024 123 -242 200 -433 355 -879 223 -639 387 -984 606
-1273 24 -31 44 -59 44 -62 0 -3 -444 -5 -988 -5 -878 0 -990 2 -1010 16 l-22
15 0 -241 0 -241 23 13 c18 11 1804 13 9515 16 l9492 2 0 210 0 210 -2529 0
-2528 0 -28 78 c-143 394 -380 852 -616 1189 -656 938 -1557 1613 -2624 1969
-380 126 -686 193 -1095 240 -171 19 -764 28 -935 13z m830 -495 c1588 -140
3025 -1119 3749 -2554 77 -152 173 -364 190 -417 l7 -23 -4380 0 c-2410 0
-4381 2 -4381 4 0 12 92 223 154 351 630 1309 1848 2265 3264 2559 470 98 911
123 1397 80z m-7634 -1489 c350 -396 626 -595 1074 -775 140 -56 158 -66 203
-114 106 -112 154 -271 120 -404 -15 -62 -81 -127 -177 -175 l-74 -37 -179 0
c-170 0 -181 1 -228 25 -55 28 -120 90 -227 218 -192 231 -336 497 -496 922
-74 197 -187 521 -187 533 1 4 15 -11 33 -33 18 -22 80 -94 138 -160z"/>
<path d="M14799 7865 c-404 -80 -729 -490 -731 -920 0 -87 4 -125 22 -180 61
-194 196 -348 400 -454 117 -61 233 -92 375 -98 151 -7 230 11 421 97 330 148
645 202 1041 180 98 -6 277 -19 397 -30 121 -11 303 -25 406 -30 525 -29 1032
68 1565 297 215 93 325 151 338 180 21 46 0 49 -155 20 -219 -41 -307 -49
-513 -49 -209 0 -368 17 -555 58 -315 71 -561 166 -1120 434 -546 262 -788
357 -1095 434 -276 69 -623 95 -796 61z m451 -431 c338 -44 667 -162 1240
-443 l185 -91 -130 8 c-254 14 -660 8 -780 -12 -253 -41 -416 -92 -725 -226
-62 -27 -87 -33 -145 -33 -162 1 -330 100 -386 227 -17 40 -20 59 -14 109 26
233 205 444 404 477 59 9 204 3 351 -16z"/>
<path d="M10 4886 l0 -226 9515 0 9515 0 0 210 0 210 -9493 0 c-8575 0 -9495
2 -9515 16 l-22 15 0 -225z"/>
</g>
</svg>
