<?xml version="1.0" encoding="UTF-8" standalone="no"?><!-- Generator: Gravit.io --><svg xmlns="http://www.w3.org/2000/svg" xmlns:xlink="http://www.w3.org/1999/xlink" style="isolation:isolate" viewBox="730.918 244.583 122.647 270.427" width="122.647pt" height="270.427pt"><linearGradient id="_lgradient_30" x1="0.5000417487042288" y1="1.0000547283318992" x2="0.5000417487042289" y2="0.000050882362977677786" gradientTransform="matrix(122.647,0,0,270.427,730.918,244.583)" gradientUnits="userSpaceOnUse"><stop offset="0%" stop-opacity="1" style="stop-color:rgb(9,78,66)"/><stop offset="100%" stop-opacity="1" style="stop-color:rgb(22,152,123)"/></linearGradient><path d=" M 846.63 359.85 C 848.92 357.28 851.04 354.5 852.33 351.31 C 853.62 348.12 854.04 344.48 852.91 341.23 C 851.78 337.98 848.94 335.24 845.53 334.77 C 842.57 334.36 839.58 335.66 837.32 337.62 C 835.06 339.58 833.44 342.15 831.92 344.72 C 828.34 350.77 825.14 357.05 821.18 362.86 C 817.47 368.31 812.99 373.38 807.44 376.91 C 806.41 372.13 805.35 367.37 804.29 362.65 C 813.32 351.12 821.44 338.86 828.51 326.03 C 830.82 321.83 833.04 317.53 834.28 312.9 C 835.51 308.27 835.71 303.24 834 298.76 C 833.01 296.16 831.02 293.57 828.25 293.36 C 825.6 293.16 823.32 295.19 821.7 297.31 C 818.42 301.59 816.42 306.69 814.55 311.75 C 809.67 324.93 805.43 338.34 801.82 351.93 C 800.58 346.63 799.31 341.42 798.03 336.31 C 801.43 329.76 804.83 323.2 808.23 316.64 C 810.33 312.59 812.44 308.52 813.89 304.19 C 815.34 299.86 816.1 295.23 815.44 290.71 C 815.11 288.47 814.33 286.13 812.52 284.77 C 810.71 283.41 808.16 283.33 806.04 284.13 C 803.92 284.93 802.18 286.49 800.7 288.21 C 796.95 292.59 794.68 298.11 793.59 303.77 C 792.8 307.87 792.6 312.05 792.72 316.23 C 791.26 310.98 789.77 305.92 788.27 301.07 C 790.56 297.44 792.8 293.78 794.64 289.91 C 797.93 282.97 799.87 275.4 800.34 267.74 C 800.42 266.46 800.45 265.13 799.97 263.94 C 799.01 261.56 796.09 260.37 793.57 260.86 C 791.05 261.36 788.98 263.23 787.64 265.42 C 786.31 267.61 785.6 270.12 784.92 272.59 C 783.98 275.99 783.04 279.38 782.09 282.78 C 781.61 281.48 781.12 280.21 780.64 278.97 C 782.62 269.12 780.62 258.49 775.05 250.12 C 773.95 248.47 772.69 246.88 771.03 245.8 C 769.37 244.72 767.23 244.22 765.36 244.88 C 763.71 245.46 762.45 246.87 761.74 248.46 C 761.02 250.05 760.79 251.81 760.7 253.56 C 760.35 260.4 762.12 267.21 764.85 273.49 C 767.58 279.77 771.25 285.58 774.91 291.37 C 767.46 285.53 760 279.69 752.55 273.85 C 750.97 272.61 749.34 271.35 747.43 270.77 C 745.51 270.19 743.21 270.43 741.83 271.89 C 740.47 273.34 740.35 275.58 740.84 277.5 C 741.93 281.77 745.42 284.95 748.86 287.7 C 760.2 296.74 772.95 304 786.51 309.15 C 787.74 313.31 788.95 317.62 790.15 322.05 C 784.39 317.88 778.62 313.71 772.86 309.53 C 767.6 305.72 762.24 301.87 756.11 299.73 C 754.04 299.01 751.61 298.54 749.79 299.76 C 748.26 300.78 747.61 302.8 747.8 304.64 C 747.98 306.48 748.87 308.17 749.85 309.73 C 754.63 317.31 762.1 322.9 770.16 326.83 C 777.59 330.45 785.56 332.77 793.53 334.97 C 795.17 341.43 796.77 348.07 798.35 354.84 C 780.55 344.95 767.46 328.29 750.83 316.48 C 747.91 314.4 744.66 312.41 741.07 312.41 C 738.73 312.41 736.47 313.34 734.66 314.8 C 731.89 317.04 730.64 319.67 730.97 323.25 C 731.98 334.12 741.73 341.97 750.22 347.53 C 762.09 355.31 775.36 360.89 789.25 363.82 C 793.01 364.61 796.79 364.87 800.62 364.75 C 801.82 370.07 802.99 375.44 804.15 380.83 C 795.56 381.2 787.25 378.77 780.46 375.07 C 773.05 371.03 767.21 365.56 761.58 360.07 C 759.82 358.34 757.96 356.55 755.3 355.72 C 750.96 354.36 745.34 356.14 742.41 359.29 C 739.48 362.44 739.03 366.61 740.42 370.1 C 741.81 373.59 744.85 376.47 748.34 378.83 C 755.8 383.87 765.49 386.81 775.59 387.78 C 785.33 388.71 795.43 387.85 805.22 385.87 C 806.69 392.82 808.12 399.79 809.52 406.72 C 804.56 404.62 799.68 402.32 794.6 400.53 C 790.61 399.12 786.51 397.61 782.31 396.91 C 779.8 396.49 776.98 396.59 774.75 397.93 C 772.64 399.2 771.62 402.29 771.76 404.65 C 771.94 407.88 773.91 410.83 776.52 412.74 C 779.13 414.65 782.31 415.63 785.51 416.13 C 794.07 417.48 803.11 415.47 810.34 410.7 C 814.84 433.23 818.92 455.22 822.5 474.44 C 825.44 490.26 827.98 503.92 830.2 515.01 L 834.17 514.21 C 831.96 503.15 829.42 489.5 826.48 473.7 C 822.4 451.77 817.66 426.25 812.4 400.41 C 818.14 400.64 823.93 400.03 829.38 398.23 C 835.46 396.22 841.1 392.69 845.18 387.75 C 847.09 385.44 848.67 382.77 849.2 379.82 C 849.72 376.87 849.05 373.61 846.97 371.45 C 844.89 369.3 841.29 368.57 838.76 370.18 C 837.21 371.17 836.25 372.83 835.33 374.42 C 832.41 379.49 829.36 384.56 825.21 388.69 C 821.47 392.42 816.71 395.34 811.53 396.15 C 810.51 391.18 809.47 386.21 808.41 381.26 C 823.02 378.6 836.72 370.96 846.63 359.85 Z " fill="url(#_lgradient_30)"/></svg>