<?xml version="1.0" encoding="UTF-8" standalone="no"?><!-- Generator: Gravit.io --><svg xmlns="http://www.w3.org/2000/svg" xmlns:xlink="http://www.w3.org/1999/xlink" style="isolation:isolate" viewBox="-46.19 203.66 186.628 366.73" width="186.628pt" height="366.73pt"><g><linearGradient id="_lgradient_5" x1="0.0936940972951755" y1="0.24258682165722711" x2="0.9818585558900521" y2="1.0332422621709962" gradientTransform="matrix(182.97,0,0,350.916,-42.531,212.114)" gradientUnits="userSpaceOnUse"><stop offset="0%" stop-opacity="1" style="stop-color:rgb(9,78,66)"/><stop offset="100%" stop-opacity="1" style="stop-color:rgb(0,41,46)"/></linearGradient><path d=" M 140.37 440.12 C 128.04 446.95 113.88 450.52 99.78 450.02 C 96.39 449.9 92.96 449.55 89.82 448.27 C 85.86 446.67 82.37 443.45 81.81 438.99 C 81.6 437.35 81.87 435.66 82.63 434.2 C 84.65 430.33 88.83 429.83 92.62 429.25 C 108.63 426.77 123.87 419.72 136.3 409.33 C 135.57 406.28 134.74 403.26 133.8 400.26 C 127.79 380.97 118.18 362.74 109.19 344.44 C 100.78 352.49 90.04 358.12 78.56 360.09 C 74.65 360.76 70.54 361.02 66.88 359.03 C 65.73 358.4 64.7 357.54 63.95 356.46 C 60.59 351.62 63.72 346.07 67.02 341.89 C 75.11 331.66 85.27 323.1 96.66 316.75 C 91.41 303.39 87.55 289.71 86.64 275.28 C 85.45 256.41 87.5 242.01 96.11 225.26 C 100.22 217.25 91.38 208.83 83.63 213.41 C 67.83 222.74 55.43 229.62 45.75 235.96 C 29.76 246.43 16.95 253.58 2.81 266.44 C -7.37 275.69 -15.58 286.76 -22.09 298.87 C -17.16 298.69 -12.27 299.07 -7.67 300.17 C -1.54 301.63 4.15 304.47 7.17 308.82 C 10.19 313.17 10.06 319.13 5.84 323.31 C 2.48 326.64 -2.96 328.42 -8.2 328.79 C -13.44 329.16 -18.56 328.28 -23.49 327.21 C -26.07 326.65 -29.5 325.98 -33.17 325.15 C -35.14 331.24 -36.77 337.43 -38.1 343.66 C -41.25 358.48 -42.73 373.69 -42.51 388.86 C -32.2 387.66 -21.87 387.46 -11.87 390 C -7.61 391.08 -3.33 392.74 -0.21 395.84 C 2.91 398.94 4.65 403.74 3.15 407.87 C 1.95 411.16 -1.07 413.53 -4.35 414.77 C -7.63 416.01 -11.18 416.28 -14.67 416.55 C -23.09 417.18 -31.5 417.81 -39.92 418.44 C -37.17 435.29 -32.23 451.75 -25.09 467.23 C -18.44 465.49 -10.78 465.98 -4.49 466.3 C 8.3 466.96 21 469.73 32.86 474.57 C 39.45 477.26 46.85 482.28 45.38 489.68 C 45 491.6 44.01 493.35 42.65 494.76 C 39.17 498.37 34.43 499.65 29.78 500.76 C 19.87 503.14 9.85 505.03 -0.25 506.43 C 23.3 534.46 55.62 555.16 91.33 563.03 C 123.53 531.03 141.7 485.2 140.37 440.12 Z " fill="url(#_lgradient_5)"/><g><path d=" M 89.63 555.39 C 63.31 502.4 47.58 470.31 41.54 411.46 C 34.68 344.64 55.46 277.3 88.25 218.66" fill="none" vector-effect="non-scaling-stroke" stroke-width="3" stroke="rgb(16,107,92)" stroke-linejoin="miter" stroke-linecap="round" stroke-miterlimit="10"/><path d=" M 69.12 512 C 80.51 490.77 101.77 475.09 125.42 470.49" fill="none" vector-effect="non-scaling-stroke" stroke-width="3" stroke="rgb(16,107,92)" stroke-linejoin="miter" stroke-linecap="round" stroke-miterlimit="10"/><path d=" M 48.83 455.63 C 26.95 437.58 -3.51 430.43 -31.14 436.87" fill="none" vector-effect="non-scaling-stroke" stroke-width="3" stroke="rgb(16,107,92)" stroke-linejoin="miter" stroke-linecap="round" stroke-miterlimit="10"/><path d=" M 43.37 429.32 C 60.21 404.8 88.86 388.82 118.57 387.38" fill="none" vector-effect="non-scaling-stroke" stroke-width="3" stroke="rgb(16,107,92)" stroke-linejoin="miter" stroke-linecap="round" stroke-miterlimit="10"/><path d=" M 40.47 396.63 C 36.19 382.71 24.26 369.47 11.23 362.99 C -1.8 356.5 -16.63 354.34 -31.19 354.44" fill="none" vector-effect="non-scaling-stroke" stroke-width="3" stroke="rgb(16,107,92)" stroke-linejoin="miter" stroke-linecap="round" stroke-miterlimit="10"/><path d=" M 48.05 322.37 C 55.73 314.17 67.25 309.75 78.44 310.7" fill="none" vector-effect="non-scaling-stroke" stroke-width="3" stroke="rgb(16,107,92)" stroke-linejoin="miter" stroke-linecap="round" stroke-miterlimit="10"/><path d=" M 51.02 308.92 C 48.53 288.32 35.22 269.35 16.7 259.99" fill="none" vector-effect="non-scaling-stroke" stroke-width="3" stroke="rgb(16,107,92)" stroke-linejoin="miter" stroke-linecap="round" stroke-miterlimit="10"/></g></g></svg>