<?xml version="1.0" encoding="UTF-8" standalone="no"?><!-- Generator: Gravit.io --><svg xmlns="http://www.w3.org/2000/svg" xmlns:xlink="http://www.w3.org/1999/xlink" style="isolation:isolate" viewBox="452.153 290.735 272.956 327.365" width="272.956pt" height="327.365pt"><linearGradient id="_lgradient_129" x1="1.0913106176278409" y1="0.3760800125768139" x2="-0.03819362423036066" y2="0.6707129917469359" gradientTransform="matrix(272.956,0,0,327.365,452.153,290.735)" gradientUnits="userSpaceOnUse"><stop offset="0%" stop-opacity="1" style="stop-color:rgb(130,211,110)"/><stop offset="100%" stop-opacity="1" style="stop-color:rgb(118,198,75)"/></linearGradient><path d=" M 452.22 544.98 C 452.76 541.37 456.52 538.93 460.17 538.69 C 463.82 538.46 467.34 539.91 470.66 541.44 C 478.2 544.92 485.47 548.96 492.43 553.49 C 493.45 544.31 494.95 535.19 496.88 526.16 C 486.07 513.66 479.09 497.88 477.16 481.46 C 476.91 479.33 476.75 477.14 477.35 475.09 C 477.95 473.04 479.47 471.13 481.55 470.63 C 483.83 470.08 486.24 471.36 487.7 473.19 C 489.16 475.02 489.87 477.33 490.54 479.58 C 493.91 490.92 496.99 502.35 499.8 513.84 C 502.53 503.4 505.87 493.12 509.79 483.07 C 505.49 469.28 502.97 454.93 502.36 440.49 C 502.21 437 502.21 433.33 503.82 430.23 C 505.43 427.13 509.18 424.85 512.46 426.04 C 514.67 426.84 516.16 428.99 516.78 431.26 C 517.4 433.52 517.29 435.91 517.17 438.26 C 516.65 448.61 516.12 458.96 515.6 469.3 C 520.31 458.92 525.66 448.82 531.64 439.1 C 526.58 423.66 525.43 406.94 528.38 390.95 C 528.75 388.94 529.43 386.64 531.32 385.88 C 533.04 385.19 535.07 386.18 536.15 387.69 C 537.23 389.2 537.57 391.1 537.84 392.93 C 539.58 404.46 539.95 416.18 538.98 427.8 C 540.22 426 541.48 424.21 542.76 422.44 C 547.4 416.04 552.33 409.88 557.5 403.92 C 552.66 387.04 554.86 368.24 563.58 352.99 C 564.31 351.72 565.24 350.35 566.68 350.09 C 568 349.85 569.34 350.68 570.08 351.81 C 570.82 352.93 571.09 354.3 571.31 355.63 C 573.25 367.49 572.5 379.77 569.2 391.32 C 576.78 383.65 584.81 376.43 593.23 369.71 C 590.54 356.29 595.08 341.59 605.65 329.92 C 606.53 328.95 607.63 327.91 609.08 327.76 C 610.42 327.62 611.63 328.32 612.22 329.22 C 612.81 330.12 612.9 331.2 612.95 332.25 C 613.35 341.45 611.14 350.87 606.58 359.66 C 614.19 354.3 622.06 349.32 630.17 344.75 C 631.99 331.26 638.33 318.4 647.98 308.79 C 649.37 307.4 650.88 306.05 652.73 305.38 C 654.58 304.71 656.84 304.85 658.26 306.21 C 659.51 307.4 659.88 309.29 659.62 311 C 659.36 312.71 658.56 314.28 657.76 315.8 C 654.01 322.94 649.94 329.9 645.56 336.67 C 655.25 331.97 665.21 327.83 675.39 324.29 C 676.46 314.3 680.24 304.61 686.26 296.56 C 687.83 294.46 689.62 292.41 692.02 291.36 C 694.42 290.31 697.54 290.52 699.27 292.48 C 700.55 293.94 700.83 296.07 700.45 297.97 C 700.07 299.87 699.12 301.61 698.16 303.3 C 694.89 309.09 691.41 314.76 687.77 320.31 C 694.46 318.34 701.23 316.63 708.07 315.19 C 708.01 312.34 710.83 307.66 712.04 305.71 C 713.2 303.85 714.91 301.95 717.1 302.02 C 718.9 302.07 720.45 303.58 720.92 305.32 C 721.39 307.06 720.93 308.95 720.06 310.53 C 719.19 312.11 717.93 313.44 716.68 314.74 C 718.55 314.55 720.49 314.37 722.24 315.05 C 723.99 315.73 725.45 317.55 725.04 319.39 C 724.73 320.83 723.35 321.85 721.91 322.15 C 720.47 322.44 718.97 322.13 717.57 321.69 C 716.08 321.22 713 320.14 710.75 318.73 C 703.42 320.22 696.16 322.02 688.99 324.12 C 697.19 324.29 705.35 326.47 712.52 330.47 C 714.08 331.34 715.64 332.34 716.69 333.79 C 717.73 335.25 718.16 337.27 717.33 338.85 C 716.29 340.82 713.81 341.45 711.59 341.71 C 698.17 343.29 684.17 338.34 674.62 328.81 C 662.7 333.06 651.1 338.15 639.89 344.01 C 651.15 341.3 663.33 342.45 673.86 347.3 C 675.22 347.93 676.6 348.65 677.55 349.8 C 678.5 350.96 678.95 352.66 678.25 353.99 C 677.45 355.51 675.55 356.02 673.85 356.3 C 659.5 358.69 644.34 355.81 631.82 348.4 C 623.38 353.18 615.2 358.41 607.32 364.05 C 619.85 364.01 631.58 367.38 641.07 373.78 C 642.01 374.41 642.94 375.1 643.44 376.15 C 643.94 377.2 643.9 378.71 643.02 379.85 C 642.06 381.1 640.49 381.52 639.11 381.78 C 623.09 384.8 607.63 381.12 596.86 371.91 C 586.25 380.29 576.26 389.45 567.02 399.33 C 569.26 398.59 571.56 398.15 573.03 397.79 C 579.37 396.28 585.91 395.58 592.42 395.76 C 595.91 395.85 599.48 396.21 602.64 397.69 C 604.36 398.49 610.35 402.7 608.96 405.24 C 608.95 405.26 608.94 405.28 608.92 405.3 C 608.61 405.81 608.04 406.09 607.5 406.35 C 602.12 408.88 596.6 410.81 590.7 411.69 C 585.11 412.53 579.39 412.52 573.8 411.67 C 570.76 411.21 561.74 410.33 560.38 406.68 C 555.33 412.5 550.51 418.52 545.98 424.77 C 544.28 427.11 542.64 429.49 541.03 431.88 C 552.05 428.32 563.93 427.45 575.34 429.42 C 577.11 429.73 578.93 430.12 580.43 431.12 C 581.93 432.12 583.06 433.86 582.85 435.65 C 582.57 438.06 580.14 439.56 577.93 440.55 C 564.27 446.68 548.31 447.45 534.11 442.71 C 527.82 453.08 522.24 463.87 517.41 474.99 C 527.01 468.89 537.7 464.49 548.83 462.1 C 551.3 461.57 553.87 461.13 556.35 461.6 C 558.84 462.07 561.26 463.61 562.13 465.99 C 562.98 468.32 562.17 471 560.63 472.94 C 559.09 474.88 556.92 476.2 554.73 477.37 C 542.14 484.08 527.45 486.77 513.3 485 C 509.47 494.87 506.22 504.95 503.55 515.2 C 513.69 509.89 524.18 505.27 534.95 501.4 C 537.76 500.39 540.72 499.41 543.68 499.79 C 546.64 500.17 549.6 502.31 549.9 505.29 C 550.22 508.51 547.53 511.16 544.95 513.11 C 532.15 522.8 516.34 528.44 500.3 529.1 C 498.78 536.47 497.59 543.91 496.68 551.38 C 503.56 547.5 510.71 544.08 518.05 541.18 C 521.45 539.84 525.05 538.58 528.68 539.02 C 532.31 539.46 535.93 542.1 536.26 545.74 C 536.59 549.39 533.69 552.5 530.73 554.66 C 520.8 561.91 507.54 564.33 495.65 561.23 C 494.07 579.98 494.42 598.89 496.83 617.59 L 492.86 618.1 C 490.5 599.74 490.09 581.18 491.52 562.77 C 479.57 565.08 466.62 561.91 457.2 554.18 C 454.41 551.88 451.69 548.61 452.22 544.98 Z " fill="url(#_lgradient_129)"/></svg>