<?xml version="1.0" encoding="UTF-8" standalone="no"?><!-- Generator: Gravit.io --><svg xmlns="http://www.w3.org/2000/svg" xmlns:xlink="http://www.w3.org/1999/xlink" style="isolation:isolate" viewBox="193.89 258.628 112.233 295.963" width="112.233pt" height="295.963pt"><g><linearGradient id="_lgradient_10" x1="-0.30491516514736094" y1="0.7943092911188655" x2="1.0286465517730115" y2="-0.4092773010130367" gradientTransform="matrix(112.233,0,0,295.963,193.89,258.628)" gradientUnits="userSpaceOnUse"><stop offset="0%" stop-opacity="1" style="stop-color:rgb(0,41,46)"/><stop offset="100%" stop-opacity="1" style="stop-color:rgb(9,78,66)"/></linearGradient><path d=" M 265.07 511.67 C 267.46 496.39 265.22 480.8 265.37 465.33 C 265.52 449.86 268.61 433.36 279.45 422.32 C 284.4 417.28 289.88 412.98 293.97 407.1 C 298.2 401.02 301.1 394 302.3 386.69 C 303.71 378.09 302.76 369.12 299.68 360.97 C 296.42 352.32 290.87 345.42 290.26 335.79 C 289.68 326.63 293.28 317.76 297.01 309.37 C 300.06 302.5 302.71 295.52 305 288.43 C 307.05 282.08 306.3 274.78 302.71 269.12 C 297.96 261.63 288.51 257.43 279.76 258.93 C 272.93 260.1 266.93 264.4 262.47 269.71 C 253 281 250.03 296.35 249.16 311.07 C 248.29 325.79 249.17 340.71 245.99 355.1 C 242.94 368.87 236.47 382.19 227.19 392.85 C 218.65 402.66 206.06 409.65 201.91 422.74 C 197.33 437.19 205.98 452.46 205.69 467.61 C 205.37 484.29 194.29 499.32 193.9 515.99 C 193.68 525.62 197.25 535.29 203.67 542.48 C 207.97 547.29 213.52 550.95 219.6 553.09 C 225.81 555.29 230.8 554.96 237 552.83 C 252.2 547.6 262.78 526.3 265.07 511.67 Z " fill="url(#_lgradient_10)"/><path d=" M 232.42 480.9 C 233.7 458.84 233.43 435.56 244.37 416.36 C 251.64 403.6 263.41 393.61 269.19 380.11 C 275.44 365.51 273.83 348.93 272.79 333.08 C 271.75 317.23 271.68 300.22 280.33 286.9" fill="none" vector-effect="non-scaling-stroke" stroke-width="3" stroke="rgb(16,107,92)" stroke-linejoin="miter" stroke-linecap="round" stroke-miterlimit="10"/></g></svg>