<?xml version="1.0" encoding="UTF-8" standalone="no"?><!-- Generator: Gravit.io --><svg xmlns="http://www.w3.org/2000/svg" xmlns:xlink="http://www.w3.org/1999/xlink" style="isolation:isolate" viewBox="853.79 224.126 86.718 190.124" width="86.718pt" height="190.124pt"><linearGradient id="_lgradient_35" x1="0.8732535449333163" y1="0.783436121840426" x2="0.10081338027188425" y2="-0.1770914357160671" gradientTransform="matrix(86.718,0,0,190.124,853.79,224.126)" gradientUnits="userSpaceOnUse"><stop offset="0%" stop-opacity="1" style="stop-color:rgb(0,41,46)"/><stop offset="100%" stop-opacity="1" style="stop-color:rgb(9,78,66)"/></linearGradient><path d=" M 875.33 412.9 C 882.64 399.27 888.28 384.74 892.16 369.75 C 885.08 371.69 878.03 372.34 870.68 372.76 C 867.12 372.96 863.44 372.96 860.14 371.61 C 856.84 370.26 853.99 367.27 853.8 363.71 C 853.63 360.51 855.66 357.48 858.35 355.75 C 861.05 354.03 864.32 353.43 867.52 353.28 C 876.97 352.85 886.61 356.66 893.8 362.85 C 895.66 354.42 896.98 345.88 897.71 337.28 C 891.1 340.12 884.35 341.75 877.27 343.2 C 873.78 343.92 870.13 344.45 866.68 343.59 C 863.22 342.73 859.97 340.18 859.26 336.69 C 858.63 333.55 860.19 330.25 862.62 328.16 C 865.04 326.06 868.2 325 871.34 324.39 C 880.42 322.63 890.27 324.86 898.19 329.71 C 898.24 328.57 898.3 327.44 898.33 326.3 C 898.5 320.2 898.36 314.09 897.95 308 C 895.37 308.6 892.93 310.12 890.33 310.74 C 887.35 311.45 884.26 311.71 881.21 311.48 C 877.87 311.23 874.51 310.39 871.66 308.62 C 868.81 306.85 866.49 304.1 865.66 300.85 C 864.82 297.6 865.62 293.88 868.02 291.54 C 870.66 288.96 874.76 288.38 878.37 289.12 C 885.21 290.53 891.52 292.24 896.89 297 C 895.93 289.34 894.52 281.73 892.67 274.23 C 891.77 274.27 890.87 274.29 889.93 274.19 C 887.6 273.95 885.28 273.5 883.03 272.87 C 880.45 272.15 877.95 271.17 875.56 269.96 C 874.04 269.19 872.54 268.31 871.34 267.09 C 870.13 265.88 869.23 264.3 869.1 262.6 C 868.89 259.88 870.92 257.17 873.59 256.6 C 875.53 256.19 877.54 256.81 879.39 257.54 C 882.92 258.94 886.27 260.78 889.35 263 C 889.43 263.06 889.52 263.12 889.61 263.18 C 887.29 255.68 884.51 248.32 881.29 241.16 C 879.4 241.3 877.1 240.79 875.52 240.34 C 873.42 239.75 871.41 238.6 870.21 236.78 C 869.01 234.96 868.8 232.41 870.05 230.63 C 871.3 228.85 874.12 228.25 875.77 229.67 C 876.48 230.28 877.09 231.24 878.02 231.17 C 878.77 231.12 879.29 230.36 879.44 229.63 C 879.6 228.89 879.51 228.12 879.64 227.38 C 880.06 225.09 882.78 223.67 885.03 224.26 C 887.28 224.85 888.89 227.05 889.22 229.36 C 889.55 231.67 888.77 234.02 887.52 235.99 C 886.7 237.28 885.51 239.03 884.1 240.11 C 887.67 248.08 890.71 256.28 893.19 264.66 C 893.69 263.35 894.47 262.05 895.07 260.92 C 897.16 256.94 899.74 253.22 902.73 249.86 C 904.3 248.1 906.09 246.38 908.37 245.79 C 911.49 244.98 915.08 246.78 916.3 249.77 C 917.06 251.64 916.94 253.79 916.31 255.72 C 915.67 257.64 914.56 259.37 913.35 260.99 C 911.46 263.54 909.32 265.89 906.98 268.02 C 904.92 269.89 902.71 271.58 900.37 273.08 C 898.96 273.98 897.49 274.56 896.02 275.22 C 897.71 282.33 899 289.54 899.89 296.8 C 899.96 296.67 900.02 296.53 900.09 296.38 C 901.05 294.23 903.39 292.39 905.1 290.79 C 909.09 287.05 913.54 283.79 918.32 281.13 C 920.82 279.74 923.57 278.47 926.43 278.7 C 930.34 279.02 933.75 282.51 933.96 286.43 C 934.09 288.89 933.09 291.31 931.6 293.27 C 930.1 295.23 928.13 296.76 926.1 298.15 C 922.91 300.32 919.51 302.18 915.97 303.69 C 912.86 305.02 909.64 306.08 906.35 306.86 C 904.52 307.3 902.74 307.39 900.94 307.55 C 901.37 313.8 901.52 320.08 901.34 326.34 C 901.32 327.25 901.26 328.15 901.23 329.06 C 909.74 321.58 921.61 318.02 932.83 319.67 C 935.24 320.02 937.8 320.72 939.3 322.64 C 941.03 324.85 940.78 328.16 939.32 330.56 C 937.86 332.96 935.42 334.6 932.93 335.89 C 923.09 340.99 911.05 341.61 900.71 337.64 C 900.01 345.75 898.8 353.82 897.11 361.79 C 906.52 355.98 918.44 354.31 929.04 357.49 C 931.37 358.19 933.81 359.25 935.01 361.36 C 936.4 363.8 935.67 367.04 933.88 369.2 C 932.09 371.36 929.44 372.63 926.78 373.55 C 916.42 377.13 904.57 376.06 894.97 370.8 C 891.03 385.89 885.33 400.52 877.97 414.25 L 875.33 412.9 Z " fill="url(#_lgradient_35)"/></svg>