<?xml version="1.0" encoding="UTF-8" standalone="no"?><!-- Generator: Gravit.io --><svg xmlns="http://www.w3.org/2000/svg" xmlns:xlink="http://www.w3.org/1999/xlink" style="isolation:isolate" viewBox="108.01 224.748 112.233 295.953" width="112.233pt" height="295.953pt"><g><linearGradient id="_lgradient_8" x1="-0.3048429432769726" y1="0.7943296595287934" x2="1.0287234984843348" y2="-0.4092611969390796" gradientTransform="matrix(112.233,0,0,295.953,108.01,224.748)" gradientUnits="userSpaceOnUse"><stop offset="0%" stop-opacity="1" style="stop-color:rgb(0,41,46)"/><stop offset="100%" stop-opacity="1" style="stop-color:rgb(9,78,66)"/></linearGradient><path d=" M 179.19 477.79 C 181.58 462.51 179.34 446.92 179.49 431.45 C 179.64 415.98 182.73 399.48 193.57 388.44 C 198.52 383.4 204 379.1 208.09 373.22 C 212.32 367.14 215.22 360.12 216.42 352.81 C 217.83 344.21 216.88 335.24 213.8 327.09 C 210.54 318.44 204.99 311.54 204.38 301.91 C 203.8 292.75 207.4 283.88 211.13 275.49 C 214.18 268.62 216.83 261.64 219.12 254.55 C 221.17 248.2 220.42 240.9 216.83 235.24 C 212.08 227.75 202.63 223.55 193.88 225.05 C 187.05 226.22 181.05 230.52 176.59 235.83 C 167.12 247.12 164.15 262.47 163.28 277.19 C 162.41 291.9 163.29 306.83 160.11 321.22 C 157.06 334.99 150.59 348.31 141.31 358.97 C 132.77 368.78 120.18 375.77 116.03 388.86 C 111.45 403.31 120.1 418.58 119.81 433.73 C 119.49 450.41 108.41 465.44 108.02 482.11 C 107.8 491.74 111.37 501.41 117.79 508.59 C 122.09 513.4 127.64 517.06 133.72 519.2 C 139.93 521.4 144.92 521.07 151.12 518.94 C 166.32 513.71 176.91 492.42 179.19 477.79 Z " fill="url(#_lgradient_8)"/><path d=" M 146.54 447.02 C 147.82 424.96 147.55 401.68 158.49 382.48 C 165.76 369.72 177.53 359.73 183.31 346.23 C 189.56 331.63 187.95 315.05 186.91 299.2 C 185.87 283.35 185.8 266.34 194.45 253.02" fill="none" vector-effect="non-scaling-stroke" stroke-width="3" stroke="rgb(16,107,92)" stroke-linejoin="miter" stroke-linecap="round" stroke-miterlimit="10"/></g></svg>