<?xml version="1.0" encoding="UTF-8" standalone="no"?><!-- Generator: Gravit.io --><svg xmlns="http://www.w3.org/2000/svg" xmlns:xlink="http://www.w3.org/1999/xlink" style="isolation:isolate" viewBox="71.945 241.839 125.955 269.341" width="125.955pt" height="269.341pt"><linearGradient id="_lgradient_6" x1="1.2725367142560013" y1="0.31971030229191355" x2="-0.11723440772241078" y2="0.9873061485495702" gradientTransform="matrix(125.955,0,0,269.341,71.945,241.839)" gradientUnits="userSpaceOnUse"><stop offset="0%" stop-opacity="1" style="stop-color:rgb(42,149,142)"/><stop offset="100%" stop-opacity="1" style="stop-color:rgb(21,150,91)"/></linearGradient><path d=" M 73.13 460.69 C 72.28 458.74 71.52 455.87 72.22 453.61 C 72.43 452.94 72.93 452.29 73.58 452.15 C 73.99 452.06 74.4 452.17 74.78 452.31 C 76.84 453.04 78.45 454.45 80.1 455.87 C 81.56 457.13 82.97 458.44 84.34 459.81 C 85.6 461.07 87.13 462.22 88.16 463.73 C 88.85 464.54 89.51 465.37 90.15 466.22 C 90.38 466.53 91.95 468.24 91.84 468.61 C 92.26 467.2 92.78 465.77 92.96 464.34 C 93.15 462.83 93.46 461.32 93.76 459.82 C 93.97 458.94 95.5 450.52 95.83 450.49 C 89.63 442.76 83.08 435.81 81.58 425.6 C 81.24 423.29 81.42 420.76 82.18 418.48 C 82.4 417.82 82.7 417.14 83.26 416.78 C 84.07 416.26 85.06 416.64 85.8 417.16 C 87.77 418.53 89.13 420.73 90.33 422.94 C 91.92 425.85 93.34 428.9 94.59 432.06 C 95.22 433.67 95.81 435.3 96.35 436.96 C 96.8 438.35 97.41 439.69 97.73 441.14 C 99.37 434.04 101.17 426.97 103.14 419.92 C 100.16 411.21 97.9 402.19 96.42 393.01 C 96.06 390.79 95.75 388.45 96.41 386.24 C 97.06 384.03 98.99 382.02 101 382.3 C 102.34 382.49 103.41 383.66 103.97 385.04 C 104.53 386.42 104.68 388 104.81 389.55 C 105.38 396.39 105.77 403.27 105.98 410.19 C 108.22 402.76 110.63 395.37 113.24 388 C 108.99 378.46 106.52 367.84 105.99 357 C 105.92 355.64 105.98 354.03 106.94 353.17 C 107.81 352.39 109.09 352.63 109.91 353.4 C 110.73 354.17 111.19 355.34 111.6 356.48 C 114.17 363.67 115.8 371.39 116.41 379.31 C 116.94 377.91 117.47 376.5 118.02 375.1 C 119.98 370.03 122.05 365 124.19 359.99 C 119.25 349.54 117.53 336.87 119.4 324.8 C 119.56 323.79 119.81 322.67 120.54 322.15 C 121.22 321.67 122.11 321.89 122.73 322.45 C 123.35 323.01 123.76 323.85 124.13 324.68 C 127.43 332.07 129.12 340.57 129 349.1 C 132.1 342.31 135.35 335.56 138.75 328.9 C 134.84 320.31 134.35 309.35 137.26 298.48 C 137.5 297.58 137.84 296.56 138.58 296.04 C 139.25 295.56 140.06 295.69 140.59 296.14 C 141.11 296.59 141.41 297.3 141.68 298.01 C 144.02 304.19 144.88 311.35 144.15 318.63 C 147.22 312.95 150.4 307.35 153.7 301.83 C 151.64 291.8 151.74 281.02 154.05 271.21 C 154.38 269.8 154.78 268.36 155.53 267.29 C 156.28 266.22 157.47 265.57 158.58 266.06 C 159.55 266.49 160.27 267.71 160.61 269.01 C 160.95 270.31 160.97 271.68 160.97 273.02 C 160.98 279.29 160.63 285.52 159.96 291.65 C 163.93 285.42 168.05 279.34 172.34 273.47 C 170.2 265.84 169.32 257.61 169.83 249.7 C 169.97 247.64 170.21 245.53 171.06 243.91 C 171.91 242.29 173.51 241.32 174.99 242.13 C 176.09 242.73 176.9 244.19 177.31 245.72 C 177.72 247.25 177.79 248.86 177.83 250.44 C 177.97 255.84 177.89 261.2 177.59 266.51 C 180.45 262.83 183.38 259.26 186.39 255.8 C 185.52 253.69 185.5 249.2 185.49 247.31 C 185.49 245.51 185.73 243.47 186.83 242.73 C 187.74 242.12 188.98 242.68 189.77 243.83 C 190.55 244.98 190.92 246.57 190.98 248.07 C 191.04 249.58 190.82 251.03 190.59 252.45 C 191.47 251.65 192.38 250.82 193.47 250.72 C 194.55 250.61 195.84 251.49 196.19 253.04 C 196.47 254.25 196.08 255.52 195.45 256.25 C 194.81 256.98 193.96 257.26 193.13 257.41 C 192.24 257.58 190.37 257.81 188.81 257.53 C 185.55 261.19 182.38 264.99 179.3 268.92 C 183.54 266.34 188.32 265.21 193.11 265.83 C 194.15 265.97 195.23 266.2 196.17 266.97 C 197.11 267.74 197.9 269.15 197.9 270.65 C 197.91 272.52 196.79 273.83 195.72 274.75 C 189.2 280.37 180.62 280.97 173.17 277.04 C 168.13 283.95 163.32 291.16 158.71 298.56 C 164.07 293.39 170.73 290.5 177.46 290.9 C 178.33 290.95 179.23 291.07 180.01 291.64 C 180.79 292.21 181.43 293.35 181.38 294.56 C 181.32 295.94 180.43 296.89 179.59 297.61 C 172.51 303.66 163.73 305.73 155.4 303.98 C 151.95 309.73 148.62 315.59 145.42 321.53 C 152.24 318.32 159.27 317.56 165.7 319.72 C 166.33 319.93 166.98 320.19 167.46 320.82 C 167.94 321.46 168.21 322.58 167.94 323.65 C 167.65 324.82 166.87 325.53 166.17 326.08 C 157.94 332.41 148.74 333.36 141.17 329.59 C 136.85 337.96 132.78 346.45 128.96 355.04 C 130.12 354.09 131.35 353.31 132.12 352.76 C 135.46 350.41 139.02 348.52 142.69 347.21 C 144.66 346.51 146.7 345.97 148.7 346.3 C 149.78 346.48 153.78 348.15 153.38 350.28 C 153.38 350.3 153.37 350.32 153.37 350.33 C 153.27 350.77 152.99 351.09 152.73 351.39 C 150.08 354.38 147.23 356.92 144.02 358.75 C 140.97 360.49 137.73 361.62 134.46 362.13 C 132.68 362.42 127.46 363.53 126.22 361.32 C 124.12 366.24 122.09 371.17 120.16 376.15 C 119.44 378.01 118.74 379.88 118.04 381.75 C 124.02 377.6 130.71 374.89 137.45 374.19 C 138.5 374.08 139.58 374.02 140.54 374.45 C 141.51 374.88 142.34 375.9 142.41 377.21 C 142.5 378.97 141.25 380.46 140.08 381.55 C 132.82 388.27 123.61 391.16 115.02 390.07 C 112.25 397.95 109.69 405.85 107.36 413.79 C 112.71 408.67 118.68 404.33 124.99 401.14 C 126.39 400.43 127.85 399.76 129.33 399.73 C 130.81 399.7 132.32 400.42 132.98 401.97 C 133.62 403.48 133.31 405.49 132.52 407.06 C 131.73 408.64 130.53 409.85 129.31 410.95 C 122.27 417.28 113.69 420.67 105.33 420.89 C 103.4 427.84 101.63 434.82 100.02 441.82 C 106.03 437.6 112.19 433.6 118.48 429.88 C 120.12 428.91 121.84 427.93 123.6 427.89 C 125.35 427.84 127.15 429.04 127.37 431.1 C 127.61 433.33 126.04 435.47 124.52 437.08 C 116.99 445.08 107.46 450 97.94 451.28 C 96.91 456.28 95.53 463.19 94.62 468.21 C 98.91 465.42 103.72 460.89 108.18 458.5 C 110.25 457.4 112.42 456.33 114.57 456.41 C 116.72 456.49 118.8 458.11 118.87 460.65 C 118.94 463.19 117.08 465.55 115.21 467.19 C 108.93 472.75 100.84 474.75 93.95 472.93 C 91.94 485.51 90.44 498.19 89.54 510.94 C 88.73 511.02 87.92 511.1 87.11 511.18 C 88.02 498.72 89.64 485.53 91.54 473.24 C 91.42 474 86.91 472.74 86.49 472.61 C 84.8 472.06 83.19 471.3 81.69 470.35 C 78.69 468.46 76.13 465.84 74.24 462.71 C 73.78 462.04 73.43 461.38 73.13 460.69 Z " fill="url(#_lgradient_6)"/></svg>