<?xml version="1.0" encoding="UTF-8" standalone="no"?><!-- Generator: Gravit.io --><svg xmlns="http://www.w3.org/2000/svg" xmlns:xlink="http://www.w3.org/1999/xlink" style="isolation:isolate" viewBox="23.128 263.465 244.417 352.455" width="244.417pt" height="352.455pt"><g><g><linearGradient id="_lgradient_0" x1="0.49997917768216965" y1="1.0000066991808332" x2="0.4999791776821697" y2="-0.00002688385743043753" gradientTransform="matrix(75.772,0,0,217.2,23.128,347.772)" gradientUnits="userSpaceOnUse"><stop offset="0%" stop-opacity="1" style="stop-color:rgb(118,198,75)"/><stop offset="100%" stop-opacity="1" style="stop-color:rgb(130,211,110)"/></linearGradient><path d=" M 67.29 525 C 69.6 492.77 62.1 459.9 46.05 431.86 C 40.87 422.81 34.82 414.24 30.18 404.9 C 25.54 395.56 22.31 385.17 23.31 374.79 C 24.31 364.41 30.19 354.09 39.72 349.85 C 50.42 345.09 63.5 348.97 72.2 356.81 C 80.9 364.65 85.93 375.76 89.56 386.89 C 98.79 415.28 100.33 445.72 97.83 475.46 C 95.33 505.21 88.89 534.46 82.47 563.62 C 82.28 564.49 63.35 564.82 61.39 564.93 C 54.92 565.3 52.07 563.31 56.41 557.76 C 63.77 548.36 66.45 536.72 67.29 525 Z " fill="url(#_lgradient_0)"/><path d=" M 64.54 575.41 C 79.1 541.96 83.66 504.62 80.5 468.27 C 77.34 431.92 66.64 403.02 51.83 369.68" fill="none" vector-effect="non-scaling-stroke" stroke-width="5" stroke="rgb(9,78,66)" stroke-linejoin="miter" stroke-linecap="round" stroke-miterlimit="10"/></g><g><linearGradient id="_lgradient_1" x1="0.07234035294212515" y1="0.9848902884960699" x2="0.352926796512571" y2="-0.1829787144300622" gradientTransform="matrix(104.533,0,0,316.373,67.909,263.465)" gradientUnits="userSpaceOnUse"><stop offset="0%" stop-opacity="1" style="stop-color:rgb(118,198,75)"/><stop offset="100%" stop-opacity="1" style="stop-color:rgb(130,211,110)"/></linearGradient><path d=" M 97.03 520.42 C 110.9 475.52 112.6 426.73 101.83 382.17 C 98.35 367.79 93.61 353.83 90.92 339.2 C 88.22 324.57 87.67 308.89 92.46 294.5 C 97.26 280.11 108.19 267.29 121.69 264.19 C 136.85 260.71 152.07 270.17 160.41 283.91 C 168.75 297.65 171.34 314.89 172.14 331.75 C 174.17 374.72 165.77 418.26 152.49 459.59 C 139.21 500.92 121.13 540.36 103.1 579.67 C 102.57 580.84 78.51 575.56 75.99 575.12 C 67.68 573.68 64.75 569.99 72.14 563.46 C 84.63 552.4 91.98 536.74 97.03 520.42 Z " fill="url(#_lgradient_1)"/><path d=" M 76.42 590.92 C 106.2 548.01 124.67 496.56 133.02 444.17 C 141.37 391.78 137.66 347.62 130.26 295.95" fill="none" vector-effect="non-scaling-stroke" stroke-width="5" stroke="rgb(9,78,66)" stroke-linejoin="miter" stroke-linecap="round" stroke-miterlimit="10"/></g><g><linearGradient id="_lgradient_2" x1="0.49993773870464897" y1="0.9999654506247317" x2="0.499937738704649" y2="-0.00004463146039324073" gradientTransform="matrix(141.986,0,0,186.516,108.022,395.694)" gradientUnits="userSpaceOnUse"><stop offset="0%" stop-opacity="1" style="stop-color:rgb(118,198,75)"/><stop offset="100%" stop-opacity="1" style="stop-color:rgb(130,211,110)"/></linearGradient><path d=" M 118.09 534.14 C 125.16 525.42 134.65 519.05 142.92 511.44 C 151.18 503.84 158.58 494.15 159.25 482.94 C 159.56 477.82 159.21 472.78 160.39 467.72 C 161.61 462.48 163.98 457.51 167.34 453.31 C 171.29 448.37 176.58 444.52 182.47 442.21 C 188.72 439.76 195.13 439.39 200.62 435.04 C 205.84 430.9 208.86 424.65 211.57 418.56 C 213.79 413.57 216.26 408.75 218.97 404.07 C 221.4 399.88 225.69 396.73 230.49 395.91 C 236.84 394.83 243.7 397.88 247.14 403.32 C 249.83 407.57 250.44 412.89 249.74 417.88 C 248.26 428.47 241.43 437.54 233.93 445.16 C 226.42 452.78 217.95 459.57 211.75 468.28 C 205.81 476.62 201.78 486.59 200.55 496.77 C 199.42 506.14 201.77 516.33 196.74 524.92 C 191.18 534.41 178.75 537.18 170.73 544.71 C 161.9 552.99 159.19 566.28 150.39 574.59 C 145.31 579.39 138.36 582.18 131.37 582.21 C 126.69 582.23 122.02 581.02 117.91 578.79 C 113.7 576.51 111.45 573.66 109.59 569.29 C 104.99 558.55 111.32 542.49 118.09 534.14 Z " fill="url(#_lgradient_2)"/><path d=" M 129.47 569.94 C 132.29 556.88 141.4 546.04 150.54 536.77 C 161.8 525.35 174.48 514.17 179.51 498.94 C 182.85 488.82 182.51 477.62 186.97 467.94 C 191.8 457.47 201.51 450.27 210.56 443.13 C 219.61 435.99 228.8 427.75 231.77 416.61" fill="none" vector-effect="non-scaling-stroke" stroke-width="3" stroke="rgb(9,78,66)" stroke-linejoin="miter" stroke-linecap="round" stroke-miterlimit="10"/></g><g><linearGradient id="_lgradient_3" x1="-0.1840182326574773" y1="0.7401867248824652" x2="1.0896444555173375" y2="-0.03274133994978967" gradientTransform="matrix(71.518,0,0,129.224,196.026,448.618)" gradientUnits="userSpaceOnUse"><stop offset="0%" stop-opacity="1" style="stop-color:rgb(118,198,75)"/><stop offset="100%" stop-opacity="1" style="stop-color:rgb(130,211,110)"/></linearGradient><path d=" M 228.92 561.49 C 231.32 554.79 231.65 547.56 233.05 540.59 C 234.45 533.62 237.27 526.43 243.12 522.38 C 245.79 520.53 248.64 519.06 250.99 516.76 C 253.42 514.38 255.34 511.46 256.51 508.26 C 257.89 504.5 258.23 500.37 257.55 496.42 C 256.82 492.23 254.91 488.64 255.47 484.24 C 256 480.05 258.39 476.36 260.8 472.89 C 262.77 470.05 264.57 467.13 266.22 464.12 C 267.69 461.43 267.99 458.07 266.85 455.2 C 265.35 451.41 261.44 448.69 257.37 448.62 C 254.18 448.56 251.1 449.98 248.63 452 C 243.38 456.28 240.71 462.96 239.05 469.53 C 237.39 476.1 236.5 482.92 233.82 489.14 C 231.25 495.1 227.18 500.56 222.07 504.57 C 217.37 508.26 211.08 510.33 208.08 515.89 C 204.77 522.02 207.35 529.66 205.91 536.48 C 204.33 543.98 198.02 549.82 196.41 557.31 C 195.48 561.64 196.26 566.32 198.54 570.11 C 200.07 572.65 202.26 574.78 204.82 576.28 C 207.44 577.81 209.72 578.09 212.7 577.66 C 220.01 576.6 226.62 567.9 228.92 561.49 Z " fill="url(#_lgradient_3)"/><path d=" M 216.83 544.78 C 219.31 534.93 221.2 524.39 227.79 516.66 C 232.17 511.53 238.35 508.03 242.13 502.43 C 246.21 496.38 246.92 488.75 247.81 481.5 C 248.7 474.25 250.14 466.56 255.2 461.3" fill="none" vector-effect="non-scaling-stroke" stroke-width="2" stroke="rgb(9,78,66)" stroke-linejoin="miter" stroke-linecap="round" stroke-miterlimit="10"/></g></g></svg>