<?xml version="1.0" encoding="UTF-8" standalone="no"?><!-- Generator: Gravit.io --><svg xmlns="http://www.w3.org/2000/svg" xmlns:xlink="http://www.w3.org/1999/xlink" style="isolation:isolate" viewBox="548.138 383.469 127.874 250.361" width="127.874pt" height="250.361pt"><linearGradient id="_lgradient_130" x1="1.2706422696646191" y1="0.28415984560639274" x2="0.01509698360434597" y2="1.0217308121913247" gradientTransform="matrix(127.874,0,0,250.361,548.138,383.469)" gradientUnits="userSpaceOnUse"><stop offset="0%" stop-opacity="1" style="stop-color:rgb(130,211,110)"/><stop offset="100%" stop-opacity="1" style="stop-color:rgb(118,198,75)"/></linearGradient><path d=" M 551.17 591.06 C 549.7 589.38 548.07 586.7 548.14 584.21 C 548.16 583.47 548.5 582.68 549.12 582.35 C 549.52 582.14 549.97 582.15 550.4 582.18 C 552.73 582.35 554.78 583.31 556.89 584.26 C 558.75 585.1 560.58 586 562.39 586.95 C 564.05 587.83 565.97 588.51 567.47 589.67 C 568.42 590.25 569.35 590.85 570.27 591.49 C 570.6 591.72 572.73 592.9 572.73 593.28 C 572.72 591.82 572.81 590.32 572.57 588.91 C 572.31 587.43 572.19 585.9 572.06 584.39 C 571.99 583.5 571.26 575.03 571.63 574.91 C 563.2 568.99 554.63 563.55 550.92 553.37 C 550.08 551.07 549.77 548.43 550.14 545.93 C 550.25 545.21 550.44 544.45 550.96 543.98 C 551.72 543.3 552.83 543.52 553.71 543.92 C 556.04 544.98 557.87 546.96 559.57 548.97 C 561.81 551.61 563.92 554.36 565.91 557.23 C 566.92 558.68 567.9 560.17 568.84 561.68 C 569.63 562.95 570.58 564.12 571.25 565.45 C 571.26 558.2 571.66 550.93 572.45 543.7 C 567.73 535.67 563.98 526.94 561.37 517.78 C 560.74 515.56 560.17 513.2 560.65 510.89 C 561.13 508.58 563.02 506.38 565.18 506.5 C 566.63 506.58 567.86 507.67 568.58 509.01 C 569.3 510.34 569.61 511.9 569.9 513.43 C 571.2 520.19 572.49 526.95 573.79 533.7 C 575 526.1 576.63 518.55 578.71 511.13 C 573.27 502.19 569.98 491.66 569.27 480.81 C 569.18 479.44 569.23 477.83 570.24 476.97 C 571.16 476.19 572.53 476.43 573.41 477.19 C 574.29 477.95 574.79 479.1 575.24 480.23 C 578.08 487.3 580.12 494.77 581.35 502.43 C 581.81 501.03 582.29 499.63 582.78 498.24 C 584.56 493.22 586.56 488.28 588.74 483.44 C 583.21 473.54 581.61 461.01 584.45 449.49 C 584.69 448.53 585.04 447.47 585.86 447.01 C 586.62 446.59 587.55 446.87 588.17 447.45 C 588.79 448.03 589.16 448.85 589.5 449.66 C 592.51 456.91 593.97 464.95 593.79 473.03 C 597.14 466.61 600.83 460.39 604.83 454.41 C 601.13 446.31 601.56 435.96 606.08 426.39 C 606.46 425.59 606.95 424.71 607.8 424.33 C 608.58 423.98 609.42 424.19 609.91 424.66 C 610.4 425.13 610.63 425.8 610.82 426.47 C 612.49 432.3 612.63 438.8 611.27 445.35 C 614.99 440.41 618.94 435.66 623.09 431.13 C 622.08 422.1 623.88 412.58 628.17 404.51 C 628.79 403.35 629.48 402.18 630.49 401.38 C 631.49 400.58 632.87 400.23 633.93 400.83 C 634.86 401.35 635.38 402.5 635.49 403.64 C 635.6 404.79 635.37 405.95 635.12 407.09 C 633.99 412.42 632.63 417.69 631.06 422.9 C 636.14 417.97 641.46 413.36 647.01 409.09 C 646.1 402.46 646.85 395.48 649.21 389.13 C 649.82 387.47 650.58 385.8 651.85 384.66 C 653.12 383.51 655.03 383.03 656.37 383.96 C 657.36 384.65 657.86 385.96 657.93 387.26 C 658 388.56 657.7 389.86 657.39 391.13 C 656.33 395.49 655.13 399.82 653.81 404.11 C 657.51 401.53 661.31 399.1 665.18 396.83 C 664.7 395.01 665.66 391.45 666.09 389.95 C 666.49 388.53 667.22 386.97 668.54 386.58 C 669.63 386.26 670.79 386.93 671.35 387.96 C 671.91 388.99 671.92 390.29 671.64 391.48 C 671.36 392.67 670.82 393.77 670.27 394.85 C 671.36 394.36 672.5 393.86 673.65 393.96 C 674.8 394.05 675.96 394.94 676.01 396.2 C 676.05 397.19 675.38 398.12 674.57 398.59 C 673.75 399.06 672.81 399.15 671.9 399.15 C 670.93 399.14 668.92 399.05 667.35 398.58 C 663.19 400.98 659.12 403.56 655.15 406.32 C 660.09 404.82 665.32 404.62 670.24 405.79 C 671.31 406.04 672.4 406.38 673.25 407.11 C 674.1 407.84 674.67 409.06 674.42 410.24 C 674.1 411.71 672.71 412.6 671.43 413.2 C 663.63 416.85 654.47 416.42 647.26 412.16 C 640.78 417.23 634.61 422.78 628.81 428.75 C 635.14 424.8 642.61 423.15 649.68 424.2 C 650.59 424.34 651.53 424.53 652.28 425.08 C 653.03 425.64 653.56 426.64 653.35 427.63 C 653.11 428.77 652.05 429.47 651.07 429.98 C 642.84 434.34 633.31 435.46 624.65 433.15 C 620.34 437.88 616.25 442.85 612.4 448.03 C 619.91 445.55 627.46 445.41 634.14 447.66 C 634.8 447.88 635.47 448.14 635.93 448.72 C 636.39 449.3 636.6 450.27 636.25 451.18 C 635.87 452.17 635 452.75 634.21 453.19 C 625.08 458.28 615.24 458.95 607.35 455.14 C 602.3 462.61 597.73 470.47 593.73 478.63 C 594.96 477.72 596.27 476.98 597.09 476.46 C 600.65 474.24 604.46 472.51 608.4 471.34 C 610.51 470.71 612.7 470.25 614.83 470.57 C 615.99 470.75 620.23 472.28 619.79 474.18 C 619.79 474.2 619.78 474.21 619.78 474.23 C 619.67 474.62 619.38 474.91 619.09 475.18 C 616.26 477.86 613.25 480.19 609.85 481.91 C 606.63 483.55 603.2 484.67 599.72 485.22 C 597.82 485.52 592.28 486.72 590.9 484.65 C 588.78 489.38 586.83 494.2 585.09 499.11 C 584.44 500.95 583.82 502.8 583.23 504.66 C 589.28 500.21 596.26 497.32 603.41 496.34 C 604.52 496.19 605.67 496.08 606.72 496.43 C 607.77 496.78 608.72 497.67 608.88 498.86 C 609.09 500.47 607.86 501.9 606.69 502.98 C 599.46 509.6 590.01 513.23 580.76 512.97 C 578.6 520.87 576.94 528.91 575.77 537 C 580.58 531.19 586.3 526.27 592.59 522.55 C 593.99 521.72 595.46 520.94 597.02 520.75 C 598.58 520.56 600.28 521.08 601.17 522.44 C 602.04 523.77 601.97 525.65 601.35 527.2 C 600.73 528.75 599.63 530.03 598.51 531.2 C 592.01 537.98 583.62 542.6 574.86 544.24 C 574.1 551.34 573.72 558.46 573.72 565.57 C 578.97 560.17 584.54 555.14 590.39 550.53 C 591.92 549.33 593.54 548.12 595.37 547.78 C 597.21 547.44 599.31 548.24 599.95 550.09 C 600.65 552.09 599.44 554.33 598.2 556.09 C 592.04 564.83 583.44 571.56 573.93 575.13 C 574.17 580.17 574.73 587.1 575.35 592.08 C 578.87 588.23 582.5 582.72 586.45 579.41 C 588.28 577.88 590.24 576.37 592.48 575.94 C 594.72 575.51 597.3 576.5 598.07 578.78 C 598.84 581.06 597.58 583.63 596.15 585.6 C 591.32 592.21 583.75 596.37 576.15 596.71 C 578.12 609.08 581.28 621.17 585.63 632.72 L 583.33 633.83 C 579.06 622.49 575.8 609.83 573.79 597.71 C 573.91 598.46 568.91 598.63 568.45 598.63 C 566.55 598.62 564.67 598.38 562.84 597.93 C 559.18 597.02 555.72 595.25 552.83 592.72 C 552.25 592.22 551.69 591.66 551.17 591.06 Z " fill="url(#_lgradient_130)"/></svg>