<?xml version="1.0" encoding="UTF-8" standalone="no"?><!-- Generator: Gravit.io --><svg xmlns="http://www.w3.org/2000/svg" xmlns:xlink="http://www.w3.org/1999/xlink" style="isolation:isolate" viewBox="-20.745 211.659 180.475 466.871" width="180.475pt" height="466.871pt"><linearGradient id="_lgradient_4" x1="1.4299455802478653" y1="0.2180662875207543" x2="0.18102954165228802" y2="1.3613256547383967" gradientTransform="matrix(180.475,0,0,466.871,-20.745,211.659)" gradientUnits="userSpaceOnUse"><stop offset="0%" stop-opacity="1" style="stop-color:rgb(42,149,142)"/><stop offset="100%" stop-opacity="1" style="stop-color:rgb(21,150,91)"/></linearGradient><path d=" M -7.88 623.09 C -9.36 618.91 -6.7 614.16 -2.92 611.84 C 0.86 609.52 5.47 609.08 9.9 608.85 C 19.96 608.31 30.06 608.52 40.09 609.44 C 35.99 599.01 32.42 588.37 29.37 577.59 C 10.68 570.3 -5.77 557.33 -17.15 540.8 C -18.62 538.66 -20.04 536.4 -20.56 533.85 C -21.08 531.3 -20.53 528.39 -18.58 526.68 C -16.44 524.8 -13.13 524.8 -10.52 525.94 C -7.91 527.08 -5.84 529.15 -3.85 531.18 C 6.2 541.44 15.98 551.95 25.52 562.69 C 22.53 549.94 20.28 537.01 18.79 524 C 6.35 511.63 -4.49 497.67 -13.33 482.53 C -15.47 478.86 -17.55 474.93 -17.58 470.68 C -17.61 466.43 -14.88 461.87 -10.68 461.29 C -7.86 460.9 -5.04 462.36 -3.09 464.44 C -1.14 466.52 0.09 469.15 1.29 471.73 C 6.6 483.13 11.9 494.54 17.21 505.94 C 16.38 492.12 16.39 478.26 17.3 464.44 C 3.11 450.74 -7.6 433.45 -13.5 414.62 C -14.24 412.25 -14.82 409.41 -13.22 407.51 C -11.77 405.79 -9.02 405.7 -7.01 406.71 C -5 407.72 -3.56 409.56 -2.22 411.37 C 6.19 422.75 13.23 435.13 18.78 448.15 C 19.09 445.52 19.43 442.88 19.8 440.26 C 21.15 430.77 22.94 421.35 25.12 412.03 C 10.36 396.66 2.05 375.23 2.76 353.92 C 2.82 352.14 3.05 350.14 4.45 349.04 C 5.73 348.03 7.64 348.17 9.08 348.95 C 10.51 349.73 11.57 351.05 12.56 352.35 C 21.36 363.98 27.52 377.58 30.54 391.85 C 34.32 379.32 38.85 367.02 44.07 355.03 C 33.57 342.16 30.11 323.8 34.83 305.29 C 35.22 303.75 35.81 302.02 37.29 301.03 C 38.65 300.12 40.35 300.18 41.49 300.82 C 42.63 301.46 43.34 302.56 43.99 303.66 C 49.64 313.3 52.61 324.66 52.7 336.69 C 57.82 326.62 63.45 316.82 69.55 307.31 C 63.85 291.8 63.36 274.41 68.27 258.62 C 68.98 256.34 69.83 254.04 71.43 252.27 C 73.03 250.5 75.54 249.37 77.84 250.02 C 79.86 250.59 81.32 252.41 82.01 254.39 C 82.7 256.37 82.73 258.5 82.74 260.6 C 82.77 270.38 82.34 280.17 81.48 289.91 C 89.21 279.37 97.55 269.28 106.47 259.71 C 101.96 248.38 100.52 235.84 102.41 223.79 C 102.9 220.65 103.67 217.43 105.64 214.94 C 107.61 212.45 111.09 210.9 114.05 212.04 C 116.25 212.88 117.76 215.01 118.43 217.27 C 119.1 219.53 119.06 221.93 119 224.28 C 118.77 232.34 118.26 240.4 117.49 248.43 C 123.55 242.52 129.85 236.85 136.37 231.42 C 134.7 228.4 135.06 221.78 135.26 218.99 C 135.45 216.34 136.21 213.33 138.59 212.16 C 140.56 211.19 143.08 211.93 144.57 213.54 C 146.06 215.15 146.64 217.43 146.6 219.62 C 146.56 221.81 145.96 223.95 145.37 226.06 C 147.26 224.8 149.25 223.5 151.51 223.24 C 153.77 222.98 156.37 224.11 156.98 226.3 C 157.46 228.02 156.57 229.9 155.19 231.03 C 153.81 232.16 152.03 232.67 150.27 233 C 148.4 233.35 144.48 233.93 141.27 233.68 C 134.25 239.44 127.47 245.48 120.98 251.81 C 129.88 247.34 139.87 245.05 149.83 245.28 C 152 245.33 154.24 245.51 156.18 246.48 C 158.13 247.45 159.73 249.38 159.73 251.55 C 159.73 254.25 157.42 256.34 155.2 257.87 C 141.69 267.17 123.86 269.81 108.21 264.99 C 97.85 276.31 88.28 288.35 79.58 301 C 90.13 291.7 103.85 286.03 117.89 285.27 C 119.71 285.17 121.59 285.16 123.27 285.86 C 124.95 286.56 126.39 288.14 126.39 289.96 C 126.4 292.05 124.64 293.67 122.98 294.94 C 108.93 305.65 91.03 311.15 73.4 310.29 C 67.06 320.2 61.24 330.46 55.98 340.99 C 69.41 333.84 83.9 330.81 97.72 332.29 C 99.08 332.44 100.48 332.64 101.61 333.49 C 102.74 334.33 103.55 335.97 103.26 337.7 C 102.94 339.58 101.5 340.93 100.16 341.99 C 84.69 354.31 66 359.14 49.23 355.35 C 42.6 370.36 37.07 385.86 32.75 401.7 C 34.74 399.64 36.95 397.86 38.33 396.64 C 44.28 391.42 50.9 386.97 57.99 383.46 C 61.79 381.58 65.82 379.94 70.05 379.73 C 72.35 379.61 81.17 380.73 81.11 384.25 C 81.11 384.28 81.11 384.31 81.11 384.34 C 81.07 385.06 80.62 385.69 80.18 386.27 C 75.84 392.04 71.01 397.23 65.18 401.53 C 59.65 405.6 53.51 408.84 47.03 411.1 C 43.5 412.33 33.32 416.5 29.8 413.36 C 27.68 422.47 25.93 431.67 24.61 440.94 C 24.12 444.41 23.7 447.89 23.33 451.38 C 33.14 441.32 45.39 433.64 58.75 429.28 C 60.83 428.6 63 427.99 65.17 428.22 C 67.34 428.44 69.55 429.66 70.34 431.7 C 71.4 434.45 69.65 437.43 67.84 439.75 C 56.66 454.07 39.96 463.95 22.04 466.92 C 21.17 481.62 21.3 496.36 22.42 511.03 C 29.26 499.03 38.24 488.26 48.83 479.39 C 51.18 477.42 53.69 475.5 56.62 474.59 C 59.55 473.68 63.03 473.96 65.31 476.02 C 67.54 478.03 68.2 481.37 67.64 484.32 C 67.08 487.27 65.51 489.93 63.82 492.41 C 54.11 506.75 39.88 517.97 23.68 524.1 C 25.17 536.86 27.39 549.53 30.34 562.04 C 38.21 550.6 46.85 539.69 56.21 529.43 C 58.65 526.75 61.27 524.03 64.67 522.75 C 68.07 521.47 72.46 522.1 74.46 525.12 C 76.63 528.39 75.24 532.77 73.58 536.32 C 65.34 553.98 51.57 568.99 34.73 578.8 C 37.28 587.57 40.22 596.23 43.48 604.76 C 48.66 596.69 54.39 588.97 60.63 581.69 C 63.52 578.32 66.67 574.94 70.81 573.35 C 74.95 571.76 80.34 572.55 82.76 576.27 C 85.19 580 83.84 584.98 81.89 588.98 C 75.34 602.39 62.49 612.51 47.97 615.92 C 56.9 636.94 68.01 657.03 81.19 675.73 L 77.22 678.53 C 64.28 660.17 53.32 640.48 44.41 619.91 C 32.89 629.16 17.2 633.1 2.7 630.15 C -1.63 629.25 -6.4 627.28 -7.88 623.09 Z " fill="url(#_lgradient_4)"/></svg>