<?xml version="1.0" encoding="UTF-8" standalone="no"?><!-- Generator: Gravit.io --><svg xmlns="http://www.w3.org/2000/svg" xmlns:xlink="http://www.w3.org/1999/xlink" style="isolation:isolate" viewBox="623.722 331.923 151.139 276.777" width="151.139pt" height="276.777pt"><g><linearGradient id="_lgradient_28" x1="1.2544598577420176" y1="0.1873275404268484" x2="0.09732362002304229" y2="1.182821873945271" gradientTransform="matrix(151.139,0,0,276.777,623.722,331.923)" gradientUnits="userSpaceOnUse"><stop offset="0%" stop-opacity="1" style="stop-color:rgb(130,211,110)"/><stop offset="100%" stop-opacity="1" style="stop-color:rgb(118,198,75)"/></linearGradient><path d=" M 671.71 608.7 C 665.58 602.53 664.94 592.81 667.96 585.08 C 670.97 577.34 676.96 571.18 682.94 565.4 C 688.93 559.61 695.15 553.85 698.83 546.63 C 710.3 524.3 694.13 494.02 707.57 471.8 C 711.79 464.88 718.51 459.72 723.9 453.68 C 735.19 441.03 739.34 424.02 741.4 407.76 C 742.34 400.29 742.94 392.64 746.45 385.77 C 749.43 379.95 754.58 375.85 759.29 371.32 C 766.17 364.7 772.71 357 774.51 347.69 C 775.31 343.54 774.94 338.18 771.28 334.98 C 767.81 331.95 762.17 331.41 757.8 332.33 C 753.04 333.34 748.9 336 745.32 339.08 C 729.81 352.41 723.57 373.12 709.02 387.4 C 700.46 395.81 689.18 401.82 681.92 411.52 C 669.04 428.78 672.07 452.39 668.15 473.13 C 666.2 483.37 662.42 493.24 657.12 502.27 C 651.75 511.42 644.12 518.23 637.82 526.74 C 632.13 534.44 627.46 543.07 625.22 552.48 C 621.78 566.83 624.34 582.64 632.11 595.42 C 645.29 599.97 658.49 604.39 671.71 608.7 Z " fill="url(#_lgradient_28)"/><g><path d=" M 661.18 590.82 C 665.64 553.23 673.7 516.28 685.18 480.6 C 700.32 433.19 722.74 386.58 760.83 354.22" fill="none" vector-effect="non-scaling-stroke" stroke-width="2" stroke="rgb(9,78,66)" stroke-linejoin="miter" stroke-linecap="round" stroke-miterlimit="10"/><path d=" M 664.21 568.61 C 658.67 565.82 654.11 561.16 651.56 555.62 C 649.01 550.08 648.5 543.71 650.16 537.95" fill="none" vector-effect="non-scaling-stroke" stroke-width="2" stroke="rgb(9,78,66)" stroke-linejoin="miter" stroke-linecap="round" stroke-miterlimit="10"/><path d=" M 666.6 554.73 C 679.25 546.24 687.17 532.41 689.1 517.81" fill="none" vector-effect="non-scaling-stroke" stroke-width="2" stroke="rgb(9,78,66)" stroke-linejoin="miter" stroke-linecap="round" stroke-miterlimit="10"/><path d=" M 673.51 521.75 C 669.12 517.87 666.11 512.56 665.15 506.93 C 664.19 501.3 665.28 495.41 668.2 490.54" fill="none" vector-effect="non-scaling-stroke" stroke-width="2" stroke="rgb(9,78,66)" stroke-linejoin="miter" stroke-linecap="round" stroke-miterlimit="10"/><path d=" M 690.95 462.26 C 686.06 459.82 683.52 454.3 683.38 449.07 C 683.24 443.84 685.09 438.8 686.96 433.92" fill="none" vector-effect="non-scaling-stroke" stroke-width="2" stroke="rgb(9,78,66)" stroke-linejoin="miter" stroke-linecap="round" stroke-miterlimit="10"/><path d=" M 709.71 420.39 C 706 416.96 704.13 412.17 704.2 407.3 C 704.27 402.43 706.56 397.66 710.37 394.48" fill="none" vector-effect="non-scaling-stroke" stroke-width="2" stroke="rgb(9,78,66)" stroke-linejoin="miter" stroke-linecap="round" stroke-miterlimit="10"/><path d=" M 742.92 371.37 C 741.53 362.18 745.37 352.55 752.79 346.61" fill="none" vector-effect="non-scaling-stroke" stroke-width="2" stroke="rgb(9,78,66)" stroke-linejoin="miter" stroke-linecap="round" stroke-miterlimit="10"/><path d=" M 682.24 490.02 C 691.74 485.5 698.55 476.35 700.63 466.51" fill="none" vector-effect="non-scaling-stroke" stroke-width="2" stroke="rgb(9,78,66)" stroke-linejoin="miter" stroke-linecap="round" stroke-miterlimit="10"/><path d=" M 700.13 440.49 C 711.48 436.65 721.05 428.77 726.5 418.86" fill="none" vector-effect="non-scaling-stroke" stroke-width="2" stroke="rgb(9,78,66)" stroke-linejoin="miter" stroke-linecap="round" stroke-miterlimit="10"/><path d=" M 724.29 395.71 C 731.26 394.95 736.99 390.59 739.86 384.72" fill="none" vector-effect="non-scaling-stroke" stroke-width="2" stroke="rgb(9,78,66)" stroke-linejoin="miter" stroke-linecap="round" stroke-miterlimit="10"/></g></g></svg>