<?xml version="1.0" encoding="UTF-8" standalone="no"?><!-- Generator: Gravit.io --><svg xmlns="http://www.w3.org/2000/svg" xmlns:xlink="http://www.w3.org/1999/xlink" style="isolation:isolate" viewBox="143.748 261.247 122.502 310.733" width="122.502pt" height="310.733pt"><g><g/><g><linearGradient id="_lgradient_7" x1="0.15116175119954378" y1="0.9979808700678297" x2="0.42125459198280746" y2="-0.14940055191710955" gradientTransform="matrix(122.502,0,0,310.733,143.748,261.247)" gradientUnits="userSpaceOnUse"><stop offset="0%" stop-opacity="1" style="stop-color:rgb(21,150,91)"/><stop offset="100%" stop-opacity="1" style="stop-color:rgb(42,149,142)"/></linearGradient><path d=" M 259.16 264.68 C 274.35 325.15 263.27 380.72 243.54 433.58 C 223.64 485.81 195.1 535.33 171.61 569.14 C 170.56 570.64 168.71 571.73 166.51 571.94 C 161.28 572.44 159.09 568.12 157.95 564.6 C 154.55 553.79 137.84 494.63 145.94 427.66 C 152.93 361.34 184.75 287.21 252.68 261.52 C 255.14 260.56 258.55 262.25 259.16 264.68 Z " fill="url(#_lgradient_7)"/><g><clipPath id="_clipPath_DtyU4CaTX1PZVMGvmVVvzYeMQV8PqY85"><path d=" M 259.16 264.68 C 274.35 325.15 263.27 380.72 243.54 433.58 C 223.64 485.81 195.1 535.33 171.61 569.14 C 170.56 570.64 168.71 571.73 166.51 571.94 C 161.28 572.44 159.09 568.12 157.95 564.6 C 154.55 553.79 137.84 494.63 145.94 427.66 C 152.93 361.34 184.75 287.21 252.68 261.52 C 255.14 260.56 258.55 262.25 259.16 264.68 Z " fill="rgb(255,255,255)"/></clipPath><g clip-path="url(#_clipPath_DtyU4CaTX1PZVMGvmVVvzYeMQV8PqY85)"><g><path d=" M 164.39 575.23 C 175.71 542.25 190.32 470.61 210 405.2 C 228.6 339.33 252.27 279.69 256.8 259.97" fill="none" vector-effect="non-scaling-stroke" stroke-width="2" stroke="rgb(9,78,66)" stroke-linejoin="miter" stroke-linecap="round" stroke-miterlimit="10"/><path d=" M 140.16 521.27 C 146.81 534.01 163.11 545.22 172.99 546.3" fill="none" vector-effect="non-scaling-stroke" stroke-width="2" stroke="rgb(9,78,66)" stroke-linejoin="miter" stroke-linecap="round" stroke-miterlimit="10"/><path d=" M 124.86 434.45 C 137.36 497.93 168.06 510.88 180.45 516.57" fill="none" vector-effect="non-scaling-stroke" stroke-width="2" stroke="rgb(9,78,66)" stroke-linejoin="miter" stroke-linecap="round" stroke-miterlimit="10"/><path d=" M 139.85 385.75 C 138.21 413.55 157.44 460.5 191.33 472.41" fill="none" vector-effect="non-scaling-stroke" stroke-width="2" stroke="rgb(9,78,66)" stroke-linejoin="miter" stroke-linecap="round" stroke-miterlimit="10"/><path d=" M 160.19 338.22 C 151.57 370.93 171.3 415.89 202.04 430.56" fill="none" vector-effect="non-scaling-stroke" stroke-width="2" stroke="rgb(9,78,66)" stroke-linejoin="miter" stroke-linecap="round" stroke-miterlimit="10"/><path d=" M 183.97 304.78 C 177.21 359.7 217.74 380.24 217.45 380.09" fill="none" vector-effect="non-scaling-stroke" stroke-width="2" stroke="rgb(9,78,66)" stroke-linejoin="miter" stroke-linecap="round" stroke-miterlimit="10"/><path d=" M 219.8 273.96 C 215.57 303.49 235.51 324.71 235.47 324.61 C 235.48 324.65 258.82 326.56 277.54 318.34" fill="none" vector-effect="non-scaling-stroke" stroke-width="2" stroke="rgb(9,78,66)" stroke-linejoin="miter" stroke-linecap="round" stroke-miterlimit="10"/><path d=" M 222 369.96 C 222.07 370.06 260.96 374.61 279.13 351.12" fill="none" vector-effect="non-scaling-stroke" stroke-width="2" stroke="rgb(9,78,66)" stroke-linejoin="miter" stroke-linecap="round" stroke-miterlimit="10"/><path d=" M 205.61 420.13 C 205.63 420.28 236.46 430.45 256.28 414.06" fill="none" vector-effect="non-scaling-stroke" stroke-width="2" stroke="rgb(9,78,66)" stroke-linejoin="miter" stroke-linecap="round" stroke-miterlimit="10"/><path d=" M 192.8 469.23 C 192.79 469.34 218.88 479.56 237.99 471.32" fill="none" vector-effect="non-scaling-stroke" stroke-width="2" stroke="rgb(9,78,66)" stroke-linejoin="miter" stroke-linecap="round" stroke-miterlimit="10"/><path d=" M 181.86 511.12 C 181.86 511.17 199.93 517.38 213.85 512.95" fill="none" vector-effect="non-scaling-stroke" stroke-width="2" stroke="rgb(9,78,66)" stroke-linejoin="miter" stroke-linecap="round" stroke-miterlimit="10"/><path d=" M 174.57 540.22 C 174.57 540.24 188.51 544.78 196.12 542.74" fill="none" vector-effect="non-scaling-stroke" stroke-width="2" stroke="rgb(9,78,66)" stroke-linejoin="miter" stroke-linecap="round" stroke-miterlimit="10"/></g></g></g></g><g/></g></svg>