<?xml version="1.0" encoding="UTF-8" standalone="no"?><!-- Generator: Gravit.io --><svg xmlns="http://www.w3.org/2000/svg" xmlns:xlink="http://www.w3.org/1999/xlink" style="isolation:isolate" viewBox="307.83 364.32 182.35 103.7" width="182.35pt" height="103.7pt"><g><linearGradient id="_lgradient_18" x1="0.44544427431869016" y1="0.15782342386011639" x2="0.5495715061871795" y2="0.525598119661268" gradientTransform="matrix(164.106,0,0,90.698,317.012,369.932)" gradientUnits="userSpaceOnUse"><stop offset="0%" stop-opacity="1" style="stop-color:rgb(9,78,66)"/><stop offset="100%" stop-opacity="1" style="stop-color:rgb(0,41,46)"/></linearGradient><path d=" M 317.7 454.03 C 323.64 445.63 331.46 436.21 340.78 426.8 C 341.71 427.86 342.73 428.78 343.83 429.51 C 344.68 430.08 345.59 430.54 346.49 430.65 C 347.39 430.76 348.29 430.46 348.82 429.69 C 349.72 428.36 349.28 426.17 348.81 424.28 C 348.46 422.87 348.11 421.45 347.75 420.04 C 355.33 412.97 363.72 406.05 372.77 399.72 C 373.74 401.3 374.76 402.84 375.85 404.3 C 377.12 406.01 378.68 407.76 380.4 407.91 C 381.94 408.04 383.19 406.77 383.69 405.11 C 384.2 403.46 384.08 401.5 383.79 399.6 C 383.48 397.53 382.95 395.46 382.25 393.45 C 389.75 388.79 397.63 384.6 405.8 381.09 C 407.26 383.92 409.09 386.52 411.2 388.7 C 412.2 389.73 413.27 390.69 414.45 391.21 C 415.63 391.73 416.94 391.77 417.84 391.03 C 419.17 389.94 419.31 387.58 419.22 385.45 C 419.1 382.46 418.71 379.43 418.08 376.42 C 426.7 373.57 435.59 371.55 444.67 370.58 C 444.93 370.94 445.21 371.28 445.5 371.59 C 446.5 372.65 447.74 373.43 448.94 373.44 C 450.6 373.45 451.78 371.93 452.21 370.02 C 461.06 369.67 470.07 370.35 479.15 372.3 C 480.55 372.6 481.51 374.53 480.96 375.96 C 477.58 384.79 473.11 392.69 467.83 399.78 C 467.74 399.65 467.64 399.51 467.55 399.38 C 466.98 398.56 466.4 397.74 465.69 397.11 C 464.98 396.48 464.12 396.07 463.36 396.22 C 462.56 396.38 461.98 397.15 461.71 398.07 C 461.45 398.99 461.45 400.04 461.52 401.08 C 461.63 402.89 461.92 404.73 462.35 406.55 C 457.29 412.28 451.69 417.42 445.7 422.01 C 443.31 418.7 440.49 415.84 437.41 413.66 C 434.76 411.79 431.37 410.45 429.36 412.45 C 427.59 414.21 427.75 417.78 428.48 420.85 C 429.32 424.37 430.79 427.79 432.69 430.84 C 423.91 436.12 414.66 440.48 405.4 444.07 C 403.47 442.32 401.53 440.57 399.6 438.82 C 398.29 437.64 396.95 436.43 395.48 435.75 C 394.01 435.07 392.34 434.99 391.26 436.01 C 390.24 436.96 389.91 438.73 390.09 440.46 C 390.28 442.19 390.92 443.89 391.62 445.53 C 392.05 446.52 392.5 447.49 392.98 448.44 C 384.24 451.23 375.68 453.4 367.68 455.07 C 367.34 454.53 366.98 454.01 366.57 453.53 C 365.12 451.82 363.02 450.71 361.39 451.41 C 359.75 452.11 359.06 454.43 359.24 456.7 C 340.69 459.99 326.44 460.61 322.35 460.63 C 320.35 460.64 317.76 460.24 317.12 457.31 C 316.85 456.08 317.1 454.88 317.7 454.03 Z " fill="url(#_lgradient_18)"/><path d=" M 317.83 458.02 C 355.74 434.72 458.29 376.59 480.18 374.32" fill="none" vector-effect="non-scaling-stroke" stroke-width="2" stroke="rgb(9,78,66)" stroke-linejoin="miter" stroke-linecap="round" stroke-miterlimit="10"/></g></svg>