<?xml version="1.0" encoding="UTF-8" standalone="no"?><!-- Generator: Gravit.io --><svg xmlns="http://www.w3.org/2000/svg" xmlns:xlink="http://www.w3.org/1999/xlink" style="isolation:isolate" viewBox="209.419 389.458 119.213 301.092" width="119.213pt" height="301.092pt"><g><linearGradient id="_lgradient_11" x1="1.2854798622507158" y1="0.08163410131428983" x2="0.5456971437638289" y2="1.4047536847064093" gradientTransform="matrix(119.213,0,0,301.092,209.419,389.458)" gradientUnits="userSpaceOnUse"><stop offset="0%" stop-opacity="1" style="stop-color:rgb(42,149,142)"/><stop offset="100%" stop-opacity="1" style="stop-color:rgb(21,150,91)"/></linearGradient><path d=" M 298.72 687.06 C 287.51 683.73 282.4 674.86 283.24 666.39 C 284.06 657.91 289.73 649.71 295.54 641.88 C 301.35 634.04 307.51 626.12 309.5 617.86 C 315.76 592.27 280.11 570.34 289.15 544.07 C 292.01 535.87 299.12 528.33 304.01 520.49 C 314.23 504.07 312.61 486.42 308.41 470.33 C 306.47 462.93 303.98 455.51 305.89 447.65 C 307.51 440.98 312.89 435.06 317.47 428.92 C 324.17 419.93 329.92 410.07 328.38 400.61 C 327.69 396.4 324.85 391.51 318.36 389.98 C 312.21 388.53 304.13 390.29 298.46 392.92 C 292.28 395.78 287.67 399.95 284.03 404.28 C 268.24 423.04 268.55 445 254.51 464.26 C 246.25 475.6 233.18 485.78 227.28 497.81 C 216.85 519.21 231.33 540.16 234.88 561.22 C 236.61 571.62 235.65 582.41 232.19 593.02 C 228.7 603.78 221.03 613.24 215.97 623.76 C 211.39 633.28 208.65 643.26 209.61 653 C 211.06 667.86 221.48 681.68 237.85 690.55 C 258.16 689.49 278.45 688.33 298.72 687.06 Z " fill="url(#_lgradient_11)"/><g><path d=" M 276.3 674.5 C 266.17 637.4 261.35 599.46 261.82 561.33 C 262.3 510.71 273.24 457.92 312.19 412.2" fill="none" vector-effect="non-scaling-stroke" stroke-width="2" stroke="rgb(9,78,66)" stroke-linejoin="miter" stroke-linecap="round" stroke-miterlimit="10"/><path d=" M 270.87 652.42 C 261.95 652.03 253.58 649.49 247.63 645.31 C 241.68 641.14 238.2 635.35 238 629.28" fill="none" vector-effect="non-scaling-stroke" stroke-width="2" stroke="rgb(9,78,66)" stroke-linejoin="miter" stroke-linecap="round" stroke-miterlimit="10"/><path d=" M 268.17 638.43 C 282.09 625.37 287.09 609.19 283.44 594.7" fill="none" vector-effect="non-scaling-stroke" stroke-width="2" stroke="rgb(9,78,66)" stroke-linejoin="miter" stroke-linecap="round" stroke-miterlimit="10"/><path d=" M 263.45 604.67 C 255.66 602.79 249.17 599.01 245.39 594.11 C 241.61 589.21 240.57 583.23 242.51 577.49" fill="none" vector-effect="non-scaling-stroke" stroke-width="2" stroke="rgb(9,78,66)" stroke-linejoin="miter" stroke-linecap="round" stroke-miterlimit="10"/><path d=" M 261.88 541.79 C 254.02 541.47 248.08 537.31 245.62 532.44 C 243.16 527.58 243.54 522.1 244.02 516.77" fill="none" vector-effect="non-scaling-stroke" stroke-width="2" stroke="rgb(9,78,66)" stroke-linejoin="miter" stroke-linecap="round" stroke-miterlimit="10"/><path d=" M 269.79 494.92 C 263.14 493.19 258.46 489.45 256.44 484.84 C 254.42 480.24 255.54 474.84 259.45 470.32" fill="none" vector-effect="non-scaling-stroke" stroke-width="2" stroke="rgb(9,78,66)" stroke-linejoin="miter" stroke-linecap="round" stroke-miterlimit="10"/><path d=" M 294.71 435.52 C 288.78 427.45 289.94 416.86 297.69 408.3" fill="none" vector-effect="non-scaling-stroke" stroke-width="2" stroke="rgb(9,78,66)" stroke-linejoin="miter" stroke-linecap="round" stroke-miterlimit="10"/><path d=" M 261.82 571.36 C 273.07 563.29 278.57 551.96 277.2 541.88" fill="none" vector-effect="non-scaling-stroke" stroke-width="2" stroke="rgb(9,78,66)" stroke-linejoin="miter" stroke-linecap="round" stroke-miterlimit="10"/><path d=" M 265.2 517.65 C 279.33 509.48 289.22 498.23 292.49 486.73" fill="none" vector-effect="non-scaling-stroke" stroke-width="2" stroke="rgb(9,78,66)" stroke-linejoin="miter" stroke-linecap="round" stroke-miterlimit="10"/><path d=" M 279.37 465.87 C 288.74 462.35 294.81 455.95 296.26 449.28" fill="none" vector-effect="non-scaling-stroke" stroke-width="2" stroke="rgb(9,78,66)" stroke-linejoin="miter" stroke-linecap="round" stroke-miterlimit="10"/></g></g></svg>