<?xml version="1.0" encoding="UTF-8" standalone="no"?><!-- Generator: Gravit.io --><svg xmlns="http://www.w3.org/2000/svg" xmlns:xlink="http://www.w3.org/1999/xlink" style="isolation:isolate" viewBox="405.974 358.819 146.28 295.621" width="146.28pt" height="295.621pt"><g><linearGradient id="_lgradient_21" x1="1.248394109831497" y1="0.12414786108866394" x2="0.3570621713530331" y2="1.2796105802884794" gradientTransform="matrix(146.28,0,0,295.621,405.974,358.819)" gradientUnits="userSpaceOnUse"><stop offset="0%" stop-opacity="1" style="stop-color:rgb(9,78,66)"/><stop offset="100%" stop-opacity="1" style="stop-color:rgb(0,41,46)"/></linearGradient><path d=" M 496.52 654.44 C 485.05 649 480.45 639.17 482.05 630.84 C 483.64 622.51 490.28 615.37 497.05 608.62 C 503.82 601.86 510.95 595.1 513.75 587.2 C 522.52 562.77 486.99 534.12 498.73 509.53 C 502.44 501.86 510.54 495.65 516.34 488.72 C 528.46 474.21 528.28 456.24 525.26 439.35 C 523.86 431.58 521.88 423.68 524.56 416.17 C 526.83 409.8 532.98 404.89 538.32 399.6 C 546.12 391.86 552.99 383.08 552.19 373.31 C 551.83 368.96 549.27 363.54 542.59 360.79 C 536.27 358.18 527.63 358.43 521.46 359.99 C 514.73 361.69 509.54 365 505.35 368.65 C 487.18 384.46 485.62 406.49 469.24 423.13 C 459.61 432.93 445.02 440.66 437.8 451.59 C 425.03 471.04 438.42 494.73 440.34 516.47 C 441.27 527.2 439.33 537.82 434.8 547.79 C 430.21 557.9 421.36 565.93 415.15 575.51 C 409.53 584.18 405.8 593.65 405.98 603.58 C 406.22 618.72 415.97 634.51 432.39 646.47 C 453.77 649.25 475.15 651.91 496.52 654.44 Z " fill="url(#_lgradient_21)"/><g style="opacity:0.3;"><g opacity="0.3"><path d=" M 474.08 637.66 C 466.64 598.63 464.82 559.75 468.59 521.69 C 473.43 471.12 489.43 420.34 534.21 381.91" fill="none" vector-effect="non-scaling-stroke" stroke-width="2" stroke="rgb(9,78,66)" stroke-linejoin="miter" stroke-linecap="round" stroke-miterlimit="10"/></g><g opacity="0.3"><path d=" M 470.28 614.54 C 460.96 612.47 452.39 608.36 446.51 603.05 C 440.62 597.75 437.47 591.31 437.78 585.2" fill="none" vector-effect="non-scaling-stroke" stroke-width="2" stroke="rgb(9,78,66)" stroke-linejoin="miter" stroke-linecap="round" stroke-miterlimit="10"/></g><g opacity="0.3"><path d=" M 468.64 600.03 C 484.36 589.57 491 574.33 488.41 559.14" fill="none" vector-effect="non-scaling-stroke" stroke-width="2" stroke="rgb(9,78,66)" stroke-linejoin="miter" stroke-linecap="round" stroke-miterlimit="10"/></g><g opacity="0.3"><path d=" M 466.59 565.36 C 458.58 562.02 452.09 557.01 448.54 551.4 C 444.99 545.78 444.42 539.61 446.94 534.23" fill="none" vector-effect="non-scaling-stroke" stroke-width="2" stroke="rgb(9,78,66)" stroke-linejoin="miter" stroke-linecap="round" stroke-miterlimit="10"/></g><g opacity="0.3"><path d=" M 470.32 502.14 C 462.1 500.34 456.23 495.06 454.07 489.73 C 451.9 484.4 452.77 479 453.73 473.75" fill="none" vector-effect="non-scaling-stroke" stroke-width="2" stroke="rgb(9,78,66)" stroke-linejoin="miter" stroke-linecap="round" stroke-miterlimit="10"/></g><g opacity="0.3"><path d=" M 482.64 456.72 C 475.81 453.74 471.22 449.11 469.5 444.13 C 467.77 439.15 469.41 433.95 473.91 430.16" fill="none" vector-effect="non-scaling-stroke" stroke-width="2" stroke="rgb(9,78,66)" stroke-linejoin="miter" stroke-linecap="round" stroke-miterlimit="10"/></g><g opacity="0.3"><path d=" M 513.87 401.95 C 508.34 392.76 510.46 382.38 519.33 375.27" fill="none" vector-effect="non-scaling-stroke" stroke-width="2" stroke="rgb(9,78,66)" stroke-linejoin="miter" stroke-linecap="round" stroke-miterlimit="10"/></g><g opacity="0.3"><path d=" M 467.73 531.72 C 480.23 525.76 486.97 515.45 486.39 505.11" fill="none" vector-effect="non-scaling-stroke" stroke-width="2" stroke="rgb(9,78,66)" stroke-linejoin="miter" stroke-linecap="round" stroke-miterlimit="10"/></g><g opacity="0.3"><path d=" M 475.88 478.61 C 491.4 473.09 502.74 463.69 507.16 452.8" fill="none" vector-effect="non-scaling-stroke" stroke-width="2" stroke="rgb(9,78,66)" stroke-linejoin="miter" stroke-linecap="round" stroke-miterlimit="10"/></g><g opacity="0.3"><path d=" M 495.18 429.45 C 505.31 427.69 512.23 422.42 514.32 416.02" fill="none" vector-effect="non-scaling-stroke" stroke-width="2" stroke="rgb(9,78,66)" stroke-linejoin="miter" stroke-linecap="round" stroke-miterlimit="10"/></g></g></g></svg>