<?xml version="1.0" encoding="UTF-8" standalone="no"?><!-- Generator: Gravit.io --><svg xmlns="http://www.w3.org/2000/svg" xmlns:xlink="http://www.w3.org/1999/xlink" style="isolation:isolate" viewBox="911.211 211.05 65.078 290.59" width="65.078pt" height="290.59pt"><g><g><linearGradient id="_lgradient_32" x1="-1.8913291563400243" y1="0.29893320682294944" x2="1.2513923930499038" y2="2.8097316083706168" gradientTransform="matrix(34.289,0,0,271.73,942,220.29)" gradientUnits="userSpaceOnUse"><stop offset="0%" stop-opacity="1" style="stop-color:rgb(22,152,123)"/><stop offset="100%" stop-opacity="1" style="stop-color:rgb(9,78,66)"/></linearGradient><path d=" M 948.68 492.02 C 948.72 492.01 948.76 492 948.81 491.99 C 950.18 491.56 951.23 490.45 951.74 489.1 C 974.48 428.95 996.57 304.51 943.56 221.45 C 943.18 220.85 942.61 220.47 942 220.29 C 949.03 270.49 950.4 423.79 948.68 492.02 Z " fill="url(#_lgradient_32)"/><linearGradient id="_lgradient_33" x1="2.7214312935546268" y1="0.7020793301751473" x2="-0.17941772042465765" y2="-1.6154810877512171" gradientTransform="matrix(37.241,0,0,271.974,911.211,220.2)" gradientUnits="userSpaceOnUse"><stop offset="0%" stop-opacity="1" style="stop-color:rgb(21,150,91)"/><stop offset="100%" stop-opacity="1" style="stop-color:rgb(42,149,142)"/></linearGradient><path d=" M 941.08 220.2 C 940.26 220.24 939.46 220.63 938.94 221.39 C 877.95 311.81 935.55 469.78 942.64 487.15 C 943.61 489.52 945.16 492.3 947.77 492.17 C 949.51 423.92 948.14 269.97 941.08 220.2 Z " fill="url(#_lgradient_33)"/></g><path d=" M 948.2 491.64 C 950.35 426.15 949.15 254.05 941.4 221.05" fill="none" vector-effect="non-scaling-stroke" stroke-width="2" stroke="rgb(9,78,66)" stroke-linejoin="miter" stroke-linecap="round" stroke-miterlimit="10"/></g></svg>