<?xml version="1.0" encoding="UTF-8" standalone="no"?><!-- Generator: Gravit.io --><svg xmlns="http://www.w3.org/2000/svg" xmlns:xlink="http://www.w3.org/1999/xlink" style="isolation:isolate" viewBox="576.59 396.33 102.06 220.02" width="102.06pt" height="220.02pt"><g><g><linearGradient id="_lgradient_25" x1="0.1053559558649928" y1="0.19196535325906572" x2="0.5620898693691871" y2="1.0644669646534504" gradientTransform="matrix(84.94,0,0,200.849,586.82,405.97)" gradientUnits="userSpaceOnUse"><stop offset="0%" stop-opacity="1" style="stop-color:rgb(22,152,123)"/><stop offset="100%" stop-opacity="1" style="stop-color:rgb(9,78,66)"/></linearGradient><path d=" M 586.82 606.78 C 586.86 606.78 586.89 606.79 586.92 606.8 C 588.06 606.92 589.19 606.45 589.99 605.63 C 625.96 568.97 682.14 485.09 670.1 407.32 C 670.01 406.76 669.72 406.3 669.33 405.97 C 658.33 444.93 610.02 557.45 586.82 606.78 Z " fill="url(#_lgradient_25)"/><linearGradient id="_lgradient_26" x1="0.8916453882260384" y1="0.8092587825033757" x2="0.4337364448059142" y2="-0.06548749578517399" gradientTransform="matrix(84.726,0,0,201.139,583.964,405.461)" gradientUnits="userSpaceOnUse"><stop offset="0%" stop-opacity="1" style="stop-color:rgb(21,150,91)"/><stop offset="100%" stop-opacity="1" style="stop-color:rgb(42,149,142)"/></linearGradient><path d=" M 668.69 405.61 C 668.08 405.38 667.37 405.4 666.74 405.79 C 593.06 452.28 584.37 586.3 583.97 601.28 C 583.92 603.33 584.15 605.85 586.1 606.6 C 609.33 557.25 657.84 444.26 668.69 405.61 Z " fill="url(#_lgradient_26)"/></g><path d=" M 586.59 606.35 C 609.23 559.16 663.7 432.95 668.65 406.33" fill="none" vector-effect="non-scaling-stroke" stroke-width="2" stroke="rgb(9,78,66)" stroke-linejoin="miter" stroke-linecap="round" stroke-miterlimit="10"/></g></svg>