<?xml version="1.0" encoding="UTF-8" standalone="no"?><!-- Generator: Gravit.io --><svg xmlns="http://www.w3.org/2000/svg" xmlns:xlink="http://www.w3.org/1999/xlink" style="isolation:isolate" viewBox="439.645 354.079 181.311 292.901" width="181.311pt" height="292.901pt"><g><g><linearGradient id="_lgradient_22" x1="0.031428552840317536" y1="0.9546930513710352" x2="0.7278521550217398" y2="-0.14743445384082254" gradientTransform="matrix(181.311,0,0,292.901,439.645,354.079)" gradientUnits="userSpaceOnUse"><stop offset="0%" stop-opacity="1" style="stop-color:rgb(21,150,91)"/><stop offset="100%" stop-opacity="1" style="stop-color:rgb(42,149,142)"/></linearGradient><path d=" M 483.33 588.86 C 510.92 550.81 528.23 505.17 532.38 459.52 C 533.72 444.78 533.73 430.04 535.88 415.33 C 538.04 400.61 542.56 385.59 551.73 373.51 C 560.9 361.43 575.39 352.82 589.16 354.23 C 604.63 355.81 616 369.67 619.47 385.37 C 622.94 401.06 619.85 418.22 615.17 434.44 C 603.26 475.78 581.29 514.3 555.41 549.15 C 529.53 584 499.71 615.53 469.99 646.93 C 469.11 647.87 448.03 635.12 445.79 633.9 C 438.39 629.86 436.8 625.43 445.9 621.62 C 461.3 615.15 473.3 602.69 483.33 588.86 Z " fill="url(#_lgradient_22)"/></g><g><circle vector-effect="non-scaling-stroke" cx="548.54" cy="470.19" r="2.6000000000000227" fill="rgb(9,78,66)"/><circle vector-effect="non-scaling-stroke" cx="527.57" cy="539.9" r="2.6000000000000227" fill="rgb(9,78,66)"/><circle vector-effect="non-scaling-stroke" cx="595.35" cy="449.5" r="2.6000000000000227" fill="rgb(9,78,66)"/><circle vector-effect="non-scaling-stroke" cx="563.85" cy="378.7" r="2.6000000000000227" fill="rgb(9,78,66)"/><circle vector-effect="non-scaling-stroke" cx="550.07" cy="536.68" r="2.6000000000000227" fill="rgb(9,78,66)"/><circle vector-effect="non-scaling-stroke" cx="573.79" cy="466.9" r="4.82000000000005" fill="rgb(9,78,66)"/><circle vector-effect="non-scaling-stroke" cx="577.37" cy="434.16" r="4.82000000000005" fill="rgb(9,78,66)"/><circle vector-effect="non-scaling-stroke" cx="571.9" cy="495.42" r="4.82000000000005" fill="rgb(9,78,66)"/><circle vector-effect="non-scaling-stroke" cx="554.42" cy="443.42" r="4.82000000000005" fill="rgb(9,78,66)"/><circle vector-effect="non-scaling-stroke" cx="586.82" cy="373.74" r="4.82000000000005" fill="rgb(9,78,66)"/><circle vector-effect="non-scaling-stroke" cx="604.07" cy="387.29" r="4.82000000000005" fill="rgb(9,78,66)"/><circle vector-effect="non-scaling-stroke" cx="548.58" cy="503.84" r="4.82000000000005" fill="rgb(9,78,66)"/><circle vector-effect="non-scaling-stroke" cx="558.89" cy="415.3" r="7.090000000000032" fill="rgb(9,78,66)"/><circle vector-effect="non-scaling-stroke" cx="579.1" cy="396.47" r="7.090000000000032" fill="rgb(9,78,66)"/><circle vector-effect="non-scaling-stroke" cx="600.39" cy="418.68" r="7.090000000000032" fill="rgb(9,78,66)"/></g></g></svg>