<?xml version="1.0" encoding="UTF-8" standalone="no"?><!-- Generator: Gravit.io --><svg xmlns="http://www.w3.org/2000/svg" xmlns:xlink="http://www.w3.org/1999/xlink" style="isolation:isolate" viewBox="672.408 323.033 119.352 246.62" width="119.352pt" height="246.62pt"><g><linearGradient id="_lgradient_29" x1="1.0257705401365254" y1="0.9795274944023202" x2="0.41306872457044796" y2="-0.2550588985618991" gradientTransform="matrix(119.352,0,0,246.62,672.408,323.033)" gradientUnits="userSpaceOnUse"><stop offset="0%" stop-opacity="1" style="stop-color:rgb(21,150,91)"/><stop offset="100%" stop-opacity="1" style="stop-color:rgb(42,149,142)"/></linearGradient><path d=" M 688.22 323.35 C 783.28 370.59 797.94 496.6 789.85 564.07 C 789.67 565.58 788.73 567.16 787.15 568.31 C 783.41 571.02 780.03 569.09 777.75 567.23 C 762.89 555.18 636.48 441.82 682.4 325.8 C 683.23 323.69 686.31 322.4 688.22 323.35 Z " fill="url(#_lgradient_29)"/><g><clipPath id="_clipPath_eCJ9SenGGzrQ1G4VL6y3EtzhrUwYP2lI"><path d=" M 688.22 323.35 C 783.28 370.59 797.94 496.6 789.85 564.07 C 789.67 565.58 788.73 567.16 787.15 568.31 C 783.41 571.02 780.03 569.09 777.75 567.23 C 762.89 555.18 636.48 441.82 682.4 325.8 C 683.23 323.69 686.31 322.4 688.22 323.35 Z " fill="rgb(255,255,255)"/></clipPath><g clip-path="url(#_clipPath_eCJ9SenGGzrQ1G4VL6y3EtzhrUwYP2lI)"><g><path d=" M 786.87 571.52 C 778.34 516.04 703.62 349.79 683.82 322.3" fill="none" vector-effect="non-scaling-stroke" stroke-width="2" stroke="rgb(9,78,66)" stroke-linejoin="miter" stroke-linecap="round" stroke-miterlimit="10"/><path d=" M 746.41 547 C 756.75 551.96 773.53 551.75 781.35 547.87" fill="none" vector-effect="non-scaling-stroke" stroke-width="2" stroke="rgb(9,78,66)" stroke-linejoin="miter" stroke-linecap="round" stroke-miterlimit="10"/><path d=" M 695.93 500.82 C 734.63 532.26 761.96 526.77 773.83 524.28" fill="none" vector-effect="non-scaling-stroke" stroke-width="2" stroke="rgb(9,78,66)" stroke-linejoin="miter" stroke-linecap="round" stroke-miterlimit="10"/><path d=" M 682.04 464.02 C 695.32 480.65 731.17 498.91 761.03 489.55" fill="none" vector-effect="non-scaling-stroke" stroke-width="2" stroke="rgb(9,78,66)" stroke-linejoin="miter" stroke-linecap="round" stroke-miterlimit="10"/><path d=" M 670.26 425.34 C 682.62 448.33 718.71 463.83 747.57 456.82" fill="none" vector-effect="non-scaling-stroke" stroke-width="2" stroke="rgb(9,78,66)" stroke-linejoin="miter" stroke-linecap="round" stroke-miterlimit="10"/><path d=" M 666.64 392.63 C 693.57 426.71 730.93 416.53 730.93 416.53" fill="none" vector-effect="non-scaling-stroke" stroke-width="2" stroke="rgb(9,78,66)" stroke-linejoin="miter" stroke-linecap="round" stroke-miterlimit="10"/><path d=" M 670.47 353.63 C 685.8 372.18 710.67 372.45 710.67 372.45 C 710.67 372.45 726.62 359.39 733.08 342.68" fill="none" vector-effect="non-scaling-stroke" stroke-width="2" stroke="rgb(9,78,66)" stroke-linejoin="miter" stroke-linecap="round" stroke-miterlimit="10"/><path d=" M 728.27 407.68 C 728.27 407.68 756.8 387.96 754.2 361.97" fill="none" vector-effect="non-scaling-stroke" stroke-width="2" stroke="rgb(9,78,66)" stroke-linejoin="miter" stroke-linecap="round" stroke-miterlimit="10"/><path d=" M 744.59 448.24 C 744.59 448.24 771.37 438.05 775.78 416.11" fill="none" vector-effect="non-scaling-stroke" stroke-width="2" stroke="rgb(9,78,66)" stroke-linejoin="miter" stroke-linecap="round" stroke-miterlimit="10"/><path d=" M 760.53 486.72 C 760.53 486.72 784.18 480.12 793.59 464.59" fill="none" vector-effect="non-scaling-stroke" stroke-width="2" stroke="rgb(9,78,66)" stroke-linejoin="miter" stroke-linecap="round" stroke-miterlimit="10"/><path d=" M 772.39 519.94 C 772.39 519.94 788.44 515.29 796.54 505.43" fill="none" vector-effect="non-scaling-stroke" stroke-width="2" stroke="rgb(9,78,66)" stroke-linejoin="miter" stroke-linecap="round" stroke-miterlimit="10"/><path d=" M 779.92 543.01 C 779.92 543.01 792.23 539.52 796.99 534.54" fill="none" vector-effect="non-scaling-stroke" stroke-width="2" stroke="rgb(9,78,66)" stroke-linejoin="miter" stroke-linecap="round" stroke-miterlimit="10"/></g></g></g></g></svg>