<?xml version="1.0" encoding="UTF-8" standalone="no"?><!-- Generator: Gravit.io --><svg xmlns="http://www.w3.org/2000/svg" xmlns:xlink="http://www.w3.org/1999/xlink" style="isolation:isolate" viewBox="337.715 219.11 46.621 200.58" width="46.621pt" height="200.58pt"><g><linearGradient id="_lgradient_17" x1="1.031219136809705" y1="0.4941505023516999" x2="-0.020578150807795126" y2="0.5375272510539371" gradientTransform="matrix(46.621,0,0,181.855,337.715,228.299)" gradientUnits="userSpaceOnUse"><stop offset="0%" stop-opacity="1" style="stop-color:rgb(9,78,66)"/><stop offset="100%" stop-opacity="1" style="stop-color:rgb(0,41,46)"/></linearGradient><path d=" M 350.66 408.52 C 355.42 400.19 360.48 389.75 365.21 377.9 C 364.23 377.36 363.33 376.69 362.55 375.89 C 361.95 375.27 361.41 374.56 361.13 373.74 C 360.85 372.92 360.86 371.97 361.3 371.23 C 362.06 369.95 363.75 369.66 365.23 369.49 C 366.33 369.37 367.44 369.24 368.54 369.12 C 371.96 359.67 375.08 349.5 377.64 338.89 C 376.27 338.49 374.93 338.02 373.62 337.46 C 372.09 336.81 370.47 335.9 369.97 334.32 C 369.53 332.9 370.17 331.31 371.26 330.3 C 372.34 329.29 373.8 328.77 375.24 328.43 C 376.81 328.06 378.43 327.89 380.05 327.9 C 381.74 319.3 383 310.5 383.7 301.64 C 381.32 301.17 379.02 300.28 376.96 298.99 C 375.99 298.38 375.05 297.67 374.4 296.72 C 373.75 295.77 373.43 294.55 373.77 293.45 C 374.26 291.84 375.94 290.95 377.51 290.34 C 379.71 289.49 382 288.88 384.32 288.5 C 384.44 279.42 383.9 270.36 382.55 261.47 C 382.23 261.34 381.92 261.19 381.63 261.01 C 380.63 260.41 379.78 259.48 379.51 258.36 C 379.13 256.79 379.96 255.19 381.25 254.16 C 379.51 245.67 376.98 237.37 373.51 229.42 C 372.98 228.19 371.36 227.91 370.44 228.89 C 364.8 234.94 360.07 241.72 356.12 248.99 C 356.24 249.04 356.36 249.08 356.47 249.13 C 357.19 249.41 357.92 249.69 358.54 250.16 C 359.16 250.63 359.65 251.31 359.71 252.08 C 359.78 252.89 359.35 253.69 358.74 254.23 C 358.13 254.78 357.37 255.11 356.6 255.38 C 355.26 255.86 353.86 256.18 352.45 256.36 C 349.43 263 346.97 269.96 344.99 277.1 C 347.93 278.29 350.65 280.04 352.92 282.25 C 354.88 284.15 356.61 286.93 355.62 289.47 C 354.74 291.71 352.12 292.71 349.73 293.01 C 346.98 293.35 344.17 293.07 341.53 292.25 C 339.68 302.26 338.6 312.42 338.09 322.34 C 339.8 323.61 341.5 324.87 343.21 326.14 C 344.36 327 345.54 327.87 346.37 329.05 C 347.2 330.23 347.63 331.77 347.13 333.12 C 346.67 334.39 345.46 335.28 344.16 335.66 C 342.86 336.04 341.48 335.99 340.14 335.85 C 339.33 335.77 338.52 335.64 337.72 335.5 C 337.67 344.67 338.03 353.47 338.62 361.57 C 339.09 361.71 339.55 361.89 339.99 362.12 C 341.56 362.94 342.84 364.57 342.7 366.34 C 342.56 368.11 341.04 369.52 339.34 370.08 C 341.15 388.68 343.91 402.37 344.82 406.25 C 345.26 408.14 346.14 410.46 348.41 410.12 C 349.36 409.99 350.18 409.36 350.66 408.52 Z " fill="url(#_lgradient_17)"/><path d=" M 347.73 409.69 C 356.08 366.31 375.1 250.55 371.8 229.11" fill="none" vector-effect="non-scaling-stroke" stroke-width="2" stroke="rgb(9,78,66)" stroke-linejoin="miter" stroke-linecap="round" stroke-miterlimit="10"/></g></svg>