<?xml version="1.0" encoding="UTF-8" standalone="no"?><!-- Generator: Gravit.io --><svg xmlns="http://www.w3.org/2000/svg" xmlns:xlink="http://www.w3.org/1999/xlink" style="isolation:isolate" viewBox="257.571 229.004 172.977 287.436" width="172.977pt" height="287.436pt"><g><linearGradient id="_lgradient_13" x1="-0.17552872586673374" y1="0.12480181493195974" x2="0.7718182699698286" y2="1.1678276163869996" gradientTransform="matrix(172.977,0,0,287.436,257.571,229.004)" gradientUnits="userSpaceOnUse"><stop offset="0%" stop-opacity="1" style="stop-color:rgb(42,149,142)"/><stop offset="100%" stop-opacity="1" style="stop-color:rgb(21,150,91)"/></linearGradient><path d=" M 351.13 516.44 C 361.3 510.67 364.28 500.87 361.55 492.81 C 358.84 484.74 351.47 478.03 344.04 471.7 C 336.61 465.37 328.83 459.05 325.02 451.45 C 313.14 427.93 342.93 398.52 328.19 374.97 C 323.55 367.63 314.92 361.89 308.39 355.35 C 294.73 341.66 292.33 324.1 292.78 307.47 C 293 299.83 293.75 292.03 290.12 284.8 C 287.04 278.67 280.46 274.12 274.61 269.16 C 266.05 261.91 258.23 253.61 257.6 244.04 C 257.32 239.78 258.99 234.38 264.96 231.42 C 270.62 228.62 278.9 228.51 285.01 229.79 C 291.68 231.18 297.11 234.21 301.63 237.6 C 321.24 252.31 325.9 273.77 343.92 289.37 C 354.52 298.56 369.56 305.53 378.01 315.92 C 393 334.41 383.62 358.09 384.91 379.41 C 385.57 389.93 388.94 400.22 394.7 409.78 C 400.53 419.47 410.13 426.96 417.44 436.07 C 424.05 444.31 428.97 453.42 430.23 463.12 C 432.17 477.92 425.14 493.74 411.19 506.08 C 391.19 509.65 371.17 513.1 351.13 516.44 Z " fill="url(#_lgradient_13)"/><g><path d=" M 370.13 499.14 C 371.63 460.71 367.77 422.66 358.71 385.62 C 346.82 336.41 324.26 287.45 275.99 251.7" fill="none" vector-effect="non-scaling-stroke" stroke-width="2" stroke="rgb(9,78,66)" stroke-linejoin="miter" stroke-linecap="round" stroke-miterlimit="10"/><path d=" M 370.45 476.4 C 379.05 474.01 386.63 469.64 391.48 464.23 C 396.34 458.82 398.42 452.4 397.24 446.45" fill="none" vector-effect="non-scaling-stroke" stroke-width="2" stroke="rgb(9,78,66)" stroke-linejoin="miter" stroke-linecap="round" stroke-miterlimit="10"/><path d=" M 369.92 462.16 C 353.41 452.58 344.89 437.94 345.17 423" fill="none" vector-effect="non-scaling-stroke" stroke-width="2" stroke="rgb(9,78,66)" stroke-linejoin="miter" stroke-linecap="round" stroke-miterlimit="10"/><path d=" M 366.9 428.21 C 374.07 424.62 379.54 419.47 382.12 413.85 C 384.7 408.22 384.36 402.17 381.18 397.01" fill="none" vector-effect="non-scaling-stroke" stroke-width="2" stroke="rgb(9,78,66)" stroke-linejoin="miter" stroke-linecap="round" stroke-miterlimit="10"/><path d=" M 354.25 366.59 C 361.83 364.5 366.68 359.11 367.98 353.82 C 369.28 348.53 367.67 343.28 366 338.2" fill="none" vector-effect="non-scaling-stroke" stroke-width="2" stroke="rgb(9,78,66)" stroke-linejoin="miter" stroke-linecap="round" stroke-miterlimit="10"/><path d=" M 335.96 322.72 C 342.05 319.53 345.77 314.83 346.69 309.89 C 347.62 304.95 345.31 299.95 340.48 296.42" fill="none" vector-effect="non-scaling-stroke" stroke-width="2" stroke="rgb(9,78,66)" stroke-linejoin="miter" stroke-linecap="round" stroke-miterlimit="10"/><path d=" M 298.29 270.47 C 302.25 261.27 298.73 251.21 289.25 244.62" fill="none" vector-effect="non-scaling-stroke" stroke-width="2" stroke="rgb(9,78,66)" stroke-linejoin="miter" stroke-linecap="round" stroke-miterlimit="10"/><path d=" M 360.97 395.39 C 348.19 390.07 340.27 380.27 339.34 370.14" fill="none" vector-effect="non-scaling-stroke" stroke-width="2" stroke="rgb(9,78,66)" stroke-linejoin="miter" stroke-linecap="round" stroke-miterlimit="10"/><path d=" M 345.57 343.83 C 329.96 339.06 317.79 330.33 312.01 319.87" fill="none" vector-effect="non-scaling-stroke" stroke-width="2" stroke="rgb(9,78,66)" stroke-linejoin="miter" stroke-linecap="round" stroke-miterlimit="10"/><path d=" M 320.08 296.58 C 310.15 295.26 302.8 290.4 299.88 284.23" fill="none" vector-effect="non-scaling-stroke" stroke-width="2" stroke="rgb(9,78,66)" stroke-linejoin="miter" stroke-linecap="round" stroke-miterlimit="10"/></g></g></svg>