<?xml version="1.0" encoding="UTF-8" standalone="no"?><!-- Generator: Gravit.io --><svg xmlns="http://www.w3.org/2000/svg" xmlns:xlink="http://www.w3.org/1999/xlink" style="isolation:isolate" viewBox="256.498 304.836 209.038 312.904" width="209.038pt" height="312.904pt"><g><linearGradient id="_lgradient_12" x1="0.567901678709996" y1="0.9992241752161639" x2="0.47183585940508316" y2="-0.030407001122929156" gradientTransform="matrix(209.038,0,0,234.667,256.498,304.836)" gradientUnits="userSpaceOnUse"><stop offset="0%" stop-opacity="1" style="stop-color:rgb(118,198,75)"/><stop offset="100%" stop-opacity="1" style="stop-color:rgb(130,211,110)"/></linearGradient><path d=" M 448.85 493.69 C 459.69 479.51 467.02 461.82 465.28 444.06 C 463.54 426.3 451.17 409.04 433.77 405.11 C 424.9 403.1 415.04 404.4 407.19 399.8 C 398.21 394.53 394.88 383.4 392.52 373.26 C 390.16 363.12 387.4 351.98 378.9 345.98 C 369.09 339.05 355.65 341.71 343.97 338.91 C 333.36 336.36 324.46 329.35 315.98 322.48 C 307.49 315.62 298.68 308.53 288.11 305.81 C 277.54 303.08 264.67 306.02 259.21 315.47 C 253.45 325.45 257.82 338.13 263.44 348.19 C 269.06 358.25 276.09 368.55 275.43 380.06 C 274.7 392.76 264.54 404.15 266.33 416.75 C 269.19 436.85 299.27 443.69 302.7 463.7 C 304.36 473.38 298.99 482.84 298.3 492.64 C 297.43 505.01 304.37 517.04 314.16 524.66 C 323.95 532.28 336.23 536.02 348.48 537.96 C 376.04 542.34 408.02 538.07 427.56 516.32 C 434.49 508.61 442.48 502.02 448.85 493.69 Z " fill="url(#_lgradient_12)"/><path d=" M 272.49 305.88 C 287.78 324.53 302.85 343.37 317.77 362.32 C 318.3 346.27 314.59 330 307.26 315.68 C 309.26 317.14 311.22 318.67 313.15 320.22 C 319.35 334.7 322.12 350.71 320.95 366.36 C 322.08 367.8 323.22 369.24 324.35 370.68 C 329.56 377.36 334.73 384.07 339.88 390.8 C 341.87 380.19 341.94 368.55 340.09 355.37 C 339.19 348.97 337.89 342.59 336.4 336.27 C 337.66 336.84 338.94 337.36 340.24 337.81 C 341.53 343.46 342.65 349.16 343.46 354.9 C 345.53 369.67 345.23 382.58 342.6 394.34 C 350.36 404.29 357.81 414.51 364.88 424.99 C 370.09 416.58 373.36 406.22 374.6 394.1 C 375.72 383.15 375.61 371.28 374.24 356.74 L 374.12 355.47 C 373.73 351.31 373.34 347.11 372.81 342.92 C 374.49 343.49 376.1 344.24 377.64 345.17 C 378.01 348.47 378.32 351.77 378.63 355.04 L 378.75 356.31 C 380.14 371.15 380.26 383.3 379.1 394.55 C 377.72 408.01 373.94 419.48 367.86 428.71 L 368.38 430.23 C 373.85 438.55 379.07 447.02 384.02 455.65 C 395.65 437.54 402.2 416.69 402.81 396.33 C 404.1 397.64 405.54 398.8 407.18 399.76 C 405.93 420.63 398.79 441.81 386.55 460.1 C 388.91 464.33 391.2 468.59 393.43 472.89 C 407.06 461.4 416.62 445.14 419.9 427.6 C 421.38 419.67 421.62 411.6 421.27 403.53 C 422.78 403.68 424.3 403.81 425.82 403.95 C 426.14 412.1 425.87 420.3 424.35 428.43 C 420.82 447.33 410.4 464.83 395.56 477.03 C 400.39 486.61 404.86 496.37 408.93 506.28 C 423.31 492.82 434.62 476.21 441.82 457.85 C 447.26 443.97 450.3 429.23 450.86 414.38 C 452.39 415.82 453.82 417.38 455.14 419.04 C 454.16 432.88 451.11 446.56 446.03 459.51 C 438.37 479.04 426.21 496.66 410.73 510.79 C 412.73 515.84 447.75 606.72 449.54 611.85 C 446.62 613.85 436.83 616.22 433.65 617.74 C 432.74 614.71 405.41 525.26 404.42 522.25 C 395.82 525.04 386.91 526.86 377.91 527.7 C 362.79 529.11 347.41 527.77 332.8 523.63 C 322.01 520.58 311.67 516.01 302.11 510.15 C 300.94 507.84 300.01 505.43 299.35 502.95 C 309.94 510.2 321.68 515.77 334.03 519.27 C 356.48 525.62 380.79 525.13 402.98 517.96 C 400.48 510.61 397.76 503.33 394.82 496.13 C 391.24 496.71 387.66 497.19 384.07 497.53 C 360.42 499.74 336.68 496.59 314.75 488.26 C 309.57 486.29 304.8 484.15 300.4 481.82 C 300.8 480.32 301.2 478.81 301.57 477.31 C 306.06 479.75 310.97 481.99 316.35 484.03 C 340.54 493.21 367 495.88 393.03 491.83 C 388.94 482.1 384.47 472.52 379.67 463.12 C 379.05 463.19 378.44 463.27 377.82 463.33 C 357.39 465.24 336.48 462.95 316.98 456.64 C 308.13 453.77 299.57 450.1 291.24 446.06 C 286.29 441.63 280.62 437.57 275.91 433.05 C 289.53 440.39 303.59 447.55 318.38 452.33 C 337.32 458.46 357.62 460.66 377.46 458.81 C 372.95 450.21 368.15 441.76 363.11 433.47 C 359.09 434.49 354.93 435.2 350.68 435.6 C 333.79 437.18 315.43 433.85 298.18 425.83 C 287.67 420.95 277.5 414.5 267.23 406.16 C 267.55 404.99 267.92 403.83 268.33 402.67 C 278.73 411.24 289 417.81 299.61 422.74 C 320.14 432.28 342.2 434.95 361.24 430.41 C 359.36 427.37 357.44 424.35 355.5 421.35 C 352.63 416.9 349.69 412.5 346.67 408.15 C 320.72 406.04 295.26 395.08 275.47 377.96 C 275.43 376.25 275.22 374.56 274.89 372.89 C 293.81 390.33 318.62 401.78 344.12 404.5 C 342.35 401.99 340.56 399.49 338.73 397.01 C 329.19 384.11 319.57 371.26 309.87 358.47 C 295.54 354.75 282.2 347.57 271.23 337.63 C 265.85 332.76 261.08 327.26 257.01 321.29 C 257.31 319.89 257.76 318.51 258.36 317.18 C 262.59 323.79 267.68 329.84 273.51 335.12 C 282.98 343.7 294.28 350.14 306.45 353.97 C 294.38 338.11 282.17 322.36 269.79 306.74 C 270.64 306.41 271.56 306.13 272.49 305.88 Z " fill="rgb(9,78,66)"/></g></svg>