<?xml version="1.0" encoding="UTF-8" standalone="no"?><!-- Generator: Gravit.io --><svg xmlns="http://www.w3.org/2000/svg" xmlns:xlink="http://www.w3.org/1999/xlink" style="isolation:isolate" viewBox="784.764 327.168 175.878 244.652" width="175.878pt" height="244.652pt"><g><linearGradient id="_lgradient_38" x1="0.7869169123874196" y1="1.0319568423701755" x2="0.3467812914995431" y2="-0.1118187210496675" gradientTransform="matrix(175.878,0,0,244.652,784.764,327.168)" gradientUnits="userSpaceOnUse"><stop offset="0%" stop-opacity="1" style="stop-color:rgb(9,78,66)"/><stop offset="100%" stop-opacity="1" style="stop-color:rgb(0,41,46)"/></linearGradient><path d=" M 914.96 403.14 C 911.45 399.13 907.77 395.25 903.93 391.5 C 887.11 375.12 868.28 360.81 848.12 348.79 C 832.86 339.7 817.91 332.43 800.56 328.69 C 799.39 328.44 790 325.91 789.52 327.97 C 780.2 368.38 784.84 411.56 801.13 449.59 C 818.84 490.93 849.7 520.75 886.34 545.68 C 892.78 550.06 899.3 554.33 905.81 558.6 C 912.36 562.89 919.01 567.23 926.43 569.73 C 934.82 572.55 946.15 573.33 953.24 566.82 C 962.13 558.65 959.69 543.77 960.29 532.98 C 960.81 523.7 960.81 514.38 959.9 505.12 C 956.15 466.88 939.96 431.74 914.96 403.14 Z " fill="url(#_lgradient_38)"/><g><clipPath id="_clipPath_sxfwO0SMaF3hm0YdVn5TmgQFtpS81Iuj"><path d=" M 914.96 403.14 C 911.45 399.13 907.77 395.25 903.93 391.5 C 887.11 375.12 868.28 360.81 848.12 348.79 C 832.86 339.7 817.91 332.43 800.56 328.69 C 799.39 328.44 790 325.91 789.52 327.97 C 780.2 368.38 784.84 411.56 801.13 449.59 C 818.84 490.93 849.7 520.75 886.34 545.68 C 892.78 550.06 899.3 554.33 905.81 558.6 C 912.36 562.89 919.01 567.23 926.43 569.73 C 934.82 572.55 946.15 573.33 953.24 566.82 C 962.13 558.65 959.69 543.77 960.29 532.98 C 960.81 523.7 960.81 514.38 959.9 505.12 C 956.15 466.88 939.96 431.74 914.96 403.14 Z " fill="rgb(255,255,255)"/></clipPath><g clip-path="url(#_clipPath_sxfwO0SMaF3hm0YdVn5TmgQFtpS81Iuj)"><g style="opacity:0.2;"><g opacity="0.2"><path d=" M 790.73 328.41 C 850.59 399.76 940.54 521.29 951.82 567.98" fill="none" vector-effect="non-scaling-stroke" stroke-width="2" stroke="rgb(9,78,66)" stroke-linejoin="miter" stroke-linecap="round" stroke-miterlimit="10"/></g><g opacity="0.2"><path d=" M 822.15 367 C 823.7 362.33 823.8 357.18 822.42 352.45 C 821.49 349.28 819.85 346.24 817.7 343.68 C 815.4 340.93 812.5 339.23 809.74 337.03 C 807.51 335.26 805.53 332.93 805.06 330.12" fill="none" vector-effect="non-scaling-stroke" stroke-width="2" stroke="rgb(9,78,66)" stroke-linejoin="miter" stroke-linecap="round" stroke-miterlimit="10"/></g><g opacity="0.2"><path d=" M 835.36 384.48 C 830.36 384.99 825.3 383.46 821.02 380.83 C 816.74 378.2 813.2 374.52 810.14 370.53 C 808.33 368.17 806.66 365.67 804.47 363.65 C 799.27 358.85 791.24 357.4 784.68 360.06" fill="none" vector-effect="non-scaling-stroke" stroke-width="2" stroke="rgb(9,78,66)" stroke-linejoin="miter" stroke-linecap="round" stroke-miterlimit="10"/></g><g opacity="0.2"><path d=" M 846.84 398.54 C 844.14 395.72 840.17 394.45 836.29 394.02 C 832.41 393.59 828.48 393.9 824.58 393.69 C 820.68 393.48 816.66 392.69 813.53 390.36 C 808.27 386.45 806.72 379.26 802.53 374.21 C 797.98 368.73 790.13 366.22 783.24 368.05" fill="none" vector-effect="non-scaling-stroke" stroke-width="2" stroke="rgb(9,78,66)" stroke-linejoin="miter" stroke-linecap="round" stroke-miterlimit="10"/></g><g opacity="0.2"><path d=" M 855.77 411.16 C 852.64 407.33 847.45 405.74 842.51 405.55 C 837.57 405.36 832.66 406.37 827.73 406.76 C 822.8 407.15 817.58 406.87 813.32 404.35 C 807.01 400.63 804.15 392.93 798.4 388.39 C 794.4 385.24 789.08 383.82 784.05 384.58" fill="none" vector-effect="non-scaling-stroke" stroke-width="2" stroke="rgb(9,78,66)" stroke-linejoin="miter" stroke-linecap="round" stroke-miterlimit="10"/></g><g opacity="0.2"><path d=" M 864.9 423.08 C 867.02 416.97 866.13 410.07 863.68 404.09 C 862.34 400.81 860.33 397.78 859.54 394.33 C 858.46 389.62 859.74 384.73 860.51 379.96 C 861.4 374.38 861.09 367.76 856.24 363.95 C 853.64 361.91 850.52 360.73 847.78 358.91 C 842.23 355.23 838.63 348.76 838.45 342.1" fill="none" vector-effect="non-scaling-stroke" stroke-width="2" stroke="rgb(9,78,66)" stroke-linejoin="miter" stroke-linecap="round" stroke-miterlimit="10"/></g><g opacity="0.2"><path d=" M 874.6 436.63 C 879.43 427.03 879.52 415.18 874.85 405.5 C 872.77 401.19 869.74 397.07 869.54 392.29 C 869.39 388.82 870.77 385.5 871.87 382.21 C 872.97 378.92 873.79 375.28 872.57 372.03 C 871.54 369.28 869.19 367.24 866.71 365.67 C 864.24 364.09 861.54 362.85 859.24 361.03 C 855.17 357.81 852.56 352.82 852.24 347.64" fill="none" vector-effect="non-scaling-stroke" stroke-width="2" stroke="rgb(9,78,66)" stroke-linejoin="miter" stroke-linecap="round" stroke-miterlimit="10"/></g><g opacity="0.2"><path d=" M 901.94 475.13 C 908.63 471.79 912.97 465.76 914.68 458.48 C 916.39 451.21 914.7 443.21 910.2 437.24 C 907.01 433.02 902.36 429.47 901.45 424.26 C 900.62 419.54 903.15 414.98 904.6 410.42 C 907.53 401.23 905.94 390.72 900.43 382.8" fill="none" vector-effect="non-scaling-stroke" stroke-width="2" stroke="rgb(9,78,66)" stroke-linejoin="miter" stroke-linecap="round" stroke-miterlimit="10"/></g><g opacity="0.2"><path d=" M 909.68 487.37 C 918.91 482.54 925.7 473.3 927.55 463.04 C 927.81 461.57 927.98 460.09 928.04 458.6 C 928.32 451.95 926.59 445.3 923.28 439.54 C 921.65 436.69 919.41 434.32 917.99 431.32 C 915.94 426.98 914.73 421.84 916.23 417.15 C 918.58 409.76 917.36 401.32 913 394.91" fill="none" vector-effect="non-scaling-stroke" stroke-width="2" stroke="rgb(9,78,66)" stroke-linejoin="miter" stroke-linecap="round" stroke-miterlimit="10"/></g><g opacity="0.2"><path d=" M 919.1 502.33 C 927.32 498.26 933.97 491.09 937.4 482.59 C 940.84 474.08 941.04 464.31 937.96 455.67 C 935.86 449.8 932.33 444.46 930.87 438.4 C 929 430.63 930.88 422.03 935.84 415.76" fill="none" vector-effect="non-scaling-stroke" stroke-width="2" stroke="rgb(9,78,66)" stroke-linejoin="miter" stroke-linecap="round" stroke-miterlimit="10"/></g><g opacity="0.2"><path d=" M 874.62 436.53 C 869.98 438.75 864.61 439.4 859.58 438.33 C 855.4 437.44 851.17 435.43 848.38 432.15 C 845.59 428.87 842.43 425.51 838.17 424.25 C 834.34 423.12 830.26 423.89 826.28 424.27 C 812.7 425.55 798.72 421.9 787.5 414.16" fill="none" vector-effect="non-scaling-stroke" stroke-width="2" stroke="rgb(9,78,66)" stroke-linejoin="miter" stroke-linecap="round" stroke-miterlimit="10"/></g><g opacity="0.2"><path d=" M 885.86 453.23 C 875.84 455.43 865.05 453.91 856.03 449.03 C 850.75 446.17 846.05 442.21 840.5 439.93 C 832.92 436.83 824.46 437.11 816.28 436.79 C 808.1 436.47 799.4 435.26 793.19 429.91" fill="none" vector-effect="non-scaling-stroke" stroke-width="2" stroke="rgb(9,78,66)" stroke-linejoin="miter" stroke-linecap="round" stroke-miterlimit="10"/></g><g opacity="0.2"><path d=" M 904.47 479.63 C 898.76 485.85 889.68 488.77 881.42 487.04 C 873.18 485.31 866 479.39 857.59 479.04 C 853 478.85 848.52 480.37 844.3 482.17 C 840.08 483.97 835.96 486.09 831.51 487.23 C 827.06 488.37 822.13 488.43 818.1 486.23" fill="none" vector-effect="non-scaling-stroke" stroke-width="2" stroke="rgb(9,78,66)" stroke-linejoin="miter" stroke-linecap="round" stroke-miterlimit="10"/></g><g opacity="0.2"><path d=" M 911.24 490.66 C 901.07 499.19 886.44 502.07 873.8 498.01 C 870.31 496.89 866.99 495.29 863.52 494.1 C 860.05 492.91 856.34 492.13 852.72 492.74 C 848.78 493.41 845.31 495.65 841.72 497.41 C 838.13 499.17 833.97 500.52 830.18 499.26" fill="none" vector-effect="non-scaling-stroke" stroke-width="2" stroke="rgb(9,78,66)" stroke-linejoin="miter" stroke-linecap="round" stroke-miterlimit="10"/></g><g opacity="0.2"><path d=" M 938.32 535.3 C 946 531.58 951.15 523.15 950.94 514.62 C 950.85 511.13 949.96 507.71 949.69 504.23 C 948.92 494.31 953.73 484.14 961.87 478.42" fill="none" vector-effect="non-scaling-stroke" stroke-width="2" stroke="rgb(9,78,66)" stroke-linejoin="miter" stroke-linecap="round" stroke-miterlimit="10"/></g><g opacity="0.2"><path d=" M 942.48 543.83 C 952.96 537.15 959.43 524.62 958.8 512.21 C 958.62 508.56 957.87 504.92 958.27 501.29 C 958.67 497.66 960.56 493.88 963.98 492.59" fill="none" vector-effect="non-scaling-stroke" stroke-width="2" stroke="rgb(9,78,66)" stroke-linejoin="miter" stroke-linecap="round" stroke-miterlimit="10"/></g><g opacity="0.2"><path d=" M 934.36 528.31 C 931.87 531.25 929.34 534.19 926.35 536.62 C 923.36 539.05 919.86 540.96 916.05 541.58 C 910.73 542.44 905.34 540.69 900.4 538.52 C 895.46 536.35 890.66 533.71 885.39 532.61 C 880.11 531.51 874.08 532.24 870.27 536.05" fill="none" vector-effect="non-scaling-stroke" stroke-width="2" stroke="rgb(9,78,66)" stroke-linejoin="miter" stroke-linecap="round" stroke-miterlimit="10"/></g><g opacity="0.2"><path d=" M 938.89 537.45 C 936.89 540.85 934.87 544.28 932.19 547.18 C 929.52 550.08 926.1 552.45 922.22 553.19 C 918.79 553.84 915.23 553.18 911.92 552.07 C 908.61 550.96 905.46 549.42 902.17 548.24 C 895.84 545.96 889.02 545.05 882.32 545.57" fill="none" vector-effect="non-scaling-stroke" stroke-width="2" stroke="rgb(9,78,66)" stroke-linejoin="miter" stroke-linecap="round" stroke-miterlimit="10"/></g></g></g></g></g></svg>