<?xml version="1.0" encoding="UTF-8" standalone="no"?><!-- Generator: Gravit.io --><svg xmlns="http://www.w3.org/2000/svg" xmlns:xlink="http://www.w3.org/1999/xlink" style="isolation:isolate" viewBox="667.807 230.042 81.548 125.748" width="81.548pt" height="125.748pt"><linearGradient id="_lgradient_27" x1="1.153510439724224" y1="0.7050166802743467" x2="0.005713128364246645" y2="0.042379695748285595" gradientTransform="matrix(81.548,0,0,125.748,667.807,230.042)" gradientUnits="userSpaceOnUse"><stop offset="0%" stop-opacity="1" style="stop-color:rgb(0,41,46)"/><stop offset="100%" stop-opacity="1" style="stop-color:rgb(9,78,66)"/></linearGradient><path d=" M 669.94 295.76 C 670.97 296.41 672.19 296.62 673.38 296.35 C 673.95 296.22 674.48 295.98 674.95 295.66 C 677.74 298.05 681.52 299.22 685.19 298.73 C 685.56 298.68 685.93 298.61 686.29 298.53 C 689.71 297.76 692.74 295.57 694.57 292.58 C 698.12 293.86 701.89 294.48 705.65 294.29 C 706.31 296.29 706.98 298.29 707.69 300.27 C 710.71 308.74 714.11 316.66 717.86 323.99 C 714.09 325.63 709.84 326.12 705.8 325.34 C 701.92 324.59 698.29 322.7 695.45 319.97 C 695.48 319.92 695.53 319.88 695.56 319.83 C 696.25 318.74 696.47 317.45 696.19 316.19 C 695.91 314.93 695.15 313.86 694.06 313.18 C 691.81 311.76 688.83 312.44 687.41 314.68 C 686.72 315.77 686.5 317.06 686.78 318.32 C 687.06 319.58 687.82 320.65 688.91 321.33 C 690.03 322.04 691.34 322.23 692.55 321.95 C 693.01 321.85 693.44 321.66 693.86 321.42 C 697.02 324.49 701.07 326.63 705.4 327.46 C 708.48 328.05 711.67 327.99 714.71 327.3 C 716.14 326.98 717.54 326.51 718.88 325.91 C 724.94 337.38 731.89 347.38 739.68 355.79 L 741.27 354.32 C 735.83 348.45 730.81 341.79 726.22 334.38 C 733.74 331.17 740.04 325.26 743.68 317.93 C 747.43 310.38 748.27 301.49 746.04 293.36 C 747.06 293.01 747.98 292.35 748.6 291.37 C 750.04 289.09 749.36 286.06 747.07 284.61 C 744.79 283.17 741.76 283.85 740.31 286.14 C 738.87 288.42 739.55 291.45 741.84 292.9 C 742.47 293.3 743.16 293.52 743.86 293.6 C 746.06 301.31 745.31 309.78 741.74 316.97 C 740.65 319.17 739.3 321.22 737.74 323.11 C 738.47 319.57 738.31 315.87 737.26 312.39 C 735.85 307.76 732.89 303.67 728.93 300.9 L 728.53 301.47 C 728.77 300.76 728.82 299.99 728.65 299.24 C 728.4 298.15 727.74 297.21 726.8 296.62 C 724.9 295.42 722.2 296.03 721.01 297.93 C 720.41 298.88 720.22 300 720.46 301.1 C 720.71 302.19 721.37 303.13 722.31 303.72 C 723.26 304.32 724.38 304.51 725.48 304.27 C 726.42 304.06 727.22 303.53 727.81 302.79 C 731.31 305.29 733.93 308.92 735.18 313.04 C 736.45 317.21 736.27 321.75 734.69 325.81 L 735.09 325.97 C 732.19 328.75 728.78 330.99 725.06 332.54 C 719.2 322.77 714.06 311.76 709.71 299.56 C 709 297.56 708.32 295.54 707.65 293.52 C 713.65 291.38 718.88 287.1 722.09 281.59 C 725.22 276.21 726.38 269.72 725.4 263.58 C 725.49 263.57 725.58 263.57 725.67 263.55 C 726.72 263.31 727.67 262.68 728.29 261.7 C 729.52 259.75 728.94 257.16 726.99 255.93 C 725.04 254.7 722.45 255.28 721.22 257.23 C 719.99 259.18 720.57 261.77 722.52 263 C 722.73 263.13 722.95 263.23 723.17 263.32 C 724.23 269.03 723.24 275.11 720.39 280.18 C 720.41 279.1 720.29 278.02 720.04 276.97 C 719.43 274.35 718 271.96 716.02 270.16 C 716.17 269.85 716.29 269.52 716.35 269.17 C 716.54 268.11 716.3 267.04 715.69 266.16 C 714.42 264.34 711.91 263.89 710.09 265.16 C 708.27 266.43 707.82 268.94 709.09 270.76 C 710.05 272.14 711.73 272.73 713.29 272.38 C 713.75 272.28 714.2 272.08 714.62 271.8 C 716.26 273.31 717.43 275.29 717.94 277.46 C 718.49 279.82 718.25 282.32 717.27 284.53 C 714.48 287.64 710.92 290.05 706.99 291.46 C 702.42 277.14 699.02 262.37 695.9 247.8 C 698.41 247 700.69 245.47 702.35 243.42 C 703.2 243.86 704.14 243.98 705.02 243.79 C 706 243.57 706.89 242.98 707.47 242.06 C 708.62 240.23 708.07 237.81 706.25 236.66 C 704.42 235.51 702 236.05 700.85 237.88 C 699.98 239.25 700.08 240.97 700.96 242.22 L 700.71 242.02 C 699.35 243.7 697.5 244.98 695.45 245.67 C 694.88 243 694.32 240.34 693.76 237.69 L 693.31 237.79 C 694.09 237.49 694.78 236.96 695.26 236.2 C 696.44 234.33 695.88 231.84 694.01 230.66 C 692.14 229.48 689.65 230.04 688.47 231.91 C 687.29 233.78 687.85 236.27 689.72 237.45 C 690.42 237.89 691.2 238.09 691.97 238.07 L 691.65 238.14 C 692.8 243.62 693.97 249.15 695.19 254.7 C 689.13 253.93 683.39 250.52 679.82 245.57 C 680.12 245.29 680.4 244.99 680.63 244.63 C 681.31 243.56 681.53 242.28 681.25 241.04 C 680.97 239.8 680.22 238.75 679.15 238.07 C 676.93 236.67 673.99 237.34 672.59 239.55 C 671.91 240.62 671.69 241.9 671.97 243.14 C 672.25 244.38 673 245.43 674.07 246.11 C 675.18 246.81 676.47 246.99 677.66 246.72 C 677.75 246.7 677.84 246.66 677.93 246.63 C 681.99 252.38 688.68 256.28 695.69 256.93 C 698.33 268.73 701.26 280.58 704.95 292.16 C 695.51 292.42 686.05 287.25 681.15 279.17 C 681.54 278.85 681.89 278.48 682.16 278.05 C 682.85 276.96 683.07 275.68 682.78 274.43 C 682.5 273.18 681.74 272.11 680.66 271.43 C 678.42 270.01 675.45 270.69 674.03 272.93 C 673.34 274.02 673.12 275.3 673.41 276.55 C 673.69 277.8 674.45 278.87 675.53 279.55 C 676.62 280.24 677.9 280.46 679.15 280.17 C 679.17 280.17 679.19 280.16 679.21 280.15 C 682.28 285.27 687.04 289.33 692.52 291.77 C 690.8 294.34 687.93 296.18 684.88 296.59 C 681.88 296.99 678.68 296 676.36 294.04 C 677.47 291.95 676.82 289.33 674.79 288.05 C 673.76 287.4 672.54 287.19 671.35 287.46 C 670.16 287.73 669.15 288.44 668.5 289.48 C 667.17 291.6 667.81 294.42 669.94 295.76 Z  M 680.69 274.9 C 680.85 275.59 680.72 276.29 680.35 276.89 C 679.6 278.08 677.9 278.47 676.71 277.71 C 676.11 277.33 675.7 276.75 675.54 276.06 C 675.38 275.37 675.51 274.67 675.88 274.07 C 676.66 272.84 678.29 272.47 679.52 273.25 C 680.12 273.63 680.53 274.21 680.69 274.9 Z  M 679.14 241.51 C 679.29 242.18 679.17 242.88 678.8 243.46 C 678.04 244.67 676.44 245.03 675.23 244.27 C 674.65 243.9 674.24 243.33 674.09 242.65 C 673.94 241.98 674.06 241.28 674.43 240.7 C 674.81 240.1 675.4 239.71 676.05 239.56 C 676.7 239.41 677.4 239.51 678 239.89 C 678.58 240.26 678.99 240.83 679.14 241.51 Z  M 693.44 235.04 C 692.89 235.9 691.75 236.16 690.88 235.62 C 690.02 235.07 689.76 233.93 690.3 233.06 C 690.57 232.63 691 232.35 691.46 232.24 C 691.92 232.13 692.43 232.21 692.86 232.48 C 693.72 233.03 693.98 234.18 693.44 235.04 Z  M 702.69 239.03 C 703.21 238.22 704.29 237.97 705.11 238.48 C 705.93 239 706.17 240.08 705.66 240.9 C 705.14 241.71 704.06 241.96 703.24 241.45 C 702.42 240.93 702.18 239.85 702.69 239.03 Z  M 714.24 268.78 C 714.15 269.27 713.88 269.7 713.47 269.98 C 712.63 270.56 711.47 270.36 710.88 269.52 C 710.29 268.68 710.5 267.52 711.34 266.93 C 711.54 266.79 711.76 266.69 711.99 266.64 C 712.71 266.48 713.48 266.75 713.93 267.39 C 714.22 267.79 714.33 268.29 714.24 268.78 Z  M 723.7 261.17 C 722.76 260.58 722.48 259.33 723.07 258.39 C 723.66 257.45 724.91 257.17 725.85 257.76 C 726.79 258.35 727.07 259.6 726.48 260.54 C 725.89 261.48 724.64 261.76 723.7 261.17 Z  M 726.54 299.73 C 726.66 300.26 726.57 300.8 726.28 301.26 C 725.7 302.18 724.39 302.47 723.47 301.89 C 723.01 301.6 722.69 301.15 722.57 300.62 C 722.45 300.09 722.54 299.55 722.83 299.09 C 723.12 298.63 723.57 298.31 724.1 298.19 C 724.63 298.07 725.17 298.16 725.63 298.45 C 726.1 298.75 726.42 299.2 726.54 299.73 Z  M 746.77 290.24 C 745.97 291.51 744.28 291.89 743 291.09 C 741.73 290.29 741.35 288.59 742.15 287.32 C 742.95 286.05 744.64 285.67 745.92 286.47 C 747.19 287.27 747.58 288.97 746.77 290.24 Z  M 694.07 316.69 C 694.23 317.38 694.1 318.09 693.72 318.69 C 692.94 319.93 691.3 320.3 690.06 319.52 C 689.46 319.14 689.04 318.55 688.89 317.86 C 688.73 317.17 688.86 316.46 689.23 315.86 C 690.01 314.62 691.65 314.25 692.89 315.03 C 693.5 315.4 693.92 315.99 694.07 316.69 Z  M 670.35 290.63 C 670.69 290.09 671.22 289.71 671.85 289.57 C 672.47 289.43 673.12 289.54 673.66 289.88 C 674.78 290.59 675.11 292.07 674.41 293.19 C 673.73 294.27 672.19 294.62 671.1 293.94 C 669.98 293.23 669.64 291.74 670.35 290.63 Z " fill="url(#_lgradient_27)"/></svg>