<?xml version="1.0" encoding="UTF-8" standalone="no"?><!-- Generator: Gravit.io --><svg xmlns="http://www.w3.org/2000/svg" xmlns:xlink="http://www.w3.org/1999/xlink" style="isolation:isolate" viewBox="421.608 435.597 81.559 125.752" width="81.559pt" height="125.752pt"><linearGradient id="_lgradient_19" x1="0.007673596450925579" y1="0.4405971431210962" x2="0.9563091984732319" y2="0.6549494977301967" gradientTransform="matrix(81.559,0,0,125.752,421.608,435.597)" gradientUnits="userSpaceOnUse"><stop offset="0%" stop-opacity="1" style="stop-color:rgb(42,149,142)"/><stop offset="100%" stop-opacity="1" style="stop-color:rgb(21,150,91)"/></linearGradient><path d=" M 502.46 495.04 C 501.81 494.01 500.8 493.29 499.61 493.02 C 498.42 492.75 497.2 492.96 496.17 493.61 C 494.14 494.89 493.49 497.52 494.6 499.6 C 492.28 501.56 489.09 502.55 486.08 502.15 C 483.03 501.74 480.16 499.9 478.44 497.33 C 483.92 494.89 488.68 490.83 491.75 485.71 C 491.77 485.71 491.79 485.72 491.81 485.73 C 493.06 486.01 494.35 485.79 495.43 485.11 C 496.52 484.42 497.27 483.36 497.55 482.11 C 497.83 480.86 497.61 479.57 496.93 478.49 C 495.52 476.25 492.54 475.58 490.3 476.99 C 489.21 477.68 488.46 478.74 488.18 479.99 C 487.9 481.24 488.12 482.53 488.8 483.61 C 489.08 484.05 489.43 484.41 489.81 484.73 C 484.91 492.8 475.46 497.97 466.01 497.72 C 469.7 486.14 472.64 474.29 475.27 462.49 C 482.28 461.84 488.97 457.94 493.03 452.19 C 493.12 452.22 493.21 452.26 493.3 452.28 C 494.49 452.55 495.78 452.36 496.89 451.67 C 497.96 450.99 498.71 449.94 498.99 448.7 C 499.27 447.46 499.05 446.19 498.37 445.11 C 496.97 442.89 494.03 442.23 491.81 443.63 C 490.74 444.31 489.99 445.36 489.71 446.6 C 489.43 447.84 489.65 449.11 490.33 450.19 C 490.56 450.55 490.84 450.86 491.14 451.13 C 487.56 456.09 481.83 459.49 475.77 460.26 C 476.99 454.71 478.16 449.18 479.31 443.7 L 478.99 443.63 C 479.76 443.65 480.55 443.45 481.24 443.01 C 483.11 441.83 483.68 439.34 482.49 437.47 C 481.31 435.6 478.82 435.03 476.95 436.22 C 475.08 437.4 474.51 439.89 475.7 441.76 C 476.18 442.52 476.87 443.05 477.65 443.35 L 477.2 443.25 C 476.64 445.9 476.08 448.56 475.51 451.23 C 473.46 450.54 471.61 449.26 470.25 447.58 L 470 447.78 C 470.88 446.52 470.97 444.81 470.11 443.44 C 468.96 441.61 466.53 441.07 464.71 442.22 C 462.88 443.37 462.34 445.8 463.49 447.62 C 464.07 448.53 464.96 449.13 465.94 449.35 C 466.82 449.55 467.76 449.43 468.61 448.98 C 470.27 451.02 472.55 452.56 475.06 453.36 C 471.94 467.93 468.53 482.7 463.97 497.02 C 460.04 495.61 456.48 493.2 453.69 490.09 C 452.71 487.88 452.47 485.37 453.02 483.02 C 453.53 480.85 454.7 478.86 456.34 477.36 C 456.76 477.64 457.21 477.83 457.67 477.94 C 459.22 478.29 460.9 477.7 461.87 476.32 C 463.14 474.5 462.69 471.99 460.87 470.72 C 459.05 469.45 456.54 469.9 455.27 471.72 C 454.66 472.6 454.42 473.67 454.61 474.73 C 454.67 475.08 454.79 475.41 454.94 475.72 C 452.95 477.53 451.53 479.92 450.92 482.53 C 450.67 483.58 450.56 484.66 450.57 485.74 C 447.72 480.67 446.73 474.6 447.79 468.88 C 448.01 468.79 448.23 468.69 448.44 468.56 C 450.39 467.33 450.98 464.74 449.74 462.79 C 448.51 460.84 445.92 460.25 443.97 461.49 C 442.02 462.72 441.43 465.31 442.67 467.26 C 443.29 468.24 444.24 468.87 445.29 469.11 C 445.38 469.13 445.47 469.13 445.56 469.14 C 444.58 475.29 445.74 481.77 448.87 487.15 C 452.07 492.66 457.31 496.94 463.31 499.08 C 462.65 501.1 461.97 503.12 461.25 505.12 C 456.9 517.32 451.77 528.33 445.9 538.1 C 442.18 536.56 438.78 534.31 435.87 531.53 L 436.27 531.37 C 434.69 527.31 434.52 522.77 435.78 518.6 C 437.03 514.48 439.65 510.85 443.15 508.35 C 443.74 509.09 444.55 509.62 445.48 509.83 C 446.57 510.08 447.7 509.88 448.65 509.28 C 449.6 508.68 450.26 507.75 450.5 506.66 C 450.75 505.57 450.55 504.44 449.95 503.49 C 448.75 501.59 446.05 500.98 444.16 502.18 C 443.21 502.78 442.55 503.71 442.31 504.8 C 442.14 505.55 442.19 506.32 442.43 507.03 L 442.03 506.46 C 438.06 509.24 435.1 513.32 433.7 517.95 C 432.65 521.43 432.49 525.13 433.22 528.67 C 431.66 526.78 430.31 524.73 429.22 522.53 C 425.65 515.35 424.9 506.87 427.1 499.16 C 427.8 499.08 428.48 498.85 429.12 498.46 C 431.4 497.02 432.09 493.99 430.65 491.7 C 429.21 489.42 426.18 488.73 423.89 490.17 C 421.61 491.61 420.92 494.64 422.36 496.93 C 422.98 497.91 423.9 498.58 424.92 498.92 C 422.7 507.04 423.53 515.94 427.28 523.49 C 430.92 530.82 437.22 536.73 444.74 539.94 C 440.15 547.35 435.13 554.01 429.69 559.88 L 431.28 561.35 C 439.07 552.94 446.02 542.94 452.08 531.47 C 453.42 532.06 454.82 532.53 456.25 532.86 C 459.3 533.55 462.48 533.61 465.56 533.02 C 469.9 532.19 473.94 530.05 477.1 526.98 C 477.51 527.21 477.95 527.4 478.41 527.51 C 479.61 527.78 480.92 527.6 482.05 526.89 C 483.14 526.2 483.9 525.13 484.18 523.88 C 484.46 522.62 484.24 521.33 483.55 520.24 C 482.13 517.99 479.15 517.32 476.9 518.74 C 475.81 519.43 475.05 520.5 474.77 521.75 C 474.49 523.01 474.71 524.3 475.4 525.39 C 475.43 525.44 475.47 525.48 475.51 525.53 C 472.66 528.26 469.04 530.16 465.16 530.9 C 461.12 531.68 456.87 531.19 453.1 529.55 C 456.85 522.22 460.25 514.3 463.27 505.83 C 463.98 503.85 464.65 501.85 465.31 499.85 C 469.07 500.04 472.84 499.43 476.39 498.14 C 478.22 501.13 481.25 503.31 484.67 504.09 C 485.03 504.17 485.4 504.24 485.77 504.29 C 489.44 504.78 493.22 503.62 496.01 501.22 C 496.48 501.54 497.01 501.78 497.58 501.91 C 498.77 502.18 499.99 501.97 501.02 501.32 C 503.17 499.99 503.81 497.17 502.46 495.04 Z  M 491.46 478.82 C 492.69 478.04 494.32 478.41 495.1 479.64 C 495.48 480.24 495.6 480.94 495.44 481.63 C 495.28 482.32 494.87 482.9 494.27 483.28 C 493.08 484.03 491.38 483.65 490.63 482.46 C 490.25 481.86 490.13 481.16 490.29 480.47 C 490.45 479.78 490.86 479.2 491.46 478.82 Z  M 492.98 445.46 C 493.58 445.08 494.29 444.98 494.93 445.13 C 495.58 445.28 496.17 445.67 496.55 446.27 C 496.92 446.85 497.04 447.55 496.89 448.22 C 496.74 448.89 496.33 449.47 495.75 449.84 C 494.54 450.6 492.94 450.24 492.18 449.03 C 491.81 448.45 491.69 447.75 491.84 447.08 C 491.99 446.4 492.39 445.83 492.98 445.46 Z  M 478.12 438.05 C 478.55 437.78 479.05 437.71 479.52 437.81 C 479.98 437.91 480.41 438.2 480.68 438.63 C 481.23 439.49 480.97 440.64 480.1 441.19 C 479.24 441.73 478.09 441.48 477.54 440.61 C 476.99 439.75 477.25 438.6 478.12 438.05 Z  M 467.74 447.02 C 466.92 447.53 465.84 447.29 465.32 446.47 C 464.8 445.65 465.05 444.57 465.87 444.05 C 466.69 443.53 467.77 443.78 468.29 444.6 C 468.8 445.42 468.56 446.5 467.74 447.02 Z  M 457.04 472.96 C 457.48 472.32 458.26 472.05 458.98 472.21 C 459.21 472.26 459.43 472.36 459.63 472.5 C 460.47 473.09 460.68 474.25 460.09 475.09 C 459.5 475.93 458.34 476.14 457.5 475.55 C 457.09 475.27 456.82 474.84 456.73 474.35 C 456.65 473.86 456.76 473.36 457.04 472.96 Z  M 444.49 466.11 C 443.9 465.17 444.18 463.92 445.12 463.33 C 446.06 462.74 447.31 463.02 447.9 463.96 C 448.49 464.9 448.21 466.15 447.27 466.74 C 446.34 467.33 445.09 467.05 444.49 466.11 Z  M 445.33 504.03 C 445.79 503.74 446.33 503.65 446.86 503.77 C 447.39 503.89 447.84 504.21 448.13 504.67 C 448.42 505.13 448.51 505.67 448.39 506.2 C 448.27 506.73 447.95 507.18 447.49 507.47 C 446.57 508.05 445.27 507.75 444.68 506.84 C 444.39 506.38 444.3 505.84 444.42 505.31 C 444.54 504.78 444.88 504.32 445.33 504.03 Z  M 425.06 492.04 C 426.33 491.24 428.02 491.62 428.83 492.89 C 429.63 494.16 429.25 495.85 427.98 496.66 C 426.71 497.46 425.02 497.08 424.21 495.81 C 423.4 494.53 423.78 492.84 425.06 492.04 Z  M 478.08 520.59 C 479.32 519.81 480.96 520.18 481.74 521.42 C 482.12 522.02 482.24 522.73 482.08 523.42 C 481.92 524.11 481.51 524.7 480.91 525.08 C 479.67 525.86 478.03 525.49 477.25 524.25 C 476.87 523.65 476.75 522.94 476.9 522.25 C 477.06 521.56 477.48 520.97 478.08 520.59 Z  M 499.88 499.5 C 498.8 500.18 497.26 499.84 496.57 498.75 C 495.86 497.63 496.2 496.15 497.32 495.44 C 497.86 495.1 498.5 494.99 499.13 495.13 C 499.75 495.27 500.29 495.65 500.63 496.19 C 501.34 497.31 501 498.79 499.88 499.5 Z " fill="url(#_lgradient_19)"/></svg>