<?xml version="1.0" encoding="utf-8"?>
<!-- Generator: Adobe Illustrator 26.2.1, SVG Export Plug-In . SVG Version: 6.00 Build 0)  -->
<svg version="1.1" id="Layer_1" xmlns="http://www.w3.org/2000/svg" xmlns:xlink="http://www.w3.org/1999/xlink" x="0px" y="0px"
	 viewBox="0 0 645 185" style="enable-background:new 0 0 645 185;" xml:space="preserve">
<style type="text/css">
	.st0{fill:#FFFFFF;}
	.st1{fill:#EA0029;}
	.st2{fill:#AA182C;}
</style>
<path class="st0" d="M252.6,32.1c-4.7-5.3-11.6-7.9-20.7-7.9H212h-6.1h-3.2h-1.4c-4.6,0.2-8.2,4-8.2,8.6s3.7,8.4,8.2,8.6h4.6h0.8
	h8.3h11.8h4.9c3.3,0,5.7,1,7.4,2.9c1.6,2,2.5,4.7,2.5,8.2c0,3.3-0.9,5.9-2.7,7.8c-1.8,2-4.4,2.9-7.7,2.9h-2.9h-2h-18.4h-2.6H205l0,0
	c-4.3,0.1-8.1,2.5-10.1,6c-0.9,1.6-1.6,3.3-1.7,5.2l0,0v0.9v3.1v3.1v0.9V85v0.6V92c0,4.8,3.9,8.8,8.8,8.8c4.8,0,8.8-3.9,8.8-8.8v-7
	v-4.3v-0.1h5.5c-0.1,0-0.2,0-0.3,0.1h0.6h11.9v-0.1h3.1c5.7,0,10.7-1.2,14.9-3.6c4.3-2.4,7.6-5.7,9.9-10c2.3-4.2,3.5-9.1,3.5-14.5
	C259.7,44.2,257.3,37.3,252.6,32.1"/>
<path class="st0" d="M616.9,81.9l-14.9-17l0,0l-3.4-3.9c-0.1-0.2-0.3-0.3-0.5-0.4l1.9-1.9L616.3,43l0,0l3.7-3.6
	c3.5-3.4,3.6-8.9,0.2-12.4c-3.4-3.5-8.9-3.6-12.4-0.2l-3.9,3.8l-16.3,15.7l0,0l-9.4,9.3v-6.2v-3.1v-3.1v-0.9V40v-0.6V33
	c0-4.8-3.9-8.8-8.8-8.8c-4.8,0-8.8,3.9-8.8,8.8v7v4.3v0.1v2v4v21.7v5.8v1.2v4.3v0.1v2v4V98c0,1.5,1.2,2.7,2.7,2.7h2.6
	c4.5,0,8.3-2.4,10.4-6c0.9-1.6,1.6-3.3,1.7-5.2l0,0v-0.9v-3.1v-3.1v-0.9v-1.9c0.4-0.1,0.8-0.4,1.3-0.9l6.1-6l3.4,3.9l14.9,17l0,0
	l3.4,3.9c3.2,3.6,8.7,4,12.3,0.8s4-8.7,0.8-12.3L616.9,81.9z"/>
<path class="st0" d="M470.8,82.7c-1.5-1.8-3.5-2.7-6-2.7c-1.3,0-3.2,0.5-5.5,1.5c-2.2,0.9-4.1,1.6-5.7,2.1c-1.5,0.5-3.6,0.7-6.2,0.7
	c-6.2,0-11.1-2.1-14.5-6.1c-3.5-4.1-5.3-9.3-5.3-15.5c0-3.1,0.4-6,1.3-8.7s2.1-5.1,3.8-7.1c1.6-2,3.7-3.6,6.1-4.7
	c2.5-1.1,5.3-1.7,8.5-1.7c2.6,0,4.6,0.2,6.1,0.6c1.5,0.4,3.3,1,5.5,1.8s4,1.2,5.2,1.2c2.2,0,4-0.8,5.5-2.3s2.2-3.3,2.2-5.4
	c0-0.2,0-0.4-0.1-0.6v-0.1c0-2.2-0.8-4.1-2.5-5.6c-1.6-1.5-3.7-2.7-6.1-3.6s-5.1-1.5-7.9-1.9c-2.9-0.4-5.4-0.6-7.8-0.6
	c-5.7,0-10.9,1-15.6,2.9s-8.8,4.6-12.3,8.1c-2.6,2.6-4.8,5.6-6.5,8.9c-0.6,1.1-1.1,2.2-1.6,3.4c-1.9,4.6-2.8,9.7-2.8,15
	s0.9,10.3,2.8,14.9c0.3,0.7,0.6,1.3,0.9,2c0.4,0.8,0.7,1.7,1.2,2.5l0,0v0.1c3.3,5.9,7.9,10.5,13.8,13.9s12.6,5.1,20,5.1
	c3.4,0,7.1-0.4,11-1.1s7.3-2,10.1-3.9c2.8-1.8,4.2-4.3,4.2-7.3c0-0.1,0-0.2,0-0.2c0-0.1,0.1-0.3,0.1-0.4
	C472.9,86.1,472.2,84.4,470.8,82.7"/>
<path class="st0" d="M544.1,24.3h-30.2H511h-9.5h-3.7h-1.6c-4.6,0-8.4,3.8-8.4,8.4c0,0.1,0,0.1,0,0.2l0,0V92l0,0c0,0.1,0,0.1,0,0.2
	c0,4.6,3.8,8.4,8.4,8.4h5.3h9.5h2.9H535c6.4,0,11.7-5.2,11.7-11.7v-2.5c0-1.4-1.2-2.6-2.6-2.6h-30.2H511h-6V71.2h5.8h0.9h2.9h6
	c4.5,0,8.2-3.7,8.2-8.2s-3.7-8.2-8.2-8.2h-15.5V41h6h2.9h21c6.4,0,11.7-5.2,11.7-11.7v-2.5C546.7,25.4,545.5,24.3,544.1,24.3"/>
<path class="st0" d="M403.8,26.8l-2.4-1.3c-6-3.2-13.6-0.9-16.8,5.1L374,50.5l-4.4,8.2l0,0l-4.4-8.2l-10.6-19.9
	c-3.2-6-10.7-8.3-16.8-5.1l-2.4,1.3c-1.3,0.7-1.8,2.4-1.1,3.7l15.1,28.4l5.5,10.3l6,11.2v11.7c0,4.8,3.9,8.7,8.7,8.8l0,0
	c4.8-0.1,8.7-3.9,8.7-8.8V80.4l6-11.2l5.5-10.3l15.1-28.4C405.6,29.2,405.1,27.5,403.8,26.8"/>
<path class="st0" d="M344.2,94.2l-15.5-29l-5.6-10.5L312,33.9l-2.4-4.4c-0.8-1.8-2.1-3.4-4-4.4c-1.4-0.7-2.9-1-4.3-1
	c-1.5,0-2.9,0.3-4.3,1c-1.9,1-3.2,2.6-4,4.4l-2.4,4.4l-11.1,20.8l-5.6,10.5l-15.5,29c-0.7,1.4-0.2,3.1,1.2,3.8l2.4,1.3
	c6.2,3.3,13.8,1,17.1-5.2L290,73.8l8.9-16.7l0.2-0.4l2.2-4.2l2.2,4.2l0.2,0.4l8.9,16.7l10.8,20.3c3.3,6.2,11,8.5,17.1,5.2l2.4-1.3
	C344.4,97.3,344.9,95.6,344.2,94.2"/>
<path class="st1" d="M52.1,84.1c-3.9,0-7.7,1.3-10.9,3.4c-5,3.2-8.7,8.5-9.7,14.4l0,0l-0.1,0.5l0,0l-5.9,39.9
	c-0.7,4.8-2.7,18.3-2.7,18.3H41c3.7,0,7.3-1.1,10.4-3c5.4-3.3,9.6-8.9,10.5-15.3l1.6-11.4l0.3-1.7l1.2-8.4l0.8-5.4l0.2-1.8
	c0.1-0.4,0.2-0.9,0.3-1.3c3-14.7,16-26.5,30.5-28.1L52.1,84.1z"/>
<path class="st1" d="M89.2,24c-9.8,0-19.1,8.2-20.5,18.3C68.2,46,66,60.6,66,60.6h18h11.3H97h13.6h1.7c0.4,0,0.9,0,1.3,0.1
	c2.8,0.2,5.4,0.8,7.8,1.7c11,4.1,17.8,15.3,16,28.4c-2,15.4-15.2,28.1-30.3,29.9h2.4c0.4,0,0.8-0.1,1.2-0.1c0.3,0,0.7-0.1,1-0.2
	c23.3-3.8,43.5-23.8,46.7-47.8l0,0c3.5-26.7-15.1-48.5-41.2-48.5l0,0c-0.9,0-1.8,0-2.6,0.1c-0.7-0.1-1.3-0.1-2-0.1H89.2V24z"/>
<path class="st2" d="M125.6,72.3c-0.5,3.3-2.3,6.4-4.8,8.5c-2,1.8-4.6,2.9-7.2,3.2c-0.4,0.1-0.9,0.1-1.3,0.1h-1.7H96.7
	c-14.5,1.6-27.5,13.4-30.5,28.1c-0.1,0.4-0.2,0.9-0.3,1.3l-0.2,1.7l-0.8,5.4h42.3c15.1-1.8,28.3-14.5,30.3-29.9
	c1.7-13.1-5-24.3-16-28.4C124.5,64.4,126.2,68.1,125.6,72.3"/>
<g>
	<g>
		<path class="st0" d="M380.4,117.2h6v31.1h6v5.2h-6.2c-3.2,0-5.8-2.6-5.8-5.8V117.2z"/>
		<path class="st0" d="M456.4,117.2h6v7.9h6v5.2h-6v18.1h6v5.2h-6.2c-3.2,0-5.8-2.6-5.8-5.8V117.2L456.4,117.2z"/>
		<path class="st0" d="M485.3,125.1v5.3h-6v23.2h-6v-22.7c0-3.2,2.6-5.8,5.8-5.8C479.1,125.1,485.3,125.1,485.3,125.1z"/>
		<path class="st0" d="M486.7,139.4c0-8.7,6.4-15.1,15.1-15.1s15.2,6.4,15.2,15.1s-6.5,15.1-15.2,15.1
			C493.1,154.5,486.7,148,486.7,139.4z M511,139.3c0-5.7-3.8-9.8-9.1-9.8c-5.3,0-9.1,4.1-9.1,9.8s3.8,9.8,9.1,9.8S511,145,511,139.3
			z"/>
		<path class="st0" d="M611,124.2c7,0,11.9,4.6,11.9,11.4v18h-6v-18.1c0-3.5-2.5-6-5.9-6c-3.5,0-6,2.5-6,6v18.1h-6v-18.2
			C599.1,128.7,604,124.2,611,124.2z"/>
		<polygon class="st0" points="582.5,125.1 582.5,130.4 587,130.4 587,153.6 593,153.6 593,125.1 		"/>
		<path class="st0" d="M543.1,145.3c-1.6,2.2-4.2,3.8-7.7,3.8c-5.4,0-9.2-4.1-9.2-9.8s3.8-9.8,9.2-9.8c3.6,0,6.1,1.6,7.7,3.9
			l3.6-3.6c-2.7-3.5-6.6-5.5-11.4-5.5c-8.7,0-15.2,6.4-15.2,15.1c0,8.7,6.4,15.1,15.2,15.1c4.9,0,9-2.4,11.3-5.6L543.1,145.3z"/>
		<path class="st0" d="M448.8,145.3c-1.6,2.2-4.2,3.8-7.7,3.8c-5.4,0-9.2-4.1-9.2-9.8s3.8-9.8,9.2-9.8c3.6,0,6.1,1.6,7.7,3.9
			l3.6-3.6c-2.7-3.5-6.6-5.5-11.4-5.5c-8.7,0-15.2,6.4-15.2,15.1c0,8.7,6.4,15.1,15.2,15.1c4.9,0,9-2.4,11.3-5.6L448.8,145.3z"/>
		<path class="st0" d="M370.1,145.5c-2,2.5-4.5,3.7-8,3.7c-4.9,0-8.2-2.9-9-7.6h22.7c0.1-0.6,0.2-1.5,0.2-2.2
			c0-8.7-5.7-15.1-14-15.1c-8.7,0-15.1,6.4-15.1,15.1s6.4,15.1,15.2,15.1c4.8,0,8.7-1.8,11.6-5.5L370.1,145.5z M361.8,129.5
			c4.6,0,7.8,3.2,8.2,7.7h-17C353.9,132.5,357.1,129.5,361.8,129.5z"/>
		<path class="st0" d="M416.1,145.5c-2,2.5-4.5,3.7-8,3.7c-4.9,0-8.2-2.9-9-7.6h22.7c0.1-0.6,0.2-1.5,0.2-2.2
			c0-8.7-5.7-15.1-14-15.1c-8.7,0-15.1,6.4-15.1,15.1s6.4,15.1,15.2,15.1c4.8,0,8.7-1.8,11.6-5.5L416.1,145.5z M407.8,129.5
			c4.6,0,7.8,3.2,8.2,7.7h-17C399.9,132.5,403.1,129.5,407.8,129.5z"/>
	</g>
	<path class="st0" d="M577.5,131.8l-4.4,4.4c0.3,1,0.5,2,0.5,3.1c0,5.5-4.1,9.9-9.1,9.9c-1.6,0-3.1-0.5-4.5-1.3
		c-0.7-0.4-0.9-1.4-0.3-2.1l19-19v-1.9h-1.9l-1.8,1.8c-0.5,0.5-1.2,0.5-1.7,0.1c-2.7-1.9-6-3-9.5-2.8c-7.8,0.3-14.1,6.7-14.5,14.5
		c-0.2,3.6,0.9,6.9,2.8,9.5c0.4,0.5,0.3,1.2-0.1,1.7l-1.8,1.8v1.9h1.9l1.8-1.8c0.5-0.5,1.2-0.5,1.7-0.1c2.7,1.9,6,3,9.5,2.8
		c7.8-0.3,14-6.6,14.4-14.3C579.7,137.1,578.9,134.2,577.5,131.8z M555.3,139.4c0-5.5,4.1-9.9,9.1-9.9c1.6,0,3.1,0.5,4.5,1.3
		c0.7,0.4,0.9,1.4,0.3,2l-11,11c-0.7,0.7-1.8,0.4-2.1-0.4C555.5,142.1,555.3,140.8,555.3,139.4z"/>
</g>
</svg>
